<?xml version="1.0" encoding="utf-8"?>
<!-- Generator: Adobe Illustrator 24.3.0, SVG Export Plug-In . SVG Version: 6.00 Build 0)  -->
<svg version="1.1" id="Layer_1" xmlns="http://www.w3.org/2000/svg" xmlns:xlink="http://www.w3.org/1999/xlink" x="0px" y="0px"
	 viewBox="0 0 300 300" style="enable-background:new 0 0 300 300;" xml:space="preserve">
<style type="text/css">
	.st0{fill:#F26B21;}
</style>
<g>
	<path class="st0" d="M284.7,110V66.4c0-22.5-19.9-40.9-44.5-41.5l0,0v10l0,0v10l0,0v5.7c0,14.6-11.9,26.5-26.5,26.5
		c-14.6,0-26.5-11.9-26.5-26.5V24.9H112v25.8c0,14.6-11.9,26.5-26.5,26.5S59,65.3,59,50.6V45l0,0V35l0,0V25l0,0
		c-24.4,1-43.7,19.2-43.7,41.4v181.9c0,25.3,20.5,45.8,45.8,45.8h177.6c25.3-0.1,45.8-20.5,45.8-45.8V110z M264.7,248.4
		c0,14.3-11.6,25.9-25.9,25.9H61.2c-14.3,0-25.9-11.6-25.9-25.9V110h229.4V248.4z"/>
	<path class="st0" d="M74.1,17.3v33.4c0,6.4,5.2,11.5,11.5,11.5c6.4,0,11.5-5.2,11.5-11.5V17.3C97.2,11,92,5.8,85.6,5.8
		S74.1,11,74.1,17.3z"/>
	<path class="st0" d="M213.7,5.8c-6.4,0-11.5,5.2-11.5,11.5c0,0,0,0,0,0v33.4c0,6.4,5.2,11.5,11.5,11.5c6.4,0,11.5-5.2,11.5-11.5
		V17.3C225.3,11,220.1,5.8,213.7,5.8z"/>
	<rect x="52.8" y="142" class="st0" width="42.8" height="21.4"/>
	<rect x="129" y="142" class="st0" width="42.8" height="21.4"/>
	<rect x="204.1" y="142" class="st0" width="42.8" height="21.4"/>
	<rect x="52.8" y="183.7" class="st0" width="42.8" height="21.4"/>
	<rect x="129" y="183.7" class="st0" width="42.8" height="21.4"/>
	<rect x="204.1" y="183.7" class="st0" width="42.8" height="21.4"/>
	<rect x="53.8" y="225.5" class="st0" width="42.8" height="21.4"/>
	<rect x="130" y="225.5" class="st0" width="42.8" height="21.4"/>
</g>
</svg>
