<?xml version="1.0" encoding="utf-8"?>
<!-- Generator: Adobe Illustrator 24.3.0, SVG Export Plug-In . SVG Version: 6.00 Build 0)  -->
<svg version="1.1" id="Layer_1" xmlns="http://www.w3.org/2000/svg" xmlns:xlink="http://www.w3.org/1999/xlink" x="0px" y="0px"
	 viewBox="0 0 100 100" style="enable-background:new 0 0 100 100;" xml:space="preserve">
<style type="text/css">
	.st0{display:none;fill:#FFFFFF;}
	.st1{display:none;}
	.st2{display:inline;fill:#FFFFFF;}
	.st3{display:none;fill:#010101;}
	.st4{fill:#FFFFFF;}
</style>
<path class="st0" d="M82.8,77.8L72.7,63.1c-1.7-2.8-5.2-3.5-7.7-1.7l-6.6,4.2h-0.7l-0.3,0.3c-0.7,0-3.8-0.7-11.9-11.9
	c-7-10.5-7-14.7-6.6-16.1c0.7,0,0.7-0.4,0.7-0.4l7-4.5c2.4-1.4,3.5-4.9,1.7-7.7l-9.8-14V11c0,0-1.7-1.4-4.5-1.4
	c-2.8,0-5.6,1-8.7,3.5l-0.7,0.3C18.4,22.5,17,33.4,17,34.1v0.7c2.4,11.5,8,21,12.2,27.3l3.5,4.9c4.5,6.6,10.8,14.7,20.3,21l0.3,0.3
	c0.3,0,6.3,2.1,14,2.1c2.8,0,5.2-0.3,7.7-0.7l0.7-0.3C84.6,83.8,82.8,77.8,82.8,77.8L82.8,77.8z M74.1,85.9
	c-2.1,0.3-4.2,0.7-6.6,0.7c-6.3,0-11.5-1.4-12.6-1.7c-9.4-6.6-15.4-14.7-20.3-21.3l-1-1.4c-3.8-5.9-10.1-15.7-12.9-27.6
	c0.3-2.1,1.7-11.2,6.6-18.5c5.6-4.2,8-2.8,8.7-2.4l9.4,14c0.7,1,0.3,2.1-0.7,2.8L38,34.4c-0.4,0.4-1.4,1-2.1,2.4
	c-1.4,3.8,0.7,10.1,7,19.6c6.3,9.1,10.8,13.3,14.7,13.3c1.4,0,2.4-0.7,2.8-1.4l6.3-4.2c1-0.7,2.1-0.3,2.8,0.7l9.8,14
	C79.3,79.6,79.3,82.7,74.1,85.9L74.1,85.9z"/>
<g class="st1">
	<path class="st2" d="M14.9,23.4c-4.2,0-7.6,3.4-7.6,7.6v38c0,4.2,3.4,7.6,7.6,7.6h70.2c4.2,0,7.6-3.4,7.6-7.6V31
		c0-4.2-3.4-7.6-7.6-7.6L14.9,23.4z M14.9,27.2L14.9,27.2h70.3h0.1L52.7,58.4c-1.6,1.5-3.8,1.5-5.4,0L14.9,27.2z M11.5,29.3
		l21.1,20.2L11.5,70.6c-0.2-0.5-0.4-1.1-0.4-1.7V31C11.1,30.4,11.2,29.8,11.5,29.3L11.5,29.3z M88.5,29.3c0.3,0.5,0.4,1.1,0.4,1.7
		v38c0,0.6-0.1,1.2-0.4,1.7L67.4,49.5L88.5,29.3z M35.3,52.1l9.4,9c3,2.8,7.7,2.8,10.6,0l9.3-9l20.6,20.6c-0.1,0-0.1,0-0.1,0H14.9
		c-0.1,0-0.1,0-0.1,0L35.3,52.1z"/>
</g>
<g class="st1">
	<path class="st2" d="M50,17.4c-21.7,0-39.4,13.3-39.4,29.7c0,6.8,3.1,13.1,8.2,18.2c0.1,0.2,0.2,0.3,0.2,0.5
		c0.6,1.7,0.6,3.5,0.3,5.2c-0.5,2.1-1.4,4-2.8,5.6c-1.6,1.9-3.7,3.3-5.9,4.3c2.4,1,5,1.5,7.6,1.5H19c3.3-0.1,6.4-1,9.3-2.5
		c2.6-1.4,5-3.2,7-5.4c4.8,1.4,9.7,2.1,14.7,2.1c21.7,0,39.4-13.3,39.4-29.7C89.4,30.7,71.7,17.4,50,17.4L50,17.4z M50,72.5
		c-4.5,0-9-0.6-13.4-1.9L34,69.7l-1.8,2c-1.7,1.8-3.6,3.3-5.8,4.4c-1.7,0.8-3.4,1.4-5.2,1.7c1.2-1.8,2.1-3.8,2.5-6
		c0.6-2.5,0.4-5.1-0.4-7.5c-0.1-0.3-0.2-0.5-0.3-0.8v-0.1l-0.3-0.8L22,62.2c-4.5-4.4-6.9-9.6-6.9-15c0-14,15.7-25.4,35-25.4
		s35,11.4,35,25.4C85.1,61.1,69.3,72.5,50,72.5L50,72.5z"/>
	<path class="st2" d="M47.3,57.6h5.2v5.2h-5.2V57.6z"/>
	<path class="st2" d="M57.7,35.5c-1.9-1.7-4.5-2.5-7.7-2.5c-2.7-0.1-5.4,0.8-7.5,2.5c-1.8,1.8-2.9,4.2-3.1,6.8h5.2h0
		c0.2-1.4,0.9-2.8,2-3.7c1-0.8,2.3-1.3,3.6-1.2c1.3-0.1,2.6,0.4,3.6,1.2c0.8,0.7,1.3,1.7,1.3,2.8c0,0.8-0.3,1.6-0.7,2.2
		c-0.9,1-1.9,1.8-3,2.6c-1.3,1-2.4,2.2-3.3,3.6c-0.6,1.3-0.9,2.7-0.8,4.1v1.3h5.1c-0.1-1.1,0-2.2,0.4-3.2c0.6-0.9,1.3-1.7,2.2-2.4
		c1.7-1.3,3.2-2.8,4.5-4.5c0.7-1.1,1.1-2.3,1.1-3.5C60.6,39.1,59.5,36.9,57.7,35.5L57.7,35.5z"/>
</g>
<path class="st3" d="M50,94.3C25.6,94.3,5.7,74.4,5.7,50C5.7,25.6,25.6,5.7,50,5.7c24.4,0,44.3,19.9,44.3,44.3
	C94.3,74.4,74.4,94.3,50,94.3L50,94.3z M50,10.6c-21.7,0-39.4,17.7-39.4,39.4S28.3,89.4,50,89.4c21.7,0,39.4-17.7,39.4-39.4
	S71.7,10.6,50,10.6L50,10.6z"/>
<g>
	<path class="st4" d="M87.2,91.6c-1.2,0-2.5-0.5-3.4-1.4L9.4,16.7c-1.9-1.9-1.9-5,0-6.9c1.9-1.9,5-1.9,6.9,0l74.4,73.5
		c1.9,1.9,1.9,5,0,6.9C89.7,91.1,88.5,91.6,87.2,91.6L87.2,91.6z"/>
	<path class="st4" d="M12.8,91.6c-1.2,0-2.5-0.5-3.4-1.4c-1.9-1.9-1.9-5,0-6.9L83.8,9.8c1.9-1.9,5-1.9,6.9,0c1.9,1.9,1.9,5,0,6.9
		L16.2,90.2C15.3,91.1,14,91.6,12.8,91.6L12.8,91.6z"/>
</g>
</svg>
