<?xml version="1.0" encoding="utf-8"?>
<!-- Generator: Adobe Illustrator 24.3.0, SVG Export Plug-In . SVG Version: 6.00 Build 0)  -->
<svg version="1.1" id="Layer_1" xmlns="http://www.w3.org/2000/svg" xmlns:xlink="http://www.w3.org/1999/xlink" x="0px" y="0px"
	 viewBox="0 0 500 500" style="enable-background:new 0 0 500 500;" xml:space="preserve">
<style type="text/css">
	.st0{fill:#010101;}
</style>
<path class="st0" d="M250,11.8C118.4,11.8,11.8,118.4,11.8,250S118.4,488.2,250,488.2S488.2,381.6,488.2,250l0,0
	C487.9,118.6,381.4,12.1,250,11.8z M109.6,413.6C112,309.1,183.4,261.3,250,261.3c36-0.3,70.7,13.7,96.5,38.9
	c27.9,27.5,42.9,66.6,43.9,113.3C309.7,483.2,190.3,483.2,109.6,413.6z M250,238.8c-35.7,0-64.6-28.9-64.6-64.6
	c0-35.7,28.9-64.6,64.6-64.6c35.7,0,64.6,28.9,64.6,64.6l0,0C314.6,209.8,285.7,238.7,250,238.8z M411.7,392.5
	c-8.6-81.7-57.3-129.1-112.8-146.3c40.1-27,50.7-81.4,23.6-121.5c-27-40.1-81.4-50.7-121.5-23.6s-50.7,81.4-23.6,121.5
	c6.3,9.3,14.3,17.4,23.6,23.6c-55.7,17.2-104.2,64.5-112.8,146.3C9.5,303.1,18,166.8,107.3,88s225.6-70.3,304.4,19
	C483.7,188.6,483.7,310.9,411.7,392.5z"/>
</svg>
