<?xml version="1.0" encoding="utf-8"?>
<!-- Generator: Adobe Illustrator 24.2.1, SVG Export Plug-In . SVG Version: 6.00 Build 0)  -->
<svg version="1.1" id="Layer_1" xmlns="http://www.w3.org/2000/svg" xmlns:xlink="http://www.w3.org/1999/xlink" x="0px" y="0px"
	 viewBox="0 0 210.1 210.1" style="enable-background:new 0 0 210.1 210.1;" xml:space="preserve">
<style type="text/css">
	.st0{fill-rule:evenodd;clip-rule:evenodd;fill:#FFFFFF;}
	.st1{fill-rule:evenodd;clip-rule:evenodd;fill:#CFD8DC;}
	.st2{fill-rule:evenodd;clip-rule:evenodd;fill:#40C351;}
</style>
<path class="st0" d="M9.4,201.6l13.5-49.2c-8.3-14.4-12.7-30.7-12.7-47.4c0-52.3,42.6-94.9,94.9-94.9c25.4,0,49.2,9.9,67.1,27.8
	c17.9,17.9,27.8,41.8,27.8,67.1c0,52.3-42.6,94.9-94.9,94.9c0,0,0,0,0,0h0c-15.9,0-31.5-4-45.4-11.6L9.4,201.6z"/>
<path class="st0" d="M9.4,204.1c-0.7,0-1.3-0.3-1.8-0.7c-0.6-0.6-0.9-1.6-0.6-2.4l13.2-48.2C12,138.2,7.7,121.7,7.7,105
	c0-53.7,43.7-97.4,97.4-97.4c26,0,50.5,10.2,68.9,28.6c18.4,18.4,28.5,42.9,28.5,68.9c0,53.7-43.7,97.4-97.4,97.4
	c-15.9,0-31.7-3.9-45.7-11.4L10,204C9.8,204,9.6,204.1,9.4,204.1z"/>
<path class="st1" d="M105.1,10.1c25.4,0,49.2,9.9,67.1,27.8c17.9,17.9,27.8,41.8,27.8,67.1c0,52.3-42.6,94.9-94.9,94.9h0
	c-15.9,0-31.5-4-45.4-11.6L9.4,201.6l13.5-49.2c-8.3-14.4-12.7-30.7-12.7-47.4C10.2,52.6,52.8,10.1,105.1,10.1 M105.1,199.9
	L105.1,199.9L105.1,199.9 M105.1,199.9L105.1,199.9L105.1,199.9 M105.1,5.1L105.1,5.1C50,5.1,5.2,49.9,5.2,104.9
	c0,16.8,4.2,33.4,12.3,48.1L4.6,200.3c-0.5,1.7,0,3.6,1.3,4.8c1,1,2.2,1.5,3.6,1.5c0.4,0,0.9-0.1,1.3-0.2l48.4-12.7
	c14.1,7.3,30,11.2,46,11.2c55.1,0,100-44.8,100-99.9c0-26.7-10.4-51.8-29.2-70.7C156.9,15.5,131.8,5.1,105.1,5.1L105.1,5.1z"/>
<path class="st2" d="M160.9,49.2c-14.9-14.9-34.7-23.1-55.8-23.1c-43.5,0-78.9,35.4-78.9,78.9c0,14.9,4.2,29.4,12.1,42l1.9,3
	l-8,29.1l29.9-7.8l2.9,1.7c12.1,7.2,26,11,40.2,11h0c43.5,0,78.9-35.4,78.9-78.9C184,83.9,175.8,64.1,160.9,49.2z"/>
<path class="st0" d="M81.4,65.3c-1.8-4-3.6-4-5.3-4.1c-1.4-0.1-3-0.1-4.5-0.1c-1.6,0-4.2,0.6-6.3,3c-2.2,2.4-8.3,8.1-8.3,19.8
	s8.5,22.9,9.7,24.5s16.4,26.3,40.5,35.8c20,7.9,24.1,6.3,28.5,5.9c4.4-0.4,14-5.7,16-11.3c2-5.5,2-10.3,1.4-11.3
	c-0.6-1-2.2-1.6-4.5-2.8s-14-6.9-16.2-7.7c-2.2-0.8-3.8-1.2-5.3,1.2c-1.6,2.4-6.1,7.7-7.5,9.3c-1.4,1.6-2.8,1.8-5.1,0.6
	c-2.4-1.2-10-3.7-19.1-11.8c-7-6.3-11.8-14-13.2-16.4c-1.4-2.4-0.2-3.7,1-4.8c1.1-1.1,2.4-2.8,3.6-4.2c1.2-1.4,1.6-2.4,2.4-4
	c0.8-1.6,0.4-3-0.2-4.2C88.1,81.7,83.5,70,81.4,65.3z"/>
</svg>
