<svg width="95" height="96" viewBox="0 0 95 96" fill="none" xmlns="http://www.w3.org/2000/svg">
<path d="M47.4658 55.3669C48.1502 55.7001 48.8601 56.1447 49.0465 56.9413C49.2217 57.6895 48.8222 58.5292 48.3977 59.127C47.3348 60.623 45.7419 61.6142 43.9533 61.8843C43.1881 61.414 42.4698 60.8724 42.345 59.9173C42.2485 59.1782 42.4443 58.524 42.8664 57.9228C43.9745 56.346 45.6365 55.6627 47.4658 55.3669Z" fill="#F9D324"/>
<path d="M92.4239 29.3627C92.782 29.5166 93.2322 29.7542 93.4619 30.0778C93.6689 30.3693 93.8091 30.7745 93.7572 31.1297C93.4745 33.0563 87.0578 37.6711 85.2646 39.1621C78.6692 44.6463 71.9975 50.043 65.6494 55.8144C62.9388 58.2963 60.2787 60.8308 57.6693 63.4183C56.3371 64.7145 54.7484 66.6537 53.1802 67.584C52.6949 67.8718 52.2395 67.8722 51.7133 67.6711C51.1432 67.4529 50.8848 67.1727 50.6301 66.6436C51.3193 62.7903 78.1398 40.5542 83.2057 36.7477C76.9816 38.9641 63.206 48.7861 57.4282 48.2874C56.4264 48.2013 55.7463 47.7514 55.158 46.9599C53.1865 44.3081 53.813 39.9565 54.2015 36.9137C47.6448 42.2752 40.8432 49.9124 34.6974 55.9745C32.3433 58.2962 29.985 60.8234 27.3253 62.7941C25.7778 63.9409 24.2638 64.8294 22.3324 65.1569C22.1941 65.1335 22.054 65.1169 21.9171 65.0863C20.86 64.8465 19.8655 63.8841 19.3115 62.9811C17.1133 59.3951 18.2968 53.5787 19.1217 49.7586C15.2978 52.62 10.8886 57.8327 7.46825 61.3361C6.10971 62.7274 4.75214 64.3292 3.13875 65.4256C2.52017 65.8461 1.92607 66.218 1.156 66.089C0.883078 65.8251 0.646782 65.7011 0.563341 65.3109C0.389125 64.4955 0.837085 63.7082 1.29299 63.0615C2.88601 60.8025 5.29635 58.9228 7.24659 56.9679C10.8746 53.3306 14.5393 49.1217 18.5609 45.9269C19.2209 45.4025 20.4413 44.4595 21.3395 44.4589C21.6641 44.4589 21.9828 44.4658 22.1699 44.759C23.399 46.6806 21.8625 51.9833 21.6289 54.2272C21.4362 56.0765 21.0337 59.8308 22.271 61.3395C22.8426 61.516 23.1049 61.5137 23.6503 61.2276C27.2893 59.3171 33.5243 52.4286 36.666 49.2968L47.5819 38.4844C49.1294 36.9475 52.8608 32.7073 54.7895 32.2123C55.4212 32.0499 55.7296 32.2062 56.2916 32.4808C57.306 34.2574 57.0761 42.0893 57.7695 45.1403C63.2054 44.1248 68.6692 40.4337 73.5275 37.8965C77.0421 36.0895 80.5829 34.3354 84.1499 32.6337C86.8081 31.3507 89.4991 29.9039 92.4239 29.3627Z" fill="#F9D324"/>
</svg>
