<svg width="62" height="66" viewBox="0 0 62 66" fill="none" xmlns="http://www.w3.org/2000/svg">
<path d="M53.0782 8.46192C53.4003 8.18501 53.7239 7.90785 54.067 7.65638C54.9148 7.03501 56.0029 6.69249 57.0467 7.00491C57.8503 7.24537 58.4513 7.80034 58.8814 8.49724C60.0142 10.3351 59.8171 12.1711 59.2951 14.1614C59.0421 14.4487 58.7777 14.7077 58.4804 14.9491C57.671 15.6049 56.8502 16.0669 55.7595 15.8419C54.7423 15.6323 54.0555 14.8853 53.5679 14.0192C52.5338 12.1843 52.565 10.4483 53.0782 8.46192Z" fill="#6E59CD"/>
<path d="M1.28329 53.8938C2.81906 52.9569 4.10337 53.1441 5.79595 53.3383C8.59948 53.6597 14.2115 54.5159 15.8208 56.9845C16.3835 57.8475 16.1405 58.6612 15.928 59.5832C15.0567 60.018 14.3273 60.239 13.3526 60.203C9.96367 60.0767 3.47351 59.0693 1.18984 56.4624C0.786594 55.4849 1.02196 54.8605 1.28329 53.8938Z" fill="#6E59CD"/>
<path d="M27.91 2.60736C28.5018 2.243 29.1272 1.68623 29.8364 1.67035C31.3569 1.63735 32.5883 2.622 33.6407 3.61984C36.4251 6.25789 40.4705 11.9206 40.5558 15.8205C40.2375 16.1985 39.8293 16.7842 39.4194 17.0502C39.003 17.3209 38.5569 17.4686 38.0669 17.3756C35.7593 16.9384 33.6228 13.4513 32.2983 11.6515C30.3851 9.05338 27.3928 6.00065 27.91 2.60736Z" fill="#3F69B5"/>
<path d="M3.80038 24.2654C4.62093 23.6946 5.1534 23.267 6.20218 23.2757C10.4043 23.3121 17.3866 28.2839 20.3077 31.1291C21.7447 32.5286 22.4124 33.3052 22.4444 35.3393C21.7981 35.9005 21.4049 36.1701 20.5723 36.384C17.8558 36.0566 6.94909 29.3141 4.81852 27.2475C3.88198 26.3391 3.84493 25.4832 3.80038 24.2654Z" fill="#6E59CD"/>
</svg>
