<svg width="37" height="40" viewBox="0 0 37 40" fill="none" xmlns="http://www.w3.org/2000/svg">
<path d="M14.7138 0.142534C18.4808 -0.178466 22.0857 -0.0474249 25.6027 1.48458C30.1337 3.45758 33.4358 7.27354 35.1358 11.8765C35.2608 12.2195 35.3768 12.5656 35.4838 12.9146C35.5918 13.2636 35.6907 13.6155 35.7797 13.9685C35.8697 14.3225 35.9508 14.6786 36.0228 15.0366C36.0958 15.3946 36.1588 15.7546 36.2128 16.1156C36.2668 16.4766 36.3117 16.8386 36.3477 17.2016C36.3837 17.5646 36.4108 17.9285 36.4278 18.2935C36.4458 18.6585 36.4548 19.0236 36.4538 19.3886C36.4538 19.7536 36.4438 20.1185 36.4248 20.4835C36.4058 20.8485 36.3788 21.2125 36.3418 21.5755C36.3048 21.9385 36.2588 22.3006 36.2038 22.6616C36.1488 23.0226 36.0847 23.3815 36.0117 23.7395C35.9387 24.0975 35.8568 24.4535 35.7658 24.8065C35.6748 25.1605 35.5748 25.5116 35.4668 25.8606C35.3578 26.2096 35.2407 26.5545 35.1157 26.8975C34.9897 27.2405 34.8558 27.5795 34.7128 27.9155C34.5698 28.2515 34.4188 28.5836 34.2598 28.9126C31.6718 34.2106 27.6308 37.1806 22.2268 39.1096C17.8688 39.5596 14.1188 39.4385 10.1228 37.3225C5.44176 34.8445 2.15477 30.3995 0.765766 25.3275C-0.750234 19.7915 -0.00922799 13.3906 2.93477 8.44057C5.71577 3.76557 9.63076 1.51753 14.7138 0.142534Z" fill="#952C8A"/>
<path d="M16.007 7.0818C17.861 6.9048 19.679 6.84082 21.481 7.41182C24.351 8.31982 26.648 10.3928 27.979 13.0748C29.67 16.4798 29.831 20.6388 28.563 24.2088C27.159 28.1638 24.613 30.2498 20.925 31.9818C19.158 32.1048 17.298 32.1448 15.582 31.6308C12.687 30.7638 10.218 28.6248 8.81701 25.9678C8.60201 25.5498 8.40799 25.1218 8.23699 24.6838C8.06599 24.2458 7.91802 23.7998 7.79302 23.3468C7.66702 22.8938 7.56499 22.4348 7.48699 21.9708C7.40899 21.5068 7.35502 21.0398 7.32402 20.5708C7.29302 20.1018 7.28698 19.6318 7.30498 19.1618C7.32298 18.6918 7.36502 18.2238 7.43102 17.7588C7.49702 17.2928 7.58698 16.8318 7.70098 16.3748C7.81398 15.9188 7.95097 15.4698 8.10997 15.0268C9.60997 10.9088 12.187 8.9528 16.007 7.0818Z" fill="#F9B71A"/>
<path d="M17.4776 14.3887C18.4216 14.4507 19.6125 14.6147 20.4495 15.0837C20.5835 15.1577 20.7125 15.2386 20.8375 15.3276C20.9625 15.4156 21.0826 15.5106 21.1966 15.6136C21.3106 15.7156 21.4186 15.8236 21.5196 15.9376C21.6216 16.0526 21.7166 16.1716 21.8046 16.2966C21.8936 16.4216 21.9746 16.5517 22.0476 16.6857C22.1206 16.8207 22.1866 16.9586 22.2446 17.1006C22.3016 17.2416 22.3515 17.3866 22.3925 17.5336C22.4335 17.6806 22.4665 17.8306 22.4915 17.9816C22.8845 20.4446 21.0975 22.5946 19.6475 24.3226C19.0355 24.1196 18.9216 24.1086 18.2916 23.7546C16.7776 22.9046 15.4626 21.2337 15.2556 19.4957C14.9786 17.1757 16.0236 15.9887 17.4776 14.3887Z" fill="#952C8A"/>
</svg>
