<svg width="49" height="63" viewBox="0 0 49 63" fill="none" xmlns="http://www.w3.org/2000/svg">
<path d="M31.155 0C31.702 0.008 32.25 0.00299438 32.797 0.0379944C34.358 0.137994 35.042 0.508994 36.055 1.67799C36.932 4.84299 31.472 21.912 30.432 26.456C34.325 26.394 38.567 26.037 42.39 26.78C44.737 27.236 46.687 27.969 48.092 29.964C48.174 31.278 48.202 31.593 47.312 32.683C44.39 36.262 35.422 36.583 31.186 37.059C31.52 41.794 33.492 47.204 32.755 51.911C32.506 53.499 31.928 54.119 30.674 55.055C29.841 55.153 29.014 55.307 28.203 54.987C25.015 53.73 23.388 45.588 22.458 42.443C20.676 45.569 19.376 49.124 17.938 52.429C16.923 54.582 15.95 56.915 14.599 58.877C13.349 60.693 12.21 61.753 10.014 62.118C8.825 61.805 8.157 61.776 7.541 60.569C5.313 56.202 13.629 40.497 15.79 35.86C13.179 34.997 10.542 34.157 8.009 33.082C5.136 31.862 1.252 30.088 0 27.019C0.197 26.153 0.0420005 26.155 0.77 25.595C4.887 22.426 15.228 25.058 20.098 25.778C22.988 17.525 25.822 6.93 31.155 0Z" fill="#46DDE3"/>
</svg>
