<svg width="48" height="48" viewBox="0 0 48 48" fill="none" xmlns="http://www.w3.org/2000/svg">
<path d="M26.2366 2.64349C27.2187 2.04716 28.2157 1.4011 29.3895 1.31684C30.4662 1.24002 31.4222 1.51559 32.2272 2.25972C32.9483 2.92669 33.2348 3.87782 33.4921 4.79589C35.0206 10.2406 35.5085 16.3471 36.3913 21.9595C36.9753 25.6728 38.0436 29.8775 38.1248 33.6063C38.1571 35.1034 37.9806 36.3223 36.9109 37.4382C33.6594 38.9129 27.8918 36.2431 24.6376 35.2058C20.6586 34.0216 9.70351 31.514 6.97757 29.1011C6.32311 28.5214 5.94631 27.729 5.97013 26.8434C5.9905 26.1157 6.25142 25.4094 6.63566 24.7964C7.87116 22.8269 9.78296 21.0254 11.3075 19.2554C16.1703 13.6171 21.1469 8.07961 26.2366 2.64349Z" fill="#F9B71A"/>
<path d="M28.5078 9.22548C28.9028 9.08269 28.6665 9.12015 29.2267 9.23924C30.3696 16.4141 31.0711 23.6641 32.1959 30.8495C29.2843 29.8122 26.3474 28.8512 23.3849 27.9675C20.3228 27.1836 17.2309 26.6065 14.1257 26.0225C18.365 20.084 23.6032 14.6233 28.5078 9.22548Z" fill="#FDFBFE"/>
</svg>
