<svg width="137" height="50" viewBox="0 0 137 50" fill="none" xmlns="http://www.w3.org/2000/svg">
<circle cx="25.5" cy="25.7227" r="12.5" fill="#4AB138"/>
<path d="M62.088 17.45C62.48 17.45 62.7787 17.3613 62.984 17.184C63.1987 16.9973 63.306 16.7173 63.306 16.344C63.306 15.9893 63.194 15.7187 62.97 15.532C62.7553 15.336 62.438 15.238 62.018 15.238C61.8687 15.238 61.7427 15.2427 61.64 15.252C61.5467 15.252 61.4487 15.2613 61.346 15.28V17.45H62.088ZM61.36 21.944C61.2573 21.972 61.094 22 60.87 22.028C60.6553 22.056 60.4407 22.07 60.226 22.07C60.0113 22.07 59.82 22.0513 59.652 22.014C59.4933 21.986 59.358 21.93 59.246 21.846C59.134 21.762 59.05 21.6453 58.994 21.496C58.938 21.3467 58.91 21.1507 58.91 20.908V14.314C58.91 14.118 58.9613 13.9687 59.064 13.866C59.176 13.754 59.3253 13.6653 59.512 13.6C59.8293 13.488 60.1887 13.4087 60.59 13.362C61.0007 13.306 61.4113 13.278 61.822 13.278C63.11 13.278 64.0947 13.5533 64.776 14.104C65.4573 14.6547 65.798 15.4013 65.798 16.344C65.798 16.8013 65.7233 17.2167 65.574 17.59C65.434 17.954 65.2193 18.2713 64.93 18.542C64.65 18.8033 64.2907 19.0087 63.852 19.158C63.4227 19.298 62.9233 19.368 62.354 19.368H61.36V21.944ZM75.5628 18.864C75.5628 19.368 75.4741 19.83 75.2968 20.25C75.1288 20.6607 74.8814 21.0153 74.5548 21.314C74.2281 21.6033 73.8314 21.8273 73.3648 21.986C72.8981 22.1447 72.3708 22.224 71.7828 22.224C71.1948 22.224 70.6674 22.1447 70.2008 21.986C69.7341 21.8273 69.3374 21.6033 69.0108 21.314C68.6841 21.0153 68.4321 20.6607 68.2548 20.25C68.0868 19.83 68.0028 19.368 68.0028 18.864V13.516C68.1054 13.4973 68.2688 13.474 68.4928 13.446C68.7168 13.4087 68.9314 13.39 69.1368 13.39C69.3514 13.39 69.5381 13.4087 69.6968 13.446C69.8648 13.474 70.0048 13.53 70.1168 13.614C70.2288 13.698 70.3128 13.8147 70.3688 13.964C70.4248 14.1133 70.4528 14.3093 70.4528 14.552V18.822C70.4528 19.27 70.5741 19.62 70.8168 19.872C71.0688 20.124 71.3908 20.25 71.7828 20.25C72.1841 20.25 72.5061 20.124 72.7488 19.872C72.9914 19.62 73.1128 19.27 73.1128 18.822V13.516C73.2154 13.4973 73.3788 13.474 73.6028 13.446C73.8268 13.4087 74.0414 13.39 74.2468 13.39C74.4614 13.39 74.6481 13.4087 74.8068 13.446C74.9748 13.474 75.1148 13.53 75.2268 13.614C75.3388 13.698 75.4228 13.8147 75.4788 13.964C75.5348 14.1133 75.5628 14.3093 75.5628 14.552V18.864ZM80.7776 19.256V21.944C80.675 21.972 80.5116 22 80.2876 22.028C80.073 22.056 79.8583 22.07 79.6436 22.07C79.429 22.07 79.2376 22.0513 79.0696 22.014C78.911 21.986 78.7756 21.93 78.6636 21.846C78.561 21.762 78.4816 21.6453 78.4256 21.496C78.3696 21.3467 78.3416 21.1507 78.3416 20.908V14.314C78.3416 14.118 78.393 13.9687 78.4956 13.866C78.6076 13.754 78.757 13.6653 78.9436 13.6C79.261 13.488 79.6296 13.4087 80.0496 13.362C80.4696 13.306 80.9176 13.278 81.3936 13.278C82.6816 13.278 83.6523 13.5487 84.3056 14.09C84.959 14.6313 85.2856 15.364 85.2856 16.288C85.2856 16.8667 85.1363 17.3613 84.8376 17.772C84.539 18.1827 84.1843 18.5 83.7736 18.724C84.1096 19.1813 84.441 19.6107 84.7676 20.012C85.0943 20.4133 85.351 20.7773 85.5376 21.104C85.4443 21.4307 85.2716 21.6827 85.0196 21.86C84.777 22.028 84.5016 22.112 84.1936 22.112C83.9883 22.112 83.811 22.0887 83.6616 22.042C83.5123 21.9953 83.3816 21.93 83.2696 21.846C83.1576 21.762 83.055 21.6593 82.9616 21.538C82.8683 21.4167 82.7796 21.286 82.6956 21.146L81.5196 19.256H80.7776ZM81.6596 17.394C82.0143 17.394 82.2943 17.3053 82.4996 17.128C82.705 16.9413 82.8076 16.6707 82.8076 16.316C82.8076 15.9613 82.691 15.6953 82.4576 15.518C82.2336 15.3313 81.8743 15.238 81.3796 15.238C81.2396 15.238 81.1276 15.2427 81.0436 15.252C80.9596 15.2613 80.8663 15.2753 80.7636 15.294V17.394H81.6596ZM87.8729 14.818C87.8729 14.4167 87.9896 14.0993 88.2229 13.866C88.4562 13.6327 88.7736 13.516 89.1749 13.516H93.7949C93.8602 13.6187 93.9162 13.754 93.9629 13.922C94.0189 14.09 94.0469 14.2673 94.0469 14.454C94.0469 14.8087 93.9676 15.0607 93.8089 15.21C93.6596 15.3593 93.4589 15.434 93.2069 15.434H90.2529V16.736H93.4029C93.4682 16.8387 93.5242 16.974 93.5709 17.142C93.6269 17.3007 93.6549 17.4733 93.6549 17.66C93.6549 18.0147 93.5802 18.2667 93.4309 18.416C93.2816 18.5653 93.0809 18.64 92.8289 18.64H90.2529V20.11H93.8509C93.9162 20.2127 93.9722 20.348 94.0189 20.516C94.0749 20.684 94.1029 20.8613 94.1029 21.048C94.1029 21.4027 94.0236 21.6593 93.8649 21.818C93.7156 21.9673 93.5149 22.042 93.2629 22.042H89.1749C88.7736 22.042 88.4562 21.9253 88.2229 21.692C87.9896 21.4587 87.8729 21.1413 87.8729 20.74V14.818ZM105.428 21.72C105.297 21.832 105.092 21.93 104.812 22.014C104.541 22.098 104.242 22.14 103.916 22.14C103.524 22.14 103.188 22.084 102.908 21.972C102.628 21.8507 102.436 21.6873 102.334 21.482C102.231 21.2673 102.105 20.992 101.956 20.656C101.806 20.3107 101.648 19.928 101.48 19.508C101.321 19.088 101.153 18.6447 100.976 18.178C100.808 17.702 100.644 17.2213 100.486 16.736C100.327 16.2507 100.178 15.7747 100.038 15.308C99.8975 14.8413 99.7762 14.4027 99.6735 13.992C99.8042 13.8613 99.9909 13.7447 100.234 13.642C100.486 13.53 100.752 13.474 101.032 13.474C101.377 13.474 101.657 13.5487 101.872 13.698C102.096 13.838 102.259 14.104 102.362 14.496C102.614 15.4107 102.866 16.288 103.118 17.128C103.379 17.9587 103.65 18.8267 103.93 19.732H104.014C104.266 18.8547 104.522 17.898 104.784 16.862C105.054 15.826 105.311 14.7947 105.554 13.768C105.722 13.684 105.899 13.614 106.086 13.558C106.282 13.502 106.501 13.474 106.744 13.474C107.089 13.474 107.383 13.5533 107.626 13.712C107.868 13.8613 107.99 14.1133 107.99 14.468C107.99 14.6733 107.938 14.972 107.836 15.364C107.742 15.756 107.616 16.1993 107.458 16.694C107.308 17.1793 107.136 17.688 106.94 18.22C106.753 18.752 106.562 19.256 106.366 19.732C106.179 20.1987 106.002 20.614 105.834 20.978C105.666 21.3327 105.53 21.58 105.428 21.72ZM110.219 14.818C110.219 14.4167 110.335 14.0993 110.569 13.866C110.802 13.6327 111.119 13.516 111.521 13.516H116.141C116.206 13.6187 116.262 13.754 116.309 13.922C116.365 14.09 116.393 14.2673 116.393 14.454C116.393 14.8087 116.313 15.0607 116.155 15.21C116.005 15.3593 115.805 15.434 115.553 15.434H112.599V16.736H115.749C115.814 16.8387 115.87 16.974 115.917 17.142C115.973 17.3007 116.001 17.4733 116.001 17.66C116.001 18.0147 115.926 18.2667 115.777 18.416C115.627 18.5653 115.427 18.64 115.175 18.64H112.599V20.11H116.197C116.262 20.2127 116.318 20.348 116.365 20.516C116.421 20.684 116.449 20.8613 116.449 21.048C116.449 21.4027 116.369 21.6593 116.211 21.818C116.061 21.9673 115.861 22.042 115.609 22.042H111.521C111.119 22.042 110.802 21.9253 110.569 21.692C110.335 21.4587 110.219 21.1413 110.219 20.74V14.818ZM126.492 20.614C126.492 20.9033 126.441 21.118 126.338 21.258C126.236 21.398 126.072 21.5333 125.848 21.664C125.718 21.7387 125.554 21.8133 125.358 21.888C125.162 21.9533 124.948 22.0093 124.714 22.056C124.481 22.112 124.234 22.154 123.972 22.182C123.72 22.21 123.468 22.224 123.216 22.224C122.544 22.224 121.914 22.1353 121.326 21.958C120.738 21.7713 120.225 21.496 119.786 21.132C119.357 20.7587 119.016 20.2967 118.764 19.746C118.512 19.1953 118.386 18.556 118.386 17.828C118.386 17.0627 118.522 16.3953 118.792 15.826C119.072 15.2567 119.436 14.7853 119.884 14.412C120.342 14.0293 120.86 13.7447 121.438 13.558C122.026 13.3713 122.628 13.278 123.244 13.278C124.131 13.278 124.831 13.4227 125.344 13.712C125.867 13.992 126.128 14.3607 126.128 14.818C126.128 15.0607 126.068 15.2707 125.946 15.448C125.825 15.6253 125.685 15.7653 125.526 15.868C125.293 15.728 124.999 15.5927 124.644 15.462C124.299 15.322 123.907 15.252 123.468 15.252C122.684 15.252 122.059 15.476 121.592 15.924C121.135 16.372 120.906 16.9927 120.906 17.786C120.906 18.2153 120.967 18.5887 121.088 18.906C121.219 19.214 121.392 19.4707 121.606 19.676C121.821 19.872 122.068 20.0213 122.348 20.124C122.628 20.2173 122.927 20.264 123.244 20.264C123.45 20.264 123.632 20.2453 123.79 20.208C123.949 20.1707 124.07 20.1287 124.154 20.082V18.766H122.656C122.6 18.6633 122.544 18.528 122.488 18.36C122.442 18.192 122.418 18.0147 122.418 17.828C122.418 17.492 122.493 17.2493 122.642 17.1C122.801 16.9507 123.002 16.876 123.244 16.876H125.61C125.89 16.876 126.105 16.9553 126.254 17.114C126.413 17.2633 126.492 17.478 126.492 17.758V20.614ZM133.97 23.484C133.839 23.5027 133.713 23.512 133.592 23.512C133.471 23.5213 133.359 23.526 133.256 23.526C132.864 23.526 132.561 23.442 132.346 23.274C132.141 23.106 132.038 22.8353 132.038 22.462C132.038 22.21 132.075 21.958 132.15 21.706C132.225 21.4447 132.29 21.216 132.346 21.02L134.81 12.13C134.95 12.1113 135.081 12.102 135.202 12.102C135.323 12.0927 135.435 12.088 135.538 12.088C135.911 12.088 136.205 12.1673 136.42 12.326C136.644 12.4847 136.756 12.7413 136.756 13.096C136.756 13.3667 136.719 13.6233 136.644 13.866C136.569 14.1087 136.499 14.3513 136.434 14.594L133.97 23.484ZM60.45 27.516C60.5527 27.4973 60.716 27.474 60.94 27.446C61.164 27.4087 61.3787 27.39 61.584 27.39C61.7987 27.39 61.9853 27.4087 62.144 27.446C62.312 27.474 62.452 27.53 62.564 27.614C62.676 27.698 62.76 27.8147 62.816 27.964C62.872 28.1133 62.9 28.3093 62.9 28.552V33.732C62.9 34.5627 62.662 35.188 62.186 35.608C61.71 36.0187 61.01 36.224 60.086 36.224C59.6007 36.224 59.2087 36.1493 58.91 36C58.6953 35.8973 58.5367 35.7573 58.434 35.58C58.3407 35.4027 58.294 35.202 58.294 34.978C58.294 34.7913 58.3173 34.628 58.364 34.488C58.42 34.348 58.4853 34.236 58.56 34.152C58.7373 34.1893 58.8867 34.2173 59.008 34.236C59.1387 34.2453 59.2787 34.25 59.428 34.25C59.792 34.25 60.0533 34.1613 60.212 33.984C60.3707 33.7973 60.45 33.5267 60.45 33.172V27.516ZM67.4855 27.768C67.6442 27.6747 67.8822 27.586 68.1995 27.502C68.5262 27.418 68.8529 27.376 69.1795 27.376C69.6462 27.376 70.0569 27.446 70.4115 27.586C70.7755 27.7167 71.0089 27.9267 71.1115 28.216C71.2795 28.7013 71.4615 29.266 71.6575 29.91C71.8535 30.554 72.0495 31.2213 72.2455 31.912C72.4415 32.5933 72.6329 33.27 72.8195 33.942C73.0062 34.6047 73.1695 35.1927 73.3095 35.706C73.1975 35.8367 73.0295 35.9393 72.8055 36.014C72.5815 36.098 72.3155 36.14 72.0075 36.14C71.7835 36.14 71.5922 36.1213 71.4335 36.084C71.2842 36.0467 71.1582 35.9907 71.0555 35.916C70.9622 35.8413 70.8829 35.7433 70.8175 35.622C70.7615 35.5007 70.7102 35.3607 70.6635 35.202L70.4115 34.236H67.8775C67.8029 34.516 67.7282 34.8053 67.6535 35.104C67.5789 35.4027 67.5042 35.692 67.4295 35.972C67.2989 36.0187 67.1589 36.056 67.0095 36.084C66.8695 36.1213 66.6969 36.14 66.4915 36.14C66.0155 36.14 65.6609 36.0607 65.4275 35.902C65.2035 35.734 65.0915 35.5053 65.0915 35.216C65.0915 35.0853 65.1102 34.9547 65.1475 34.824C65.1849 34.6933 65.2269 34.5393 65.2735 34.362C65.3389 34.11 65.4275 33.7973 65.5395 33.424C65.6609 33.0507 65.7915 32.6493 65.9315 32.22C66.0715 31.7813 66.2209 31.3333 66.3795 30.876C66.5382 30.4187 66.6875 29.9893 66.8275 29.588C66.9675 29.1773 67.0935 28.8133 67.2055 28.496C67.3269 28.1787 67.4202 27.936 67.4855 27.768ZM69.1655 29.574C69.0349 29.966 68.8855 30.4047 68.7175 30.89C68.5589 31.366 68.4142 31.8513 68.2835 32.346H70.0195C69.8889 31.842 69.7535 31.352 69.6135 30.876C69.4829 30.3907 69.3615 29.9567 69.2495 29.574H69.1655ZM77.9069 35.944C77.8042 35.972 77.6409 36 77.4169 36.028C77.2022 36.056 76.9875 36.07 76.7729 36.07C76.5582 36.07 76.3669 36.0513 76.1989 36.014C76.0402 35.986 75.9049 35.93 75.7929 35.846C75.6809 35.762 75.5969 35.6453 75.5409 35.496C75.4849 35.3467 75.4569 35.1507 75.4569 34.908V27.516C75.5595 27.4973 75.7229 27.474 75.9469 27.446C76.1709 27.4087 76.3855 27.39 76.5909 27.39C76.8055 27.39 76.9922 27.4087 77.1509 27.446C77.3189 27.474 77.4589 27.53 77.5709 27.614C77.6829 27.698 77.7669 27.8147 77.8229 27.964C77.8789 28.1133 77.9069 28.3093 77.9069 28.552V35.944ZM88.4085 35.706C88.2778 35.8367 88.0865 35.9347 87.8345 36C87.5918 36.0747 87.2978 36.112 86.9525 36.112C86.6072 36.112 86.2805 36.0607 85.9725 35.958C85.6645 35.8553 85.4125 35.608 85.2165 35.216L83.8305 32.388C83.6905 32.0987 83.5645 31.828 83.4525 31.576C83.3405 31.3147 83.2192 31.016 83.0885 30.68L83.0045 30.694C83.0418 31.198 83.0605 31.7113 83.0605 32.234C83.0698 32.7567 83.0745 33.27 83.0745 33.774V35.944C82.9718 35.972 82.8132 36 82.5985 36.028C82.3932 36.056 82.1878 36.07 81.9825 36.07C81.7772 36.07 81.5952 36.056 81.4365 36.028C81.2778 36 81.1472 35.944 81.0445 35.86C80.9418 35.776 80.8625 35.664 80.8065 35.524C80.7505 35.3747 80.7225 35.1833 80.7225 34.95V27.95C80.8532 27.7633 81.0538 27.6233 81.3245 27.53C81.5952 27.4367 81.8845 27.39 82.1925 27.39C82.5378 27.39 82.8645 27.446 83.1725 27.558C83.4898 27.6607 83.7418 27.9033 83.9285 28.286L85.3285 31.114C85.4685 31.4033 85.5945 31.6787 85.7065 31.94C85.8185 32.192 85.9398 32.486 86.0705 32.822L86.1405 32.808C86.1032 32.304 86.0798 31.8 86.0705 31.296C86.0612 30.792 86.0565 30.288 86.0565 29.784V27.516C86.1592 27.488 86.3132 27.46 86.5185 27.432C86.7332 27.404 86.9432 27.39 87.1485 27.39C87.5592 27.39 87.8718 27.4647 88.0865 27.614C88.3012 27.754 88.4085 28.0527 88.4085 28.51V35.706ZM100.991 27.516C101.057 27.6187 101.113 27.7587 101.159 27.936C101.215 28.104 101.243 28.2813 101.243 28.468C101.243 28.832 101.164 29.0933 101.005 29.252C100.856 29.4013 100.651 29.476 100.389 29.476H97.4492V31.058H100.515C100.59 31.1607 100.651 31.296 100.697 31.464C100.753 31.632 100.781 31.8093 100.781 31.996C100.781 32.3507 100.702 32.6073 100.543 32.766C100.394 32.9153 100.189 32.99 99.9272 32.99H97.4772V35.944C97.3745 35.972 97.2112 36 96.9872 36.028C96.7725 36.056 96.5579 36.07 96.3432 36.07C96.1285 36.07 95.9372 36.0513 95.7692 36.014C95.6105 35.986 95.4752 35.93 95.3632 35.846C95.2512 35.762 95.1672 35.6453 95.1112 35.496C95.0552 35.3467 95.0272 35.1507 95.0272 34.908V28.818C95.0272 28.4167 95.1439 28.0993 95.3772 27.866C95.6105 27.6327 95.9279 27.516 96.3292 27.516H100.991ZM102.976 31.744C102.976 31.016 103.088 30.372 103.312 29.812C103.546 29.252 103.858 28.7853 104.25 28.412C104.652 28.0293 105.118 27.74 105.65 27.544C106.192 27.348 106.775 27.25 107.4 27.25C108.026 27.25 108.604 27.348 109.136 27.544C109.678 27.74 110.149 28.0293 110.55 28.412C110.952 28.7853 111.264 29.252 111.488 29.812C111.722 30.372 111.838 31.016 111.838 31.744C111.838 32.472 111.726 33.1207 111.502 33.69C111.278 34.25 110.966 34.7213 110.564 35.104C110.172 35.4773 109.706 35.762 109.164 35.958C108.623 36.154 108.035 36.252 107.4 36.252C106.766 36.252 106.178 36.154 105.636 35.958C105.095 35.7527 104.628 35.4587 104.236 35.076C103.844 34.6933 103.536 34.222 103.312 33.662C103.088 33.102 102.976 32.4627 102.976 31.744ZM105.496 31.744C105.496 32.5933 105.669 33.228 106.014 33.648C106.36 34.068 106.822 34.278 107.4 34.278C107.988 34.278 108.455 34.068 108.8 33.648C109.146 33.228 109.318 32.5933 109.318 31.744C109.318 30.904 109.146 30.274 108.8 29.854C108.464 29.434 108.002 29.224 107.414 29.224C106.836 29.224 106.369 29.434 106.014 29.854C105.669 30.2647 105.496 30.8947 105.496 31.744ZM113.82 31.744C113.82 31.016 113.932 30.372 114.156 29.812C114.389 29.252 114.702 28.7853 115.094 28.412C115.495 28.0293 115.962 27.74 116.494 27.544C117.035 27.348 117.619 27.25 118.244 27.25C118.869 27.25 119.448 27.348 119.98 27.544C120.521 27.74 120.993 28.0293 121.394 28.412C121.795 28.7853 122.108 29.252 122.332 29.812C122.565 30.372 122.682 31.016 122.682 31.744C122.682 32.472 122.57 33.1207 122.346 33.69C122.122 34.25 121.809 34.7213 121.408 35.104C121.016 35.4773 120.549 35.762 120.008 35.958C119.467 36.154 118.879 36.252 118.244 36.252C117.609 36.252 117.021 36.154 116.48 35.958C115.939 35.7527 115.472 35.4587 115.08 35.076C114.688 34.6933 114.38 34.222 114.156 33.662C113.932 33.102 113.82 32.4627 113.82 31.744ZM116.34 31.744C116.34 32.5933 116.513 33.228 116.858 33.648C117.203 34.068 117.665 34.278 118.244 34.278C118.832 34.278 119.299 34.068 119.644 33.648C119.989 33.228 120.162 32.5933 120.162 31.744C120.162 30.904 119.989 30.274 119.644 29.854C119.308 29.434 118.846 29.224 118.258 29.224C117.679 29.224 117.213 29.434 116.858 29.854C116.513 30.2647 116.34 30.8947 116.34 31.744ZM127.52 34.18C127.622 34.1987 127.748 34.2173 127.898 34.236C128.047 34.2453 128.187 34.25 128.318 34.25C128.635 34.25 128.924 34.2033 129.186 34.11C129.456 34.0167 129.685 33.872 129.872 33.676C130.068 33.48 130.217 33.228 130.32 32.92C130.432 32.6027 130.488 32.2247 130.488 31.786C130.488 30.946 130.292 30.316 129.9 29.896C129.508 29.4667 128.985 29.252 128.332 29.252C128.201 29.252 128.066 29.2567 127.926 29.266C127.795 29.2753 127.66 29.2893 127.52 29.308V34.18ZM128.304 36.224C128.145 36.224 127.963 36.2193 127.758 36.21C127.552 36.2007 127.338 36.182 127.114 36.154C126.899 36.126 126.68 36.0887 126.456 36.042C126.241 36.0047 126.04 35.9487 125.854 35.874C125.34 35.678 125.084 35.3373 125.084 34.852V28.314C125.084 28.118 125.135 27.9687 125.238 27.866C125.35 27.754 125.499 27.6653 125.686 27.6C126.087 27.4693 126.512 27.3853 126.96 27.348C127.408 27.3013 127.809 27.278 128.164 27.278C128.892 27.278 129.55 27.3667 130.138 27.544C130.735 27.7213 131.244 27.9967 131.664 28.37C132.093 28.734 132.424 29.196 132.658 29.756C132.891 30.316 133.008 30.9787 133.008 31.744C133.008 32.4907 132.896 33.144 132.672 33.704C132.448 34.2547 132.126 34.7213 131.706 35.104C131.295 35.4773 130.8 35.7573 130.222 35.944C129.643 36.1307 129.004 36.224 128.304 36.224Z" fill="#4AB138"/>
<rect x="1" y="1" width="48" height="48" stroke="#4AB138" stroke-width="2"/>
</svg>
