<svg width="54" height="58" viewBox="0 0 54 58" fill="none" xmlns="http://www.w3.org/2000/svg">
<path d="M40.6691 0C42.9191 0.024 44.8221 0.161002 46.7881 1.358C50.1981 3.434 51.8031 7.52902 52.6241 11.24C55.6511 24.921 51.0341 40.854 43.5801 52.374C42.2721 54.396 40.0861 57.328 37.4701 57.576C31.4991 58.141 16.3241 47.582 11.9041 43.404C6.36314 37.692 0.0331186 28.978 0.000118565 20.684C-0.0118814 17.743 0.886145 14.549 3.09015 12.488C4.77415 10.915 7.02614 10.247 9.30114 10.444C17.1771 11.127 24.0321 19.83 28.5551 25.55C28.6771 23.56 28.9161 21.584 29.2711 19.622C29.6271 17.66 30.0971 15.726 30.6811 13.819C32.4331 8.164 35.2271 2.828 40.6691 0Z" fill="#EA1A27"/>
<path d="M10.6777 22.334C18.1427 26.226 25.8097 37.229 29.3157 44.691C28.7997 44.551 28.5918 44.521 28.0728 44.221C21.1348 40.209 12.7867 30.049 10.6777 22.334Z" fill="#FDFBFE"/>
</svg>
