<svg width="102" height="100" viewBox="0 0 102 100" fill="none" xmlns="http://www.w3.org/2000/svg">
<path d="M58.0546 96.3416C57.9672 96.2725 57.8862 96.1937 57.8128 96.1046C57.6417 95.8965 57.5312 95.658 57.4806 95.4102C57.1697 95.2207 56.929 94.929 56.8049 94.5706L56.2113 92.8555C55.9236 92.0226 56.3651 91.1136 57.1983 90.8256C57.3643 90.7683 57.5334 90.7399 57.7002 90.7375C57.7702 90.5183 57.84 90.2994 57.9097 90.0806C58.1771 89.2408 59.0751 88.7768 59.9149 89.0441C60.7543 89.3111 61.218 90.2096 60.9507 91.0494C60.9022 91.2023 60.8536 91.3546 60.8047 91.5072C60.9778 91.3564 61.151 91.2055 61.3227 91.0548C61.9848 90.4734 62.9937 90.5399 63.575 91.2006C64.1568 91.8629 64.0916 92.8717 63.4289 93.4532C62.3249 94.4229 61.191 95.3879 60.0591 96.3209C59.4686 96.8081 58.6316 96.7987 58.0546 96.3416ZM54.9376 88.4134C54.7071 88.2308 54.5247 87.9828 54.4214 87.685L52.6314 82.5137C52.3434 81.6806 52.7849 80.7716 53.6177 80.4833C54.4512 80.1949 55.3598 80.6368 55.6482 81.4696L57.4382 86.6408C57.7262 87.474 57.2847 88.3829 56.4519 88.6713C55.9169 88.8563 55.3505 88.7405 54.9376 88.4134ZM60.0765 86.5941C59.5763 86.1979 59.3435 85.5215 59.5415 84.8744C60.119 82.99 60.6252 81.2834 61.0893 79.6578C61.3314 78.81 62.2143 78.3189 63.0621 78.561C63.9087 78.8021 64.4009 79.6853 64.1592 80.5334C63.6894 82.1797 63.1774 83.9057 62.5934 85.8102C62.3356 86.6531 61.4425 87.1267 60.5995 86.8682C60.404 86.8081 60.2278 86.714 60.0765 86.5941ZM65.4279 89.8174C65.3689 89.7707 65.3125 89.7191 65.2595 89.6632C64.6532 89.0238 64.6795 88.0139 65.3188 87.4069C66.6205 86.1719 67.9168 84.8942 69.172 83.6085C69.7875 82.9782 70.7944 82.9636 71.4292 83.5814C72.0599 84.1972 72.0717 85.2076 71.4563 85.8386C70.1728 87.1536 68.8467 88.4602 67.5159 89.7232C66.9324 90.2766 66.0402 90.3025 65.4279 89.8174ZM51.3577 78.071C51.1271 77.8884 50.9447 77.6403 50.8415 77.3425L49.0515 72.1713C48.7632 71.3386 49.205 70.4292 50.0378 70.1408C50.8715 69.8521 51.7799 70.2943 52.0682 71.1271L53.8582 76.2984C54.1462 77.1315 53.7047 78.0405 52.872 78.3288C52.3373 78.5142 51.7709 78.3984 51.3577 78.071ZM47.7785 67.7285C47.548 67.5459 47.3655 67.2978 47.2622 67L45.8715 62.9825C45.6919 62.4645 45.791 61.8905 46.1343 61.4627C46.4769 61.0349 47.0154 60.8128 47.56 60.8748L48.7719 61.0119C49.6468 61.1106 50.2779 61.8997 50.1794 62.7766C50.1287 63.229 49.8933 63.6154 49.5571 63.8701L50.2794 65.9561C50.5677 66.7889 50.1259 67.6983 49.2931 67.9866C48.7577 68.1713 48.1914 68.0556 47.7785 67.7285ZM63.0648 76.066C62.5863 75.6869 62.3481 75.0492 62.5087 74.4191C62.971 72.6084 63.3899 70.8365 63.7535 69.1521C63.9397 68.2903 64.7889 67.7428 65.6506 67.929C66.5116 68.1146 67.0599 68.9645 66.874 69.8258C66.5015 71.5486 66.0737 73.3596 65.6025 75.2088C65.3844 76.063 64.5149 76.5786 63.661 76.3601C63.4363 76.3034 63.2352 76.2009 63.0648 76.066ZM73.0704 81.987C73.0433 81.9655 73.0164 81.9429 72.9903 81.9191C72.3364 81.3279 72.2856 80.3188 72.8765 79.6652C74.0827 78.3306 75.277 76.9569 76.4267 75.582C76.9922 74.9064 77.9985 74.8168 78.6751 75.3818C79.3515 75.9472 79.441 76.9535 78.8757 77.6305C77.6996 79.0363 76.4783 80.4411 75.2446 81.8056C74.677 82.4329 73.7243 82.5049 73.0704 81.987ZM53.04 64.4659C52.6224 64.1352 52.3799 63.6026 52.4443 63.0341C52.5432 62.1582 53.3343 61.5286 54.2096 61.6283L59.6469 62.2444C60.5207 62.3435 61.1515 63.1331 61.0534 64.0096C60.9545 64.8856 60.1634 65.5151 59.2878 65.4158L53.8505 64.7997C53.5433 64.7648 53.2659 64.6448 53.04 64.4659ZM63.9152 65.698C63.4977 65.3673 63.2551 64.8347 63.3196 64.2662C63.413 63.4402 64.1218 62.8333 64.9367 62.8497C65.1691 61.3779 65.3645 59.9266 65.5196 58.5236C65.6167 57.6475 66.4054 57.0161 67.2814 57.1126C68.1561 57.2092 68.7896 57.9977 68.6925 58.8745C68.537 60.2803 68.3428 61.7319 68.1127 63.2031L70.5225 63.4761C71.3963 63.5753 72.0274 64.3644 71.929 65.2414C71.8301 66.1173 71.039 66.7469 70.1634 66.6476L64.726 66.0314C64.4179 65.997 64.1411 65.8769 63.9152 65.698ZM80.0886 73.5925C79.4049 73.0508 79.282 72.0579 79.817 71.3658C80.9152 69.945 82.0002 68.4835 83.0423 67.022C83.5539 66.3044 84.5505 66.137 85.2685 66.6489C85.9893 67.163 86.1532 68.1568 85.6413 68.8748C84.5756 70.37 83.4656 71.8648 82.3429 73.318C81.8036 74.0156 80.8014 74.1438 80.1039 73.6052C80.0987 73.6005 80.0941 73.5968 80.0886 73.5925ZM74.7898 66.9302C74.3722 66.5995 74.1297 66.0669 74.1941 65.4984C74.293 64.6225 75.0841 63.9929 75.9597 64.0922L81.397 64.7083C82.2716 64.8074 82.902 65.5973 82.8035 66.4735C82.7046 67.3495 81.9135 67.979 81.0379 67.8797L75.6006 67.2636C75.2932 67.2292 75.0157 67.1091 74.7898 66.9302ZM66.5421 54.4971C66.1541 54.1897 65.9141 53.7066 65.9379 53.1741C66.0183 51.3633 66.0318 49.5633 65.9783 47.8233C65.9512 46.9423 66.6436 46.2061 67.5246 46.179C68.4057 46.1518 69.1419 46.8442 69.1694 47.7256C69.2249 49.5443 69.2109 51.4253 69.1271 53.3155C69.0883 54.1961 68.3424 54.8786 67.4622 54.8394C67.1129 54.8242 66.7959 54.6981 66.5421 54.4971ZM66.186 43.5707C65.8678 43.3186 65.6447 42.9455 65.5925 42.51C65.3822 40.7678 65.0784 39.0082 64.6873 37.2799C64.4931 36.42 65.0318 35.5652 65.892 35.3707C66.7515 35.1762 67.6068 35.7159 67.8009 36.5751C68.2156 38.4099 68.5391 40.2779 68.7615 42.1283C68.8672 43.0034 68.243 43.7986 67.3679 43.9037C66.9276 43.9572 66.5077 43.8255 66.186 43.5707ZM63.7761 32.9096C63.5417 32.7239 63.3573 32.4711 63.2551 32.1672C62.6902 30.4845 62.0358 28.8255 61.3085 27.2345C60.942 26.4326 61.2949 25.4856 62.0968 25.1191C62.8987 24.7533 63.8457 25.1062 64.2118 25.9078C64.9849 27.5995 65.6816 29.3639 66.2815 31.1516C66.5617 31.9874 66.1123 32.892 65.2766 33.1729C64.7446 33.3509 64.1847 33.2333 63.7761 32.9096ZM59.2273 22.9795C59.0802 22.863 58.9514 22.7186 58.8494 22.5475C57.9346 21.0195 56.9346 19.5535 55.8761 18.1909C55.3351 17.4946 55.4612 16.4918 56.1573 15.9512C56.8537 15.4108 57.8589 15.5395 58.3971 16.2323C59.5347 17.6968 60.6088 19.2701 61.589 20.9086C62.0414 21.6649 61.7953 22.6446 61.0391 23.0978C60.4528 23.4488 59.733 23.38 59.2273 22.9795ZM38.596 5.98413C38.0985 5.59005 37.8645 4.91835 38.0582 4.27352C38.3116 3.429 39.2016 2.95045 40.0458 3.20353C41.8685 3.75118 43.6629 4.46389 45.3797 5.32302C46.1689 5.71639 46.4872 6.67643 46.0929 7.46434C45.6984 8.25263 44.7399 8.57211 43.9516 8.17758C42.3983 7.40062 40.7746 6.75551 39.1275 6.26114C38.9288 6.20102 38.7497 6.10586 38.596 5.98413ZM52.5158 14.3772C52.4715 14.3421 52.4288 14.3044 52.3877 14.2637C51.475 13.3677 50.5117 12.5427 49.5398 11.7477C49.1673 11.4526 48.7837 11.162 48.3997 10.8837C47.6809 10.3623 47.5265 9.36847 48.0438 8.65473C48.5612 7.941 49.5591 7.78155 50.2728 8.29891C50.6979 8.60659 51.1276 8.93241 51.5332 9.25433C52.5946 10.0951 53.6347 11.0143 54.6242 11.9857C55.2534 12.6034 55.2627 13.6138 54.645 14.2429C54.0672 14.8305 53.1475 14.8769 52.5158 14.3772Z" fill="black"/>
</svg>
