<svg width="91" height="115" viewBox="0 0 91 115" fill="none" xmlns="http://www.w3.org/2000/svg">
<path d="M78.4003 51.7246C78.1465 46.1148 77.0538 41.9083 74.9579 38.4872C72.3698 34.2645 68.0167 30.9997 62.0212 28.7776C61.6772 26.4313 60.3147 22.9658 55.6564 20.5264C59.1241 17.0611 63.8637 14.9499 68.6459 14.8142C69.3507 14.794 69.9043 14.2059 69.8841 13.5011C69.8639 12.7963 69.277 12.2389 68.5722 12.2591C62.8074 12.426 57.1032 15.1106 53.1322 19.4751C49.454 18.3795 45.3089 19.1758 42.3378 21.6066C40.9545 22.7362 39.8448 24.2067 39.0984 25.893C36.4028 26.2377 33.841 26.8663 31.4756 27.7778C23.0522 31.024 17.0052 38.1925 16.0726 46.0339C15.6334 49.7263 16.4475 52.9958 18.3657 55.242C19.3749 56.4164 20.703 57.3602 22.4941 58.169C21.7118 70.7723 20.9308 83.3719 20.141 95.9728C20.0785 96.9754 20.0004 98.2225 20.4676 99.415C21.2983 101.526 23.3914 102.548 25.3266 103.27C26.2879 103.631 27.2916 103.976 28.3139 104.302C28.6987 104.425 29.0884 104.546 29.4756 104.661C29.4794 104.662 29.4794 104.662 29.4794 104.662C29.4832 104.663 29.4832 104.663 29.4832 104.663L29.502 104.669C31.7963 105.36 34.3153 105.999 37.1984 106.616C39.7878 107.177 42.3385 107.65 45.1553 108.163L45.8657 108.294C48.7867 108.832 51.8548 109.222 54.4008 107.64C56.7244 106.196 57.7667 103.648 58.6382 101.166C62.6548 89.7203 65.7873 77.88 67.9595 65.9617C71.4761 65.5715 74.2552 64.1976 76.0238 61.9523C76.0238 61.9523 76.0238 61.9523 76.025 61.9486C78.4038 58.9254 78.5431 54.8962 78.4003 51.7246ZM41.1965 27.5108C41.4872 26.7307 41.8674 25.9957 42.3324 25.3336C42.7936 24.6703 43.3397 24.0798 43.952 23.5812C46.4199 21.5675 50.0794 20.9902 53.0985 22.158C53.174 22.1821 53.2432 22.2125 53.3276 22.2477C57.1477 23.875 59.3656 26.5495 59.5643 29.7805C59.5643 29.7805 59.5643 29.7805 59.5631 29.7842C59.66 31.3033 59.3105 32.8794 58.5488 34.3405C56.4694 38.353 51.3851 40.6452 47.2198 39.4481C44.0399 38.5366 41.4523 35.7441 40.7876 32.5015C40.4551 30.8739 40.5948 29.1477 41.1965 27.5108ZM26.2155 100.876C24.8075 100.352 23.3084 99.6571 22.8452 98.4783C22.5826 97.8166 22.6389 96.9242 22.6915 96.1346C23.4608 83.7932 24.2277 71.4593 24.997 59.1179C25.0309 59.1288 25.0599 59.1422 25.0976 59.1542L25.4786 59.2759C27.7382 59.9974 30.1567 60.6118 32.8308 61.1415C31.0495 74.5564 29.6655 88.198 28.7123 101.74C27.861 101.464 27.022 101.176 26.2155 100.876ZM31.218 102.511C32.1661 88.8677 33.5562 75.1158 35.3462 61.5955C38.1688 62.077 40.9876 62.4534 43.8384 62.7942C41.0122 76.3702 38.5167 90.1598 36.413 103.829C34.5329 103.404 32.8142 102.967 31.218 102.511ZM38.9132 104.37C41.0259 90.6202 43.5379 76.7527 46.3845 63.1001C50.6864 63.6092 53.8562 64.2141 56.6309 64.7675C52.163 78.1601 48.0756 91.8322 44.4658 105.441C42.534 105.086 40.7188 104.743 38.9132 104.37ZM56.2268 100.321C55.5089 102.374 54.6712 104.464 53.0522 105.472C51.4332 106.481 49.273 106.294 46.9838 105.9C50.5987 92.3012 54.6851 78.6454 59.1531 65.2654C60.3909 65.5027 61.6172 65.7238 62.8541 65.886C63.692 65.9956 64.5218 66.0528 65.3435 66.0699C63.1986 77.6686 60.1371 89.1824 56.2268 100.321ZM74.0177 60.3722C72.1602 62.7263 69.0726 63.374 66.8038 63.5017C65.6362 63.5653 64.417 63.5169 63.1889 63.3533C61.6561 63.1548 60.1182 62.8549 58.5463 62.5442L57.8307 62.403C54.9594 61.827 51.3875 61.1145 46.5475 60.5458L45.5216 60.4261C41.7879 59.9862 38.1341 59.5302 34.4838 58.8551C31.2867 58.2707 28.4827 57.5748 25.8896 56.726C25.2684 56.5234 24.7614 56.3407 24.2958 56.1588C22.4582 55.4306 21.1904 54.6101 20.3095 53.5806C18.3507 51.2923 18.4025 48.0582 18.6074 46.3361C19.4315 39.4204 24.8426 33.0715 32.3937 30.1619C34.2244 29.4537 36.1914 28.9304 38.261 28.5936C37.9816 30.0674 37.9881 31.5701 38.2869 33.0165C39.1371 37.1622 42.4434 40.7371 46.5145 41.9041C51.8802 43.4429 58.1627 40.6396 60.8166 35.5178C61.4818 34.2421 61.9017 32.888 62.0585 31.5247C67.028 33.5231 70.6274 36.3103 72.782 39.8209C74.6426 42.8593 75.6176 46.6791 75.8533 51.8382C75.9742 54.5705 75.875 58.0056 74.0177 60.3722Z" fill="black"/>
<path d="M58.549 34.3391C56.4696 38.3516 51.3853 40.6438 47.22 39.4467C44.0401 38.5352 41.4525 35.7427 40.7878 32.5C40.4553 30.8725 40.595 29.1463 41.1967 27.5094C41.4874 26.7293 41.8676 25.9943 42.3326 25.3322C42.7938 24.6689 43.3399 24.0784 43.9522 23.5798C46.4201 21.5661 50.0796 20.9888 53.0987 22.1566C53.1742 22.1807 53.2434 22.2111 53.3278 22.2463C57.1479 23.8736 59.3658 26.548 59.5645 29.779C59.5645 29.779 59.5645 29.779 59.5633 29.7828C59.6602 31.3019 59.3107 32.878 58.549 34.3391Z" fill="#FFD200"/>
<path d="M74.0175 60.3718C72.16 62.7259 69.0724 63.3736 66.8036 63.5013C65.636 63.5649 64.4168 63.5165 63.1887 63.3529C61.6559 63.1544 60.118 62.8545 58.5461 62.5438L57.8305 62.4026C54.9592 61.8266 51.3873 61.1141 46.5473 60.5454L45.5214 60.4257C41.7877 59.9858 38.1339 59.5299 34.4836 58.8547C31.2865 58.2703 28.4825 57.5744 25.8894 56.7256C25.2682 56.523 24.7612 56.3403 24.2956 56.1584C22.458 55.4302 21.1902 54.6097 20.3093 53.5802C18.3506 51.2919 18.4023 48.0578 18.6072 46.3357C19.4313 39.42 24.8424 33.0711 32.3935 30.1615C34.2242 29.4533 36.1912 28.93 38.2608 28.5932C37.9814 30.067 37.9879 31.5697 38.2867 33.0161C39.1369 37.1619 42.4432 40.7367 46.5143 41.9037C51.88 43.4425 58.1625 40.6392 60.8164 35.5174C61.4816 34.2417 61.9015 32.8876 62.0583 31.5243C67.0278 33.5227 70.6272 36.31 72.7818 39.8205C74.6424 42.8589 75.6174 46.6787 75.8531 51.8378C75.974 54.5701 75.8748 58.0052 74.0175 60.3718Z" fill="#DE1585"/>
<path d="M56.2264 100.321C55.5085 102.374 54.6709 104.463 53.0518 105.472C51.4328 106.48 49.2727 106.294 46.9835 105.899C50.5984 92.3009 54.6847 78.6451 59.1528 65.2651C60.3906 65.5024 61.6169 65.7236 62.8537 65.8857C63.6917 65.9953 64.5214 66.0525 65.3432 66.0696C63.1982 77.6683 60.1367 89.1821 56.2264 100.321Z" fill="#46DDE3"/>
<path d="M44.4655 105.441C42.5336 105.086 40.7184 104.743 38.9129 104.37C41.0256 90.6207 43.5376 76.7532 46.3842 63.1006C50.6861 63.6097 53.8559 64.2145 56.6305 64.768C52.1626 78.1606 48.0753 91.8327 44.4655 105.441Z" fill="#46DDE3"/>
<path d="M36.413 103.83C34.5328 103.404 32.8141 102.967 31.2179 102.511C32.1661 88.8679 33.5562 75.116 35.3462 61.5958C38.1688 62.0772 40.9875 62.4536 43.8384 62.7944C41.0121 76.3704 38.5167 90.16 36.413 103.83Z" fill="#46DDE3"/>
<path d="M28.713 101.74C27.8617 101.464 27.0228 101.175 26.2162 100.876C24.8082 100.351 23.3092 99.6566 22.8459 98.4777C22.5833 97.8161 22.6397 96.9237 22.6923 96.1341C23.4616 83.7927 24.2284 71.4588 24.9977 59.1174C25.0317 59.1283 25.0606 59.1417 25.0983 59.1537L25.4793 59.2754C27.7389 59.9969 30.1574 60.6112 32.8316 61.1409C31.0502 74.5559 29.6662 88.1975 28.713 101.74Z" fill="#46DDE3"/>
</svg>
