<svg width="28" height="29" viewBox="0 0 28 29" fill="none" xmlns="http://www.w3.org/2000/svg">
<path d="M10.0878 0C10.5475 0.0733153 10.9373 0.18426 11.338 0.424593C13.4278 1.67723 14.0056 5.95421 14.5697 8.17602C16.3295 5.98597 19.0649 1.73212 21.7938 0.984854C22.4818 0.796665 23.1788 0.879385 23.7752 1.29183C24.1833 1.57412 24.4489 1.99049 24.4811 2.49939C24.6252 4.7898 19.308 9.94697 17.6539 11.792C20.455 12.0884 24.0435 12.2676 26.4672 13.8143C27.1261 14.2345 27.9423 14.954 27.9974 15.8059C28.0262 16.247 27.8107 16.6159 27.4931 16.9013C25.4833 18.7068 19.0537 16.9601 16.4692 16.5277C17.221 19.3462 17.9894 22.674 18.0185 25.5886C18.0329 27.0349 17.8857 27.7469 16.8831 28.782C16.7612 28.8263 16.642 28.8772 16.5178 28.9145C15.954 29.0838 15.398 29.0015 14.9134 28.669C13.0182 27.3682 12.5883 20.5859 12.2509 18.1583C10.617 20.3436 7.11077 25.9007 4.56284 26.6907C4.03516 26.8542 3.38012 26.8875 2.91108 26.5476C2.47814 26.2339 2.28555 25.7215 2.2176 25.2083C1.80679 22.1052 6.53999 17.651 8.32067 15.2606C6.354 15.05 2.04132 15.6856 0.582527 14.1071C0.151142 13.6402 -0.0313531 13.1121 0.00436914 12.482C0.0393148 11.8653 0.323153 11.3298 0.811616 10.9612C3.06484 9.26242 8.03917 10.2418 10.6818 10.5276C9.72044 8.17524 7.9518 4.17191 8.59791 1.6733C8.83127 0.768429 9.33254 0.446949 10.0878 0Z" fill="#DE1585"/>
</svg>
