<svg width="122" height="80" viewBox="0 0 122 80" fill="none" xmlns="http://www.w3.org/2000/svg">
<path d="M33.9052 43.0008C33.8087 43.3824 33.4272 43.618 33.0434 43.5305C32.9267 43.5036 32.8212 43.4497 32.7359 43.3779L32.3971 44.3407C32.2938 44.6369 32.0155 44.8254 31.7148 44.8254C31.6587 44.8254 31.6048 44.8187 31.5487 44.8053C31.1896 44.72 30.9495 44.3788 30.9966 44.0108L31.0415 43.6539C30.8754 43.7302 30.6802 43.7437 30.4939 43.6786C30.1505 43.5552 29.9508 43.1938 30.0316 42.837L30.8597 39.1653C30.9225 38.8848 31.1447 38.6693 31.4275 38.6155C31.708 38.5594 31.9953 38.6761 32.1591 38.9117C32.2489 39.0419 32.3365 39.1653 32.4172 39.2865C32.4262 39.2888 32.4329 39.291 32.4397 39.2932C32.5452 39.3247 32.6394 39.3785 32.718 39.4503C32.8437 39.3561 33.0052 39.3067 33.1646 39.309C33.4788 39.3179 33.7526 39.5267 33.8401 39.8274C34.1453 40.8598 34.1678 41.9572 33.9052 43.0008Z" fill="black"/>
<path d="M51.7339 38.7051C51.7541 38.8847 51.7384 39.0709 51.6891 39.2752C51.6038 39.641 51.2514 39.8789 50.8811 39.8228C50.7397 39.8026 50.614 39.7443 50.513 39.6567C50.4928 39.7196 50.4704 39.7824 50.4502 39.8452C50.347 40.303 50.219 40.7542 50.0664 41.1963C49.9609 41.4925 49.6826 41.6811 49.3819 41.6811C49.3168 41.6811 49.2472 41.6721 49.1799 41.6519C48.8635 41.5599 48.657 41.2703 48.6592 40.9539C48.4797 41.194 48.1655 41.3063 47.867 41.2143C47.5124 41.1088 47.297 40.7497 47.3665 40.3861L48.0151 37.0242C48.0555 36.8042 48.1969 36.6157 48.3967 36.5147C48.5807 36.4227 48.7939 36.4114 48.9847 36.4855L49.2966 35.7359C49.4245 35.4307 49.7455 35.2534 50.0709 35.3005C50.3986 35.3499 50.6522 35.6147 50.6859 35.9446C50.6903 35.994 50.6948 36.0456 50.6993 36.0972C50.8811 35.9648 51.119 35.9199 51.3434 35.9895C51.6599 36.0883 51.8686 36.3913 51.8506 36.7234L51.7339 38.7051Z" fill="black"/>
<path d="M74.217 38.7567C74.2888 39.0373 74.2686 39.3357 74.1698 39.6679C74.0666 40.0158 73.7232 40.2335 73.3641 40.1773C73.1307 40.1414 72.94 39.9978 72.8367 39.8026L72.4956 40.6015C72.3789 40.8731 72.1141 41.0392 71.829 41.0414C71.7684 41.0414 71.7079 41.0324 71.6473 41.0167C71.3151 40.9292 71.0929 40.624 71.1064 40.2851C70.9223 40.395 70.6912 40.4242 70.4735 40.3389C70.1009 40.1953 69.9169 39.7756 70.0605 39.4031L70.9268 37.1543C70.938 37.1274 70.9493 37.1027 70.9627 37.078L71.6764 35.2376C71.8088 34.901 72.1702 34.7125 72.5225 34.7978C72.8749 34.8831 73.1105 35.2174 73.0701 35.5788L73.0499 35.7606C73.2205 35.5945 73.4651 35.5182 73.712 35.572C74.0509 35.6461 74.291 35.9491 74.2821 36.2969L74.217 38.7567Z" fill="black"/>
<path d="M63.1808 52.0987C63.183 52.487 62.88 52.8057 62.4918 52.8259C62.1484 52.8438 61.8387 52.6082 61.7556 52.2783C61.7085 52.2671 61.6479 52.2536 61.5716 52.2401C61.4325 52.6194 61.3225 53.0054 61.2395 53.4004C61.1632 53.7685 60.8198 54.0176 60.445 53.9728C60.2497 53.9481 60.0837 53.8493 59.9692 53.7079C59.8727 54.0109 59.5921 54.2106 59.2802 54.2106C59.2465 54.2106 59.2129 54.2084 59.1792 54.2039C58.8224 54.1522 58.5575 53.847 58.5575 53.4879L58.5508 51.4165C58.5508 51.0192 58.8717 50.696 59.269 50.6916H59.343L60.0163 48.3867C60.1196 48.0366 60.4674 47.8166 60.8265 47.8772C61.1878 47.9356 61.4482 48.2543 61.4347 48.6178L61.4011 49.4886C61.4841 49.3719 61.5694 49.2552 61.6569 49.143C61.8409 48.9096 62.1484 48.8108 62.4334 48.8939C62.7162 48.9792 62.9205 49.2283 62.9496 49.5223L63.1583 51.816C63.1808 51.9347 63.1808 52.0334 63.1808 52.0987Z" fill="black"/>
<path d="M41.6513 54.0456C41.5391 54.1802 41.382 54.2655 41.2136 54.2925L40.9556 55.8343C40.895 56.1844 40.592 56.438 40.2419 56.438C40.2172 56.438 40.1925 56.4358 40.1656 56.4335C40.0264 56.4201 39.8985 56.3639 39.7952 56.2831C39.7234 56.3056 39.6471 56.3191 39.5708 56.3168C39.2589 56.3146 38.9806 56.1126 38.8863 55.8141L38.0492 53.186C37.8809 52.9414 37.8045 52.6496 37.7933 52.2928C37.7821 51.9314 38.0402 51.6195 38.3948 51.5589C38.7494 51.4983 39.0973 51.707 39.205 52.0527L39.3217 52.4117C39.3733 52.4409 39.4541 52.479 39.5731 52.5217C39.6157 52.2389 39.6494 51.9561 39.6785 51.6711L39.7571 49.6782C39.7728 49.2877 40.0982 48.9734 40.4887 48.9847C40.8815 48.9892 41.1979 49.3034 41.2047 49.6939C41.2159 50.3919 41.189 51.0831 41.1216 51.7721L41.1171 51.9C41.2787 51.9875 41.4066 52.1357 41.465 52.3197L41.7904 53.361C41.8645 53.5989 41.8129 53.8548 41.6513 54.0456Z" fill="black"/>
<path d="M121.31 63.1161C120.623 61.1187 119.939 59.1213 119.256 57.1238L119.061 56.5583L117.221 51.1944C112.021 36.0319 106.818 20.8695 101.618 5.70474C100.294 1.84904 98.436 -0.0698741 96.0772 0.00194349C94.1808 0.0558066 92.7534 1.49218 91.564 2.83203C84.3014 11.0192 77.0388 19.2064 69.774 27.3914L68.1537 29.216C45.5222 31.9832 22.8951 35.4596 0.591303 39.6071C0.203039 39.6789 -0.0550474 40.0492 0.0100372 40.4375C2.50121 55.4496 10.2351 67.3242 21.7865 73.8753C28.9099 77.915 37.5325 80 46.7655 80C50.3025 80 53.9315 79.6948 57.601 79.0753C68.1065 77.3001 76.9423 73.2806 83.2466 67.4274C87.5175 68.2691 91.8759 68.6887 96.2321 68.6887C104.7 68.6887 113.154 67.1132 120.895 64.0228C121.252 63.8792 121.436 63.4819 121.31 63.1161ZM70.8581 28.3519C78.1206 20.167 85.3831 11.9798 92.6457 3.79259C93.6803 2.6278 94.8002 1.48547 96.1199 1.44731H96.1962C97.8076 1.44731 99.1721 3.03624 100.249 6.17601C105.449 21.3385 110.652 36.501 115.852 51.6635L117.418 56.2261C108.921 57.4807 100.339 57.2563 91.8804 55.5596C96.4745 46.0348 97.5674 35.2756 97.4956 26.8191C97.4934 26.6171 97.4059 26.4241 97.2555 26.2872C97.1051 26.1525 96.9054 26.0852 96.7034 26.1054C94.3783 26.3276 92.0509 26.5588 89.7236 26.7967C89.7214 26.7967 89.7214 26.7967 89.7191 26.7967C83.2578 27.4565 76.7897 28.1769 70.3217 28.9556L70.8581 28.3519ZM88.8281 28.3452C85.6053 39.2996 79.1687 48.7907 70.6246 55.1556C59.8857 63.1543 45.6568 65.9372 33.4905 62.4181C22.2712 59.1729 12.7195 50.254 8.92663 39.5644C35.3398 34.8581 62.1434 31.0945 88.8281 28.3452ZM83.0491 65.6165C76.9154 71.6851 68.0325 75.8438 57.3586 77.6482C44.4472 79.8274 32.0653 78.0409 22.5001 72.6164C11.5143 66.3863 4.09691 55.1424 1.55636 40.9001C3.5291 40.5342 5.50633 40.1751 7.48356 39.8183C9.38448 45.3101 12.7173 50.4181 17.1632 54.6262C21.7191 58.9375 27.2266 62.1131 33.0888 63.8098C36.6953 64.8512 40.5062 65.3763 44.3798 65.3763C47.2727 65.3763 50.2015 65.0846 53.1057 64.4988C59.7421 63.159 66.1001 60.3289 71.4887 56.3161C80.4322 49.6551 87.1247 39.6791 90.379 28.1838C92.2709 27.9908 94.1606 27.8045 96.0503 27.6228C96.0481 35.9962 94.8519 46.4929 90.2174 55.6586C90.1815 55.7102 90.1523 55.7663 90.1298 55.8269C88.3254 59.3569 86.0093 62.6875 83.0491 65.6165ZM84.5124 66.1953C87.2639 63.3787 89.461 60.2277 91.2048 56.9016C96.2949 57.9497 101.43 58.4771 106.565 58.4771C110.346 58.4771 114.13 58.1876 117.896 57.6198C118.502 59.3906 119.108 61.1614 119.716 62.9321C108.715 67.1806 96.2949 68.3274 84.5124 66.1953Z" fill="black"/>
<path d="M8.92773 39.5649C12.7206 50.2545 22.2723 59.1734 33.4916 62.4187C45.6579 65.9377 59.8868 63.1548 70.6257 55.1561C79.1698 48.7913 85.6064 39.3001 88.8292 28.3457C62.1445 31.095 35.3409 34.8587 8.92773 39.5649ZM33.9068 43.001C33.8103 43.3825 33.4288 43.6182 33.045 43.5307C32.9283 43.5037 32.8228 43.4498 32.7375 43.378L32.3986 44.3408C32.2954 44.6371 32.0171 44.8256 31.7163 44.8256C31.6602 44.8256 31.6064 44.8189 31.5503 44.8054C31.1912 44.7201 30.9511 44.379 30.9982 44.0109L31.0431 43.6541C30.877 43.7304 30.6817 43.7438 30.4955 43.6788C30.1521 43.5553 29.9523 43.194 30.0331 42.8372L30.8613 39.1655C30.9241 38.8849 31.1463 38.6695 31.4291 38.6156C31.7096 38.5595 31.9969 38.6762 32.1607 38.9119C32.2505 39.042 32.338 39.1655 32.4188 39.2867C32.4278 39.2889 32.4345 39.2912 32.4413 39.2934C32.5467 39.3248 32.641 39.3787 32.7195 39.4505C32.8452 39.3562 33.0068 39.3069 33.1662 39.3091C33.4804 39.3181 33.7542 39.5268 33.8417 39.8276C34.1469 40.8599 34.1694 41.9574 33.9068 43.001ZM41.6519 54.0474C41.5396 54.1821 41.3825 54.2674 41.2142 54.2943L40.9561 55.8361C40.8955 56.1862 40.5925 56.4398 40.2424 56.4398C40.2177 56.4398 40.1931 56.4376 40.1661 56.4354C40.027 56.4219 39.8991 56.3658 39.7958 56.285C39.724 56.3074 39.6477 56.3209 39.5714 56.3187C39.2594 56.3164 38.9811 56.1144 38.8869 55.8159L38.0498 53.1878C37.8814 52.9432 37.8051 52.6514 37.7939 52.2946C37.7827 51.9333 38.0408 51.6213 38.3954 51.5607C38.75 51.5001 39.0978 51.7089 39.2056 52.0545L39.3223 52.4136C39.3739 52.4427 39.4547 52.4809 39.5736 52.5235C39.6163 52.2407 39.6499 51.958 39.6791 51.6729L39.7577 49.68C39.7734 49.2895 40.0988 48.9753 40.4893 48.9865C40.8821 48.991 41.1985 49.3052 41.2052 49.6957C41.2165 50.3937 41.1895 51.085 41.1222 51.774L41.1177 51.9018C41.2793 51.9894 41.4072 52.1375 41.4656 52.3216L41.791 53.3629C41.8651 53.6008 41.8135 53.8566 41.6519 54.0474ZM51.6906 39.2754C51.6053 39.6412 51.253 39.8792 50.8827 39.8231C50.7413 39.8029 50.6156 39.7445 50.5146 39.657C50.4944 39.7198 50.4719 39.7826 50.4517 39.8455C50.3485 40.3033 50.2206 40.7544 50.068 41.1966C49.9625 41.4928 49.6842 41.6814 49.3835 41.6814C49.3184 41.6814 49.2488 41.6724 49.1815 41.6522C48.865 41.5601 48.6586 41.2706 48.6608 40.9542C48.4813 41.1943 48.167 41.3065 47.8686 41.2145C47.514 41.109 47.2985 40.75 47.3681 40.3864L48.0167 37.0244C48.0571 36.8045 48.1985 36.616 48.3982 36.515C48.5822 36.423 48.7954 36.4117 48.9862 36.4858L49.2982 35.7362C49.4261 35.4309 49.747 35.2537 50.0725 35.3008C50.4001 35.3502 50.6537 35.615 50.6874 35.9449C50.6919 35.9943 50.6964 36.0459 50.7009 36.0975C50.8826 35.9651 51.1205 35.9202 51.345 35.9898C51.6614 36.0885 51.8701 36.3915 51.8522 36.7237L51.7355 38.7054C51.7557 38.885 51.74 39.0712 51.6906 39.2754ZM62.4924 52.8265C62.149 52.8445 61.8393 52.6088 61.7563 52.2789C61.7091 52.2677 61.6486 52.2542 61.5723 52.2407C61.4331 52.62 61.3231 53.0061 61.2401 53.4011C61.1638 53.7691 60.8204 54.0182 60.4456 53.9733C60.2504 53.9486 60.0843 53.8499 59.9698 53.7085C59.8733 54.0115 59.5928 54.2112 59.2808 54.2112C59.2471 54.2112 59.2135 54.209 59.1798 54.2045C58.823 54.1529 58.5582 53.8477 58.5582 53.4886L58.5514 51.4171C58.5514 51.0199 58.8724 50.6967 59.2696 50.6922H59.3437L60.0169 48.3873C60.1202 48.0372 60.468 47.8172 60.8271 47.8778C61.1885 47.9362 61.4488 48.2549 61.4354 48.6185L61.4017 49.4892C61.4847 49.3725 61.57 49.2559 61.6575 49.1437C61.8416 48.9102 62.149 48.8115 62.4341 48.8945C62.7168 48.9798 62.9211 49.2289 62.9503 49.5229L63.159 51.8166C63.1814 51.9355 63.1814 52.0343 63.1814 52.0994C63.1836 52.4879 62.8807 52.8063 62.4924 52.8265ZM74.1717 39.6682C74.0685 40.016 73.7251 40.2337 73.366 40.1776C73.1326 40.1417 72.9419 39.9981 72.8386 39.8029L72.4975 40.6018C72.3808 40.8734 72.116 41.0395 71.8309 41.0417C71.7703 41.0417 71.7098 41.0327 71.6492 41.017C71.317 40.9295 71.0948 40.6242 71.1083 40.2854C70.9242 40.3953 70.6931 40.4245 70.4754 40.3392C70.1028 40.1956 69.9188 39.7759 70.0624 39.4034L70.9287 37.1546C70.9399 37.1276 70.9512 37.103 70.9646 37.0783L71.6783 35.2379C71.8108 34.9013 72.1721 34.7128 72.5244 34.7981C72.8768 34.8833 73.1124 35.2177 73.072 35.5791L73.0518 35.7609C73.2224 35.5948 73.467 35.5185 73.7139 35.5723C74.0528 35.6464 74.2929 35.9494 74.284 36.2972L74.2189 38.757C74.2907 39.0376 74.2705 39.336 74.1717 39.6682Z" fill="#EA1A27"/>
<path d="M115.852 51.6634C110.652 36.501 105.45 21.3384 100.25 6.17596C99.1727 3.03619 97.8082 1.44727 96.1968 1.44727H96.1205C94.8008 1.48542 93.6809 2.62776 92.6463 3.79255C85.3837 11.9797 78.1212 20.1669 70.8587 28.3519L70.3223 28.9556C76.7903 28.1768 83.2584 27.4564 89.7197 26.7966C89.722 26.7966 89.722 26.7966 89.7242 26.7966C92.0516 26.5587 94.3789 26.3275 96.704 26.1053C96.906 26.0851 97.1057 26.1525 97.2561 26.2871C97.4065 26.424 97.494 26.617 97.4962 26.819C97.568 35.2755 96.4751 46.0347 91.881 55.5595C100.34 57.2562 108.922 57.4806 117.419 56.2261L115.852 51.6634ZM84.3693 25.0169C84.219 25.3423 83.8531 25.5084 83.5098 25.4074C83.2719 25.3378 83.0968 25.156 83.025 24.9338L82.8881 25.1919C82.7602 25.432 82.5111 25.5757 82.2485 25.5757C82.1789 25.5757 82.1071 25.5667 82.0375 25.5443C81.7076 25.4433 81.4921 25.1224 81.528 24.7767L81.5752 24.3391C81.2991 24.1641 81.1712 23.8162 81.2834 23.4953L81.8557 21.8389C81.9769 21.4911 82.3382 21.2891 82.6973 21.3677C82.8993 21.4125 83.0631 21.5405 83.1619 21.7066C83.2876 21.6056 83.4424 21.5472 83.6085 21.5449H83.6175C83.8778 21.5449 84.1202 21.6863 84.2481 21.9153C84.7733 22.8511 84.8204 24.0408 84.3693 25.0169ZM91.4344 15.0342C91.2279 15.2295 90.9743 15.3664 90.6668 15.4449L90.4155 15.7995C90.218 16.0756 89.8566 16.1788 89.5447 16.0464C89.4549 16.0105 89.3764 15.9544 89.309 15.8893L88.9589 16.2663C88.8175 16.4189 88.6245 16.4997 88.427 16.4997C88.2968 16.4997 88.1622 16.4638 88.0455 16.3898C87.7515 16.2057 87.628 15.8377 87.7537 15.5145L87.8996 15.1352C87.6976 15.0208 87.5585 14.8121 87.536 14.5719C87.5091 14.2757 87.6662 13.9906 87.9333 13.8582L88.7547 13.4453C89.0083 13.3196 89.309 13.3532 89.529 13.526L89.5469 13.5081C89.7601 13.277 90.099 13.2119 90.3818 13.3443L90.5411 13.1199C90.705 12.8887 90.99 12.7742 91.2705 12.8281C91.5488 12.8842 91.771 13.0974 91.8361 13.3734C91.9932 14.049 91.8496 14.637 91.4344 15.0342ZM100.663 18.569L100.239 21.1118C100.194 21.3721 100.019 21.5763 99.7899 21.6661L99.6912 22.2855C99.6373 22.6379 99.3321 22.896 98.9775 22.896H98.9505C98.5825 22.8825 98.2862 22.5975 98.2548 22.2317L98.0506 19.6822C97.6443 19.2782 97.8778 18.6991 98.0192 18.3445C98.1448 18.0326 98.4658 17.8486 98.8002 17.8979C98.872 17.9091 98.9393 17.9294 99.0022 17.9608C99.148 17.7767 99.3769 17.669 99.6283 17.6915C99.6979 17.6982 99.7652 17.7139 99.8258 17.7386C99.9964 17.7094 100.176 17.7409 100.329 17.8351C100.578 17.9877 100.71 18.2795 100.663 18.569ZM105.239 30.787L104.635 34.4295C104.575 34.793 104.249 35.0466 103.881 35.0354C103.818 35.0309 103.758 35.0197 103.699 35.0018C103.621 35.0354 103.536 35.0556 103.446 35.0601H103.412C103.12 35.0601 102.858 34.8828 102.748 34.618C102.598 34.7638 102.389 34.8424 102.169 34.82C101.778 34.7796 101.493 34.4362 101.523 34.0479C101.531 33.8953 101.549 33.7472 101.581 33.5901L101.958 30.8049C102.005 30.457 102.295 30.1922 102.647 30.1788C102.997 30.1631 103.309 30.4054 103.383 30.7488L103.399 30.8229C103.58 30.6209 103.778 30.4054 103.998 30.172C104.218 29.9409 104.561 29.8802 104.846 30.0216C105.131 30.163 105.291 30.4728 105.239 30.787Z" fill="#EA1A27"/>
<path d="M119.716 62.9308C108.714 67.1793 96.2943 68.3261 84.5117 66.1941C87.2632 63.3775 89.4604 60.2264 91.2042 56.9004C96.2943 57.9485 101.429 58.4759 106.564 58.4759C110.346 58.4759 114.13 58.1864 117.896 57.6186C118.502 59.3893 119.108 61.1601 119.716 62.9308Z" fill="#34A420"/>
<path d="M96.0506 27.6211C96.0483 35.9946 94.8521 46.4911 90.2177 55.6569C90.1817 55.7085 90.1526 55.7646 90.1301 55.8252C88.3257 59.3555 86.0096 62.686 83.0494 65.6148C76.9157 71.6834 68.0328 75.8421 57.3589 77.6465C44.4474 79.8257 32.0656 78.0393 22.5004 72.6148C11.5146 66.3846 4.09719 55.1407 1.55664 40.8983C3.52938 40.5325 5.50661 40.1735 7.48384 39.8166C9.38476 45.3084 12.7175 50.4164 17.1635 54.6245C21.7194 58.9358 27.2269 62.1115 33.089 63.8082C36.6956 64.8495 40.5065 65.3747 44.3801 65.3747C47.273 65.3747 50.2018 65.0829 53.1059 64.4972C59.7423 63.1573 66.1004 60.3273 71.489 56.3145C80.4325 49.6534 87.125 39.6775 90.3792 28.1822C92.2712 27.9892 94.1609 27.8031 96.0506 27.6211Z" fill="#34A420"/>
<path d="M91.4345 15.0357C91.2281 15.2309 90.9745 15.3678 90.667 15.4464L90.4156 15.801C90.2181 16.077 89.8568 16.1803 89.5449 16.0478C89.4551 16.0119 89.3765 15.9558 89.3092 15.8908L88.9591 16.2678C88.8177 16.4204 88.6247 16.5012 88.4272 16.5012C88.297 16.5012 88.1624 16.4653 88.0456 16.3912C87.7516 16.2072 87.6282 15.8391 87.7539 15.516L87.8998 15.1367C87.6978 15.0222 87.5586 14.8135 87.5362 14.5734C87.5093 14.2771 87.6664 13.9921 87.9334 13.8597L88.7549 13.4467C89.0085 13.3211 89.3092 13.3547 89.5291 13.5275L89.5471 13.5096C89.7603 13.2784 90.0992 13.2133 90.382 13.3458L90.5413 13.1213C90.7051 12.8902 90.9902 12.7757 91.2707 12.8296C91.549 12.8857 91.7712 13.0989 91.8363 13.3749C91.9934 14.0504 91.8497 14.6384 91.4345 15.0357Z" fill="black"/>
<path d="M100.662 18.5699L100.238 21.1127C100.193 21.373 100.018 21.5773 99.7891 21.667L99.6904 22.2865C99.6365 22.6388 99.3313 22.8969 98.9767 22.8969H98.9498C98.5817 22.8834 98.2855 22.5984 98.2541 22.2326L98.0498 19.6831C97.6436 19.2791 97.877 18.7001 98.0184 18.3455C98.1441 18.0335 98.465 17.8495 98.7994 17.8988C98.8712 17.9101 98.9386 17.9303 99.0014 17.9617C99.1473 17.7777 99.3762 17.6699 99.6276 17.6924C99.6971 17.6991 99.7645 17.7148 99.8251 17.7395C99.9956 17.7103 100.175 17.7418 100.328 17.8361C100.577 17.9887 100.709 18.2804 100.662 18.5699Z" fill="black"/>
<path d="M84.3687 25.0177C84.2183 25.3431 83.8525 25.5092 83.5091 25.4082C83.2712 25.3386 83.0962 25.1568 83.0244 24.9346L82.8875 25.1927C82.7595 25.4328 82.5104 25.5765 82.2478 25.5765C82.1783 25.5765 82.1064 25.5675 82.0369 25.5451C81.7069 25.4441 81.4915 25.1231 81.5274 24.7775L81.5745 24.3399C81.2985 24.1648 81.1706 23.817 81.2828 23.496L81.8551 21.8397C81.9763 21.4919 82.3376 21.2899 82.6967 21.3684C82.8987 21.4133 83.0625 21.5413 83.1613 21.7073C83.2869 21.6063 83.4418 21.5479 83.6079 21.5457H83.6168C83.8772 21.5457 84.1196 21.6871 84.2475 21.916C84.7726 22.8519 84.8198 24.0416 84.3687 25.0177Z" fill="black"/>
<path d="M105.238 30.7863L104.634 34.4288C104.574 34.7923 104.248 35.0459 103.88 35.0347C103.818 35.0302 103.757 35.019 103.699 35.0011C103.62 35.0347 103.535 35.0549 103.445 35.0594H103.411C103.12 35.0594 102.857 34.8821 102.747 34.6173C102.597 34.7631 102.388 34.8417 102.168 34.8193C101.777 34.7789 101.492 34.4355 101.522 34.0473C101.531 33.8946 101.549 33.7465 101.58 33.5894L101.957 30.8042C102.004 30.4563 102.294 30.1915 102.646 30.1781C102.996 30.1624 103.308 30.4047 103.382 30.7481L103.398 30.8222C103.58 30.6202 103.777 30.4047 103.997 30.1713C104.217 29.9402 104.56 29.8795 104.845 30.0209C105.13 30.1623 105.29 30.4721 105.238 30.7863Z" fill="black"/>
</svg>
