<svg width="102" height="124" viewBox="0 0 102 124" fill="none" xmlns="http://www.w3.org/2000/svg">
<path d="M58.3013 45.0007C49.4031 55.3274 45.6419 69.8312 47.941 83.2463C44.8327 78.7939 41.4608 74.4804 37.4958 70.6716C32.9537 66.3122 25.927 61.0852 17.1319 59.3982C23.8883 53.389 28.9021 45.4669 31.4094 36.7658C33.0729 30.9785 33.6147 24.8887 33.0438 18.9049C39.9642 30.8124 48.1753 39.2645 58.3013 45.0007Z" fill="#6E59CD"/>
<path d="M90.9414 81.9379C81.2845 78.5781 74.1537 72.2292 67.8097 61.3582C67.3973 60.6466 66.4925 60.3881 65.7643 60.7811C65.0406 61.1727 64.7535 62.0671 65.1196 62.8045C67.7357 68.1084 68.3273 74.2964 66.7795 80.235C65.2199 86.2126 61.5129 91.8585 56.3481 96.121C55.8391 96.5397 55.6559 97.2384 55.8937 97.8491C56.1285 98.4657 56.734 98.8611 57.3939 98.827C64.1012 98.5098 69.6641 101.413 73.151 103.9C77.6867 107.143 81.3047 111.429 84.8033 115.571C85.2204 116.061 85.8845 116.231 86.4639 116.034C86.5987 115.988 86.7273 115.924 86.8438 115.839C87.4922 115.388 87.6924 114.518 87.3041 113.834C82.2593 104.911 84.0169 92.8124 91.5746 84.4035C91.9174 84.0263 92.0431 83.4974 91.9201 83.0031C91.791 82.5058 91.4255 82.109 90.9414 81.9379ZM81.8421 107.558C79.7476 105.349 77.4933 103.245 74.9271 101.417C71.7279 99.1276 66.9456 96.53 61.1161 95.8921C65.3072 91.6251 68.3224 86.4501 69.7383 81.0074C70.6221 77.6249 70.88 74.1697 70.5367 70.8037C75.5063 77.0158 81.1678 81.3288 87.8833 84.0556C82.5231 90.9403 80.3862 99.655 81.8421 107.558Z" fill="#FFD200"/>
<path d="M87.8827 84.0549C82.5225 90.9396 80.3857 99.6543 81.8415 107.558C79.7471 105.349 77.4927 103.244 74.9265 101.416C71.7274 99.1269 66.945 96.5293 61.1156 95.8915C65.3066 91.6244 68.3219 86.4495 69.7377 81.0068C70.6216 77.6242 70.8794 74.169 70.5362 70.803C75.5057 77.0151 81.1673 81.3281 87.8827 84.0549Z" fill="#FFD200"/>
</svg>
