<svg width="120" height="151" viewBox="0 0 120 151" fill="none" xmlns="http://www.w3.org/2000/svg">
<path d="M103.489 68.2764C103.154 60.8716 101.711 55.319 98.9446 50.8031C95.5283 45.2292 89.7822 40.9196 81.8682 37.9864C81.4141 34.8893 79.6155 30.3149 73.4666 27.0948C78.044 22.5207 84.3003 19.7338 90.6127 19.5547C91.5431 19.5281 92.2738 18.7518 92.2472 17.8214C92.2205 16.8911 91.4458 16.1554 90.5155 16.182C82.9059 16.4023 75.3764 19.9459 70.1347 25.7071C65.2795 24.261 59.8079 25.3121 55.8861 28.5208C54.0601 30.0118 52.5953 31.9529 51.6101 34.1788C48.0518 34.6338 44.6702 35.4635 41.5479 36.6667C30.429 40.9517 22.4471 50.4141 21.216 60.7647C20.6362 65.6387 21.7108 69.9545 24.2428 72.9194C25.575 74.4697 27.3281 75.7154 29.6923 76.7831C28.6598 93.4195 27.6288 110.051 26.5863 126.684C26.5038 128.008 26.4007 129.654 27.0174 131.228C28.1139 134.014 30.8767 135.363 33.4312 136.316C34.7002 136.792 36.0251 137.248 37.3745 137.679C37.8824 137.841 38.3969 138 38.908 138.152C38.9129 138.154 38.9129 138.154 38.9129 138.154C38.9179 138.156 38.9179 138.156 38.9179 138.156L38.9428 138.164C41.9712 139.076 45.2963 139.918 49.1021 140.733C52.5201 141.473 55.887 142.098 59.6051 142.775L60.5429 142.949C64.3986 143.659 68.4485 144.173 71.8092 142.085C74.8764 140.179 76.2521 136.815 77.4025 133.539C82.7045 118.431 86.8394 102.802 89.7067 87.0694C94.3486 86.5544 98.017 84.7408 100.352 81.7771C100.352 81.7771 100.352 81.7771 100.353 81.7721C103.493 77.7815 103.677 72.4629 103.489 68.2764ZM54.3796 36.3142C54.7633 35.2845 55.2651 34.3144 55.8789 33.4404C56.4877 32.5648 57.2085 31.7854 58.0168 31.1272C61.2744 28.4691 66.105 27.7071 70.0902 29.2485C70.1898 29.2803 70.2812 29.3205 70.3926 29.367C75.4352 31.515 78.3628 35.0453 78.6251 39.3102C78.6251 39.3102 78.6251 39.3102 78.6235 39.3152C78.7513 41.3204 78.29 43.4008 77.2846 45.3295C74.5397 50.626 67.8285 53.6517 62.3303 52.0715C58.1328 50.8683 54.7171 47.1822 53.8397 42.9019C53.4009 40.7535 53.5853 38.4749 54.3796 36.3142ZM34.6046 133.157C32.746 132.465 30.7673 131.547 30.1558 129.991C29.8092 129.118 29.8835 127.94 29.953 126.898C30.9684 110.607 31.9807 94.3263 32.9961 78.0357C33.041 78.05 33.0792 78.0677 33.129 78.0836L33.6319 78.2442C36.6145 79.1966 39.807 80.0075 43.3369 80.7067C40.9855 98.4144 39.1586 116.421 37.9004 134.297C36.7766 133.933 35.6692 133.552 34.6046 133.157ZM41.2079 135.315C42.4594 117.305 44.2943 99.1528 46.6572 81.3061C50.383 81.9417 54.1037 82.4384 57.8669 82.8884C54.1362 100.809 50.8422 119.011 48.0653 137.055C45.5835 136.493 43.3149 135.916 41.2079 135.315ZM51.3656 137.768C54.1544 119.619 57.4702 101.314 61.2277 83.2922C66.9063 83.9642 71.0904 84.7626 74.7529 85.4931C68.8553 103.171 63.46 121.218 58.6951 139.182C56.145 138.713 53.7489 138.261 51.3656 137.768ZM74.2195 132.424C73.2719 135.134 72.1661 137.892 70.029 139.223C67.8919 140.555 65.0406 140.308 62.0188 139.787C66.7905 121.838 72.1844 103.812 78.0822 86.1503C79.7161 86.4635 81.3349 86.7555 82.9675 86.9695C84.0736 87.1142 85.1689 87.1896 86.2536 87.2123C83.4222 102.522 79.3811 117.721 74.2195 132.424ZM97.7035 79.6913C95.2516 82.7987 91.176 83.6537 88.1811 83.8222C86.6399 83.9062 85.0306 83.8422 83.4096 83.6264C81.3862 83.3643 79.3562 82.9685 77.2813 82.5584L76.3367 82.3719C72.5465 81.6116 67.8316 80.6711 61.4429 79.9205L60.0887 79.7624C55.1601 79.1817 50.3371 78.5799 45.5187 77.6887C41.2986 76.9173 37.5973 75.9987 34.1745 74.8783C33.3545 74.6109 32.6852 74.3698 32.0706 74.1296C29.6449 73.1684 27.9715 72.0854 26.8088 70.7264C24.2231 67.7059 24.2914 63.4368 24.5619 61.1637C25.6498 52.0349 32.7924 43.6543 42.7598 39.8137C45.1763 38.8789 47.7728 38.1881 50.5047 37.7436C50.1359 39.689 50.1444 41.6725 50.5389 43.5818C51.6612 49.0542 56.0255 53.773 61.3993 55.3134C68.482 57.3447 76.7749 53.6443 80.2781 46.8835C81.1561 45.1995 81.7104 43.4121 81.9174 41.6126C88.4771 44.2505 93.2283 47.9297 96.0724 52.5636C98.5284 56.5743 99.8154 61.6164 100.126 68.4264C100.286 72.033 100.155 76.5674 97.7035 79.6913Z" fill="black"/>
<path d="M77.2855 45.3289C74.5406 50.6253 67.8294 53.6511 62.3312 52.0709C58.1337 50.8677 54.718 47.1816 53.8406 42.9013C53.4018 40.7529 53.5862 38.4743 54.3805 36.3136C54.7642 35.2839 55.266 34.3137 55.8798 33.4398C56.4886 32.5642 57.2094 31.7848 58.0177 31.1265C61.2753 28.4685 66.1059 27.7064 70.0911 29.2479C70.1907 29.2797 70.2821 29.3199 70.3935 29.3664C75.4361 31.5144 78.3637 35.0447 78.626 39.3096C78.626 39.3096 78.626 39.3096 78.6244 39.3146C78.7522 41.3198 78.2909 43.4002 77.2855 45.3289Z" fill="#FFD200"/>
<path d="M97.703 79.6908C95.2511 82.7982 91.1755 83.6532 88.1806 83.8217C86.6394 83.9057 85.0301 83.8417 83.4091 83.6259C81.3857 83.3638 79.3557 82.968 77.2808 82.5578L76.3362 82.3714C72.546 81.6111 67.8311 80.6706 61.4424 79.92L60.0882 79.7619C55.1596 79.1812 50.3366 78.5794 45.5182 77.6882C41.2981 76.9167 37.5968 75.9982 34.174 74.8777C33.354 74.6104 32.6847 74.3693 32.0701 74.1291C29.6444 73.1679 27.971 72.0848 26.8083 70.7259C24.2226 67.7054 24.2909 63.4363 24.5614 61.1632C25.6493 52.0344 32.7919 43.6538 42.7593 39.8132C45.1758 38.8784 47.7723 38.1876 50.5042 37.7431C50.1354 39.6885 50.1439 41.672 50.5384 43.5813C51.6607 49.0536 56.025 53.7725 61.3988 55.3129C68.4815 57.3442 76.7744 53.6438 80.2776 46.883C81.1556 45.199 81.7099 43.4116 81.9169 41.6121C88.4766 44.25 93.2278 47.9291 96.0719 52.5631C98.5279 56.5738 99.8149 61.6159 100.126 68.4259C100.286 72.0325 100.155 76.5669 97.703 79.6908Z" fill="#DE1585"/>
<path d="M74.2186 132.424C73.2709 135.134 72.1652 137.892 70.0281 139.223C67.891 140.555 65.0397 140.308 62.0179 139.787C66.7896 121.837 72.1835 103.812 78.0813 86.1502C79.7152 86.4634 81.334 86.7554 82.9666 86.9695C84.0727 87.1142 85.168 87.1896 86.2527 87.2122C83.4213 102.522 79.3802 117.721 74.2186 132.424Z" fill="#46DDE3"/>
<path d="M58.6949 139.182C56.1449 138.714 53.7488 138.262 51.3654 137.769C54.1542 119.62 57.4701 101.315 61.2276 83.2931C66.9061 83.9651 71.0902 84.7635 74.7527 85.4941C68.8551 103.172 63.4598 121.219 58.6949 139.182Z" fill="#46DDE3"/>
<path d="M48.0652 137.055C45.5834 136.493 43.3147 135.917 41.2077 135.315C42.4593 117.306 44.2942 99.1533 46.6571 81.3066C50.3829 81.9422 54.1036 82.439 57.8667 82.8889C54.1361 100.809 50.8421 119.011 48.0652 137.055Z" fill="#46DDE3"/>
<path d="M37.9006 134.297C36.7768 133.933 35.6694 133.552 34.6048 133.157C32.7462 132.464 30.7675 131.547 30.156 129.991C29.8094 129.118 29.8837 127.94 29.9532 126.898C30.9686 110.607 31.9809 94.3262 32.9963 78.0355C33.0412 78.0498 33.0794 78.0675 33.1292 78.0834L33.6321 78.244C36.6147 79.1965 39.8072 80.0074 43.3371 80.7066C40.9857 98.4143 39.1588 116.421 37.9006 134.297Z" fill="#46DDE3"/>
</svg>
