<svg width="125" height="115" viewBox="0 0 125 115" fill="none" xmlns="http://www.w3.org/2000/svg">
<path d="M88.8751 112.422C88.7394 112.37 88.6078 112.304 88.4817 112.221C88.1875 112.028 87.9571 111.774 87.7977 111.485C87.3365 111.37 86.9232 111.1 86.6291 110.702L85.2223 108.796C84.5399 107.87 84.7363 106.566 85.6624 105.883C85.8469 105.747 86.0465 105.646 86.2534 105.578C86.2554 105.277 86.2571 104.977 86.2589 104.678C86.2653 103.527 87.2037 102.6 88.354 102.606C89.5038 102.612 90.431 103.551 90.4247 104.702C90.4237 104.911 90.4224 105.12 90.4209 105.329C90.5779 105.074 90.7349 104.818 90.8903 104.564C91.489 103.582 92.772 103.272 93.7533 103.869C94.7359 104.468 95.0471 105.75 94.4476 106.733C93.4492 108.37 92.4119 110.014 91.3646 111.617C90.8184 112.453 89.7719 112.767 88.8751 112.422ZM81.9072 103.757C81.549 103.619 81.2252 103.381 80.9807 103.05L76.7387 97.3032C76.0557 96.3772 76.2522 95.0729 77.1776 94.3897C78.1039 93.7061 79.408 93.9032 80.0912 94.8286L84.3332 100.575C85.0161 101.501 84.8197 102.806 83.8942 103.489C83.2997 103.928 82.5489 104.004 81.9072 103.757ZM87.6022 99.4908C86.8248 99.1917 86.2717 98.4395 86.2667 97.5562C86.2531 94.9837 86.2198 92.6605 86.1657 90.4545C86.1375 89.304 87.0465 88.3487 88.197 88.3205C89.3457 88.2916 90.3025 89.2004 90.3313 90.3511C90.3864 92.5851 90.4199 94.9348 90.4332 97.5349C90.4399 98.6854 89.5115 99.6229 88.3606 99.6288C88.0936 99.6299 87.8374 99.5813 87.6022 99.4908ZM95.5237 101.425C95.4321 101.39 95.3418 101.347 95.254 101.298C94.2498 100.738 93.8897 99.4691 94.4501 98.4641C95.5914 96.4189 96.7095 94.3226 97.7733 92.2325C98.2949 91.2077 99.5438 90.7977 100.575 91.3205C101.6 91.8424 102.008 93.0967 101.487 94.1223C100.399 96.2601 99.2555 98.4039 98.0887 100.495C97.5769 101.412 96.4754 101.791 95.5237 101.425ZM73.4233 92.2634C73.065 92.1255 72.7412 91.8874 72.4967 91.5566L68.2548 85.8099C67.5716 84.8844 67.7682 83.5795 68.6937 82.8963C69.6202 82.2121 70.924 82.4098 71.6072 83.3352L75.8492 89.0819C76.5322 90.008 76.3357 91.3123 75.4103 91.9955C74.8163 92.4344 74.0656 92.5105 73.4233 92.2634ZM64.9402 80.7696C64.582 80.6317 64.2581 80.3936 64.0136 80.0628L60.7178 75.5981C60.2926 75.0226 60.1927 74.269 60.4541 73.6023C60.7145 72.9361 61.299 72.4499 62.0017 72.3152L63.565 72.0145C64.6935 71.7971 65.7868 72.5348 66.0053 73.6658C66.118 74.2492 65.9751 74.8222 65.6552 75.2703L67.3667 77.5884C68.0499 78.5138 67.8532 79.8187 66.9278 80.5019C66.3326 80.9404 65.5819 81.0164 64.9402 80.7696ZM87.2297 85.2107C86.4861 84.9246 85.9412 84.2227 85.8961 83.3752C85.7678 80.9393 85.6004 78.5686 85.3981 76.3285C85.2948 75.1824 86.1399 74.1698 87.286 74.0666C88.4309 73.9629 89.4447 74.8084 89.5482 75.954C89.7543 78.2454 89.9259 80.6682 90.058 83.1555C90.1186 84.3046 89.2359 85.2853 88.087 85.3453C87.785 85.362 87.4945 85.3126 87.2297 85.2107ZM102 88.6955C101.957 88.6792 101.915 88.6616 101.873 88.6421C100.829 88.1598 100.373 86.9223 100.855 85.8781C101.839 83.7461 102.792 81.5698 103.69 79.4095C104.131 78.3477 105.35 77.8446 106.413 78.2854C107.476 78.7267 107.979 79.9457 107.538 81.0091C106.62 83.2182 105.644 85.4436 104.638 87.6237C104.175 88.626 103.016 89.0864 102 88.6955ZM70.2266 74.6577C69.5776 74.408 69.0682 73.8388 68.9273 73.1054C68.7098 71.9756 69.4505 70.8834 70.5799 70.6671L77.5942 69.3194C78.7215 69.103 79.8146 69.8414 80.0333 70.9717C80.2509 72.1015 79.5101 73.1937 78.3805 73.4106L71.3662 74.7582C70.97 74.8343 70.5776 74.7927 70.2266 74.6577ZM84.2558 71.962C83.6069 71.7123 83.0976 71.1432 82.9567 70.4097C82.7518 69.3443 83.3987 68.3123 84.4205 68.0158C84.1375 66.0915 83.8163 64.2073 83.4637 62.3989C83.2439 61.2696 83.981 60.176 85.11 59.9554C86.2373 59.7355 87.3334 60.4715 87.5535 61.6017C87.9067 63.4138 88.2294 65.2979 88.5151 67.2205L91.6237 66.6232C92.7511 66.4067 93.8444 67.1445 94.0629 68.2754C94.2804 69.4053 93.5397 70.4974 92.4101 70.7143L85.3958 72.062C84.9985 72.139 84.6068 72.097 84.2558 71.962ZM107.478 75.5061C106.416 75.0972 105.876 73.908 106.274 72.8374C107.089 70.64 107.872 68.3969 108.602 66.1706C108.961 65.0774 110.137 64.4811 111.231 64.8396C112.329 65.1997 112.92 66.3742 112.561 67.468C111.815 69.7455 111.014 72.0397 110.18 74.2871C109.78 75.3661 108.581 75.9157 107.502 75.516C107.494 75.5121 107.487 75.5093 107.478 75.5061ZM98.2844 69.2667C97.6354 69.017 97.126 68.4478 96.9851 67.7144C96.7676 66.5846 97.5083 65.4924 98.638 65.2755L105.652 63.9279C106.78 63.7111 107.873 64.45 108.091 65.5801C108.309 66.7099 107.568 67.8021 106.439 68.019L99.4243 69.3667C99.0279 69.4433 98.6354 69.4017 98.2844 69.2667ZM83.1713 56.9843C82.5682 56.7522 82.0813 56.2436 81.9039 55.571C81.2995 53.2835 80.6161 51.0356 79.8726 48.8884C79.496 47.8012 80.0723 46.6147 81.1594 46.2381C82.2466 45.8615 83.4332 46.4378 83.8104 47.5252C84.5872 49.7696 85.3014 52.1187 85.9324 54.5064C86.2266 55.6187 85.5628 56.7592 84.4508 57.0528C84.0097 57.1697 83.5658 57.136 83.1713 56.9843ZM78.4768 43.509C77.9823 43.3188 77.5593 42.9407 77.3247 42.4184C76.385 40.3295 75.322 38.2553 74.1622 36.2541C73.5858 35.2583 73.9244 33.9837 74.9205 33.4066C75.9158 32.8299 77.1913 33.1697 77.7674 34.1647C78.998 36.2895 80.1277 38.491 81.1247 40.71C81.5969 41.7592 81.1285 42.9928 80.0789 43.4642C79.5512 43.7022 78.9768 43.7014 78.4768 43.509ZM71.3267 31.1634C70.9625 31.0233 70.6344 30.7801 70.3888 30.4412C69.0304 28.5643 67.5696 26.7519 66.0445 25.0525C65.2759 24.196 65.3471 22.8788 66.2036 22.1103C67.0605 21.3425 68.3777 21.4138 69.1457 22.27C70.7671 24.0771 72.3215 26.0044 73.7644 27.9983C74.4387 28.9307 74.2307 30.2326 73.2987 30.9078C72.7052 31.3365 71.9618 31.4078 71.3267 31.1634ZM61.796 20.5606C61.5675 20.4727 61.3508 20.343 61.1572 20.1695C59.4229 18.6216 57.6067 17.1841 55.7578 15.8981C54.8128 15.241 54.5798 13.9425 55.2367 12.9981C55.8942 12.0539 57.1967 11.8232 58.1367 12.477C60.1239 13.8591 62.0743 15.4015 63.9329 17.0617C64.7909 17.828 64.8653 19.1444 64.0994 20.0032C63.5056 20.6686 62.5819 20.863 61.796 20.5606ZM29.4788 7.41159C28.7057 7.11413 28.1527 6.36828 28.1432 5.48949C28.1304 4.33868 29.0532 3.39619 30.2034 3.38312C32.6875 3.35635 35.2004 3.54629 37.6738 3.9488C38.8101 4.13188 39.5801 5.20425 39.3954 6.33931C39.2105 7.47497 38.1406 8.24591 37.0049 8.06101C34.7673 7.69726 32.4933 7.52516 30.2488 7.54996C29.9779 7.55234 29.7177 7.50347 29.4788 7.41159ZM50.0873 12.4536C50.0185 12.4272 49.9506 12.3969 49.8836 12.3621C48.3978 11.6008 46.8766 10.9477 45.3564 10.3352C44.7775 10.1124 44.1864 9.89957 43.5997 9.70225C42.5014 9.33229 41.9223 8.15407 42.2893 7.06352C42.6562 5.97297 43.8374 5.38611 44.928 5.75304C45.5774 5.97102 46.2394 6.20981 46.8701 6.45311C48.5195 7.0877 50.1732 7.82843 51.7839 8.65375C52.8081 9.17865 53.2128 10.4338 52.6879 11.4581C52.1966 12.4149 51.0687 12.8305 50.0873 12.4536Z" fill="white"/>
</svg>
