<svg width="80" height="78" viewBox="0 0 80 78" fill="none" xmlns="http://www.w3.org/2000/svg">
<path d="M32.7372 0.000306461C34.7752 -0.00769354 36.6772 0.130313 38.1692 1.68231C42.2912 5.96831 40.9762 18.6054 41.1352 24.4984C44.5352 18.8264 47.8372 12.8923 51.6332 7.48633C52.9622 5.59533 54.3662 3.52234 56.8242 3.18634C58.9472 2.89534 62.0312 3.17135 63.6482 4.71735C64.5822 5.61135 64.8682 6.88435 64.8152 8.13635C64.5312 14.8884 52.9822 27.0243 48.1112 31.7133C52.5462 30.1603 57.0322 28.7744 61.5702 27.5554C65.9242 26.3614 72.5632 24.2193 76.7002 26.8283C78.1512 27.7433 78.9512 29.1704 79.2182 30.8444C79.5152 32.7004 79.1162 34.2983 77.8872 35.7493C74.0552 40.2743 58.8592 39.7673 53.2702 40.1213C58.6322 43.0063 73.4992 50.3783 76.0762 55.4973C76.7252 56.7853 76.6362 58.5153 75.9902 59.7803C75.8992 59.9573 75.7982 60.1283 75.6872 60.2943C75.5772 60.4603 75.4582 60.6193 75.3302 60.7723C75.2032 60.9253 75.0672 61.0714 74.9232 61.2094C74.7802 61.3474 74.6292 61.4773 74.4722 61.5983C74.3142 61.7203 74.1502 61.8333 73.9802 61.9373C73.8102 62.0413 73.6352 62.1353 73.4552 62.2203C73.2752 62.3053 73.0912 62.3793 72.9022 62.4443C72.7132 62.5093 72.5222 62.5634 72.3282 62.6074C71.3462 62.8364 70.1892 62.8663 69.2252 62.5653C63.9282 60.9063 51.6672 51.4693 46.3522 47.9573C47.8312 55.7003 49.4732 63.4063 50.8902 71.1613C50.6082 72.2093 50.2972 73.0213 49.7042 73.9393C48.7312 75.4483 47.5442 77.0373 45.6282 77.2763C44.1592 77.4593 42.6942 76.5864 41.6172 75.6624C35.3012 70.2454 35.6872 58.3333 34.9952 50.7043C32.1182 55.3253 30.0052 60.4253 27.0762 65.0363C25.5692 67.4083 23.3242 70.5313 20.3582 71.0673C18.7942 71.3503 17.4082 70.8473 16.1832 69.8973C14.9272 68.9243 13.9752 67.4753 13.8252 65.8673C13.2122 59.3243 23.2162 49.3223 27.3242 44.4973C20.9922 45.6863 8.37319 49.7913 2.96319 45.8083C1.39919 44.6573 0.269185 42.9233 0.0401853 40.9763C-0.144815 39.3963 0.314167 38.0913 1.30917 36.8713C4.40517 33.0713 21.0152 34.9913 26.6842 34.4093C20.9712 30.4113 14.1142 26.7794 9.08819 22.0164C7.48119 20.4934 6.28619 18.8663 6.48019 16.5333C6.61719 14.8863 7.47617 13.3003 8.68517 12.1943C9.86217 11.1173 11.5552 10.3924 13.1722 10.5424C19.2412 11.1064 27.2212 22.3603 31.2652 26.9753C29.8282 20.5603 26.3362 10.7053 28.2152 4.42932C28.9422 2.00332 30.6322 1.10331 32.7372 0.000306461Z" fill="#EA1A27"/>
</svg>
