<svg width="95" height="99" viewBox="0 0 95 99" fill="none" xmlns="http://www.w3.org/2000/svg">
<path d="M48.2956 25.6965C51.2985 20.1875 54.5132 15.5386 59.0002 11.1248C61.6516 8.51621 70.1726 0.602604 73.6813 0.792804C74.2614 0.824146 74.7689 1.05743 75.1499 1.49949C76.1811 2.69572 76.144 4.67992 76.1329 6.18313C76.0728 14.3498 73.2786 22.2392 70.3262 29.7705C69.6019 31.6177 67.7359 34.7625 67.634 36.5145C68.65 37.3814 74.0674 36.5296 75.561 36.5239C80.5062 36.5053 85.5043 36.8697 90.2219 38.4232C91.9417 38.9899 93.9714 39.6941 94.7741 41.4738C95.0432 42.0706 95.0593 42.55 94.7889 43.1672C92.8331 47.6337 79.8384 53.1237 75.2064 54.9922C80.0894 60.3418 84.5794 67.0057 86.327 74.1614C86.6613 75.5299 87.0219 77.3376 86.1949 78.6031C85.723 79.3252 84.9975 79.7167 84.1617 79.8401C82.1171 80.1425 79.8001 79.1959 77.8964 78.5474C70.994 76.1962 64.5098 73.1578 58.5375 68.9374C56.8237 72.8947 55.2159 76.9352 53.1242 80.711C50.9989 84.5465 42.1885 97.1743 38.2355 98.1312C37.6598 98.2707 37.1434 98.2325 36.65 97.884C32.9021 95.2361 32.9985 69.9589 32.4075 64.2388C37.5105 68.5224 43.4682 71.3346 50.2612 70.7479C56.2102 70.2338 61.2157 67.411 65.0355 62.82C68.8043 58.2899 70.673 52.9182 70.1102 47.021C69.6515 42.2159 67.748 37.1992 63.9281 34.124C58.7484 29.9539 52.1985 28.716 45.7249 29.457C41.4393 30.5097 37.4833 32.623 34.6517 36.1165C34.0869 36.8229 33.6131 37.635 33.1801 38.4302C30.9094 42.5997 30.091 47.6491 31.484 52.2278C31.5582 52.466 31.6383 52.702 31.7242 52.9357C31.8104 53.17 31.9021 53.4016 31.9997 53.6309C32.0968 53.8601 32.2 54.0866 32.3089 54.3109C32.4179 54.5349 32.5321 54.7559 32.6523 54.9742C32.7721 55.1925 32.8971 55.4074 33.0278 55.6191C33.1584 55.8312 33.294 56.0395 33.4352 56.2445C33.5761 56.4494 33.722 56.6505 33.8731 56.8482C34.0243 57.0459 34.1801 57.2391 34.3409 57.4289C34.5016 57.6187 34.6671 57.8041 34.8369 57.9848C35.007 58.1661 35.1814 58.3429 35.3603 58.5156C35.539 58.6877 35.7221 58.8553 35.9093 59.0187C36.0966 59.1817 36.2879 59.34 36.483 59.4935C36.6779 59.6465 36.8767 59.7947 37.0794 59.9383C37.2821 60.0818 37.488 60.2199 37.6975 60.3527C37.907 60.4856 38.1197 60.6134 38.3357 60.7354C38.5516 60.8574 38.7703 60.9742 38.9923 61.0852C42.8579 63.067 47.1749 63.863 51.3688 62.436C55.1253 61.158 58.1041 58.5548 59.8542 54.9694C61.7731 51.0369 62.4158 45.8621 60.9164 41.7063C59.897 38.8811 57.6706 36.3247 54.9432 35.094C51.9497 33.7434 48.5625 33.5292 45.4773 34.7829C42.6214 35.9436 40.4714 38.0415 39.2489 40.8884C38.0545 43.6718 37.67 47.3216 38.8534 50.1367C39.6926 52.134 41.2689 53.5995 43.2856 54.3462C45.0841 55.0126 46.9143 55.0752 48.6589 54.1773C50.3626 53.3008 51.4355 51.7204 51.9643 49.9004C52.5579 47.8564 52.5053 45.1497 51.4032 43.2876C50.8199 42.3017 49.9418 41.6392 48.8285 41.3784C47.9479 41.1723 47.0971 41.2529 46.3377 41.7823C45.5387 42.3391 44.9701 43.273 44.8515 44.244C44.7622 44.9775 44.9602 45.9246 45.5059 46.4549C45.9284 46.8655 46.0805 46.9082 46.6309 46.9467C47.3107 46.663 47.6764 46.1729 48.1474 45.6263C48.4324 45.2954 48.4588 45.3453 48.8573 45.2389C49.2411 45.4126 49.5582 45.5437 49.8114 45.9043C50.1833 46.4359 50.1983 47.0833 50.0637 47.6958C49.7808 48.986 48.8383 50.2343 47.7182 50.9126C46.8649 51.4292 45.8688 51.6146 44.9127 51.3117C43.5676 50.8859 42.4327 49.5397 41.8839 48.2738C41.1055 46.4781 41.7015 44.4623 42.4279 42.7437C43.3353 40.5984 44.8566 38.7709 47.0504 37.8999C49.0045 37.1241 51.1825 37.2706 53.0618 38.167C53.19 38.2295 53.3166 38.2956 53.4417 38.3645C53.5669 38.4334 53.6899 38.5058 53.8115 38.581C53.9332 38.6561 54.0524 38.7342 54.1702 38.8154C54.2879 38.8967 54.4034 38.9805 54.5164 39.0676C54.6299 39.1544 54.7411 39.2442 54.8504 39.3365C54.9592 39.4292 55.0658 39.5244 55.1701 39.622C55.2743 39.7201 55.3764 39.8203 55.4757 39.9232C55.5751 40.0261 55.6717 40.1314 55.7657 40.2391C55.8598 40.3468 55.9514 40.4573 56.0402 40.5697C56.1289 40.6821 56.2147 40.7963 56.2978 40.9132C56.3806 41.0297 56.4607 41.1484 56.5379 41.269C56.6155 41.3897 56.6897 41.5125 56.7606 41.6365C56.8319 41.7611 56.8998 41.8874 56.9649 42.015C57.03 42.1426 57.0918 42.272 57.1503 42.4029C57.2088 42.5339 57.2639 42.6665 57.316 42.8C57.3681 42.9334 57.4169 43.0685 57.4625 43.2049C58.5501 46.41 58.1213 50.3881 56.6028 53.4026C55.2301 56.1284 52.7711 58.3146 49.8572 59.211C46.7745 60.1591 43.4905 59.6212 40.6938 58.1089C37.7742 56.5308 35.2801 54.1577 34.353 50.8595C33.3102 47.1501 34.5265 42.6904 36.3454 39.3701C38.4438 35.5394 42.3695 32.7174 46.4982 31.5059C51.5733 30.0159 57.0102 31.2155 61.526 33.7895C65.1521 35.8562 67.2814 38.9104 68.3749 42.9301C69.8675 48.4156 69.4378 53.8952 66.5551 58.8779C63.8081 63.6257 58.9636 67.5785 53.6753 68.986C47.588 70.6067 42.1117 69.3547 36.741 66.2837C35.4708 65.5577 34.2633 64.3143 32.9547 63.7436C32.2666 63.4431 31.3138 63.9121 30.6178 64.155C25.1328 66.0708 10.7591 61.5961 5.63774 59.183C4.0631 58.4408 1.2323 57.2198 0.690279 55.4097C0.401331 54.4439 0.770091 53.4204 1.2748 52.5946C2.21831 51.0505 3.76235 49.6883 5.15716 48.5598C12.5338 42.5902 21.7146 40.5828 30.6945 38.5683C27.7521 31.5951 25.9377 22.1628 26.0679 14.6158C26.0895 13.3524 26.1422 11.747 27.158 10.8469C27.7481 10.3244 28.4875 10.1562 29.2551 10.218C35.1803 10.696 44.7132 21.1316 48.2956 25.6965Z" fill="#F9B71A"/>
</svg>
