<svg width="103" height="114" viewBox="0 0 103 114" fill="none" xmlns="http://www.w3.org/2000/svg">
<path d="M17.8417 67.1445C18.3929 67.1578 18.9349 67.2368 19.4821 67.3006C20.2273 67.899 20.2645 67.8864 20.4671 68.8122C19.4463 71.7783 12.4635 77.2255 9.91581 79.7314C8.93022 79.8469 8.45669 79.6975 7.55146 79.3681C7.24795 78.9855 7.17155 78.6933 7.26254 78.1813C7.84964 74.8725 15.2024 69.0692 17.8417 67.1445Z" fill="white"/>
<path d="M5.5395 52.7005C8.52815 52.4056 11.8947 52.0722 14.8063 52.9349C16.2036 53.3487 17.4482 53.9604 18.1483 55.2893C18.1071 55.7715 18.2074 55.9787 17.8148 56.328C16.6772 57.3415 15.0892 57.2685 13.6626 57.2505C9.76145 57.0407 3.80143 58.1983 0.391053 56.1574C-0.077832 55.3836 -0.0598968 55.4188 0.108131 54.5275C1.41649 52.9608 3.65134 52.9535 5.5395 52.7005Z" fill="white"/>
<path d="M81.0092 65.147C82.0333 65.1377 82.8894 65.2652 83.879 65.5348C87.8818 66.6247 97.2767 69.4035 99.3004 72.9022C99.3057 73.8778 99.1569 74.097 98.6827 74.9663C98.6183 74.9597 98.5545 74.9524 98.4908 74.9477C93.7162 74.5639 87.7516 71.9186 83.349 70.0118C82.0951 69.4685 80.5383 68.9239 79.997 67.5698C79.9346 66.5742 80.4879 65.9386 81.0092 65.147Z" fill="white"/>
<path d="M5.71771 33.3633C10.2611 33.7126 14.9639 35.1372 19.2178 36.7073C21.0269 37.3754 23.4411 38.1531 24.3038 40.0047C24.1716 41.0946 24.0554 41.2221 23.3607 42.0868C19.2642 41.8172 11.5569 39.5345 7.66233 38.0176C6.18262 37.4411 5.22625 36.9955 4.58203 35.4972C4.76401 34.4073 4.97586 34.1158 5.71771 33.3633Z" fill="white"/>
<path d="M29.7963 76.3652C30.125 76.4868 30.6251 76.6315 30.924 76.8368C31.7382 77.3973 31.8266 77.6689 32.1174 78.5635C31.8352 81.2513 23.8548 93.7565 21.7349 95.9263C21.1026 95.8977 20.7307 95.7602 20.1436 95.545C19.5366 94.7514 19.3779 94.6112 19.4317 93.5685C19.5738 90.7877 27.4259 78.6313 29.7963 76.3652Z" fill="white"/>
<path d="M40.9401 86.765C41.4296 86.7378 42.0732 86.6474 42.5494 86.7464C43.5104 86.945 43.6405 87.2558 44.1625 88.0089C44.3917 90.8594 42.1641 105.105 41.053 107.824C40.2288 107.785 39.6683 107.7 38.9058 107.378C38.0185 106.474 37.721 105.7 37.5457 104.443C36.9493 100.159 38.3978 90.275 40.9401 86.765Z" fill="white"/>
<path d="M86.8941 47.7516C90.8717 47.4853 95.3254 47.3671 99.2704 47.9117C100.635 48.1003 101.797 48.3128 102.645 49.4532C102.501 50.201 102.405 50.5012 101.784 51.0325C99.9605 52.5952 96.3256 52.1947 94.1007 52.204C89.6902 52.2485 84.8545 52.6782 80.4878 52.1682C78.9795 51.9922 78.3406 51.6707 77.4088 50.4673C77.3929 50.0834 77.264 49.7022 77.527 49.3861C79.0705 47.5318 84.5669 47.8267 86.8941 47.7516Z" fill="white"/>
<path d="M14.6938 14.6094C15.3832 14.6147 16.1722 14.6001 16.8237 14.8465C20.0621 16.0705 31.6859 27.1756 33.3735 30.3223C33.4758 31.2966 32.9398 31.913 32.4358 32.6907C32.0459 32.6867 31.4953 32.7133 31.1115 32.5844C28.6794 31.7669 15.4284 19.3268 14.4607 16.9943C14.0443 15.9915 14.3027 15.5804 14.6938 14.6094Z" fill="white"/>
<path d="M68.9299 78.2832C69.3264 78.3357 69.7043 78.3642 70.0815 78.5216C71.8694 79.2675 84.2185 97.5028 84.5665 99.7749C84.7319 100.853 84.4463 101.067 83.8718 101.936C83.5005 101.902 82.9393 101.888 82.578 101.741C80.2263 100.794 68.5188 83.7172 67.8473 81.0082C67.6029 80.0233 68.4192 79.0762 68.9299 78.2832Z" fill="white"/>
<path d="M44.4682 0.0382478C45.1044 0.0123462 46.278 -0.077954 46.877 0.161802C47.3047 0.333151 47.666 0.568901 47.8208 1.01188C48.5739 3.16836 47.5086 25.0765 46.4599 27.2017C46.3291 27.227 46.1983 27.2569 46.0661 27.2775C44.9723 27.4495 44.518 27.4189 43.6659 26.7654C42.0514 23.0787 43.2176 4.33127 44.4682 0.0382478Z" fill="white"/>
<path d="M92.0947 23.0503C92.3006 23.037 92.5058 23.0105 92.7117 23.0098C93.4808 23.0085 94.0639 23.0291 94.5095 23.7483C94.9558 24.4676 94.8177 24.9677 94.6629 25.7228C92.8385 27.7524 76.5418 34.5327 72.5224 36.4308C72.4221 36.4607 72.3245 36.5046 72.2209 36.5205C71.4531 36.64 70.9078 36.6898 70.3287 36.0908C69.6945 35.4353 69.7582 35.0866 69.8392 34.2664C72.9753 29.454 86.5106 25.0806 92.0947 23.0503Z" fill="white"/>
<path d="M55.8476 85.0273C56.4792 85.0532 57.2516 85.0346 57.8195 85.3415C58.4657 85.6908 58.7885 86.3417 59.0003 87.0105C59.788 89.4917 63.3113 109.949 63.3219 112.306C63.3245 112.955 63.0576 113.442 62.7633 114.001L61.1495 113.956C60.0032 113.336 59.5841 112.582 59.0926 111.411C56.9946 106.407 53.9887 89.7959 55.8476 85.0273Z" fill="white"/>
<path d="M80.3705 3.99414C80.7882 4.09642 81.3601 4.27643 81.7087 4.51884C82.4679 5.04883 82.5383 5.48783 82.6698 6.31735C81.8004 8.46784 63.834 22.9926 60.7045 25.4586C60.3917 25.3577 59.7561 25.2062 59.4686 25.0023C58.7779 24.5135 58.8177 24.1888 58.7188 23.4171C60.2987 18.9255 75.7507 6.37775 80.3705 3.99414Z" fill="white"/>
<path d="M46.2319 38.6969C50.422 38.5481 53.9373 38.9273 57.6837 40.9217C62.0697 43.2569 65.4854 47.17 66.8343 51.9997C68.2124 56.9336 67.2813 62.3052 64.6977 66.6832C61.6208 71.8974 57.0103 74.4065 51.3172 75.8862C47.4127 76.6314 42.7651 75.5415 39.3281 73.6069C35.067 71.2087 32.2331 67.0299 31.0024 62.3617C30.9207 62.0588 30.847 61.754 30.7806 61.4471C30.7148 61.1403 30.6564 60.8321 30.6053 60.5226C30.5541 60.2131 30.511 59.9023 30.4751 59.5909C30.4399 59.2794 30.412 58.9666 30.3921 58.6537C30.3722 58.3403 30.3602 58.0268 30.3556 57.7133C30.3509 57.3992 30.3542 57.0857 30.3655 56.7722C30.3768 56.4587 30.3954 56.1459 30.422 55.8331C30.4492 55.5203 30.4837 55.2088 30.5256 54.8973C30.5674 54.5865 30.6172 54.277 30.675 53.9689C30.7328 53.66 30.7979 53.3532 30.8709 53.0484C30.9433 52.7435 31.0237 52.44 31.112 52.1385C31.2003 51.8376 31.2953 51.5387 31.3983 51.2419C31.5012 50.9457 31.6108 50.6521 31.7283 50.3612C31.8459 50.0697 31.9701 49.7821 32.1016 49.4972C32.2331 49.2122 32.3719 48.9313 32.5173 48.653C32.6628 48.3754 32.8155 48.1011 32.9749 47.8308C35.9842 42.8126 40.6916 40.0763 46.2319 38.6969Z" fill="#F9D324"/>
<path d="M46.3122 44.3666C49.0698 44.1999 51.4328 44.1282 54.0469 45.2446C54.2388 45.3283 54.4281 45.4166 54.6153 45.5103C54.8026 45.6039 54.9873 45.7022 55.1693 45.8051C55.3512 45.9081 55.5305 46.0163 55.7072 46.1286C55.8839 46.2408 56.0572 46.3577 56.2279 46.4792C56.3979 46.6008 56.5653 46.7263 56.7293 46.8565C56.8934 46.9866 57.0534 47.1208 57.2102 47.2596C57.3669 47.3977 57.5203 47.5399 57.6697 47.6866C57.8192 47.8334 57.9653 47.9835 58.1067 48.1376C58.2482 48.291 58.3857 48.4484 58.5192 48.6098C58.6527 48.7712 58.7822 48.9352 58.907 49.1033C59.0319 49.2713 59.1521 49.442 59.2683 49.6167C59.3846 49.7907 59.4955 49.9673 59.6024 50.1473C59.7093 50.3273 59.8116 50.5099 59.9092 50.6952C60.0062 50.8805 60.0985 51.0678 60.1862 51.2584C60.2739 51.4483 60.3562 51.6403 60.4339 51.8349C60.5116 52.0295 60.5847 52.2254 60.6517 52.4233C61.9083 56.0057 61.741 60.2184 59.9896 63.6082C58.1606 67.1494 55.1633 69.2255 51.4547 70.4475C48.7981 70.8712 46.4211 70.8692 43.8821 69.8597C43.6776 69.7774 43.475 69.6897 43.2744 69.5974C43.0745 69.5051 42.8766 69.4075 42.6814 69.3052C42.4861 69.2023 42.2935 69.0946 42.1036 68.9824C41.9136 68.8702 41.727 68.7526 41.543 68.6304C41.3591 68.5082 41.1791 68.3814 41.0017 68.2505C40.8244 68.119 40.6504 67.9829 40.4804 67.8427C40.3097 67.7026 40.143 67.5585 39.9803 67.4097C39.8176 67.261 39.6582 67.1082 39.5028 66.9515C39.348 66.7941 39.1966 66.6333 39.0498 66.4693C38.903 66.3046 38.7603 66.1365 38.6221 65.9645C38.484 65.7925 38.3505 65.6172 38.221 65.4385C38.0915 65.2599 37.9666 65.0779 37.8464 64.8926C37.7262 64.7073 37.6113 64.5194 37.501 64.3281C37.3901 64.1375 37.2845 63.9436 37.1842 63.747C37.084 63.551 36.989 63.3518 36.898 63.1506C36.8083 62.9493 36.7233 62.7454 36.643 62.5402C35.3147 59.1106 35.5252 55.0407 37.1351 51.7433C39.0206 47.8833 42.3413 45.6743 46.3122 44.3666Z" fill="#FDFBFE"/>
<path d="M47.9976 49.6646C49.4282 49.5915 50.7751 49.6805 52.116 50.2338C53.949 50.9896 55.4155 52.3982 56.154 54.2505C57.0074 56.3904 56.8487 58.8298 55.8478 60.8913C54.6577 63.3406 52.6613 64.7075 50.1329 65.5277C48.618 65.5921 47.2611 65.5436 45.8418 64.9499C45.6061 64.8529 45.3763 64.744 45.1525 64.6238C44.928 64.5035 44.7101 64.372 44.4996 64.2293C44.2891 64.0865 44.0858 63.9337 43.8906 63.7703C43.6953 63.607 43.5087 63.4343 43.3314 63.2516C43.1541 63.069 42.986 62.8784 42.828 62.6792C42.6699 62.4793 42.5224 62.272 42.3856 62.0575C42.2488 61.843 42.1233 61.6225 42.0091 61.3947C41.8942 61.1669 41.7919 60.9345 41.7016 60.6967C40.878 58.5954 41.052 56.1559 42.0622 54.1489C43.3586 51.5747 45.3431 50.4768 47.9976 49.6646Z" fill="#F9D324"/>
<path d="M46.5779 53.8578C48.0343 53.8033 49.3128 53.7881 50.4618 54.8201C51.009 55.3109 51.3092 55.9239 51.3663 56.6532C51.4992 58.3494 50.5322 59.3589 49.4622 60.5198C49.358 60.5344 49.2544 60.5537 49.1501 60.5637C47.8822 60.6879 46.7545 60.6467 45.7563 59.7275C44.9667 59.0003 44.6744 58.1874 44.6778 57.1114C44.6824 55.6264 45.5611 54.7816 46.5779 53.8578Z" fill="#FDFBFE"/>
</svg>
