<svg width="140" height="143" viewBox="0 0 140 143" fill="none" xmlns="http://www.w3.org/2000/svg">
<path d="M131.941 113.221C132.149 113.021 132.294 112.752 132.335 112.444C132.433 111.721 131.925 111.056 131.202 110.959C118.108 109.196 105.492 104.321 94.7187 96.8595C91.5431 94.6604 89.076 92.4163 87.3259 90.1409C87.6317 90.2609 87.9421 90.3744 88.2569 90.4807C93.5175 92.2589 99.1458 91.3208 102.596 88.0916C105.338 85.4996 106.416 81.5147 105.45 77.3938C104.475 73.235 101.614 69.974 97.9845 68.8832C94.5409 67.8487 90.6632 68.6203 87.346 71.0008C83.8207 73.5314 81.6355 77.3697 81.5023 81.2713C81.4752 82.0602 81.5141 82.8443 81.6191 83.6241C80.4795 82.7191 79.3615 81.7478 78.2423 80.7557C67.7491 71.4527 57.8699 61.3793 48.3739 51.0033C54.6272 44.5971 60.3043 37.638 65.3573 30.1771C65.6035 29.8139 65.6532 29.3524 65.4899 28.9453C65.3272 28.5381 64.9724 28.2386 64.544 28.1452L19.5489 18.375C18.9953 18.2553 18.4255 18.5018 18.1351 18.9875C17.844 19.4738 17.8953 20.0916 18.263 20.523C26.8755 30.6306 35.6268 40.9008 44.7277 50.9262C40.2887 55.3211 35.571 59.4399 30.5862 63.2654L20.5397 25.834C20.3505 25.1293 19.6258 24.7115 18.9214 24.9004C18.2175 25.0893 17.7988 25.8136 17.988 26.519L28.5431 65.8457C28.6568 66.2686 28.9725 66.608 29.3865 66.7515C29.8005 66.895 30.2585 66.8238 30.6098 66.5619C36.2402 62.3571 41.5485 57.7867 46.5097 52.8809C56.0307 63.2806 65.9445 73.3849 76.4893 82.7327C78.5434 84.5537 80.598 86.3095 82.8163 87.7671C84.5643 91.6787 88.0406 95.4485 93.2146 99.0321C104.329 106.73 117.343 111.76 130.85 113.578C131.265 113.633 131.661 113.49 131.941 113.221ZM87.5174 74.2839C87.94 73.8787 88.3973 73.4982 88.8863 73.1474C91.5326 71.2484 94.5719 70.6166 97.224 71.4135C99.9513 72.2326 102.118 74.7552 102.878 77.9963C103.625 81.1858 102.841 84.2297 100.79 86.1619C98.0412 88.7352 93.4535 89.4477 89.1025 87.9771C87.6407 87.4832 86.2637 86.7989 84.9405 85.9836C84.3563 84.4524 84.0894 82.9099 84.1426 81.3608C84.2305 78.8004 85.4649 76.2517 87.5174 74.2839ZM62.0617 30.3094C57.4097 36.9884 52.2394 43.2482 46.5919 49.0469C38.4389 40.0622 30.5622 30.8761 22.8134 21.7871L62.0617 30.3094Z" fill="#EA1A27"/>
</svg>
