<svg width="91" height="101" viewBox="0 0 91 101" fill="none" xmlns="http://www.w3.org/2000/svg">
<path d="M15.807 59.4883C16.2954 59.5 16.7755 59.5701 17.2604 59.6265C17.9206 60.1567 17.9535 60.1455 18.133 60.9658C17.2286 63.5936 11.0421 68.4197 8.78492 70.6398C7.91173 70.7422 7.49219 70.6098 6.69019 70.3179C6.42129 69.979 6.3536 69.7201 6.43422 69.2664C6.95437 66.335 13.4687 61.1935 15.807 59.4883Z" fill="#DE1585"/>
<path d="M4.90781 46.6916C7.55565 46.4304 10.5383 46.1349 13.1179 46.8993C14.3559 47.2659 15.4586 47.8078 16.0787 48.9852C16.0423 49.4124 16.1311 49.596 15.7834 49.9055C14.7754 50.8034 13.3685 50.7387 12.1046 50.7228C8.64832 50.5369 3.36794 51.5625 0.34646 49.7543C-0.0689566 49.0688 -0.0530665 49.0999 0.0958008 48.3103C1.25497 46.9222 3.23497 46.9158 4.90781 46.6916Z" fill="#DE1585"/>
<path d="M71.7721 57.7172C72.6795 57.709 73.4379 57.822 74.3146 58.0609C77.861 59.0265 86.1846 61.4883 87.9775 64.5881C87.9822 65.4524 87.8504 65.6466 87.4303 66.4169C87.3732 66.411 87.3167 66.4045 87.2602 66.4004C83.0301 66.0603 77.7456 63.7166 73.8451 62.0273C72.7342 61.546 71.3549 61.0635 70.8754 59.8637C70.8201 58.9817 71.3102 58.4186 71.7721 57.7172Z" fill="#DE1585"/>
<path d="M5.06574 29.5586C9.09105 29.8681 13.2576 31.1303 17.0263 32.5213C18.6291 33.1132 20.768 33.8022 21.5324 35.4427C21.4153 36.4083 21.3123 36.5212 20.6968 37.2873C17.0675 37.0485 10.239 35.0261 6.78861 33.6822C5.47764 33.1714 4.63033 32.7766 4.05957 31.4492C4.22079 30.4836 4.40849 30.2253 5.06574 29.5586Z" fill="#DE1585"/>
<path d="M26.3984 67.6562C26.6897 67.7639 27.1327 67.8922 27.3975 68.074C28.1189 68.5706 28.1972 68.8113 28.4549 69.6039C28.2048 71.9852 21.1345 83.0643 19.2563 84.9867C18.6961 84.9613 18.3666 84.8395 17.8465 84.6489C17.3087 83.9457 17.168 83.8216 17.2157 82.8978C17.3416 80.4341 24.2984 69.6639 26.3984 67.6562Z" fill="#DE1585"/>
<path d="M36.2702 76.871C36.7039 76.8469 37.2741 76.7668 37.696 76.8545C38.5474 77.0304 38.6627 77.3058 39.1252 77.9731C39.3282 80.4985 37.3547 93.1193 36.3703 95.5288C35.64 95.4941 35.1434 95.4188 34.4679 95.1334C33.6818 94.3326 33.4182 93.6471 33.2629 92.5327C32.7345 88.738 34.0178 79.9807 36.2702 76.871Z" fill="#DE1585"/>
<path d="M76.985 42.3061C80.509 42.0702 84.4549 41.9654 87.95 42.4479C89.1586 42.615 90.1883 42.8033 90.9397 43.8136C90.812 44.4762 90.7267 44.7421 90.1771 45.2129C88.5613 46.5974 85.341 46.2426 83.3698 46.2508C79.4622 46.2902 75.178 46.6709 71.3092 46.219C69.9729 46.0631 69.4069 45.7783 68.5814 44.7121C68.5672 44.372 68.4531 44.0343 68.6861 43.7542C70.0535 42.1114 74.9232 42.3726 76.985 42.3061Z" fill="#DE1585"/>
<path d="M13.018 12.9434C13.6288 12.9481 14.3278 12.9351 14.905 13.1534C17.7741 14.2379 28.0724 24.0766 29.5676 26.8645C29.6582 27.7277 29.1833 28.2738 28.7367 28.9628C28.3913 28.9593 27.9036 28.9828 27.5635 28.8686C25.4087 28.1443 13.6688 17.1228 12.8115 15.0563C12.4425 14.1678 12.6714 13.8036 13.018 12.9434Z" fill="#DE1585"/>
<path d="M61.0689 69.3555C61.4202 69.402 61.755 69.4273 62.0892 69.5667C63.6732 70.2275 74.6141 86.3834 74.9224 88.3964C75.0689 89.3519 74.8159 89.5408 74.3069 90.3111C73.978 90.2811 73.4808 90.2681 73.1607 90.1386C71.0772 89.299 60.7047 74.1698 60.1098 71.7697C59.8933 70.8971 60.6165 70.058 61.0689 69.3555Z" fill="#DE1585"/>
<path d="M39.3981 0.0338862C39.9617 0.0109383 41.0015 -0.0690646 41.5322 0.143351C41.9111 0.29516 42.2312 0.504027 42.3683 0.896495C43.0356 2.80706 42.0918 22.2169 41.1627 24.0998C41.0468 24.1222 40.9309 24.1487 40.8138 24.1669C39.8447 24.3193 39.4422 24.2922 38.6873 23.7132C37.2568 20.447 38.2901 3.83736 39.3981 0.0338862Z" fill="#DE1585"/>
<path d="M81.5931 20.4207C81.7755 20.4089 81.9573 20.3854 82.1397 20.3848C82.8211 20.3836 83.3377 20.4019 83.7325 21.0391C84.1279 21.6764 84.0056 22.1194 83.8685 22.7884C82.2521 24.5866 67.8137 30.5937 64.2527 32.2754C64.1638 32.3019 64.0773 32.3407 63.9855 32.3548C63.3053 32.4607 62.8223 32.5048 62.3092 31.9741C61.7472 31.3933 61.8037 31.0844 61.8755 30.3577C64.654 26.0941 76.6457 22.2195 81.5931 20.4207Z" fill="#DE1585"/>
<path d="M49.4785 75.3301C50.0381 75.353 50.7224 75.3365 51.2255 75.6084C51.798 75.9179 52.084 76.4945 52.2717 77.087C52.9696 79.2853 56.0911 97.4095 56.1005 99.4984C56.1028 100.073 55.8663 100.505 55.6056 100.999L54.1758 100.96C53.1602 100.41 52.7889 99.7425 52.3535 98.7052C50.4947 94.2715 47.8316 79.5549 49.4785 75.3301Z" fill="#DE1585"/>
<path d="M71.2061 3.53906C71.5762 3.62968 72.0829 3.78916 72.3918 4.00393C73.0643 4.47348 73.1267 4.86242 73.2432 5.59734C72.473 7.50261 56.5554 20.3711 53.7828 22.5559C53.5056 22.4664 52.9425 22.3323 52.6877 22.1516C52.0758 21.7185 52.1111 21.4308 52.0234 20.7471C53.4233 16.7677 67.1132 5.65086 71.2061 3.53906Z" fill="#DE1585"/>
<path d="M40.9603 34.2834C44.6726 34.1516 47.787 34.4876 51.1062 36.2546C54.9921 38.3234 58.0183 41.7903 59.2133 46.0692C60.4343 50.4405 59.6093 55.1996 57.3204 59.0784C54.5943 63.698 50.5096 65.921 45.4657 67.2319C42.0065 67.8921 37.8888 66.9266 34.8438 65.2125C31.0686 63.0878 28.5578 59.3855 27.4675 55.2496C27.3951 54.9813 27.3298 54.7112 27.271 54.4394C27.2127 54.1675 27.1609 53.8945 27.1156 53.6203C27.0703 53.3461 27.0321 53.0707 27.0003 52.7948C26.9691 52.5188 26.9444 52.2417 26.9267 51.9645C26.9091 51.6868 26.8985 51.4091 26.8944 51.1313C26.8903 50.853 26.8932 50.5753 26.9032 50.2976C26.9132 50.0198 26.9297 49.7427 26.9532 49.4656C26.9774 49.1884 27.0079 48.9124 27.045 48.6365C27.0821 48.3611 27.1262 48.0869 27.1774 47.8139C27.2286 47.5403 27.2863 47.2684 27.351 46.9984C27.4151 46.7283 27.4863 46.4594 27.5646 46.1922C27.6428 45.9257 27.727 45.6609 27.8182 45.3979C27.9094 45.1354 28.0065 44.8754 28.1106 44.6176C28.2148 44.3593 28.3248 44.1045 28.4413 43.8521C28.5578 43.5997 28.6808 43.3508 28.8097 43.1042C28.9385 42.8583 29.0738 42.6153 29.2151 42.3758C31.8811 37.9298 36.0518 35.5056 40.9603 34.2834Z" fill="#DE1585"/>
<path d="M41.0321 39.3069C43.4752 39.1592 45.5687 39.0957 47.8847 40.0848C48.0548 40.1589 48.2225 40.2372 48.3884 40.3202C48.5543 40.4031 48.7179 40.4902 48.8791 40.5814C49.0403 40.6726 49.1992 40.7685 49.3557 40.868C49.5123 40.9674 49.6658 41.071 49.817 41.1787C49.9677 41.2863 50.116 41.3975 50.2613 41.5129C50.4066 41.6282 50.5484 41.747 50.6873 41.87C50.8262 41.9924 50.9621 42.1183 51.0945 42.2484C51.2269 42.3784 51.3563 42.5114 51.4816 42.6479C51.607 42.7838 51.7288 42.9233 51.847 43.0663C51.9653 43.2093 52.0801 43.3546 52.1907 43.5034C52.3013 43.6523 52.4078 43.8035 52.5108 43.9583C52.6138 44.1125 52.712 44.269 52.8067 44.4284C52.9015 44.5879 52.9921 44.7497 53.0786 44.9139C53.1645 45.078 53.2463 45.244 53.324 45.4128C53.4016 45.5811 53.4746 45.7512 53.5434 45.9236C53.6123 46.096 53.677 46.2696 53.7364 46.4449C54.8497 49.6188 54.7014 53.3511 53.1498 56.3543C51.5293 59.4917 48.8738 61.3311 45.5881 62.4137C43.2345 62.7891 41.1286 62.7874 38.8791 61.893C38.6979 61.82 38.5184 61.7424 38.3407 61.6606C38.1636 61.5788 37.9883 61.4923 37.8153 61.4017C37.6423 61.3105 37.4716 61.2151 37.3034 61.1157C37.1351 61.0163 36.9697 60.9121 36.8067 60.8039C36.6438 60.6956 36.4843 60.5832 36.3272 60.4673C36.1701 60.3508 36.0159 60.2301 35.8653 60.106C35.7141 59.9818 35.5664 59.8542 35.4222 59.7224C35.278 59.5906 35.1368 59.4552 34.9991 59.3164C34.862 59.1769 34.7279 59.0345 34.5978 58.8892C34.4678 58.7432 34.3413 58.5944 34.2189 58.442C34.0965 58.2896 33.9783 58.1342 33.8635 57.976C33.7488 57.8177 33.6382 57.6564 33.5317 57.4923C33.4252 57.3281 33.3234 57.1616 33.2257 56.9921C33.1274 56.8233 33.0339 56.6514 32.945 56.4773C32.8562 56.3037 32.772 56.1272 32.6914 55.9489C32.612 55.7706 32.5367 55.5899 32.4655 55.4081C31.2886 52.3696 31.4752 48.7638 32.9015 45.8424C34.572 42.4226 37.514 40.4655 41.0321 39.3069Z" fill="#FDFBFE"/>
<path d="M42.5249 44.0019C43.7923 43.9372 44.9856 44.016 46.1736 44.5062C47.7976 45.1758 49.0968 46.4238 49.7511 48.0649C50.5072 49.9608 50.3666 52.122 49.4799 53.9484C48.4254 56.1184 46.6567 57.3294 44.4166 58.0561C43.0744 58.1132 41.8723 58.0702 40.6149 57.5442C40.406 57.4583 40.2024 57.3617 40.0041 57.2552C39.8052 57.1487 39.6122 57.0322 39.4257 56.9057C39.2392 56.7792 39.0591 56.6439 38.8861 56.4992C38.7131 56.3544 38.5478 56.2014 38.3907 56.0396C38.2336 55.8778 38.0847 55.7089 37.9447 55.5324C37.8046 55.3553 37.674 55.1717 37.5528 54.9816C37.4316 54.7916 37.3204 54.5962 37.2192 54.3944C37.1174 54.1926 37.0268 53.9867 36.9467 53.776C36.2171 51.9143 36.3713 49.753 37.2662 47.9749C38.4148 45.6942 40.173 44.7216 42.5249 44.0019Z" fill="#DE1585"/>
<path d="M41.2665 47.7149C42.5568 47.6667 43.6895 47.6531 44.7075 48.5675C45.1923 49.0023 45.4583 49.5454 45.5089 50.1915C45.6266 51.6943 44.7698 52.5887 43.8219 53.6172C43.7295 53.6302 43.6377 53.6472 43.5454 53.6561C42.4221 53.7661 41.423 53.7296 40.5386 52.9153C39.839 52.271 39.5801 51.5507 39.583 50.5975C39.5872 49.2818 40.3656 48.5334 41.2665 47.7149Z" fill="#FDFBFE"/>
</svg>
