<svg width="63" height="118" viewBox="0 0 63 118" fill="none" xmlns="http://www.w3.org/2000/svg">
<path d="M30.4071 104.752C30.1677 104.062 29.9293 103.355 29.6986 102.652C29.5868 102.311 29.2196 102.126 28.8789 102.238C28.5379 102.35 28.3524 102.717 28.4642 103.057C28.6971 103.768 28.9377 104.481 29.1795 105.178C29.2726 105.447 29.5243 105.615 29.7933 105.615C29.8638 105.615 29.9358 105.603 30.0063 105.579C30.3452 105.461 30.5247 105.091 30.4071 104.752Z" fill="#383434"/>
<path d="M29.0237 100.541C28.8075 99.8443 28.5925 99.1304 28.3848 98.4189C28.2844 98.0743 27.9231 97.8768 27.5791 97.9774C27.2346 98.0777 27.0369 98.4384 27.1376 98.783C27.3474 99.5013 27.5642 100.223 27.7827 100.926C27.8691 101.205 28.1258 101.384 28.4029 101.384C28.4665 101.384 28.5314 101.374 28.5955 101.354C28.9383 101.248 29.1301 100.884 29.0237 100.541Z" fill="#383434"/>
<path d="M26.1992 92.774C26.5482 92.6904 26.763 92.3396 26.6793 91.9908C26.5091 91.2799 26.3411 90.5535 26.1803 89.8311C26.1023 89.4809 25.7553 89.2594 25.405 89.3382C25.0548 89.4162 24.8342 89.7634 24.9122 90.1134C25.0744 90.8424 25.2439 91.5759 25.4162 92.2938C25.4875 92.5919 25.7538 92.7922 26.0472 92.7922C26.0974 92.7922 26.1482 92.7863 26.1992 92.774Z" fill="#383434"/>
<path d="M25.2098 88.4303C25.5612 88.358 25.7875 88.0146 25.7154 87.663C25.5675 86.9442 25.423 86.2123 25.2862 85.4879C25.2193 85.1353 24.8795 84.9042 24.5271 84.9703C24.1744 85.037 23.9429 85.3769 24.0094 85.7293C24.1477 86.4604 24.2935 87.1991 24.4426 87.9245C24.5059 88.2318 24.7765 88.4436 25.0784 88.4436C25.1217 88.4438 25.1659 88.4394 25.2098 88.4303Z" fill="#383434"/>
<path d="M27.3273 97.0833C27.6732 96.9884 27.8767 96.6308 27.7816 96.2848C27.589 95.5832 27.3976 94.8624 27.2126 94.1424C27.1233 93.7948 26.7681 93.5856 26.4217 93.6749C26.0743 93.764 25.8649 94.1182 25.9542 94.4658C26.141 95.1926 26.334 95.9205 26.5289 96.6288C26.6081 96.9171 26.8696 97.1067 27.1549 97.1067C27.2118 97.1067 27.2696 97.0991 27.3273 97.0833Z" fill="#383434"/>
<path d="M34.4683 115.058C34.3228 114.73 33.9389 114.582 33.6108 114.728C33.283 114.873 33.1351 115.257 33.2806 115.585C33.581 116.263 33.8924 116.948 34.2057 117.623C34.3157 117.86 34.5503 117.999 34.7953 117.999C34.8868 117.999 34.9801 117.98 35.0685 117.939C35.394 117.788 35.5352 117.401 35.3843 117.076C35.074 116.408 34.7659 115.729 34.4683 115.058Z" fill="#383434"/>
<path d="M33.5875 113.025C33.2987 112.343 33.0138 111.654 32.7405 110.977C32.6061 110.644 32.2269 110.484 31.895 110.618C31.5621 110.752 31.4015 111.131 31.5355 111.463C31.8116 112.147 32.0994 112.843 32.3912 113.532C32.4961 113.779 32.7365 113.928 32.9896 113.928C33.074 113.928 33.1599 113.911 33.2427 113.876C33.5732 113.736 33.7275 113.355 33.5875 113.025Z" fill="#383434"/>
<path d="M31.9285 108.916C31.6624 108.224 31.4006 107.525 31.1508 106.841C31.0276 106.504 30.6543 106.331 30.3175 106.454C29.9806 106.577 29.8071 106.95 29.9302 107.287C30.1827 107.978 30.4469 108.683 30.7157 109.382C30.815 109.641 31.0611 109.799 31.3224 109.799C31.3998 109.799 31.4786 109.785 31.5552 109.756C31.8901 109.627 32.0573 109.251 31.9285 108.916Z" fill="#383434"/>
<path d="M35.3079 58.5824C37.9845 39.1746 39.3891 19.5912 39.5101 0C23.72 12.2901 13.4804 31.4535 12.0395 51.4109C8.02631 48.857 4.01315 46.3029 0 43.7491C0.657708 52.0236 1.53908 60.4342 4.80284 68.0662C8.06659 75.6981 14.0984 82.5559 22.0705 84.8678C22.7087 84.579 23.3364 84.2872 23.9582 83.994C24.0475 84.0396 24.1468 84.0666 24.2512 84.0666C24.2879 84.0666 24.3248 84.0634 24.362 84.0569C24.6317 84.0106 24.8325 83.8036 24.8863 83.5515C48.8731 71.9969 60.3433 57.0123 62.4978 40.4656C52.9016 45.6485 43.7864 51.7218 35.3079 58.5824Z" fill="#89CAD9"/>
</svg>
