<svg width="59" height="60" viewBox="0 0 59 60" fill="none" xmlns="http://www.w3.org/2000/svg">
<path d="M26.3583 0.14665C27.1885 0.0469085 28.0195 -0.0445474 28.8559 0.0235518C37.6555 0.742377 34.7481 7.43328 39.0539 12.2986C40.7391 12.5978 45.7002 9.8367 48.108 9.54505C50.9776 9.19767 54.0394 9.85736 56.2804 11.7566C57.9121 13.1392 58.8913 15.0487 58.9894 17.1928C59.292 23.8122 53.0142 26.2032 49.3562 30.402C49.4824 32.6967 55.7747 33.4382 57.4249 38.6846C58.3478 41.617 57.7474 44.7117 56.2886 47.3607C56.174 47.5712 56.0533 47.779 55.9277 47.9833C55.8021 48.1876 55.6711 48.3877 55.5345 48.5852C55.398 48.7826 55.2566 48.9759 55.1105 49.1657C54.9643 49.3556 54.8127 49.5413 54.6562 49.7236C54.5005 49.9059 54.3392 50.0833 54.1738 50.2567C54.0085 50.43 53.8383 50.5986 53.664 50.763C53.489 50.9274 53.3106 51.0876 53.1281 51.2424C52.9449 51.3972 52.7583 51.5472 52.5675 51.6923C52.3774 51.8374 52.1832 51.9777 51.9849 52.1126C51.7866 52.2474 51.5855 52.3767 51.3804 52.5012C51.1752 52.6257 50.9673 52.744 50.7566 52.8575C50.5453 52.971 50.3312 53.0783 50.1151 53.1801C49.8982 53.2826 49.6787 53.3789 49.457 53.469C49.2354 53.5591 49.011 53.6438 48.7853 53.7229C48.5588 53.8013 48.331 53.8735 48.1011 53.9402C47.8713 54.0069 47.6393 54.0675 47.406 54.1218C41.2483 55.6159 37.3398 52.7977 32.4275 49.7291C31.8504 49.6019 31.2727 49.4801 30.6935 49.3645C29.7349 49.9526 29.4021 51.6194 28.9115 52.6202C27.4232 55.6627 25.2995 58.6006 21.9111 59.6338C19.4491 60.3849 16.2014 59.9446 13.9885 58.6425C11.5793 57.2248 9.83647 54.463 9.27724 51.7549C8.16014 46.3441 11.1772 42.9605 13.8979 38.7789C13.5377 37.2394 8.25414 37.0152 6.67936 36.5419C5.45659 36.1739 4.24754 35.5651 3.21484 34.814C1.4198 33.5084 0.324642 31.8383 0.0686978 29.6151C-0.298407 26.4288 0.826256 21.4095 2.95204 18.8643C6.79257 14.2666 12.0007 16.7113 16.9309 16.3619C18.5537 15.3431 17.6143 9.1213 18.7575 6.44136C20.1483 3.18016 23.1943 1.36074 26.3583 0.14665Z" fill="#F9B71A"/>
<path d="M26.36 10.0323C27.4739 9.9712 28.2659 9.92453 29.2319 10.6065C32.5922 12.9789 33.1338 21.2756 33.8808 25.0456C37.6954 22.8735 43.8342 17.8885 48.0322 17.3534C48.9503 17.2367 49.8781 17.4631 50.5111 18.1766C51.0132 18.7426 51.0644 19.7992 50.9477 20.5175C50.301 24.4933 41.9944 28.4527 38.6661 30.5733C41.2372 33.9653 47.2524 39.2734 47.4591 43.6032C47.5069 44.6042 47.2211 45.1661 46.5846 45.9242C45.7954 46.364 45.238 46.6007 44.3198 46.5629C40.9834 46.425 38.2807 42.5343 36.1626 40.2662C34.4695 38.5743 32.6932 37.021 30.8697 35.4732C28.3846 38.9756 25.7297 43.2527 22.6149 46.1582C21.559 47.1434 20.1073 48.2109 18.5766 47.9639C17.7914 47.837 17.0615 47.341 16.6849 46.6295C14.6924 42.8698 20.825 38.0344 21.7622 34.6925C18.1345 33.0377 11.1806 34.91 8.43421 31.2189C8.17295 30.8676 7.94786 30.3339 8.01061 29.8845C8.25619 28.1199 9.56595 27.1038 10.9412 26.1852C16.0403 26.1811 21.2001 26.8946 26.2795 27.3371C25.9562 22.5765 24.0939 17.7252 24.5175 12.9474C24.6505 11.4511 25.2897 10.942 26.36 10.0323Z" fill="#FDFBFE"/>
</svg>
