<svg width="82" height="102" viewBox="0 0 82 102" fill="none" xmlns="http://www.w3.org/2000/svg">
<path d="M34.4861 37.1273C41.962 45.4885 45.2748 57.3635 43.5856 68.4342C46.0756 64.7246 48.7845 61.1253 51.989 57.9321C55.6599 54.2773 61.3617 49.8714 68.5716 48.351C62.9228 43.5093 58.6787 37.0677 56.4849 29.9474C55.0292 25.2115 54.4917 20.2098 54.8711 15.2785C49.3575 25.1787 42.7299 32.2557 34.4861 37.1273Z" fill="#6E59CD"/>
<path d="M8.19096 68.0051C16.0847 65.0955 21.8552 59.7651 26.9103 50.7263C27.2388 50.1347 27.9792 49.9084 28.5842 50.2207C29.1855 50.5319 29.4352 51.2634 29.1451 51.8756C27.0729 56.2783 26.6795 61.3778 28.0423 66.2399C29.4154 71.134 32.5501 75.7228 36.8632 79.1515C37.2883 79.4883 37.4496 80.0603 37.2632 80.5663C37.0793 81.0771 36.5871 81.4115 36.0437 81.3934C30.5211 81.2335 25.9885 83.7059 23.1574 85.8044C19.4749 88.5405 16.5632 92.1214 13.7475 95.5814C13.4117 95.9904 12.8679 96.1402 12.3883 95.9868C12.2767 95.9511 12.1699 95.9006 12.0728 95.8326C11.5327 95.4713 11.3549 94.7587 11.664 94.1896C15.6796 86.7732 14.0514 76.8467 7.70718 70.0429C7.41953 69.7378 7.30808 69.3046 7.40187 68.8961C7.50056 68.485 7.79526 68.1531 8.19096 68.0051ZM16.0628 88.9449C17.7525 87.0961 19.5753 85.3308 21.6589 83.7882C24.2562 81.8567 28.1513 79.6477 32.9374 79.0351C29.4252 75.588 26.8667 71.3762 25.6199 66.92C24.8418 64.1507 24.5776 61.3121 24.8092 58.5378C20.8146 63.7232 16.2221 67.3567 10.7386 69.7011C15.252 75.2841 17.1413 82.4211 16.0628 88.9449Z" fill="#FF6514"/>
<path d="M10.7388 69.7011C15.2522 75.2841 17.1415 82.4211 16.063 88.945C17.7527 87.0961 19.5755 85.3308 21.6591 83.7883C24.2564 81.8568 28.1515 79.6477 32.9375 79.0352C29.4254 75.588 26.8669 71.3762 25.6201 66.9201C24.842 64.1507 24.5778 61.3121 24.8094 58.5379C20.8148 63.7232 16.2223 67.3567 10.7388 69.7011Z" fill="#FF6514"/>
</svg>
