<svg width="85" height="102" viewBox="0 0 85 102" fill="none" xmlns="http://www.w3.org/2000/svg">
<path d="M48.2477 36.9608C41.0164 45.5345 38.048 57.5002 40.0562 68.5175C37.4601 64.8813 34.6484 61.3617 31.353 58.2624C27.5781 54.7152 21.7514 50.4758 14.5006 49.1643C20.0072 44.1614 24.0635 37.5999 26.0507 30.4193C27.369 25.6433 27.7619 20.6282 27.2402 15.7099C33.0374 25.4467 39.8667 32.3294 48.2477 36.9608Z" fill="#6E59CD"/>
<path d="M75.4251 67.0657C67.4506 64.3854 61.5286 59.2238 56.2146 50.3348C55.869 49.7529 55.1224 49.5481 54.5267 49.8778C53.9346 50.2062 53.7062 50.9446 54.0138 51.5481C56.2123 55.8892 56.7529 60.9752 55.531 65.8747C54.2998 70.8064 51.299 75.4837 47.0867 79.0356C46.6715 79.3845 46.5269 79.961 46.7278 80.4613C46.9264 80.9667 47.428 81.2867 47.9707 81.2529C53.4863 80.9336 58.0884 83.274 60.9789 85.2899C64.7389 87.9184 67.7529 91.4138 70.6674 94.791C71.0148 95.1901 71.5627 95.3242 72.0377 95.157C72.1481 95.1181 72.2534 95.0645 72.3485 94.9938C72.878 94.617 73.0352 93.8996 72.7098 93.3396C68.4816 86.0423 69.8225 76.0729 75.9675 69.0888C76.2462 68.7754 76.3451 68.3392 76.2396 67.9336C76.1291 67.5255 75.8249 67.2022 75.4251 67.0657ZM68.1613 88.2242C66.4189 86.4249 64.5459 84.713 62.4186 83.2313C59.7666 81.3756 55.8093 79.28 51.0076 78.8059C54.4187 75.2587 56.8545 70.9748 57.9721 66.4845C58.6699 63.6938 58.852 60.8488 58.5403 58.0824C62.683 63.1502 67.3786 66.6495 72.9275 68.8346C68.5772 74.5456 66.8949 81.7342 68.1613 88.2242Z" fill="#FFD200"/>
<path d="M72.9271 68.8349C68.5769 74.5459 66.8945 81.7345 68.161 88.2245C66.4186 86.4252 64.5455 84.7133 62.4183 83.2315C59.7663 81.3758 55.809 79.2802 51.0072 78.8061C54.4184 75.259 56.8542 70.9751 57.9718 66.4848C58.6696 63.6941 58.8516 60.8491 58.54 58.0826C62.6827 63.1505 67.3782 66.6498 72.9271 68.8349Z" fill="#FFD200"/>
</svg>
