<svg width="92" height="304" viewBox="0 0 92 304" fill="none" xmlns="http://www.w3.org/2000/svg">
<path d="M21.6871 1.36257C23.0361 -0.245117 25.4359 -0.457561 27.0163 0.923328C48.6161 19.7965 65.6755 43.3275 76.8959 69.7611C88.6116 97.3615 93.6288 127.343 91.5372 157.254C89.4456 187.165 80.3047 216.156 64.8618 241.857C50.0717 266.472 29.9034 287.4 5.88721 303.083C4.13 304.231 1.78314 303.686 0.671021 301.907C-0.441132 300.127 0.102722 297.786 1.85895 296.637C24.8585 281.59 44.175 261.53 58.3473 237.943C73.1725 213.27 81.9478 185.438 83.9557 156.724C85.9636 128.009 81.1471 99.2271 69.9001 72.7307C59.1483 47.4011 42.8117 24.8478 22.13 6.74647C20.5508 5.36427 20.3381 2.97025 21.6871 1.36257Z" fill="#4AB138"/>
</svg>
