<svg width="22" height="32" viewBox="0 0 22 32" fill="none" xmlns="http://www.w3.org/2000/svg">
<path d="M20.7774 15.2737C16.4054 11.8616 13.8527 7.35578 12.494 0.66528C12.4065 0.227824 11.9871 -0.0629502 11.5445 0.0116747C11.1044 0.0862995 10.8008 0.495451 10.86 0.938054C11.2768 4.11862 10.4997 7.39953 8.66755 10.1787C6.82251 12.9758 3.93272 15.2274 0.536005 16.5141C0.20148 16.6402 -0.0146634 16.967 0.000776264 17.3221C0.0136426 17.6797 0.255519 17.9885 0.600337 18.0863C4.09999 19.095 6.44938 21.5577 7.80549 23.4439C9.56818 25.9014 10.6773 28.7345 11.7503 31.4725C11.879 31.7967 12.1904 32 12.5223 32C12.5995 32 12.6767 31.9897 12.7513 31.9665C13.1631 31.8482 13.4178 31.4365 13.338 31.017C12.3061 25.554 15.322 19.6483 20.6718 16.6504C20.9137 16.5166 21.0707 16.267 21.0939 15.9917C21.1145 15.7138 20.9961 15.4461 20.7774 15.2737ZM11.6294 26.8406C10.9397 25.3404 10.1498 23.8659 9.15133 22.4789C7.90844 20.7445 5.90643 18.5753 3.02437 17.2294C5.92187 15.7704 8.3742 13.6397 10.052 11.0922C11.0967 9.50961 11.8327 7.78038 12.2444 5.99195C13.7112 10.05 15.865 13.2537 18.8371 15.827C14.882 18.426 12.2624 22.5278 11.6294 26.8406Z" fill="#FF6514"/>
<path d="M18.8362 15.8272C14.8811 18.4262 12.2615 22.528 11.6285 26.8408C10.9388 25.3406 10.1488 23.8661 9.15039 22.4791C7.9075 20.7447 5.9055 18.5755 3.02344 17.2297C5.92094 15.7706 8.37327 13.6399 10.051 11.0924C11.0958 9.50985 11.8317 7.78061 12.2435 5.99219C13.7102 10.0502 15.864 13.254 18.8362 15.8272Z" fill="#FF6514"/>
</svg>
