<svg width="69" height="321" viewBox="0 0 69 321" fill="none" xmlns="http://www.w3.org/2000/svg">
<mask id="path-1-inside-1_1237_11502" fill="white">
<path d="M67.4977 319.115C65.7525 320.579 63.1476 320.353 61.7095 318.586C25.9624 274.663 4.62495 220.743 0.669886 164.183C-3.28518 107.623 10.3403 51.2579 39.6267 2.78737C40.8049 0.837481 43.353 0.250865 45.285 1.45811V1.45811C47.217 2.66536 47.8012 5.2092 46.624 7.15963C18.2603 54.1522 5.06626 108.785 8.89979 163.608C12.7333 218.43 33.4024 270.695 68.0302 313.283C69.4674 315.05 69.2429 317.651 67.4977 319.115V319.115Z"/>
</mask>
<path d="M67.4977 319.115C65.7525 320.579 63.1476 320.353 61.7095 318.586C25.9624 274.663 4.62495 220.743 0.669886 164.183C-3.28518 107.623 10.3403 51.2579 39.6267 2.78737C40.8049 0.837481 43.353 0.250865 45.285 1.45811V1.45811C47.217 2.66536 47.8012 5.2092 46.624 7.15963C18.2603 54.1522 5.06626 108.785 8.89979 163.608C12.7333 218.43 33.4024 270.695 68.0302 313.283C69.4674 315.05 69.2429 317.651 67.4977 319.115V319.115Z" fill="#EA1A27" stroke="black" stroke-width="2" mask="url(#path-1-inside-1_1237_11502)"/>
</svg>
