<svg width="30" height="27" viewBox="0 0 30 27" fill="none" xmlns="http://www.w3.org/2000/svg">
<path d="M15.2113 0.128809C17.0855 -0.0701097 18.8725 -0.0829508 20.7074 0.41186C23.9469 1.28627 26.6001 3.44081 28.2463 6.2754C30.1503 9.55301 30.4549 13.4394 29.3977 17.0315C28.9913 18.4111 28.1184 21.3448 26.6873 21.9734C26.1911 22.1914 25.6466 22.2548 25.1432 22.0066C24.7872 21.8313 24.411 21.4048 24.3741 21.0012C24.2809 19.9739 25.8114 17.9988 26.225 16.9727C27.0488 14.9305 26.9327 11.6462 26.2755 9.599C25.5017 7.18753 23.8253 5.09888 21.4786 3.99281C18.92 2.78687 15.9516 2.84696 13.307 3.74002C9.61312 4.98783 6.12309 7.73871 4.43063 11.2206C3.19158 13.7693 2.84409 16.8475 3.88483 19.5172C4.55944 21.247 5.81078 22.6282 7.56596 23.3551C9.36818 24.101 11.5581 24.1093 13.3489 23.3348C15.7058 22.3153 17.2449 20.4355 18.1831 18.1496C18.2428 17.7936 18.2937 17.436 18.3356 17.0775C18.5068 15.6515 18.2966 13.7423 17.3067 12.6068C16.866 12.1017 16.3139 11.8621 15.6346 11.824C14.7617 11.7751 13.2951 12.352 12.7256 13.0092C11.4251 14.5111 13.3938 16.1298 13.3892 17.6453C13.3879 18.16 13.1273 18.419 12.7014 18.6701C12.2285 18.9494 11.5022 18.9536 11.0145 18.7443C10.1403 18.3697 9.5648 17.3457 9.26648 16.5065C8.7067 14.9342 8.86137 13.698 9.64192 12.2409C10.4394 10.7527 11.6369 9.5986 13.3142 9.12368C13.5116 9.06856 13.7117 9.02255 13.9138 8.9865C14.1159 8.95045 14.3193 8.92392 14.524 8.90776C14.7287 8.89118 14.9337 8.88456 15.1393 8.88788C15.3448 8.89078 15.5495 8.90404 15.7537 8.92725C15.9575 8.95004 16.1601 8.98278 16.3609 9.02547C16.5618 9.06774 16.7601 9.11953 16.9555 9.18128C17.1512 9.24302 17.3432 9.31389 17.5318 9.39387C17.7203 9.47385 17.9042 9.56296 18.0835 9.66076C19.8493 10.6392 20.9735 12.3913 21.4155 14.2981C21.999 16.8136 21.4375 19.4778 20.0103 21.629C18.3047 24.1997 15.5507 26.1959 12.4548 26.796C9.84193 27.302 7.00534 26.8772 4.78191 25.4056C2.31229 23.7703 0.814333 21.0534 0.240574 18.2383C-0.485313 14.6764 0.476193 11.0582 2.52207 8.07023C5.55104 3.64636 9.96863 1.16485 15.2113 0.128809Z" fill="#11C0D1"/>
</svg>
