<svg width="46" height="48" viewBox="0 0 46 48" fill="none" xmlns="http://www.w3.org/2000/svg">
<path d="M16.5727 0C17.328 0.12135 17.9685 0.304981 18.6268 0.702774C22.0599 2.7761 23.0091 9.85525 23.936 13.5327C26.827 9.90781 31.3209 2.86696 35.8041 1.6301C36.9345 1.31862 38.0795 1.45553 39.0593 2.13821C39.7297 2.60543 40.166 3.29461 40.219 4.13692C40.4556 7.92795 31.7203 16.4639 29.0028 19.5178C33.6046 20.0084 39.5001 20.3049 43.4818 22.865C44.5643 23.5606 45.9052 24.7514 45.9958 26.1615C46.043 26.8916 45.689 27.5022 45.1672 27.9746C41.8654 30.9629 31.3025 28.072 27.0566 27.3562C28.2916 32.0213 29.554 37.5294 29.6018 42.3536C29.6254 44.7475 29.3837 45.9259 27.7366 47.6391C27.5363 47.7124 27.3405 47.7968 27.1363 47.8584C26.2101 48.1388 25.2966 48.0025 24.5005 47.4522C21.387 45.2991 20.6808 34.0733 20.1265 30.0551C17.4422 33.6722 11.682 42.8701 7.4961 44.1777C6.6292 44.4483 5.55306 44.5035 4.78248 43.9408C4.07123 43.4217 3.75483 42.5736 3.6432 41.7241C2.9683 36.5879 10.7443 29.2154 13.6697 25.2589C10.4387 24.9104 3.35359 25.9623 0.957009 23.3497C0.248305 22.5769 -0.0515087 21.7027 0.00717787 20.6599C0.0645887 19.6391 0.530894 18.7527 1.33337 18.1427C5.03509 15.3309 13.2072 16.9519 17.5487 17.425C15.9693 13.5314 13.0637 6.90523 14.1251 2.76961C14.5085 1.27188 15.332 0.739778 16.5727 0Z" fill="#DE1585"/>
</svg>
