<svg width="26" height="27" viewBox="0 0 26 27" fill="none" xmlns="http://www.w3.org/2000/svg">
<path d="M11.6155 0.0659924C11.9814 0.0211088 12.3476 -0.0200463 12.7162 0.0105983C16.5939 0.33407 15.3127 3.34497 17.2102 5.53436C17.9528 5.66901 20.1391 4.42652 21.2001 4.29527C22.4647 4.13895 23.814 4.43581 24.8015 5.29046C25.5206 5.91264 25.9521 6.77191 25.9953 7.73675C26.1287 10.7155 23.3622 11.7914 21.7502 13.6809C21.8058 14.7135 24.5787 15.0472 25.3059 17.4081C25.7126 18.7277 25.448 20.1203 24.8052 21.3123C24.7547 21.407 24.7014 21.5005 24.6461 21.5925C24.5908 21.6844 24.533 21.7745 24.4728 21.8633C24.4127 21.9522 24.3504 22.0391 24.286 22.1246C24.2216 22.21 24.1547 22.2936 24.0858 22.3756C24.0172 22.4577 23.9461 22.5375 23.8732 22.6155C23.8003 22.6935 23.7253 22.7694 23.6485 22.8433C23.5714 22.9173 23.4928 22.9894 23.4124 23.0591C23.3317 23.1287 23.2494 23.1962 23.1653 23.2615C23.0816 23.3268 22.996 23.39 22.9086 23.4507C22.8212 23.5113 22.7326 23.5695 22.6422 23.6255C22.5518 23.6816 22.4602 23.7348 22.3673 23.7859C22.2742 23.837 22.1799 23.8852 22.0846 23.9311C21.9891 23.9772 21.8923 24.0205 21.7946 24.0611C21.697 24.1016 21.5981 24.1397 21.4986 24.1753C21.3988 24.2106 21.2984 24.2431 21.1971 24.2731C21.0958 24.3031 20.9936 24.3304 20.8908 24.3548C18.1772 25.0272 16.4548 23.759 14.2901 22.3781C14.0358 22.3208 13.7812 22.266 13.526 22.214C13.1035 22.4787 12.9569 23.2287 12.7407 23.6791C12.0848 25.0482 11.1489 26.3703 9.65575 26.8352C8.5708 27.1732 7.13962 26.9751 6.16443 26.3891C5.10276 25.7512 4.33472 24.5083 4.08827 23.2897C3.59599 20.8548 4.92556 19.3322 6.12451 17.4505C5.96576 16.7577 3.63742 16.6568 2.94345 16.4439C2.4046 16.2783 1.8718 16.0043 1.41671 15.6663C0.625673 15.0788 0.143063 14.3272 0.0302736 13.3268C-0.131502 11.893 0.364113 9.63426 1.3009 8.48895C2.99334 6.41998 5.28843 7.52009 7.46106 7.36284C8.17619 6.90441 7.76223 4.10459 8.266 2.89861C8.87893 1.43107 10.2212 0.612334 11.6155 0.0659924Z" fill="#F9B71A"/>
<path d="M11.6856 4.01443C12.1519 3.98712 12.4834 3.96624 12.8878 4.27132C14.2944 5.33268 14.5211 9.04436 14.8338 10.7309C16.4306 9.7592 19.0003 7.52907 20.7577 7.28967C21.142 7.23749 21.5304 7.33876 21.7953 7.65796C22.0055 7.91118 22.0269 8.38386 21.9781 8.70522C21.7074 10.4839 18.2302 12.2551 16.837 13.2039C17.9132 14.7213 20.4313 17.096 20.5178 19.033C20.5378 19.4808 20.4181 19.7322 20.1517 20.0714C19.8213 20.2681 19.588 20.374 19.2037 20.3571C17.807 20.2954 16.6756 18.5548 15.789 17.5401C15.0802 16.7832 14.3367 16.0884 13.5734 15.3959C12.5331 16.9628 11.4217 18.8762 10.1179 20.176C9.67584 20.6168 9.06819 21.0944 8.4274 20.9839C8.09873 20.9271 7.79318 20.7052 7.63556 20.3869C6.80145 18.7049 9.36859 16.5417 9.76094 15.0466C8.24236 14.3063 5.33141 15.1439 4.18176 13.4927C4.0724 13.3355 3.97817 13.0967 4.00444 12.8957C4.10724 12.1063 4.65551 11.6517 5.23119 11.2407C7.36571 11.2389 9.52564 11.5581 11.6519 11.7561C11.5165 9.62631 10.737 7.45602 10.9143 5.31858C10.97 4.64917 11.2375 4.42142 11.6856 4.01443Z" fill="#FDFBFE"/>
</svg>
