<svg width="50" height="58" viewBox="0 0 50 58" fill="none" xmlns="http://www.w3.org/2000/svg">
<path d="M39.6248 0.000246392C40.2248 0.00624639 40.9918 -0.0307683 41.5888 0.110232C42.9198 0.423232 44.1908 1.16627 44.9688 2.31427C48.1078 6.94727 50.3648 47.6832 48.7398 53.7352C48.3188 55.3022 47.8568 56.2882 46.4668 57.1392C39.3088 57.0912 27.1938 49.2462 20.4978 45.7822C15.7848 43.0872 3.71776 39.0533 0.858759 35.1603C0.0657586 34.0793 -0.172244 33.2143 0.120756 31.9063C1.71276 24.7973 32.2658 4.03325 39.6248 0.000246392Z" fill="#EA1A27"/>
<path d="M38.5158 10.5391L39.1738 10.8661C40.5208 19.3441 40.4728 36.2911 39.9758 44.9891C33.6998 42.3451 27.5898 39.2741 21.4528 36.3221C18.1958 34.8001 14.6368 33.4061 11.7148 31.3021L11.7158 30.5471C17.6588 24.8051 31.3138 15.5101 38.5158 10.5391Z" fill="#FDFBFE"/>
</svg>
