<svg width="320" height="320" viewBox="0 0 320 320" fill="none" xmlns="http://www.w3.org/2000/svg">
<path d="M320 320H0V0H320V320ZM234.816 27.5654C210.772 16.0693 184.283 13.1866 157.661 14.1836C131.84 15.1507 107.429 22.0224 84.125 33.209C58.0883 45.7072 28.7217 57.1347 15.0693 82.6309C1.19639 108.539 5.98961 140.084 11.4248 168.979C16.6809 196.922 28.1036 222.848 45.6475 245.193C63.8268 268.348 85.6488 289.267 113.429 298.901C141.923 308.784 173.066 307.766 202.051 299.438C231.156 291.075 257.665 274.917 277.301 251.816C296.838 228.831 307.846 200.055 311.953 170.141C316.043 140.351 314.846 108.932 300.545 82.498C286.665 56.8434 261.096 40.1299 234.816 27.5654Z" fill="#FF6514"/>
</svg>
