<svg width="102" height="124" viewBox="0 0 102 124" fill="none" xmlns="http://www.w3.org/2000/svg">
<path d="M58.3013 44.9987C49.4031 55.3255 45.6419 69.8292 47.941 83.2443C44.8327 78.7919 41.4608 74.4785 37.4958 70.6696C32.9537 66.3102 25.927 61.0832 17.1319 59.3963C23.8883 53.387 28.9021 45.465 31.4094 36.7639C33.0729 30.9766 33.6147 24.8868 33.0438 18.9029C39.9642 30.8104 48.1753 39.2626 58.3013 44.9987Z" fill="#6E59CD"/>
<path d="M90.9414 81.9359C81.2845 78.5761 74.1537 72.2273 67.8097 61.3562C67.3973 60.6446 66.4925 60.3861 65.7643 60.7792C65.0406 61.1707 64.7535 62.0651 65.1196 62.8025C67.7357 68.1064 68.3273 74.2944 66.7795 80.233C65.2199 86.2107 61.5129 91.8565 56.3481 96.119C55.8391 96.5377 55.6559 97.2365 55.8937 97.8471C56.1285 98.4638 56.734 98.8591 57.3939 98.8251C64.1012 98.5078 69.6641 101.411 73.151 103.898C77.6867 107.141 81.3047 111.428 84.8033 115.569C85.2204 116.059 85.8845 116.229 86.4639 116.032C86.5987 115.986 86.7273 115.922 86.8438 115.837C87.4922 115.386 87.6924 114.516 87.3041 113.832C82.2593 104.909 84.0169 92.8105 91.5746 84.4015C91.9174 84.0243 92.0431 83.4955 91.9201 83.0011C91.791 82.5038 91.4255 82.107 90.9414 81.9359ZM81.8421 107.557C79.7476 105.347 77.4933 103.243 74.9271 101.415C71.7279 99.1256 66.9456 96.528 61.1161 95.8902C65.3072 91.6232 68.3224 86.4482 69.7383 81.0055C70.6221 77.6229 70.88 74.1677 70.5367 70.8017C75.5063 77.0138 81.1678 81.3269 87.8833 84.0536C82.5231 90.9383 80.3862 99.653 81.8421 107.557Z" fill="#FFD200"/>
<path d="M87.8827 84.0529C82.5225 90.9376 80.3857 99.6523 81.8415 107.556C79.7471 105.347 77.4927 103.242 74.9265 101.414C71.7274 99.1249 66.945 96.5273 61.1156 95.8895C65.3066 91.6225 68.3219 86.4475 69.7377 81.0048C70.6216 77.6223 70.8794 74.1671 70.5362 70.8011C75.5057 77.0132 81.1673 81.3262 87.8827 84.0529Z" fill="#FFD200"/>
</svg>
