<svg width="116" height="102" viewBox="0 0 116 102" fill="none" xmlns="http://www.w3.org/2000/svg">
<path d="M22.3073 100.675C22.4499 100.647 22.591 100.604 22.7294 100.544C23.0523 100.405 23.3228 100.194 23.5295 99.9362C24.0036 99.9019 24.4571 99.707 24.8151 99.365L26.528 97.7286C27.3591 96.9336 27.3892 95.6149 26.5941 94.7832C26.4356 94.6176 26.2563 94.4837 26.0641 94.3813C26.1137 94.085 26.1634 93.7893 26.213 93.4937C26.4041 92.3593 25.6386 91.2846 24.5043 91.0936C23.3705 90.9024 22.2959 91.6685 22.1049 92.8029C22.0699 93.0093 22.0354 93.2151 22.0011 93.4214C21.8901 93.143 21.7792 92.8645 21.6698 92.5871C21.2484 91.517 20.0375 90.9919 18.9684 91.4118C17.8976 91.8333 17.3711 93.0431 17.7932 94.1137C18.4959 95.8983 19.236 97.6953 19.9928 99.4541C20.3875 100.372 21.3646 100.861 22.3073 100.675ZM30.6582 93.3328C31.0348 93.2585 31.3946 93.0794 31.6922 92.7954L36.8571 87.8614C37.6887 87.0662 37.7189 85.7476 36.9244 84.9157C36.129 84.0834 34.8105 84.0539 33.9787 84.8485L28.8139 89.7824C27.9822 90.5776 27.952 91.8963 28.7466 92.7281C29.2571 93.2623 29.9837 93.466 30.6582 93.3328ZM25.7793 88.1532C26.5965 87.9919 27.2704 87.3458 27.4268 86.4764C27.8814 83.9443 28.3127 81.6612 28.7444 79.4973C28.9695 78.3687 28.2378 77.2715 27.1092 77.0464C25.9825 76.8209 24.884 77.5522 24.6583 78.6809C24.2208 80.8724 23.7848 83.1815 23.3257 85.7408C23.1218 86.8731 23.8757 87.956 25.0085 88.1591C25.2713 88.2061 25.532 88.202 25.7793 88.1532ZM17.6434 88.7001C17.7398 88.6811 17.836 88.6549 17.9309 88.6216C19.0164 88.2414 19.5887 87.0535 19.209 85.9672C18.4354 83.7566 17.6934 81.4996 17.0039 79.258C16.6657 78.1589 15.5057 77.5408 14.4001 77.879C13.3003 78.2173 12.6834 79.383 13.021 80.4828C13.7259 82.7755 14.4852 85.0838 15.2759 87.3443C15.6229 88.3349 16.643 88.8976 17.6434 88.7001ZM40.9878 83.4648C41.3643 83.3905 41.7242 83.2115 42.0218 82.9274L47.1865 77.9935C48.0183 77.1989 48.0484 75.8796 47.2539 75.0478C46.4585 74.2148 45.14 74.1859 44.3082 74.9805L39.1434 79.9145C38.3117 80.7096 38.2816 82.0283 39.0761 82.8601C39.586 83.3944 40.3126 83.5981 40.9878 83.4648ZM51.3165 73.5964C51.693 73.522 52.053 73.343 52.3506 73.059L56.3633 69.2258C56.8809 68.7317 57.1086 68.0064 56.9655 67.3048C56.8231 66.6038 56.3307 66.0245 55.6616 65.7713L54.1729 65.2069C53.0985 64.7992 51.8949 65.3385 51.4856 66.4152C51.2745 66.9706 51.317 67.5596 51.5553 68.056L49.4716 70.0461C48.6398 70.8407 48.6097 72.16 49.4043 72.9918C49.9155 73.5258 50.6419 73.7295 51.3165 73.5964ZM28.5955 74.1487C29.3772 73.9944 30.0344 73.3963 30.2242 72.5691C30.7685 70.1913 31.34 67.8845 31.9235 65.7122C32.2218 64.6008 31.5629 63.4583 30.4515 63.16C29.3413 62.8615 28.1976 63.5206 27.8991 64.6314C27.303 66.8536 26.7185 69.211 26.1616 71.6388C25.9049 72.7605 26.6063 73.8781 27.7279 74.1342C28.0226 74.2025 28.3172 74.2036 28.5955 74.1487ZM13.4468 75.0485C13.4911 75.0397 13.5359 75.0296 13.5802 75.0175C14.6923 74.7216 15.3537 73.5806 15.0579 72.4693C14.4545 70.2 13.8883 67.8925 13.3745 65.6103C13.1215 64.4884 12.0068 63.7837 10.8841 64.0356C9.76156 64.2882 9.05687 65.4028 9.30891 66.5261C9.83484 68.86 10.4139 71.2196 11.0313 73.5401C11.3157 74.607 12.3785 75.2594 13.4468 75.0485ZM47.1568 66.6683C47.8389 66.5337 48.4384 66.0603 48.703 65.3619C49.1111 64.2861 48.5686 63.0831 47.4931 62.6763L40.814 60.1455C39.7404 59.739 38.5369 60.2789 38.1275 61.3549C37.7194 62.4307 38.2619 63.6338 39.3376 64.0412L46.0168 66.5719C46.3941 66.7148 46.7878 66.7412 47.1568 66.6683ZM33.7978 61.6063C34.4799 61.4717 35.0793 60.9983 35.3439 60.2999C35.7285 59.2854 35.2682 58.1578 34.3124 57.6904C34.9213 55.8432 35.5609 54.042 36.2184 52.3208C36.6286 51.2459 36.09 50.0422 35.0156 49.6312C33.9428 49.2212 32.7367 49.7583 32.3259 50.8339C31.6672 52.5586 31.0261 54.3595 30.4149 56.2045L27.4547 55.0829C26.3812 54.6763 25.1776 55.2156 24.7683 56.2923C24.3602 57.3681 24.9027 58.5711 25.9783 58.9786L32.6575 61.5093C33.0357 61.6533 33.4288 61.6792 33.7978 61.6063ZM10.3116 61.1149C11.4286 60.8944 12.164 59.8152 11.9562 58.6924C11.5295 56.3876 11.1426 54.0434 10.8054 51.7249C10.64 50.5865 9.58313 49.7973 8.44405 49.9628C7.30054 50.1293 6.51702 51.185 6.68259 52.3241C7.02695 54.6958 7.42314 57.0935 7.85877 59.4505C8.06835 60.5822 9.15512 61.3293 10.2863 61.1205C10.2951 61.1181 10.3027 61.1166 10.3116 61.1149ZM20.4394 56.5448C21.1216 56.4102 21.721 55.9368 21.9856 55.2384C22.3937 54.1626 21.8513 52.9596 20.7756 52.5522L14.0964 50.0214C13.0221 49.6144 11.8188 50.1549 11.4101 51.2308C11.002 52.3066 11.5444 53.5096 12.6201 53.9171L19.2992 56.4478C19.6766 56.5913 20.0704 56.6177 20.4394 56.5448ZM37.4351 47.0366C38.0691 46.9115 38.6361 46.4939 38.9262 45.8616C39.914 43.7117 40.9728 41.6143 42.0736 39.6265C42.6311 38.62 42.2668 37.3522 41.2604 36.7947C40.2539 36.2373 38.986 36.6015 38.4279 37.6081C37.2777 39.686 36.1711 41.8778 35.14 44.1219C34.6594 45.1672 35.1177 46.4046 36.1629 46.8846C36.5773 47.0755 37.0205 47.1184 37.4351 47.0366ZM44.3713 34.5663C44.8912 34.4636 45.3727 34.1637 45.6934 33.6894C46.9775 31.7926 48.3805 29.9315 49.8663 28.1589C50.6051 27.2766 50.49 25.9629 49.6077 25.2235C48.7261 24.4846 47.4112 24.6006 46.6729 25.4821C45.0961 27.3643 43.6056 29.3394 42.2428 31.3546C41.5976 32.3072 41.8474 33.6029 42.8006 34.2473C43.2797 34.5723 43.8458 34.67 44.3713 34.5663ZM53.5329 23.63C53.9158 23.5544 54.2807 23.371 54.5808 23.0793C56.2411 21.4632 57.9911 19.9282 59.785 18.5156C60.6891 17.8036 60.8449 16.4937 60.1329 15.5896C59.4204 14.6863 58.1105 14.5306 57.207 15.2424C55.2997 16.7446 53.4378 18.3768 51.6742 20.0936C50.85 20.8966 50.8316 22.2149 51.634 23.0399C52.1452 23.564 52.8654 23.7617 53.5329 23.63ZM64.7409 14.819C64.9812 14.7715 65.2169 14.6809 65.4374 14.5432C67.4115 13.3157 69.4474 12.211 71.4894 11.2612C72.5331 10.7759 72.9854 9.53656 72.5002 8.49351C72.0144 7.45058 70.7707 6.99987 69.7325 7.48278C67.5378 8.50355 65.3517 9.68859 63.2359 11.0053C62.2592 11.6131 61.96 12.8973 62.5673 13.8747C63.0382 14.6321 63.9149 14.982 64.7409 14.819ZM98.8345 7.40773C99.6473 7.24729 100.32 6.60733 100.48 5.74319C100.69 4.61164 99.9426 3.52484 98.8117 3.31468C96.369 2.86224 93.8607 2.61836 91.355 2.59068C90.204 2.57614 89.2616 3.50056 89.2488 4.65047C89.2362 5.80101 90.158 6.74404 91.3086 6.75667C93.5755 6.78211 95.8453 7.00258 98.0522 7.41198C98.3188 7.4608 98.5835 7.45729 98.8345 7.40773ZM77.6667 8.84035C77.739 8.82608 77.8111 8.80789 77.883 8.78513C79.4774 8.28993 81.0881 7.90742 82.6908 7.56469C83.2994 7.44455 83.9182 7.33623 84.53 7.24246C85.6756 7.06638 86.4481 6.00493 86.2737 4.8676C86.0992 3.73028 85.0361 2.94951 83.8988 3.12396C83.2217 3.22733 82.5284 3.34902 81.8654 3.48056C80.1316 3.82283 78.3754 4.26896 76.647 4.80577C75.5479 5.14723 74.9339 6.31439 75.2753 7.41349C75.5953 8.44041 76.6351 9.04333 77.6667 8.84035Z" fill="white"/>
</svg>
