<svg width="69" height="70" viewBox="0 0 69 70" fill="none" xmlns="http://www.w3.org/2000/svg">
<path d="M31.9501 0.0421738C34.714 -0.137364 37.2156 0.234214 39.668 1.58456C43.477 3.68147 45.4859 7.20981 46.6843 11.2324C50 9.74829 53.5695 8.96014 57.2092 9.36705C60.8676 9.77672 64.175 11.5118 66.3761 14.4995C68.5717 17.4802 69.4037 21.3156 68.8181 24.9556C68.1207 29.2881 65.4414 32.2508 62.0557 34.7795C64.1965 36.8612 65.8716 38.7003 66.9396 41.5687C68.3878 45.461 67.9618 49.8593 66.236 53.5901C66.1041 53.875 65.9653 54.1571 65.8189 54.4351C65.6725 54.7131 65.5198 54.9869 65.3595 55.2572C65.1992 55.5276 65.032 55.7937 64.8578 56.0551C64.6836 56.3164 64.5032 56.5736 64.3165 56.8259C64.1291 57.0782 63.9356 57.3257 63.7357 57.5676C63.5358 57.8102 63.3298 58.0473 63.1174 58.2789C62.9058 58.5111 62.6879 58.7371 62.4637 58.9575C62.2403 59.1786 62.0113 59.3935 61.776 59.6022C61.5415 59.8108 61.3014 60.0139 61.0564 60.2101C60.8114 60.407 60.561 60.5969 60.3056 60.7806C60.0509 60.9643 59.7914 61.1417 59.527 61.3116C59.2633 61.4821 58.9954 61.6457 58.7227 61.8024C58.45 61.959 58.1738 62.1087 57.8935 62.2508C57.6131 62.3936 57.3293 62.5288 57.0427 62.6564C56.7554 62.7846 56.4653 62.9052 56.1718 63.0182C55.8783 63.1312 55.5827 63.2366 55.2836 63.3343C49.3373 65.2787 44.173 63.8258 38.8304 61.0967L38.201 61.141C36.335 64.2119 34.0791 66.7615 30.8044 68.3711C30.5754 68.4862 30.3436 68.5956 30.1084 68.6989C29.8738 68.8022 29.6365 68.9 29.3971 68.9915C29.1577 69.083 28.9155 69.1682 28.6719 69.2479C28.4284 69.3277 28.182 69.4005 27.9343 69.4677C27.6865 69.5349 27.4374 69.5952 27.1869 69.65C26.9364 69.7048 26.6852 69.7526 26.4319 69.7942C26.1786 69.8365 25.9246 69.8718 25.67 69.9009C25.4153 69.9301 25.1592 69.9529 24.9031 69.9689C24.6471 69.9848 24.391 69.9952 24.1343 69.9987C23.8782 70.0021 23.6214 69.9987 23.3654 69.9897C23.1093 69.98 22.8533 69.964 22.5972 69.9419C22.3418 69.919 22.0872 69.8906 21.8332 69.8552C21.5785 69.8199 21.3259 69.7783 21.074 69.7304C20.8221 69.6826 20.5709 69.6285 20.3218 69.5682C20.0727 69.5079 19.8249 69.4407 19.5793 69.3679C19.3329 69.2951 19.0894 69.216 18.8472 69.1308C18.6279 69.0532 18.4107 68.97 18.1963 68.8812C17.9819 68.7925 17.7688 68.6989 17.5586 68.5998C17.3483 68.5007 17.1408 68.396 16.9361 68.2865C16.7307 68.1777 16.5288 68.0633 16.3296 67.9434C16.1304 67.8242 15.9341 67.7001 15.7405 67.5704C15.5475 67.4415 15.3574 67.3077 15.1708 67.1691C14.9841 67.0304 14.8016 66.887 14.6225 66.7393C14.4428 66.5917 14.2673 66.4398 14.0952 66.2832C13.9238 66.1272 13.7558 65.9664 13.592 65.8021C13.4283 65.6371 13.2687 65.4687 13.1132 65.2961C12.9578 65.1234 12.8065 64.9467 12.6594 64.7665C12.513 64.5869 12.3707 64.4032 12.2333 64.2161C12.0959 64.0289 11.9634 63.8383 11.835 63.6442C11.7066 63.4508 11.5838 63.2539 11.4651 63.0543C11.3465 62.8539 11.2334 62.6515 11.1251 62.4456C11.0175 62.2404 10.9141 62.0325 10.8163 61.8218C8.55338 56.9465 9.07246 51.5902 10.9475 46.7122C8.39518 45.8401 6.2183 44.8129 4.26141 42.8844C1.38228 40.0471 -0.0347439 36.184 0.000646749 32.1759C0.039507 27.6875 1.70081 23.2531 5.01087 20.1538C8.93784 16.4778 13.0508 15.8484 18.1776 16.1201C18.4114 13.1221 18.9776 10.3805 20.521 7.74914C23.1072 3.3425 27.1508 1.21922 31.9501 0.0421738Z" fill="#C7531D"/>
<path d="M31.3583 5.14665C32.1885 5.04691 33.0195 4.95545 33.8559 5.02355C42.6555 5.74238 39.7481 12.4333 44.0539 17.2986C45.7391 17.5978 50.7002 14.8367 53.108 14.545C55.9776 14.1977 59.0394 14.8574 61.2804 16.7566C62.9121 18.1392 63.8913 20.0487 63.9894 22.1928C64.292 28.8122 58.0142 31.2032 54.3562 35.402C54.4824 37.6967 60.7747 38.4382 62.4249 43.6846C63.3478 46.617 62.7474 49.7117 61.2886 52.3607C61.174 52.5712 61.0533 52.779 60.9277 52.9833C60.8021 53.1876 60.6711 53.3877 60.5345 53.5852C60.398 53.7826 60.2566 53.9759 60.1105 54.1657C59.9643 54.3556 59.8127 54.5413 59.6562 54.7236C59.5005 54.9059 59.3392 55.0833 59.1738 55.2567C59.0085 55.43 58.8383 55.5986 58.664 55.763C58.489 55.9274 58.3106 56.0876 58.1281 56.2424C57.9449 56.3972 57.7583 56.5472 57.5675 56.6923C57.3774 56.8374 57.1832 56.9777 56.9849 57.1126C56.7866 57.2474 56.5855 57.3767 56.3804 57.5012C56.1752 57.6257 55.9673 57.744 55.7566 57.8575C55.5453 57.971 55.3312 58.0783 55.1151 58.1801C54.8982 58.2826 54.6787 58.3789 54.457 58.469C54.2354 58.5591 54.011 58.6438 53.7853 58.7229C53.5588 58.8013 53.331 58.8735 53.1011 58.9402C52.8713 59.0069 52.6393 59.0675 52.406 59.1218C46.2483 60.6159 42.3398 57.7977 37.4275 54.7291C36.8504 54.6019 36.2727 54.4801 35.6935 54.3645C34.7349 54.9526 34.4021 56.6194 33.9115 57.6202C32.4232 60.6627 30.2995 63.6006 26.9111 64.6338C24.4491 65.3849 21.2014 64.9446 18.9885 63.6425C16.5793 62.2248 14.8365 59.463 14.2772 56.7549C13.1601 51.3441 16.1772 47.9605 18.8979 43.7789C18.5377 42.2394 13.2541 42.0152 11.6794 41.5419C10.4566 41.1739 9.24754 40.5651 8.21484 39.814C6.4198 38.5084 5.32464 36.8383 5.0687 34.6151C4.70159 31.4288 5.82626 26.4095 7.95204 23.8643C11.7926 19.2666 17.0007 21.7113 21.9309 21.3619C23.5537 20.3431 22.6143 14.1213 23.7575 11.4414C25.1483 8.18016 28.1943 6.36074 31.3583 5.14665Z" fill="#F9B71A"/>
<path d="M31.36 15.0323C32.4739 14.9712 33.2659 14.9245 34.2319 15.6065C37.5922 17.9789 38.1338 26.2756 38.8808 30.0456C42.6954 27.8735 48.8342 22.8885 53.0322 22.3534C53.9503 22.2367 54.8781 22.4631 55.5111 23.1766C56.0132 23.7426 56.0644 24.7992 55.9477 25.5175C55.301 29.4933 46.9944 33.4527 43.6661 35.5733C46.2372 38.9653 52.2524 44.2734 52.4591 48.6032C52.5069 49.6042 52.2211 50.1661 51.5846 50.9242C50.7954 51.364 50.238 51.6007 49.3198 51.5629C45.9834 51.425 43.2807 47.5343 41.1626 45.2662C39.4695 43.5743 37.6932 42.021 35.8697 40.4732C33.3846 43.9756 30.7297 48.2527 27.6149 51.1582C26.559 52.1434 25.1073 53.2109 23.5766 52.9639C22.7914 52.837 22.0615 52.341 21.6849 51.6295C19.6924 47.8698 25.825 43.0344 26.7622 39.6925C23.1345 38.0377 16.1806 39.91 13.4342 36.2189C13.1729 35.8676 12.9479 35.3339 13.0106 34.8845C13.2562 33.1199 14.5659 32.1038 15.9412 31.1852C21.0403 31.1811 26.2001 31.8946 31.2795 32.3371C30.9562 27.5765 29.0939 22.7252 29.5175 17.9474C29.6505 16.4511 30.2897 15.942 31.36 15.0323Z" fill="#FDFBFE"/>
</svg>
