<svg width="125" height="115" viewBox="0 0 125 115" fill="none" xmlns="http://www.w3.org/2000/svg">
<path d="M88.8761 112.422C88.7404 112.37 88.6088 112.304 88.4827 112.221C88.1885 112.028 87.9581 111.774 87.7986 111.485C87.3375 111.37 86.9241 111.1 86.6301 110.702L85.2232 108.796C84.5409 107.87 84.7373 106.566 85.6633 105.883C85.8479 105.747 86.0475 105.646 86.2543 105.578C86.2564 105.277 86.2581 104.977 86.2599 104.678C86.2663 103.527 87.2047 102.6 88.355 102.606C89.5048 102.612 90.432 103.551 90.4256 104.702C90.4247 104.911 90.4234 105.12 90.4218 105.329C90.5789 105.074 90.7359 104.818 90.8913 104.564C91.49 103.582 92.773 103.272 93.7542 103.869C94.7369 104.468 95.0481 105.75 94.4486 106.733C93.4502 108.37 92.4129 110.014 91.3656 111.617C90.8194 112.453 89.7729 112.767 88.8761 112.422ZM81.9082 103.757C81.55 103.619 81.2262 103.381 80.9817 103.05L76.7396 97.3032C76.0567 96.3772 76.2531 95.0729 77.1786 94.3897C78.1049 93.7061 79.4089 93.9032 80.0921 94.8286L84.3342 100.575C85.0171 101.501 84.8207 102.806 83.8952 103.489C83.3006 103.928 82.5499 104.004 81.9082 103.757ZM87.6032 99.4908C86.8258 99.1917 86.2726 98.4395 86.2677 97.5562C86.2541 94.9837 86.2208 92.6605 86.1667 90.4545C86.1385 89.304 87.0475 88.3487 88.198 88.3205C89.3466 88.2916 90.3034 89.2004 90.3322 90.3511C90.3874 92.5851 90.4209 94.9348 90.4342 97.5349C90.4409 98.6854 89.5124 99.6229 88.3616 99.6288C88.0946 99.6299 87.8384 99.5813 87.6032 99.4908ZM95.5247 101.425C95.433 101.39 95.3427 101.347 95.255 101.298C94.2508 100.738 93.8907 99.4691 94.4511 98.4641C95.5924 96.4189 96.7105 94.3226 97.7743 92.2325C98.2959 91.2077 99.5447 90.7977 100.576 91.3205C101.601 91.8424 102.009 93.0967 101.488 94.1223C100.4 96.2601 99.2564 98.4039 98.0897 100.495C97.5779 101.412 96.4764 101.791 95.5247 101.425ZM73.4242 92.2634C73.066 92.1255 72.7422 91.8874 72.4977 91.5566L68.2558 85.8099C67.5726 84.8844 67.7692 83.5795 68.6946 82.8963C69.6211 82.2121 70.925 82.4098 71.6082 83.3352L75.8502 89.0819C76.5332 90.008 76.3367 91.3123 75.4113 91.9955C74.8173 92.4344 74.0665 92.5105 73.4242 92.2634ZM64.9412 80.7696C64.583 80.6317 64.2591 80.3936 64.0146 80.0628L60.7188 75.5981C60.2936 75.0226 60.1937 74.269 60.455 73.6023C60.7155 72.9361 61.3 72.4499 62.0026 72.3152L63.566 72.0145C64.6944 71.7971 65.7877 72.5348 66.0062 73.6658C66.119 74.2492 65.9761 74.8222 65.6562 75.2703L67.3677 77.5884C68.0509 78.5138 67.8542 79.8187 66.9287 80.5019C66.3336 80.9404 65.5829 81.0164 64.9412 80.7696ZM87.2307 85.2107C86.4871 84.9246 85.9422 84.2227 85.8971 83.3752C85.7687 80.9393 85.6014 78.5686 85.399 76.3285C85.2958 75.1824 86.1409 74.1698 87.287 74.0666C88.4319 73.9629 89.4457 74.8084 89.5492 75.954C89.7553 78.2454 89.9268 80.6682 90.059 83.1555C90.1196 84.3046 89.2369 85.2853 88.088 85.3453C87.7859 85.362 87.4955 85.3126 87.2307 85.2107ZM102.001 88.6955C101.958 88.6792 101.916 88.6616 101.874 88.6421C100.83 88.1598 100.374 86.9223 100.856 85.8781C101.839 83.7461 102.793 81.5698 103.691 79.4095C104.132 78.3477 105.351 77.8446 106.414 78.2854C107.477 78.7267 107.98 79.9457 107.539 81.0091C106.62 83.2182 105.645 85.4436 104.639 87.6237C104.176 88.626 103.017 89.0864 102.001 88.6955ZM70.2275 74.6577C69.5786 74.408 69.0692 73.8388 68.9283 73.1054C68.7108 71.9756 69.4515 70.8834 70.5809 70.6671L77.5951 69.3194C78.7225 69.103 79.8156 69.8414 80.0343 70.9717C80.2518 72.1015 79.5111 73.1937 78.3815 73.4106L71.3672 74.7582C70.971 74.8343 70.5785 74.7927 70.2275 74.6577ZM84.2568 71.962C83.6079 71.7123 83.0985 71.1432 82.9577 70.4097C82.7528 69.3443 83.3997 68.3123 84.4214 68.0158C84.1384 66.0915 83.8172 64.2073 83.4647 62.3989C83.2449 61.2696 83.982 60.176 85.1109 59.9554C86.2382 59.7355 87.3343 60.4715 87.5545 61.6017C87.9077 63.4138 88.2303 65.2979 88.5161 67.2205L91.6247 66.6232C92.7521 66.4067 93.8454 67.1445 94.0639 68.2754C94.2814 69.4053 93.5407 70.4974 92.4111 70.7143L85.3968 72.062C84.9995 72.139 84.6078 72.097 84.2568 71.962ZM107.479 75.5061C106.417 75.0972 105.877 73.908 106.275 72.8374C107.09 70.64 107.873 68.3969 108.603 66.1706C108.962 65.0774 110.138 64.4811 111.232 64.8396C112.33 65.1997 112.921 66.3742 112.562 67.468C111.816 69.7455 111.015 72.0397 110.181 74.2871C109.781 75.3661 108.582 75.9157 107.503 75.516C107.495 75.5121 107.488 75.5093 107.479 75.5061ZM98.2853 69.2667C97.6364 69.017 97.127 68.4478 96.9861 67.7144C96.7686 66.5846 97.5093 65.4924 98.6389 65.2755L105.653 63.9279C106.781 63.7111 107.874 64.45 108.092 65.5801C108.31 66.7099 107.569 67.8021 106.44 68.019L99.4253 69.3667C99.0289 69.4433 98.6363 69.4017 98.2853 69.2667ZM83.1723 56.9843C82.5692 56.7522 82.0822 56.2436 81.9048 55.571C81.3004 53.2835 80.6171 51.0356 79.8735 48.8884C79.497 47.8012 80.0732 46.6147 81.1604 46.2381C82.2476 45.8615 83.4342 46.4378 83.8114 47.5252C84.5881 49.7696 85.3024 52.1187 85.9333 54.5064C86.2276 55.6187 85.5638 56.7592 84.4518 57.0528C84.0107 57.1697 83.5667 57.136 83.1723 56.9843ZM78.4778 43.509C77.9833 43.3188 77.5603 42.9407 77.3257 42.4184C76.386 40.3295 75.3229 38.2553 74.1632 36.2541C73.5867 35.2583 73.9254 33.9837 74.9215 33.4066C75.9167 32.8299 77.1923 33.1697 77.7684 34.1647C78.999 36.2895 80.1287 38.491 81.1257 40.71C81.5978 41.7592 81.1295 42.9928 80.0799 43.4642C79.5522 43.7022 78.9778 43.7014 78.4778 43.509ZM71.3277 31.1634C70.9635 31.0233 70.6354 30.7801 70.3898 30.4412C69.0313 28.5643 67.5706 26.7519 66.0455 25.0525C65.2769 24.196 65.3481 22.8788 66.2046 22.1103C67.0615 21.3425 68.3787 21.4138 69.1466 22.27C70.7681 24.0771 72.3225 26.0044 73.7654 27.9983C74.4397 28.9307 74.2317 30.2326 73.2997 30.9078C72.7062 31.3365 71.9628 31.4078 71.3277 31.1634ZM61.797 20.5606C61.5685 20.4727 61.3518 20.343 61.1582 20.1695C59.4239 18.6216 57.6077 17.1841 55.7588 15.8981C54.8138 15.241 54.5808 13.9425 55.2377 12.9981C55.8952 12.0539 57.1977 11.8232 58.1377 12.477C60.1248 13.8591 62.0752 15.4015 63.9339 17.0617C64.7919 17.828 64.8663 19.1444 64.1004 20.0032C63.5065 20.6686 62.5829 20.863 61.797 20.5606ZM29.4798 7.41159C28.7066 7.11413 28.1537 6.36828 28.1442 5.48949C28.1314 4.33868 29.0541 3.39619 30.2043 3.38312C32.6885 3.35635 35.2014 3.54629 37.6748 3.9488C38.8111 4.13188 39.5811 5.20425 39.3964 6.33931C39.2115 7.47497 38.1416 8.24591 37.0059 8.06101C34.7683 7.69726 32.4943 7.52516 30.2498 7.54996C29.9788 7.55234 29.7186 7.50347 29.4798 7.41159ZM50.0882 12.4536C50.0195 12.4272 49.9515 12.3969 49.8846 12.3621C48.3988 11.6008 46.8776 10.9477 45.3574 10.3352C44.7784 10.1124 44.1874 9.89957 43.6007 9.70225C42.5023 9.33229 41.9233 8.15407 42.2902 7.06352C42.6572 5.97297 43.8384 5.38611 44.929 5.75304C45.5783 5.97102 46.2404 6.20981 46.871 6.45311C48.5205 7.0877 50.1741 7.82843 51.7849 8.65375C52.8091 9.17865 53.2138 10.4338 52.6889 11.4581C52.1976 12.4149 51.0697 12.8305 50.0882 12.4536Z" fill="white"/>
</svg>
