<svg width="63" height="63" viewBox="0 0 63 63" fill="none" xmlns="http://www.w3.org/2000/svg">
<path d="M13.1677 0C15.7827 0.218 17.9847 0.876993 20.0677 2.52699C25.9217 7.16499 27.4757 15.601 28.2647 22.599C35.1097 17.185 45.9407 8.411 55.3097 9.674C57.6227 9.986 59.7787 11.032 61.1637 12.958C62.9367 15.424 62.9757 18.652 62.3837 21.515C60.2487 31.824 51.6587 39.056 43.4397 44.717C37.9887 48.334 13.1407 63.773 7.77666 62.563C5.78266 62.113 4.38468 59.705 3.65368 57.983C-1.03832 46.922 -1.3623 20.652 3.5617 9.649C5.7287 4.806 8.21165 1.919 13.1677 0Z" fill="#F197B6"/>
<path d="M14.1327 8.67188C16.8987 10.6799 18.4407 14.1169 19.1307 17.4109C21.1267 26.9519 17.2287 33.3079 12.1377 40.8379C11.6197 41.7699 11.0067 42.5899 10.3757 43.4459C8.57067 39.4709 8.79667 32.2079 8.78467 27.7979C8.76767 21.0329 9.06969 13.7279 14.1327 8.67188Z" fill="#FDFBFE"/>
<path d="M53.3998 18.0898C53.9488 19.7908 53.3798 21.7618 52.7798 23.3988C48.7158 34.5048 27.6458 44.4918 17.4258 49.4178C17.4908 47.5778 19.5718 44.8148 20.6258 43.2468C27.4018 33.1678 41.1798 20.4188 53.3998 18.0898Z" fill="#FDFBFE"/>
</svg>
