<svg width="120" height="151" viewBox="0 0 120 151" fill="none" xmlns="http://www.w3.org/2000/svg">
<path d="M103.489 68.2764C103.154 60.8716 101.712 55.319 98.9451 50.8031C95.5288 45.2292 89.7827 40.9196 81.8687 37.9864C81.4145 34.8893 79.616 30.3149 73.4671 27.0948C78.0445 22.5207 84.3008 19.7338 90.6132 19.5547C91.5436 19.5281 92.2743 18.7518 92.2477 17.8214C92.221 16.8911 91.4463 16.1554 90.516 16.182C82.9064 16.4023 75.3769 19.9459 70.1351 25.7071C65.28 24.261 59.8084 25.3121 55.8866 28.5208C54.0606 30.0118 52.5957 31.9529 51.6106 34.1788C48.0523 34.6338 44.6707 35.4635 41.5484 36.6667C30.4295 40.9517 22.4476 50.4141 21.2164 60.7647C20.6367 65.6387 21.7113 69.9545 24.2433 72.9194C25.5755 74.4697 27.3286 75.7154 29.6928 76.7831C28.6603 93.4195 27.6293 110.051 26.5868 126.684C26.5043 128.008 26.4012 129.654 27.0179 131.228C28.1144 134.014 30.8772 135.363 33.4317 136.316C34.7007 136.792 36.0256 137.248 37.375 137.679C37.8829 137.841 38.3974 138 38.9084 138.152C38.9134 138.154 38.9134 138.154 38.9134 138.154C38.9184 138.156 38.9184 138.156 38.9184 138.156L38.9433 138.164C41.9717 139.076 45.2968 139.918 49.1025 140.733C52.5205 141.473 55.8875 142.098 59.6056 142.775L60.5434 142.949C64.3991 143.659 68.449 144.173 71.8097 142.085C74.8768 140.179 76.2526 136.815 77.403 133.539C82.705 118.431 86.8399 102.802 89.7072 87.0694C94.3491 86.5544 98.0175 84.7408 100.352 81.7771C100.352 81.7771 100.352 81.7771 100.354 81.7721C103.494 77.7815 103.678 72.4629 103.489 68.2764ZM54.3801 36.3142C54.7638 35.2845 55.2656 34.3144 55.8794 33.4404C56.4882 32.5648 57.209 31.7854 58.0173 31.1272C61.2749 28.4691 66.1055 27.7071 70.0907 29.2485C70.1903 29.2803 70.2817 29.3205 70.3931 29.367C75.4357 31.515 78.3633 35.0453 78.6256 39.3102C78.6256 39.3102 78.6256 39.3102 78.624 39.3152C78.7518 41.3204 78.2905 43.4008 77.2851 45.3295C74.5402 50.626 67.829 53.6517 62.3308 52.0715C58.1333 50.8683 54.7176 47.1822 53.8402 42.9019C53.4014 40.7535 53.5858 38.4749 54.3801 36.3142ZM34.6051 133.157C32.7465 132.465 30.7678 131.547 30.1563 129.991C29.8097 129.118 29.884 127.94 29.9535 126.898C30.9689 110.607 31.9812 94.3263 32.9966 78.0357C33.0414 78.05 33.0797 78.0677 33.1295 78.0836L33.6324 78.2442C36.615 79.1966 39.8074 80.0075 43.3373 80.7067C40.986 98.4144 39.1591 116.421 37.9009 134.297C36.7771 133.933 35.6697 133.552 34.6051 133.157ZM41.2083 135.315C42.4599 117.305 44.2948 99.1528 46.6577 81.3061C50.3835 81.9417 54.1042 82.4384 57.8674 82.8884C54.1367 100.809 50.8427 119.011 48.0658 137.055C45.584 136.493 43.3154 135.916 41.2083 135.315ZM51.3661 137.768C54.1549 119.619 57.4707 101.314 61.2282 83.2922C66.9067 83.9642 71.0908 84.7626 74.7534 85.4931C68.8558 103.171 63.4605 121.218 58.6955 139.182C56.1455 138.713 53.7494 138.261 51.3661 137.768ZM74.22 132.424C73.2723 135.134 72.1666 137.892 70.0295 139.223C67.8924 140.555 65.0411 140.308 62.0193 139.787C66.791 121.838 72.1849 103.812 78.0827 86.1503C79.7166 86.4635 81.3354 86.7555 82.968 86.9695C84.0741 87.1142 85.1694 87.1896 86.2541 87.2123C83.4227 102.522 79.3816 117.721 74.22 132.424ZM97.704 79.6913C95.2521 82.7987 91.1765 83.6537 88.1816 83.8222C86.6404 83.9062 85.0311 83.8422 83.41 83.6264C81.3867 83.3643 79.3567 82.9685 77.2818 82.5584L76.3372 82.3719C72.547 81.6116 67.8321 80.6711 61.4434 79.9205L60.0892 79.7624C55.1606 79.1817 50.3376 78.5799 45.5192 77.6887C41.2991 76.9173 37.5978 75.9987 34.175 74.8783C33.355 74.6109 32.6857 74.3698 32.0711 74.1296C29.6454 73.1684 27.972 72.0854 26.8093 70.7264C24.2236 67.7059 24.2919 63.4368 24.5624 61.1637C25.6503 52.0349 32.7929 43.6543 42.7603 39.8137C45.1768 38.8789 47.7733 38.1881 50.5052 37.7436C50.1364 39.689 50.1449 41.6725 50.5394 43.5818C51.6616 49.0542 56.026 53.773 61.3998 55.3134C68.4824 57.3447 76.7754 53.6443 80.2786 46.8835C81.1566 45.1995 81.7109 43.4121 81.9179 41.6126C88.4776 44.2505 93.2288 47.9297 96.0729 52.5636C98.5288 56.5743 99.8159 61.6164 100.127 68.4264C100.287 72.033 100.156 76.5674 97.704 79.6913Z" fill="black"/>
<path d="M77.2859 45.3289C74.5411 50.6253 67.8299 53.6511 62.3316 52.0709C58.1341 50.8677 54.7185 47.1816 53.8411 42.9013C53.4023 40.7529 53.5867 38.4743 54.381 36.3136C54.7647 35.2839 55.2665 34.3137 55.8803 33.4398C56.4891 32.5642 57.2099 31.7848 58.0182 31.1265C61.2758 28.4685 66.1064 27.7064 70.0916 29.2479C70.1912 29.2797 70.2826 29.3199 70.394 29.3664C75.4366 31.5144 78.3642 35.0447 78.6264 39.3096C78.6264 39.3096 78.6264 39.3096 78.6249 39.3146C78.7527 41.3198 78.2914 43.4002 77.2859 45.3289Z" fill="#FFD200"/>
<path d="M97.7035 79.6908C95.2516 82.7982 91.176 83.6532 88.1811 83.8217C86.6399 83.9057 85.0306 83.8417 83.4095 83.6259C81.3862 83.3638 79.3562 82.968 77.2813 82.5578L76.3367 82.3714C72.5465 81.6111 67.8316 80.6706 61.4429 79.92L60.0887 79.7619C55.1601 79.1812 50.3371 78.5794 45.5187 77.6882C41.2986 76.9167 37.5973 75.9982 34.1745 74.8777C33.3545 74.6104 32.6852 74.3693 32.0706 74.1291C29.6449 73.1679 27.9715 72.0848 26.8087 70.7259C24.2231 67.7054 24.2914 63.4363 24.5619 61.1632C25.6498 52.0344 32.7924 43.6538 42.7598 39.8132C45.1763 38.8784 47.7728 38.1876 50.5047 37.7431C50.1359 39.6885 50.1444 41.672 50.5389 43.5813C51.6611 49.0536 56.0255 53.7725 61.3993 55.3129C68.4819 57.3442 76.7749 53.6438 80.2781 46.883C81.1561 45.199 81.7104 43.4116 81.9174 41.6121C88.4771 44.25 93.2283 47.9291 96.0724 52.5631C98.5283 56.5738 99.8154 61.6159 100.126 68.4259C100.286 72.0325 100.155 76.5669 97.7035 79.6908Z" fill="#DE1585"/>
<path d="M74.2191 132.424C73.2714 135.134 72.1657 137.892 70.0286 139.223C67.8915 140.555 65.0401 140.308 62.0184 139.787C66.7901 121.837 72.184 103.812 78.0818 86.1502C79.7157 86.4634 81.3345 86.7554 82.9671 86.9695C84.0732 87.1142 85.1685 87.1896 86.2532 87.2122C83.4218 102.522 79.3807 117.721 74.2191 132.424Z" fill="#46DDE3"/>
<path d="M58.6954 139.182C56.1454 138.714 53.7493 138.262 51.3659 137.769C54.1547 119.62 57.4706 101.315 61.228 83.2931C66.9066 83.9651 71.0907 84.7635 74.7532 85.4941C68.8556 103.172 63.4603 121.219 58.6954 139.182Z" fill="#46DDE3"/>
<path d="M48.0657 137.055C45.5839 136.493 43.3152 135.917 41.2082 135.315C42.4598 117.306 44.2947 99.1533 46.6575 81.3066C50.3834 81.9422 54.1041 82.439 57.8672 82.8889C54.1366 100.809 50.8426 119.011 48.0657 137.055Z" fill="#46DDE3"/>
<path d="M37.9011 134.297C36.7773 133.933 35.6699 133.552 34.6053 133.157C32.7467 132.464 30.768 131.547 30.1565 129.991C29.8099 129.118 29.8842 127.94 29.9537 126.898C30.9691 110.607 31.9814 94.3262 32.9968 78.0355C33.0416 78.0498 33.0799 78.0675 33.1297 78.0834L33.6326 78.244C36.6152 79.1965 39.8076 80.0074 43.3375 80.7066C40.9862 98.4143 39.1593 116.421 37.9011 134.297Z" fill="#46DDE3"/>
</svg>
