<svg width="102" height="124" viewBox="0 0 102 124" fill="none" xmlns="http://www.w3.org/2000/svg">
<path d="M58.5416 45.0964C49.6433 55.4231 45.8821 69.9269 48.1813 83.342C45.0729 78.8896 41.701 74.5761 37.736 70.7673C33.1939 66.4079 26.1672 61.1809 17.3721 59.4939C24.1285 53.4847 29.1424 45.5626 31.6497 36.8615C33.3131 31.0742 33.855 24.9844 33.2841 19.0006C40.2044 30.9081 48.4156 39.3602 58.5416 45.0964Z" fill="#6E59CD"/>
<path d="M91.1816 82.0336C81.5247 78.6738 74.3939 72.3249 68.05 61.4539C67.6375 60.7423 66.7328 60.4838 66.0045 60.8769C65.2808 61.2684 64.9937 62.1628 65.3598 62.9002C67.9759 68.2041 68.5675 74.3921 67.0197 80.3307C65.4601 86.3083 61.7531 91.9542 56.5883 96.2167C56.0793 96.6354 55.8961 97.3341 56.1339 97.9448C56.3687 98.5614 56.9742 98.9568 57.6342 98.9227C64.3414 98.6055 69.9043 101.509 73.3912 103.996C77.927 107.239 81.5449 111.525 85.0435 115.667C85.4606 116.156 86.1248 116.326 86.7042 116.129C86.8389 116.084 86.9676 116.02 87.0841 115.935C87.7324 115.484 87.9326 114.614 87.5443 113.929C82.4996 105.007 84.2571 92.9081 91.8148 84.4992C92.1576 84.122 92.2834 83.5931 92.1603 83.0988C92.0312 82.6015 91.6657 82.2047 91.1816 82.0336ZM82.0823 107.654C79.9878 105.445 77.7335 103.341 75.1673 101.513C71.9682 99.2233 67.1858 96.6257 61.3563 95.9878C65.5474 91.7208 68.5627 86.5458 69.9785 81.1032C70.8624 77.7206 71.1202 74.2654 70.777 70.8994C75.7465 77.1115 81.408 81.4245 88.1235 84.1513C82.7633 91.036 80.6265 99.7507 82.0823 107.654Z" fill="#FFD200"/>
<path d="M88.123 84.1506C82.7628 91.0353 80.6259 99.75 82.0817 107.654C79.9873 105.444 77.7329 103.34 75.1667 101.512C71.9676 99.2226 67.1853 96.625 61.3558 95.9872C65.5468 91.7201 68.5621 86.5452 69.9779 81.1025C70.8618 77.7199 71.1196 74.2647 70.7764 70.8987C75.746 77.1108 81.4075 81.4238 88.123 84.1506Z" fill="#FFD200"/>
</svg>
