<svg width="56" height="68" viewBox="0 0 56 68" fill="none" xmlns="http://www.w3.org/2000/svg">
<path d="M55.8042 14.5076C55.4727 13.8944 54.7897 13.5626 54.1016 13.6782C47.0099 14.9097 39.9181 16.3222 32.8565 17.9055C29.7124 12.0999 26.4127 6.3847 22.9572 0.770061C22.6107 0.212115 21.9628 -0.0844457 21.3149 0.0211115C20.667 0.126669 20.1496 0.619281 19.999 1.25765C18.4119 8.17919 16.9252 15.156 15.5541 22.158C10.7224 23.4498 5.91593 24.822 1.1496 26.2747C0.536859 26.4557 0.0948793 26.9835 0.0145196 27.6168C-0.0708626 28.2451 0.225464 28.8684 0.767892 29.2002C4.82103 31.7034 8.84404 34.2619 12.8419 36.8807C11.1594 46.6322 9.69284 56.4138 8.45229 66.1754C8.36188 66.8791 8.74359 67.5577 9.39149 67.8542C9.60244 67.9497 9.83347 68 10.0595 68C10.5115 68 10.9535 67.809 11.2699 67.4521C17.101 60.8774 22.8467 54.0916 28.4217 47.4917C35.9504 52.8148 43.3384 58.334 50.5407 64.014C51.1082 64.4663 51.9118 64.4814 52.4994 64.0491C53.0871 63.6219 53.3131 62.8528 53.0569 62.1692C49.3503 52.3273 45.2018 42.626 40.6313 33.1259C45.5132 27.4559 50.4854 21.8162 55.5631 16.3825C56.0403 15.8748 56.1357 15.1208 55.8042 14.5076Z" fill="#FFD200"/>
</svg>
