<svg width="103" height="114" viewBox="0 0 103 114" fill="none" xmlns="http://www.w3.org/2000/svg">
<path d="M17.9061 67.1445C18.4574 67.1578 18.9993 67.2368 19.5466 67.3006C20.2917 67.899 20.3289 67.8864 20.5315 68.8122C19.5107 71.7783 12.5279 77.2255 9.98026 79.7314C8.99467 79.8469 8.52114 79.6975 7.61591 79.3681C7.3124 78.9855 7.236 78.6933 7.32699 78.1813C7.91409 74.8725 15.2668 69.0692 17.9061 67.1445Z" fill="white"/>
<path d="M5.60396 52.7005C8.5926 52.4056 11.9591 52.0722 14.8707 52.9349C16.2681 53.3487 17.5127 53.9604 18.2127 55.2893C18.1715 55.7715 18.2718 55.9787 17.8793 56.328C16.7416 57.3415 15.1537 57.2685 13.7271 57.2505C9.82591 57.0407 3.86588 58.1983 0.455506 56.1574C-0.0133789 55.3836 0.00455633 55.4188 0.172585 54.5275C1.48095 52.9608 3.7158 52.9535 5.60396 52.7005Z" fill="white"/>
<path d="M81.0737 65.147C82.0978 65.1377 82.9538 65.2652 83.9434 65.5348C87.9462 66.6247 97.3412 69.4035 99.3648 72.9022C99.3701 73.8778 99.2214 74.097 98.7472 74.9663C98.6827 74.9597 98.619 74.9524 98.5552 74.9477C93.7807 74.5639 87.816 71.9186 83.4134 70.0118C82.1595 69.4685 80.6028 68.9239 80.0615 67.5698C79.999 66.5742 80.5523 65.9386 81.0737 65.147Z" fill="white"/>
<path d="M5.78216 33.3633C10.3256 33.7126 15.0284 35.1372 19.2822 36.7073C21.0913 37.3754 23.5055 38.1531 24.3682 40.0047C24.2361 41.0946 24.1198 41.2221 23.4251 42.0868C19.3287 41.8172 11.6213 39.5345 7.72678 38.0176C6.24707 37.4411 5.2907 36.9955 4.64648 35.4972C4.82846 34.4073 5.04032 34.1158 5.78216 33.3633Z" fill="white"/>
<path d="M29.8607 76.3652C30.1895 76.4868 30.6896 76.6315 30.9884 76.8368C31.8027 77.3973 31.891 77.6689 32.1819 78.5635C31.8996 81.2513 23.9193 93.7565 21.7993 95.9263C21.1671 95.8977 20.7952 95.7602 20.2081 95.545C19.601 94.7514 19.4423 94.6112 19.4961 93.5685C19.6382 90.7877 27.4904 78.6313 29.8607 76.3652Z" fill="white"/>
<path d="M41.0046 86.765C41.4941 86.7378 42.1376 86.6474 42.6138 86.7464C43.5748 86.945 43.705 87.2558 44.227 88.0089C44.4561 90.8594 42.2286 105.105 41.1175 107.824C40.2933 107.785 39.7327 107.7 38.9703 107.378C38.083 106.474 37.7855 105.7 37.6101 104.443C37.0137 100.159 38.4622 90.275 41.0046 86.765Z" fill="white"/>
<path d="M86.9586 47.7516C90.9361 47.4853 95.3899 47.3671 99.3349 47.9117C100.699 48.1003 101.861 48.3128 102.709 49.4532C102.565 50.201 102.469 50.5012 101.849 51.0325C100.025 52.5952 96.3901 52.1947 94.1652 52.204C89.7546 52.2485 84.919 52.6782 80.5522 52.1682C79.044 51.9922 78.4051 51.6707 77.4733 50.4673C77.4573 50.0834 77.3285 49.7022 77.5915 49.3861C79.1349 47.5318 84.6314 47.8267 86.9586 47.7516Z" fill="white"/>
<path d="M14.7583 14.6094C15.4477 14.6147 16.2367 14.6001 16.8882 14.8465C20.1266 16.0705 31.7504 27.1756 33.438 30.3223C33.5402 31.2966 33.0043 31.913 32.5002 32.6907C32.1104 32.6867 31.5598 32.7133 31.1759 32.5844C28.7438 31.7669 15.4928 19.3268 14.5252 16.9943C14.1087 15.9915 14.3671 15.5804 14.7583 14.6094Z" fill="white"/>
<path d="M68.9943 78.2832C69.3908 78.3357 69.7687 78.3642 70.146 78.5216C71.9339 79.2675 84.2829 97.5028 84.6309 99.7749C84.7963 100.853 84.5107 101.067 83.9362 101.936C83.565 101.902 83.0038 101.888 82.6425 101.741C80.2908 100.794 68.5832 83.7172 67.9118 81.0082C67.6674 80.0233 68.4836 79.0762 68.9943 78.2832Z" fill="white"/>
<path d="M44.5326 0.0382478C45.1689 0.0123462 46.3424 -0.077954 46.9415 0.161802C47.3692 0.333151 47.7305 0.568901 47.8852 1.01188C48.6384 3.16836 47.5731 25.0765 46.5244 27.2017C46.3936 27.227 46.2627 27.2569 46.1306 27.2775C45.0367 27.4495 44.5824 27.4189 43.7303 26.7654C42.1158 23.0787 43.2821 4.33127 44.5326 0.0382478Z" fill="white"/>
<path d="M92.1591 23.0503C92.365 23.037 92.5703 23.0105 92.7761 23.0098C93.5452 23.0085 94.1283 23.0291 94.574 23.7483C95.0203 24.4676 94.8821 24.9677 94.7274 25.7228C92.903 27.7524 76.6062 34.5327 72.5868 36.4308C72.4865 36.4607 72.3889 36.5046 72.2853 36.5205C71.5176 36.64 70.9723 36.6898 70.3932 36.0908C69.7589 35.4353 69.8227 35.0866 69.9037 34.2664C73.0398 29.454 86.575 25.0806 92.1591 23.0503Z" fill="white"/>
<path d="M55.9121 85.0273C56.5437 85.0532 57.3161 85.0346 57.8839 85.3415C58.5301 85.6908 58.8529 86.3417 59.0648 87.0105C59.8524 89.4917 63.3757 109.949 63.3863 112.306C63.389 112.955 63.122 113.442 62.8278 114.001L61.2139 113.956C60.0676 113.336 59.6485 112.582 59.1571 111.411C57.059 106.407 54.0531 89.7959 55.9121 85.0273Z" fill="white"/>
<path d="M80.4349 3.99414C80.8527 4.09642 81.4245 4.27643 81.7732 4.51884C82.5323 5.04883 82.6027 5.48783 82.7342 6.31735C81.8649 8.46784 63.8984 22.9926 60.769 25.4586C60.4562 25.3577 59.8206 25.2062 59.533 25.0023C58.8423 24.5135 58.8822 24.1888 58.7832 23.4171C60.3632 18.9255 75.8152 6.37775 80.4349 3.99414Z" fill="white"/>
<path d="M46.2964 38.6969C50.4864 38.5481 54.0017 38.9273 57.7482 40.9217C62.1342 43.2569 65.5499 47.17 66.8987 51.9997C68.2768 56.9336 67.3457 62.3052 64.7622 66.6832C61.6852 71.8974 57.0747 74.4065 51.3817 75.8862C47.4772 76.6314 42.8295 75.5415 39.3926 73.6069C35.1314 71.2087 32.2975 67.0299 31.0669 62.3617C30.9852 62.0588 30.9115 61.754 30.845 61.4471C30.7793 61.1403 30.7209 60.8321 30.6697 60.5226C30.6186 60.2131 30.5754 59.9023 30.5395 59.5909C30.5043 59.2794 30.4765 58.9666 30.4565 58.6537C30.4366 58.3403 30.4247 58.0268 30.42 57.7133C30.4154 57.3992 30.4187 57.0857 30.43 56.7722C30.4412 56.4587 30.4599 56.1459 30.4864 55.8331C30.5137 55.5203 30.5482 55.2088 30.59 54.8973C30.6319 54.5865 30.6817 54.277 30.7394 53.9689C30.7972 53.66 30.8623 53.3532 30.9354 53.0484C31.0078 52.7435 31.0881 52.44 31.1765 52.1385C31.2648 51.8376 31.3598 51.5387 31.4627 51.2419C31.5657 50.9457 31.6752 50.6521 31.7928 50.3612C31.9103 50.0697 32.0345 49.7821 32.166 49.4972C32.2975 49.2122 32.4363 48.9313 32.5818 48.653C32.7272 48.3754 32.88 48.1011 33.0394 47.8308C36.0486 42.8126 40.7561 40.0763 46.2964 38.6969Z" fill="#F9D324"/>
<path d="M46.3767 44.3666C49.1342 44.1999 51.4972 44.1282 54.1113 45.2446C54.3032 45.3283 54.4925 45.4166 54.6798 45.5103C54.8671 45.6039 55.0517 45.7022 55.2337 45.8051C55.4157 45.9081 55.595 46.0163 55.7717 46.1286C55.9483 46.2408 56.1217 46.3577 56.2923 46.4792C56.4624 46.6008 56.6297 46.7263 56.7938 46.8565C56.9578 46.9866 57.1179 47.1208 57.2746 47.2596C57.4314 47.3977 57.5848 47.5399 57.7342 47.6866C57.8836 47.8334 58.0297 47.9835 58.1712 48.1376C58.3127 48.291 58.4501 48.4484 58.5836 48.6098C58.7171 48.7712 58.8466 48.9352 58.9715 49.1033C59.0964 49.2713 59.2166 49.442 59.3328 49.6167C59.449 49.7907 59.5599 49.9673 59.6669 50.1473C59.7738 50.3273 59.8761 50.5099 59.9737 50.6952C60.0707 50.8805 60.163 51.0678 60.2506 51.2584C60.3383 51.4483 60.4207 51.6403 60.4984 51.8349C60.5761 52.0295 60.6491 52.2254 60.7162 52.4233C61.9728 56.0057 61.8054 60.2184 60.0541 63.6082C58.225 67.1494 55.2277 69.2255 51.5191 70.4475C48.8626 70.8712 46.4856 70.8692 43.9466 69.8597C43.742 69.7774 43.5395 69.6897 43.3389 69.5974C43.139 69.5051 42.9411 69.4075 42.7458 69.3052C42.5506 69.2023 42.358 69.0946 42.168 68.9824C41.9781 68.8702 41.7914 68.7526 41.6075 68.6304C41.4235 68.5082 41.2435 68.3814 41.0662 68.2505C40.8889 68.119 40.7149 67.9829 40.5448 67.8427C40.3742 67.7026 40.2074 67.5585 40.0447 67.4097C39.882 67.261 39.7226 67.1082 39.5672 66.9515C39.4125 66.7941 39.261 66.6333 39.1143 66.4693C38.9675 66.3046 38.8247 66.1365 38.6866 65.9645C38.5484 65.7925 38.4149 65.6172 38.2854 65.4385C38.1559 65.2599 38.0311 65.0779 37.9108 64.8926C37.7906 64.7073 37.6757 64.5194 37.5655 64.3281C37.4546 64.1375 37.349 63.9436 37.2487 63.747C37.1484 63.551 37.0534 63.3518 36.9624 63.1506C36.8728 62.9493 36.7878 62.7454 36.7074 62.5402C35.3791 59.1106 35.5897 55.0407 37.1995 51.7433C39.085 47.8833 42.4058 45.6743 46.3767 44.3666Z" fill="#FDFBFE"/>
<path d="M48.0621 49.6646C49.4927 49.5915 50.8395 49.6805 52.1804 50.2338C54.0135 50.9896 55.4799 52.3982 56.2185 54.2505C57.0719 56.3904 56.9131 58.8298 55.9123 60.8913C54.7221 63.3406 52.7257 64.7075 50.1973 65.5277C48.6824 65.5921 47.3256 65.5436 45.9063 64.9499C45.6705 64.8529 45.4407 64.744 45.2169 64.6238C44.9924 64.5035 44.7746 64.372 44.5641 64.2293C44.3535 64.0865 44.1503 63.9337 43.955 63.7703C43.7598 63.607 43.5732 63.4343 43.3958 63.2516C43.2185 63.069 43.0505 62.8784 42.8924 62.6792C42.7343 62.4793 42.5869 62.272 42.4501 62.0575C42.3133 61.843 42.1878 61.6225 42.0735 61.3947C41.9586 61.1669 41.8563 60.9345 41.766 60.6967C40.9425 58.5954 41.1165 56.1559 42.1266 54.1489C43.4231 51.5747 45.4075 50.4768 48.0621 49.6646Z" fill="#F9D324"/>
<path d="M46.6423 53.8578C48.0988 53.8033 49.3773 53.7881 50.5262 54.8201C51.0735 55.3109 51.3737 55.9239 51.4308 56.6532C51.5636 58.3494 50.5966 59.3589 49.5267 60.5198C49.4224 60.5344 49.3188 60.5537 49.2145 60.5637C47.9467 60.6878 46.819 60.6467 45.8208 59.7275C45.0311 59.0003 44.7389 58.1874 44.7422 57.1114C44.7469 55.6264 45.6255 54.7816 46.6423 53.8578Z" fill="#FDFBFE"/>
</svg>
