<svg width="153" height="101" viewBox="0 0 153 101" fill="none" xmlns="http://www.w3.org/2000/svg">
<path d="M42.7483 54.2166C42.6267 54.6977 42.1456 54.9948 41.6618 54.8844C41.5146 54.8505 41.3816 54.7825 41.2741 54.692L40.8468 55.9059C40.7167 56.2794 40.3658 56.5171 39.9866 56.5171C39.9158 56.5171 39.8479 56.5087 39.7772 56.4917C39.3245 56.3842 39.0217 55.954 39.0811 55.49L39.1377 55.04C38.9283 55.1362 38.6821 55.1532 38.4473 55.0712C38.0143 54.9156 37.7625 54.46 37.8643 54.0101L38.9085 49.3807C38.9877 49.027 39.2678 48.7554 39.6244 48.6874C39.9781 48.6167 40.3403 48.7639 40.5469 49.061C40.66 49.2251 40.7704 49.3807 40.8723 49.5335C40.8836 49.5363 40.8921 49.5392 40.9006 49.542C41.0336 49.5816 41.1524 49.6495 41.2514 49.7401C41.4099 49.6212 41.6136 49.559 41.8145 49.5618C42.2107 49.5732 42.5559 49.8363 42.6663 50.2155C43.0511 51.5172 43.0794 52.9008 42.7483 54.2166Z" fill="black"/>
<path d="M65.228 48.8002C65.2535 49.0266 65.2337 49.2614 65.1714 49.5189C65.0639 49.9801 64.6196 50.2801 64.1527 50.2094C63.9745 50.1839 63.816 50.1103 63.6887 50C63.6632 50.0792 63.6349 50.1584 63.6094 50.2376C63.4793 50.8149 63.318 51.3836 63.1256 51.9411C62.9926 52.3146 62.6417 52.5523 62.2625 52.5523C62.1805 52.5523 62.0927 52.541 62.0078 52.5155C61.6089 52.3995 61.3485 52.0344 61.3514 51.6355C61.125 51.9382 60.7288 52.0798 60.3525 51.9637C59.9054 51.8307 59.6338 51.378 59.7215 50.9196L60.5393 46.6808C60.5902 46.4035 60.7685 46.1658 61.0203 46.0384C61.2523 45.9224 61.5211 45.9082 61.7617 46.0016L62.155 45.0565C62.3163 44.6717 62.7209 44.4481 63.1312 44.5076C63.5444 44.5698 63.8641 44.9037 63.9066 45.3197C63.9122 45.382 63.9179 45.447 63.9235 45.5121C64.1527 45.3451 64.4527 45.2886 64.7356 45.3763C65.1346 45.5008 65.3978 45.8828 65.3751 46.3016L65.228 48.8002Z" fill="black"/>
<path d="M93.5755 48.865C93.6661 49.2187 93.6406 49.595 93.5161 50.0138C93.3859 50.4524 92.953 50.7268 92.5002 50.6561C92.2059 50.6108 91.9654 50.4297 91.8353 50.1836L91.4051 51.1909C91.258 51.5333 90.9241 51.7427 90.5647 51.7455C90.4883 51.7455 90.412 51.7342 90.3356 51.7144C89.9168 51.604 89.6366 51.2192 89.6536 50.7919C89.4216 50.9306 89.1301 50.9674 88.8556 50.8598C88.3859 50.6787 88.1539 50.1496 88.335 49.6799L89.4272 46.8446C89.4414 46.8106 89.4555 46.7795 89.4725 46.7484L90.3723 44.428C90.5393 44.0036 90.9948 43.7659 91.4391 43.8734C91.8834 43.9809 92.1805 44.4026 92.1296 44.8581L92.1041 45.0873C92.3192 44.878 92.6276 44.7817 92.9388 44.8496C93.3661 44.943 93.6689 45.325 93.6576 45.7636L93.5755 48.865Z" fill="black"/>
<path d="M79.6599 65.6868C79.6627 66.1763 79.2807 66.5781 78.7912 66.6036C78.3582 66.6262 77.9677 66.3291 77.863 65.9132C77.8036 65.899 77.7272 65.882 77.631 65.865C77.4556 66.3432 77.3169 66.83 77.2122 67.328C77.116 67.7921 76.6831 68.1062 76.2105 68.0496C75.9643 68.0185 75.7549 67.8939 75.6106 67.7156C75.489 68.0976 75.1352 68.3495 74.7419 68.3495C74.6995 68.3495 74.657 68.3466 74.6146 68.341C74.1647 68.2759 73.8308 67.8911 73.8308 67.4383L73.8223 64.8266C73.8223 64.3257 74.2269 63.9183 74.7278 63.9126H74.8211L75.67 61.0065C75.8002 60.5651 76.2388 60.2878 76.6915 60.3642C77.1471 60.4378 77.4754 60.8396 77.4584 61.298L77.416 62.3959C77.5207 62.2487 77.6282 62.1016 77.7385 61.9602C77.9706 61.6659 78.3582 61.5413 78.7176 61.646C79.0741 61.7536 79.3316 62.0677 79.3684 62.4384L79.6316 65.3303C79.6599 65.4799 79.6599 65.6045 79.6599 65.6868Z" fill="black"/>
<path d="M52.515 68.143C52.3736 68.3128 52.1755 68.4203 51.9632 68.4543L51.6379 70.3982C51.5615 70.8396 51.1794 71.1594 50.738 71.1594C50.7069 71.1594 50.6758 71.1566 50.6418 71.1538C50.4664 71.1368 50.3051 71.066 50.1749 70.9642C50.0844 70.9924 49.9881 71.0095 49.8919 71.0066C49.4986 71.0038 49.1477 70.7491 49.0289 70.3728L47.9734 67.0592C47.7612 66.7508 47.665 66.3829 47.6508 65.933C47.6367 65.4774 47.9621 65.0841 48.4092 65.0077C48.8563 64.9313 49.2949 65.1945 49.4307 65.6303L49.5779 66.083C49.6429 66.1198 49.7448 66.1679 49.8948 66.2216C49.9485 65.8651 49.991 65.5086 50.0278 65.1492L50.1268 62.6365C50.1466 62.1441 50.5569 61.7479 51.0493 61.7621C51.5445 61.7677 51.9435 62.1639 51.9519 62.6563C51.9661 63.5363 51.9321 64.4079 51.8472 65.2766L51.8416 65.4378C52.0453 65.5482 52.2066 65.735 52.2802 65.967L52.6905 67.2799C52.7839 67.5799 52.7188 67.9025 52.515 68.143Z" fill="black"/>
<path d="M152.95 79.5782C152.084 77.0598 151.221 74.5414 150.361 72.023L150.115 71.3099L147.795 64.5471C141.238 45.4299 134.679 26.3127 128.123 7.19267C126.453 2.33131 124.11 -0.0880988 121.136 0.00245039C118.745 0.0703623 116.946 1.88138 115.446 3.57068C106.289 13.8933 97.1323 24.2159 87.9727 34.5357L85.9297 36.8362C57.3954 40.3252 28.8667 44.7083 0.745528 49.9375C0.255996 50.028 -0.069405 50.495 0.0126552 50.9845C3.15358 69.9121 12.9046 84.8839 27.4689 93.1436C36.4502 98.237 47.3218 100.866 58.963 100.866C63.4226 100.866 67.9981 100.481 72.6246 99.7C85.8702 97.4617 97.0106 92.3938 104.959 85.014C110.344 86.0752 115.839 86.6043 121.332 86.6043C132.008 86.6043 142.667 84.6178 152.427 80.7214C152.877 80.5403 153.109 80.0394 152.95 79.5782ZM89.3394 35.7468C98.4962 25.427 107.653 15.1044 116.81 4.78179C118.114 3.31319 119.526 1.87291 121.19 1.82481H121.286C123.318 1.82481 125.038 3.82816 126.397 7.78685C132.953 26.904 139.512 46.0213 146.068 65.1385L148.044 70.8912C137.331 72.4729 126.51 72.19 115.845 70.0508C121.637 58.0417 123.015 44.4762 122.925 33.8141C122.922 33.5594 122.812 33.3161 122.622 33.1435C122.432 32.9737 122.18 32.8888 121.926 32.9143C118.994 33.1944 116.06 33.4859 113.126 33.7858C113.123 33.7858 113.123 33.7858 113.12 33.7858C104.973 34.6177 96.8182 35.526 88.6631 36.5079L89.3394 35.7468ZM111.997 35.7383C107.933 49.5498 99.8177 61.5165 89.0451 69.5414C75.5052 79.6263 57.5652 83.1351 42.2256 78.6982C28.0801 74.6065 16.037 63.3614 11.2549 49.8837C44.5572 43.9499 78.3518 39.2046 111.997 35.7383ZM104.71 82.7308C96.9767 90.3822 85.7769 95.6256 72.319 97.9006C56.04 100.648 40.4287 98.3958 28.3687 91.5565C14.5175 83.7013 5.16547 69.5248 1.9623 51.5677C4.44957 51.1065 6.94251 50.6537 9.43544 50.2038C11.8322 57.128 16.0342 63.5683 21.6398 68.8739C27.384 74.3097 34.328 78.3136 41.719 80.4529C46.2663 81.7658 51.0711 82.428 55.9551 82.428C59.6025 82.428 63.2952 82.0601 66.9568 81.3216C75.3241 79.6323 83.3405 76.0641 90.1346 71.0047C101.411 62.6062 109.849 50.0283 113.952 35.5348C116.337 35.2915 118.72 35.0566 121.102 34.8274C121.1 45.3849 119.591 58.6192 113.748 70.1756C113.703 70.2407 113.666 70.3114 113.638 70.3878C111.363 74.8386 108.442 79.0378 104.71 82.7308ZM106.555 83.4606C110.024 79.9093 112.794 75.9364 114.993 71.7429C121.411 73.0643 127.885 73.7293 134.359 73.7293C139.127 73.7293 143.898 73.3643 148.646 72.6484C149.41 74.881 150.174 77.1136 150.941 79.3462C137.07 84.7028 121.411 86.1487 106.555 83.4606Z" fill="black"/>
<path d="M11.2559 49.8838C16.038 63.3614 28.081 74.6065 42.2265 78.6982C57.5661 83.1351 75.5062 79.6263 89.0461 69.5414C99.8186 61.5165 107.934 49.5499 111.997 35.7383C78.3528 39.2046 44.5582 43.95 11.2559 49.8838ZM42.75 54.216C42.6283 54.697 42.1473 54.9942 41.6634 54.8838C41.5163 54.8499 41.3833 54.7819 41.2758 54.6914L40.8485 55.9053C40.7183 56.2788 40.3674 56.5165 39.9883 56.5165C39.9175 56.5165 39.8496 56.508 39.7789 56.491C39.3261 56.3835 39.0234 55.9534 39.0828 55.4893L39.1394 55.0394C38.93 55.1356 38.6838 55.1526 38.4489 55.0706C38.016 54.9149 37.7641 54.4593 37.866 54.0094L38.9101 49.3801C38.9894 49.0264 39.2695 48.7547 39.6261 48.6868C39.9798 48.6161 40.342 48.7632 40.5485 49.0604C40.6617 49.2245 40.7721 49.3801 40.8739 49.5329C40.8853 49.5357 40.8937 49.5386 40.9022 49.5414C41.0352 49.581 41.1541 49.6489 41.2531 49.7394C41.4116 49.6206 41.6153 49.5584 41.8162 49.5612C42.2124 49.5725 42.5576 49.8357 42.6679 50.2149C43.0528 51.5165 43.0811 52.9002 42.75 54.216ZM52.5152 68.1436C52.3737 68.3134 52.1756 68.4209 51.9634 68.4549L51.638 70.3988C51.5616 70.8402 51.1796 71.16 50.7381 71.16C50.707 71.16 50.6759 71.1572 50.6419 71.1544C50.4665 71.1374 50.3052 71.0666 50.175 70.9647C50.0845 70.993 49.9883 71.0101 49.8921 71.0072C49.4988 71.0044 49.1479 70.7497 49.029 70.3734L47.9736 67.0598C47.7613 66.7514 47.6651 66.3835 47.651 65.9336C47.6368 65.478 47.9622 65.0847 48.4093 65.0083C48.8564 64.9319 49.295 65.1951 49.4308 65.6309L49.578 66.0836C49.6431 66.1204 49.7449 66.1685 49.8949 66.2222C49.9487 65.8657 49.9911 65.5091 50.0279 65.1498L50.1269 62.6371C50.1467 62.1447 50.557 61.7485 51.0494 61.7627C51.5446 61.7683 51.9436 62.1645 51.9521 62.6569C51.9662 63.5369 51.9323 64.4085 51.8474 65.2772L51.8417 65.4384C52.0455 65.5488 52.2067 65.7355 52.2803 65.9676L52.6906 67.2805C52.784 67.5805 52.7189 67.9031 52.5152 68.1436ZM65.1722 49.5187C65.0647 49.98 64.6205 50.28 64.1536 50.2092C63.9753 50.1837 63.8168 50.1102 63.6895 49.9998C63.664 50.079 63.6357 50.1582 63.6103 50.2375C63.4801 50.8147 63.3188 51.3835 63.1264 51.9409C62.9934 52.3144 62.6425 52.5522 62.2633 52.5522C62.1813 52.5522 62.0936 52.5408 62.0087 52.5154C61.6097 52.3993 61.3494 52.0343 61.3522 51.6353C61.1258 51.9381 60.7297 52.0796 60.3533 51.9636C59.9062 51.8306 59.6346 51.3779 59.7223 50.9195L60.5401 46.6806C60.591 46.4033 60.7693 46.1656 61.0211 46.0383C61.2532 45.9223 61.522 45.9081 61.7625 46.0015L62.1558 45.0563C62.3171 44.6715 62.7218 44.448 63.1321 44.5074C63.5452 44.5697 63.865 44.9036 63.9074 45.3195C63.9131 45.3818 63.9187 45.4469 63.9244 45.5119C64.1536 45.345 64.4535 45.2884 64.7365 45.3761C65.1355 45.5006 65.3986 45.8826 65.376 46.3014L65.2288 48.8C65.2543 49.0264 65.2345 49.2612 65.1722 49.5187ZM78.7914 66.6043C78.3585 66.6269 77.968 66.3298 77.8633 65.9138C77.8039 65.8997 77.7275 65.8827 77.6313 65.8657C77.4558 66.3439 77.3172 66.8306 77.2125 67.3287C77.1163 67.7927 76.6833 68.1068 76.2108 68.0502C75.9646 68.019 75.7552 67.8946 75.6109 67.7163C75.4892 68.0983 75.1355 68.3501 74.7421 68.3501C74.6997 68.3501 74.6573 68.3473 74.6148 68.3416C74.1649 68.2766 73.831 67.8917 73.831 67.439L73.8225 64.8272C73.8225 64.3264 74.2272 63.9189 74.728 63.9132H74.8214L75.6703 61.0072C75.8005 60.5657 76.239 60.2884 76.6918 60.3648C77.1474 60.4384 77.4756 60.8402 77.4587 61.2986L77.4162 62.3965C77.5209 62.2494 77.6284 62.1023 77.7388 61.9608C77.9708 61.6665 78.3585 61.542 78.7178 61.6467C79.0744 61.7542 79.3319 62.0683 79.3687 62.439L79.6318 65.3309C79.6601 65.4809 79.6601 65.6054 79.6601 65.6874C79.6629 66.1773 79.2809 66.5788 78.7914 66.6043ZM93.517 50.0139C93.3868 50.4525 92.9539 50.727 92.5011 50.6563C92.2068 50.611 91.9663 50.4299 91.8362 50.1837L91.406 51.1911C91.2589 51.5335 90.925 51.7429 90.5656 51.7457C90.4892 51.7457 90.4128 51.7343 90.3364 51.7145C89.9177 51.6042 89.6375 51.2193 89.6545 50.7921C89.4225 50.9307 89.131 50.9675 88.8565 50.86C88.3868 50.6789 88.1548 50.1498 88.3359 49.68L89.4281 46.8447C89.4423 46.8107 89.4564 46.7797 89.4734 46.7485L90.3732 44.4282C90.5402 44.0037 90.9957 43.766 91.44 43.8736C91.8842 43.9811 92.1814 44.4027 92.1304 44.8583L92.105 45.0875C92.32 44.8781 92.6285 44.7819 92.9397 44.8498C93.367 44.9432 93.6698 45.3252 93.6585 45.7638L93.5764 48.8651C93.6669 49.2188 93.6415 49.5951 93.517 50.0139Z" fill="#EA1A27"/>
<path d="M146.069 65.1379C139.513 46.0207 132.954 26.9035 126.398 7.78627C125.039 3.82757 123.319 1.82422 121.287 1.82422H121.191C119.527 1.87232 118.115 3.31261 116.811 4.7812C107.654 15.1038 98.4971 25.4264 89.3404 35.7462L88.6641 36.5073C96.8191 35.5254 104.974 34.6172 113.121 33.7852C113.124 33.7852 113.124 33.7852 113.126 33.7852C116.061 33.4853 118.995 33.1938 121.927 32.9137C122.181 32.8882 122.433 32.9731 122.623 33.1429C122.812 33.3155 122.923 33.5588 122.926 33.8135C123.016 44.4757 121.638 58.0411 115.846 70.0502C126.511 72.1894 137.331 72.4723 148.045 70.8906L146.069 65.1379ZM106.375 31.5413C106.185 31.9516 105.724 32.161 105.291 32.0337C104.991 31.946 104.77 31.7167 104.68 31.4366L104.507 31.762C104.346 32.0648 104.032 32.2459 103.701 32.2459C103.613 32.2459 103.523 32.2346 103.435 32.2063C103.019 32.0789 102.747 31.6743 102.793 31.2385L102.852 30.6868C102.504 30.4661 102.343 30.0275 102.484 29.6228L103.206 27.5345C103.359 27.0959 103.814 26.8413 104.267 26.9403C104.521 26.9969 104.728 27.1582 104.853 27.3676C105.011 27.2402 105.206 27.1666 105.416 27.1638H105.427C105.755 27.1638 106.061 27.3421 106.222 27.6307C106.884 28.8107 106.944 30.3107 106.375 31.5413ZM115.283 18.9549C115.022 19.2011 114.703 19.3737 114.315 19.4728L113.998 19.9199C113.749 20.2679 113.293 20.3981 112.9 20.2311C112.787 20.1858 112.688 20.1151 112.603 20.0331L112.162 20.5084C111.983 20.7008 111.74 20.8027 111.491 20.8027C111.327 20.8027 111.157 20.7574 111.01 20.6641C110.639 20.432 110.484 19.968 110.642 19.5605L110.826 19.0823C110.571 18.938 110.396 18.6749 110.368 18.3721C110.334 17.9986 110.532 17.6391 110.868 17.4722L111.904 16.9516C112.224 16.7931 112.603 16.8355 112.88 17.0534L112.903 17.0308C113.172 16.7394 113.599 16.6573 113.956 16.8243L114.156 16.5413C114.363 16.2498 114.722 16.1055 115.076 16.1734C115.427 16.2442 115.707 16.513 115.789 16.861C115.987 17.7127 115.806 18.4541 115.283 18.9549ZM126.918 23.4117L126.383 26.6177C126.327 26.9459 126.106 27.2034 125.818 27.3166L125.693 28.0976C125.625 28.5418 125.24 28.8672 124.793 28.8672H124.759C124.295 28.8503 123.922 28.4909 123.882 28.0297L123.625 24.8152C123.112 24.3059 123.407 23.5758 123.585 23.1287C123.743 22.7354 124.148 22.5033 124.57 22.5656C124.66 22.5797 124.745 22.6052 124.824 22.6448C125.008 22.4128 125.297 22.277 125.614 22.3053C125.701 22.3138 125.786 22.3336 125.863 22.3647C126.078 22.3279 126.304 22.3676 126.497 22.4864C126.811 22.6788 126.978 23.0466 126.918 23.4117ZM132.688 38.8164L131.927 43.4089C131.85 43.8673 131.44 44.1871 130.976 44.1729C130.897 44.1673 130.82 44.1531 130.747 44.1305C130.648 44.1729 130.54 44.1984 130.427 44.2041H130.385C130.017 44.2041 129.686 43.9805 129.547 43.6466C129.357 43.8305 129.094 43.9296 128.817 43.9013C128.325 43.8503 127.965 43.4174 128.002 42.9279C128.013 42.7355 128.036 42.5487 128.076 42.3506L128.551 38.839C128.61 38.4004 128.975 38.0665 129.42 38.0496C129.861 38.0298 130.254 38.3353 130.348 38.7682L130.368 38.8616C130.597 38.607 130.846 38.3353 131.123 38.0411C131.4 37.7496 131.833 37.6732 132.193 37.8514C132.552 38.0297 132.753 38.4202 132.688 38.8164Z" fill="#EA1A27"/>
<path d="M150.941 79.3455C137.07 84.7021 121.41 86.148 106.555 83.4599C110.024 79.9086 112.794 75.9357 114.993 71.7422C121.41 73.0636 127.885 73.7286 134.359 73.7286C139.127 73.7286 143.898 73.3636 148.646 72.6477C149.41 74.8803 150.174 77.1129 150.941 79.3455Z" fill="#34A420"/>
<path d="M121.103 34.8262C121.1 45.3836 119.592 58.6179 113.749 70.1743C113.703 70.2394 113.667 70.3101 113.638 70.3865C111.363 74.8376 108.443 79.0368 104.711 82.7295C96.9773 90.3809 85.7775 95.6243 72.3196 97.8993C56.0406 100.647 40.4293 98.3945 28.3693 91.5552C14.5181 83.7001 5.16607 69.5235 1.96289 51.5664C4.45016 51.1052 6.94311 50.6525 9.43604 50.2026C11.8328 57.1268 16.0348 63.5671 21.6404 68.8727C27.3846 74.3085 34.3286 78.3124 41.7196 80.4516C46.2669 81.7646 51.0717 82.4267 55.9557 82.4267C59.6031 82.4267 63.2958 82.0589 66.9574 81.3204C75.3247 79.6311 83.3411 76.0629 90.1351 71.0034C101.411 62.605 109.849 50.0271 113.952 35.5336C116.338 35.2902 118.72 35.0557 121.103 34.8262Z" fill="#34A420"/>
<path d="M115.282 18.9563C115.022 19.2025 114.702 19.3751 114.314 19.4741L113.998 19.9212C113.749 20.2693 113.293 20.3994 112.9 20.2325C112.786 20.1872 112.687 20.1165 112.602 20.0344L112.161 20.5098C111.983 20.7022 111.739 20.8041 111.49 20.8041C111.326 20.8041 111.157 20.7588 111.009 20.6654C110.639 20.4334 110.483 19.9693 110.642 19.5619L110.825 19.0837C110.571 18.9394 110.395 18.6762 110.367 18.3734C110.333 17.9999 110.531 17.6405 110.868 17.4735L111.904 16.9529C112.223 16.7945 112.602 16.8369 112.88 17.0548L112.902 17.0322C113.171 16.7407 113.599 16.6587 113.955 16.8256L114.156 16.5426C114.363 16.2512 114.722 16.1069 115.076 16.1748C115.426 16.2455 115.707 16.5143 115.789 16.8624C115.987 17.7141 115.806 18.4554 115.282 18.9563Z" fill="black"/>
<path d="M126.917 23.4128L126.382 26.6188C126.325 26.9471 126.104 27.2046 125.816 27.3178L125.691 28.0987C125.623 28.543 125.239 28.8684 124.791 28.8684H124.758C124.293 28.8514 123.92 28.4921 123.88 28.0308L123.623 24.8164C123.111 24.307 123.405 23.5769 123.583 23.1298C123.742 22.7365 124.146 22.5045 124.568 22.5667C124.659 22.5809 124.743 22.6064 124.823 22.646C125.007 22.414 125.295 22.2781 125.612 22.3064C125.7 22.3149 125.785 22.3347 125.861 22.3659C126.076 22.3291 126.303 22.3687 126.495 22.4876C126.809 22.68 126.976 23.0478 126.917 23.4128Z" fill="black"/>
<path d="M106.374 31.5422C106.184 31.9525 105.723 32.1619 105.29 32.0346C104.99 31.9469 104.769 31.7177 104.679 31.4375L104.506 31.7629C104.345 32.0657 104.031 32.2468 103.7 32.2468C103.612 32.2468 103.521 32.2355 103.434 32.2072C103.018 32.0798 102.746 31.6752 102.791 31.2395L102.851 30.6877C102.503 30.467 102.341 30.0284 102.483 29.6237L103.204 27.5354C103.357 27.0968 103.813 26.8422 104.266 26.9412C104.52 26.9978 104.727 27.1591 104.851 27.3685C105.01 27.2412 105.205 27.1675 105.414 27.1647H105.426C105.754 27.1647 106.059 27.343 106.221 27.6316C106.883 28.8116 106.942 30.3116 106.374 31.5422Z" fill="black"/>
<path d="M132.687 38.8162L131.925 43.4087C131.849 43.8671 131.439 44.1868 130.975 44.1727C130.895 44.167 130.819 44.1529 130.745 44.1303C130.646 44.1727 130.539 44.1982 130.426 44.2039H130.383C130.015 44.2039 129.684 43.9803 129.546 43.6464C129.356 43.8303 129.093 43.9294 128.816 43.9011C128.323 43.8501 127.964 43.4172 128.001 42.9277C128.012 42.7353 128.035 42.5485 128.074 42.3504L128.55 38.8388C128.609 38.4002 128.974 38.0663 129.418 38.0493C129.86 38.0295 130.253 38.3351 130.346 38.768L130.366 38.8614C130.595 38.6067 130.844 38.3351 131.122 38.0408C131.399 37.7494 131.832 37.6729 132.191 37.8512C132.551 38.0295 132.752 38.42 132.687 38.8162Z" fill="black"/>
</svg>
