<svg width="64" height="63" viewBox="0 0 64 63" fill="none" xmlns="http://www.w3.org/2000/svg">
<path d="M19.0784 0.0439909C21.1736 -0.106794 22.8241 0.0686832 24.4354 1.55184C29.3671 6.09005 29.5468 17.0766 30.004 23.3682C30.8699 19.1863 31.6279 14.9056 33.3696 10.9819C34.8412 7.66662 37.8341 2.16631 41.4473 0.951357C42.7312 0.519686 44.0529 0.692493 45.2463 1.31164C46.2645 1.83939 46.8502 2.56997 47.1451 3.69752C48.1953 7.70465 41.8187 14.9503 39.5938 18.2856C38.3213 20.1937 37.2165 22.1813 36.129 24.1995C40.8224 20.8622 45.5704 17.5223 51.0258 15.5454C53.3705 14.6954 56.5671 13.9262 58.9065 15.1932C59.429 15.476 59.8882 15.9524 60.0147 16.5442C60.211 17.4629 59.9115 18.2989 59.4383 19.0775C56.1831 24.4344 44.4596 27.6475 38.694 29.0627C45.5178 30.1048 57.632 32.5894 62.6542 37.6981C63.6765 38.7389 64.0053 39.5969 63.9999 41.0367C63.6286 41.9407 63.0216 42.6439 62.0918 43.0029C57.845 44.6442 44.9414 38.1584 40.2959 36.3363C42.3625 38.6602 44.3817 41.0874 46.1121 43.6761C48.4063 47.1074 50.2997 50.8797 49.4505 55.1103C49.1543 55.3439 48.8562 55.5767 48.538 55.7809C48.4196 55.8576 48.2971 55.9277 48.1707 55.991C48.0449 56.0544 47.9157 56.1105 47.7833 56.1598C47.6509 56.2092 47.5164 56.2512 47.38 56.2866C47.2436 56.3213 47.1051 56.3486 46.9654 56.3686C46.8263 56.3887 46.6858 56.4007 46.5447 56.4054C46.4036 56.41 46.2625 56.4073 46.1221 56.3973C45.9817 56.3867 45.8419 56.3687 45.7028 56.3433C45.5644 56.3179 45.4273 56.2852 45.2922 56.2445C39.3815 54.5299 35.5633 41.3529 32.7687 36.2516L32.5297 35.8213C32.6202 39.8131 32.7773 43.8269 32.2934 47.8006C31.7723 52.0793 30.406 59.5645 26.7242 62.2586C25.7804 62.9491 25.0583 63.1199 23.8976 62.9244C22.8687 62.3193 22.3296 61.7248 21.8497 60.616C18.7942 53.5545 23.5282 43.4946 26.259 36.9595C21.0072 40.8365 15.953 45.3254 10.043 48.1843C8.35585 49.0002 6.39184 49.3358 4.61617 48.5179C3.85745 48.1682 3.09407 47.4323 2.82985 46.625C2.54965 45.7684 2.78126 44.9157 3.15663 44.1344C5.68969 38.8597 14.8981 33.1445 20.2052 31.3758C15.4352 30.3663 3.19723 29.01 0.632223 24.9575C-0.0559489 23.8713 -0.15911 22.5602 0.210267 21.3393C0.572988 20.1404 1.37696 19.283 2.51571 18.782C8.55618 16.1239 18.8375 21.1071 24.5738 23.2928C21.5536 18.1515 16.3171 10.0685 16.8542 3.84563C17.0139 2.0222 17.7027 1.17087 19.0784 0.0439909Z" fill="#EA1A27"/>
</svg>
