<svg width="89" height="104" viewBox="0 0 89 104" fill="none" xmlns="http://www.w3.org/2000/svg">
<path d="M36.0445 31.8153C37.1215 25.6342 38.675 20.1997 41.509 14.5798C43.1835 11.2586 48.7157 1.02977 52.0999 0.0843826C52.6594 -0.0720078 53.2149 -0.0138567 53.7176 0.282624C55.078 1.08484 55.6794 2.97606 56.1511 4.4034C58.7139 12.1577 58.5982 20.5266 58.2178 28.6069C58.1243 30.5889 57.3657 34.166 57.8312 35.8581C59.0716 36.3533 63.9294 33.8088 65.3423 33.3242C70.0202 31.7202 74.871 30.462 79.8376 30.4202C81.6484 30.4052 83.7967 30.421 85.1279 31.8493C85.5742 32.3281 85.7432 32.777 85.6851 33.4484C85.2654 38.3062 74.7186 47.6746 70.9308 50.9302C77.2718 54.4307 83.6622 59.3022 87.6129 65.519C88.3685 66.708 89.29 68.3045 88.9126 69.7684C88.6973 70.6037 88.1357 71.2072 87.3836 71.5922C85.5441 72.5345 83.0459 72.3812 81.0347 72.3777C73.743 72.3649 66.6267 71.5671 59.6162 69.4856C59.2625 73.7835 59.0358 78.1263 58.2658 82.3735C57.4832 86.6881 53.1892 101.475 49.752 103.649C49.2515 103.966 48.7502 104.095 48.1711 103.924C43.7718 102.618 35.7546 78.6457 33.3599 73.4174C39.5673 75.8377 46.1123 76.5901 52.3581 73.8553C57.8278 71.4601 61.6632 67.1807 63.8085 61.607C65.9249 56.1074 65.9716 50.4201 63.5469 45.0151C61.5711 40.6111 58.1588 36.47 53.5543 34.7828C47.3107 32.4946 40.7098 33.4233 34.816 36.2018C31.0946 38.5736 28.0256 41.8441 26.4643 46.0614C26.1559 46.9116 25.9677 47.8328 25.8126 48.7249C24.9994 53.4025 25.8441 58.4475 28.6322 62.3374C28.779 62.5392 28.9305 62.737 29.0869 62.9309C29.2437 63.1251 29.4048 63.315 29.5708 63.5009C29.7363 63.6868 29.9066 63.8683 30.0818 64.0459C30.2569 64.2229 30.436 64.3956 30.6198 64.5639C30.8033 64.7322 30.9906 64.8956 31.1823 65.0542C31.3741 65.2133 31.5693 65.367 31.7689 65.5159C31.968 65.6648 32.1707 65.8084 32.3773 65.9472C32.5838 66.086 32.7935 66.219 33.0066 66.3472C33.2197 66.4754 33.4359 66.5979 33.6547 66.7146C33.874 66.8318 34.0958 66.9433 34.3208 67.0494C34.5452 67.1552 34.7723 67.2552 35.0021 67.3499C35.2318 67.4441 35.4637 67.5327 35.6978 67.6155C35.9315 67.6979 36.1673 67.7746 36.4053 67.8455C36.6433 67.9164 36.8826 67.9812 37.1237 68.0397C37.3648 68.0983 37.6072 68.1512 37.8509 68.1975C38.0946 68.2437 38.3392 68.2842 38.5851 68.3182C42.8821 68.9552 47.2264 68.3243 50.7408 65.6274C53.8888 63.2119 55.8751 59.7907 56.3826 55.8334C56.9386 51.4932 55.8873 46.3856 53.1341 42.9305C51.2623 40.5816 48.3335 38.8745 45.3554 38.5837C42.0868 38.2648 38.81 39.1485 36.29 41.3256C33.9574 43.3411 32.5939 46.0178 32.3493 49.1064C32.1108 52.1258 32.9175 55.7061 34.9414 57.9929C36.3769 59.6154 38.3401 60.4978 40.4897 60.5581C42.407 60.6123 44.1605 60.0845 45.5248 58.6744C46.8573 57.2977 47.3666 55.4567 47.2836 53.5633C47.1901 51.4368 46.2721 48.8901 44.6308 47.4799C43.7622 46.7332 42.7179 46.3874 41.5798 46.4975C40.6797 46.5848 39.8997 46.9341 39.3502 47.679C38.772 48.4628 38.5331 49.5297 38.7323 50.4875C38.8829 51.2108 39.3742 52.0443 40.0612 52.3716C40.5932 52.6249 40.7509 52.6166 41.2846 52.4765C41.8375 51.9897 42.0266 51.4082 42.2973 50.7395C42.4611 50.3346 42.5022 50.3734 42.8454 50.1447C43.2647 50.1861 43.6071 50.2086 43.9626 50.469C44.4854 50.8531 44.7073 51.4615 44.7763 52.0849C44.9221 53.3976 44.4299 54.8823 43.5866 55.884C42.9442 56.647 42.0602 57.1422 41.0574 57.162C39.6468 57.1902 38.14 56.2792 37.2141 55.2563C35.9009 53.8051 35.8188 51.7047 35.9555 49.8438C36.1267 47.5209 36.9813 45.3019 38.7798 43.7732C40.3818 42.4116 42.4917 41.8516 44.5592 42.0979C44.7007 42.116 44.8418 42.138 44.9824 42.1631C45.123 42.1882 45.2628 42.2173 45.4021 42.2494C45.5414 42.2816 45.6795 42.3173 45.817 42.3565C45.9546 42.3957 46.0908 42.438 46.2258 42.4842C46.3612 42.5301 46.4953 42.5794 46.6285 42.6318C46.7612 42.6847 46.8927 42.7406 47.0229 42.7997C47.153 42.8591 47.2819 42.9213 47.4089 42.9869C47.536 43.0525 47.6614 43.1213 47.785 43.1931C47.9086 43.2649 48.0308 43.3402 48.151 43.4182C48.2711 43.4962 48.389 43.5768 48.5051 43.6609C48.6209 43.7446 48.7349 43.8314 48.8467 43.9208C48.9589 44.0103 49.0685 44.1028 49.1755 44.1975C49.283 44.2926 49.3878 44.3904 49.4904 44.4904C49.5931 44.5904 49.6931 44.6931 49.7905 44.7984C49.8879 44.9037 49.9826 45.0116 50.0748 45.1213C50.1669 45.231 50.2565 45.3433 50.3434 45.4579C52.4017 48.1447 53.2717 52.05 52.8005 55.3924C52.3746 58.4145 50.7469 61.274 48.2746 63.0577C45.6589 64.9445 42.376 65.4886 39.2419 64.9534C35.9703 64.3952 32.8468 62.9476 30.9107 60.1211C28.7331 56.9422 28.4545 52.328 29.1122 48.5998C29.8708 44.2984 32.6838 40.3661 36.2057 37.8943C40.5347 34.855 46.069 34.2471 51.1719 35.2365C55.2694 36.0308 58.2658 38.2406 60.591 41.697C63.7644 46.4138 65.1152 51.7417 63.9831 57.3858C62.9044 62.7639 59.5839 68.0618 55.0265 71.0913C49.7809 74.5791 44.1924 75.15 38.1204 73.9641C36.6844 73.6839 35.1418 72.8936 33.7194 72.7729C32.9712 72.709 32.2192 73.4588 31.6379 73.9121C27.0574 77.4862 12.0078 77.8589 6.38303 77.2161C4.65354 77.0183 1.58065 76.7699 0.486616 75.2293C-0.0968667 74.4073 -0.0759113 73.3196 0.137217 72.3755C0.535523 70.6103 1.561 68.8248 2.52007 67.3085C7.59192 59.2881 15.6436 54.4417 23.5027 49.6531C18.4789 43.9922 13.7346 35.6405 11.437 28.4505C11.0522 27.247 10.5871 25.7095 11.2605 24.5311C11.6518 23.8469 12.2982 23.4504 13.045 23.2628C18.8104 21.8147 31.1871 28.6408 36.0445 31.8153Z" fill="#F9B71A"/>
</svg>
