<svg width="39" height="40" viewBox="0 0 39 40" fill="none" xmlns="http://www.w3.org/2000/svg">
<path d="M18.0587 0.0240993C19.621 -0.0784935 21.0349 0.133837 22.421 0.905461C24.574 2.1037 25.7094 4.11989 26.3868 6.41852C28.2608 5.57045 30.2784 5.12008 32.3357 5.3526C34.4035 5.5867 36.2728 6.57816 37.5169 8.2854C38.7579 9.98868 39.2282 12.1804 38.8972 14.2603C38.503 16.736 36.9886 18.429 35.0749 19.874C36.285 21.0635 37.2318 22.1144 37.8354 23.7535C38.654 25.9777 38.4132 28.491 37.4377 30.6229C37.3632 30.7857 37.2847 30.9469 37.202 31.1058C37.1192 31.2646 37.0329 31.4211 36.9423 31.5755C36.8517 31.73 36.7572 31.8821 36.6588 32.0315C36.5603 32.1808 36.4583 32.3278 36.3528 32.4719C36.2469 32.6161 36.1375 32.7575 36.0245 32.8958C35.9116 33.0344 35.7951 33.1699 35.6751 33.3022C35.5554 33.4349 35.4323 33.564 35.3056 33.69C35.1793 33.8164 35.0499 33.9391 34.9169 34.0584C34.7843 34.1776 34.6486 34.2937 34.5101 34.4058C34.3717 34.5183 34.2301 34.6268 34.0858 34.7318C33.9418 34.8367 33.7951 34.9381 33.6457 35.0352C33.4966 35.1326 33.3452 35.2261 33.1911 35.3156C33.037 35.4052 32.8809 35.4907 32.7224 35.5719C32.5639 35.6535 32.4035 35.7308 32.2415 35.8036C32.0791 35.8769 31.9152 35.9458 31.7493 36.0104C31.5834 36.075 31.4163 36.1352 31.2472 36.191C27.8863 37.3021 24.9673 36.4719 21.9476 34.9124L21.5919 34.9377C20.5372 36.6925 19.2621 38.1494 17.4112 39.0692C17.2817 39.1349 17.1507 39.1975 17.0178 39.2565C16.8852 39.3156 16.7511 39.3714 16.6157 39.4237C16.4804 39.476 16.3435 39.5247 16.2059 39.5703C16.0682 39.6158 15.929 39.6574 15.7889 39.6958C15.6489 39.7343 15.5081 39.7687 15.3665 39.8C15.2249 39.8313 15.0829 39.8586 14.9398 39.8824C14.7966 39.9066 14.6531 39.9268 14.5091 39.9434C14.3652 39.96 14.2204 39.9731 14.0757 39.9822C13.931 39.9913 13.7862 39.9973 13.6411 39.9992C13.4964 40.0012 13.3513 39.9992 13.2065 39.9941C13.0618 39.9886 12.9171 39.9795 12.7723 39.9668C12.628 39.9537 12.484 39.9375 12.3405 39.9173C12.1965 39.8971 12.0538 39.8733 11.9114 39.846C11.769 39.8186 11.627 39.7877 11.4862 39.7533C11.3454 39.7188 11.2054 39.6804 11.0666 39.6388C10.9273 39.5972 10.7896 39.552 10.6528 39.5033C10.5288 39.4589 10.4061 39.4114 10.2849 39.3607C10.1637 39.31 10.0432 39.2565 9.92441 39.1999C9.80556 39.1432 9.6883 39.0834 9.57259 39.0209C9.45649 38.9587 9.34235 38.8933 9.22978 38.8248C9.11721 38.7567 9.00621 38.6857 8.89678 38.6117C8.78774 38.538 8.68028 38.4616 8.57477 38.3823C8.46926 38.3031 8.36609 38.2211 8.2649 38.1367C8.16331 38.0524 8.0641 37.9656 7.96683 37.8761C7.86995 37.787 7.77502 37.6951 7.68245 37.6012C7.58989 37.5069 7.49968 37.4107 7.41182 37.312C7.32396 37.2134 7.23846 37.1124 7.15531 37.0094C7.07255 36.9068 6.99214 36.8018 6.91448 36.6949C6.83682 36.5879 6.76191 36.479 6.68935 36.3681C6.61679 36.2576 6.54736 36.1451 6.48029 36.031C6.41322 35.9165 6.34929 35.8009 6.2881 35.6832C6.22731 35.566 6.16886 35.4472 6.11356 35.3267C4.83452 32.5409 5.12791 29.4801 6.1877 26.6927C4.7451 26.1944 3.51469 25.6073 2.40862 24.5054C0.781288 22.8841 -0.0196378 20.6766 0.000365554 18.3862C0.0223301 15.8214 0.961326 13.2875 2.83223 11.5165C5.05182 9.4159 7.37653 9.05624 10.2743 9.21151C10.4065 7.49833 10.7265 5.93172 11.5988 4.42808C13.0606 1.91 15.3461 0.696696 18.0587 0.0240993Z" fill="#C7531D"/>
<path d="M18.1895 3.0831C18.668 3.02658 19.1468 2.97476 19.6288 3.01335C24.6998 3.42068 23.0243 7.21219 25.5056 9.9692C26.4768 10.1388 29.3357 8.57413 30.7233 8.40886C32.3769 8.21201 34.1413 8.58584 35.4328 9.66206C36.3731 10.4455 36.9374 11.5276 36.9939 12.7426C37.1683 16.4936 33.5506 17.8485 31.4426 20.2278C31.5153 21.5281 35.1413 21.9483 36.0923 24.9213C36.6242 26.583 36.2782 28.3367 35.4375 29.8377C35.3715 29.957 35.3019 30.0748 35.2295 30.1905C35.1572 30.3063 35.0816 30.4197 35.0029 30.5316C34.9243 30.6435 34.8428 30.753 34.7586 30.8606C34.6744 30.9682 34.587 31.0734 34.4968 31.1767C34.4071 31.28 34.3141 31.3806 34.2188 31.4788C34.1235 31.577 34.0254 31.6725 33.925 31.7657C33.8242 31.8588 33.7214 31.9497 33.6162 32.0374C33.5106 32.1251 33.4031 32.2101 33.2931 32.2923C33.1836 32.3745 33.0717 32.454 32.9574 32.5304C32.8431 32.6068 32.7273 32.6801 32.609 32.7507C32.4908 32.8212 32.371 32.8883 32.2496 32.9526C32.1278 33.0169 32.0044 33.0777 31.8799 33.1354C31.7549 33.1935 31.6284 33.2481 31.5007 33.2991C31.3729 33.3502 31.2436 33.3981 31.1135 33.443C30.9831 33.4874 30.8518 33.5283 30.7193 33.5661C30.5868 33.6039 30.4532 33.6383 30.3187 33.669C26.7702 34.5157 24.5179 32.9187 21.687 31.1798C21.3545 31.1077 21.0215 31.0387 20.6878 30.9732C20.1354 31.3065 19.9436 32.251 19.6609 32.8181C18.8032 34.5422 17.5794 36.207 15.6268 36.7925C14.208 37.2181 12.3364 36.9686 11.0612 36.2308C9.67284 35.4274 8.66847 33.8624 8.3462 32.3277C7.70245 29.2616 9.44111 27.3443 11.009 24.9747C10.8014 24.1023 7.75662 23.9753 6.84912 23.7071C6.14448 23.4985 5.44773 23.1536 4.85262 22.7279C3.81819 21.9881 3.18708 21.0417 3.03959 19.7819C2.82804 17.9763 3.47615 15.132 4.70117 13.6898C6.91436 11.0844 9.91564 12.4697 12.7568 12.2717C13.6919 11.6944 13.1506 8.16874 13.8094 6.6501C14.6109 4.80209 16.3662 3.77109 18.1895 3.0831Z" fill="#F9B71A"/>
<path d="M17.6744 9.01783C18.3221 8.98408 18.7825 8.95829 19.3441 9.33516C21.2978 10.6463 21.6127 15.2313 22.047 17.3147C24.2648 16.1143 27.8338 13.3594 30.2745 13.0637C30.8083 12.9992 31.3477 13.1243 31.7158 13.5187C32.0077 13.8315 32.0374 14.4154 31.9696 14.8123C31.5936 17.0095 26.7642 19.1975 24.8292 20.3695C26.324 22.244 29.8212 25.1774 29.9414 27.5702C29.9691 28.1234 29.8029 28.4339 29.4329 28.8529C28.974 29.0959 28.65 29.2267 28.1162 29.2058C26.1764 29.1296 24.6051 26.9795 23.3736 25.726C22.3892 24.7911 21.3565 23.9327 20.2964 23.0773C18.8515 25.0129 17.308 27.3765 15.4971 28.9822C14.8831 29.5266 14.0391 30.1166 13.1492 29.9801C12.6927 29.9099 12.2683 29.6358 12.0494 29.2426C10.8909 27.1649 14.4564 24.4927 15.0013 22.6458C12.8922 21.7313 8.84918 22.766 7.25245 20.7262C7.10055 20.5321 6.96968 20.2371 7.00617 19.9888C7.14895 19.0136 7.91044 18.4521 8.70999 17.9444C11.6746 17.9422 14.6745 18.3365 17.6276 18.581C17.4396 15.9501 16.3569 13.2692 16.6032 10.6288C16.6805 9.80191 17.0521 9.52058 17.6744 9.01783Z" fill="#FDFBFE"/>
</svg>
