<svg width="106" height="98" viewBox="0 0 106 98" fill="none" xmlns="http://www.w3.org/2000/svg">
<path d="M73.0897 95.6754C72.9782 95.6275 72.8704 95.5678 72.7678 95.495C72.5284 95.3248 72.3441 95.1055 72.2202 94.8592C71.839 94.7486 71.5025 94.5104 71.2697 94.1686L70.1558 92.5337C69.6156 91.7395 69.8207 90.6572 70.6151 90.1165C70.7734 90.0088 70.9432 89.9307 71.1179 89.8806C71.1291 89.6299 71.14 89.3798 71.151 89.1297C71.1926 88.1699 72.005 87.4255 72.9648 87.4671C73.9241 87.5086 74.6683 88.3215 74.6266 89.2812C74.6192 89.456 74.6116 89.63 74.6037 89.8046C74.7428 89.5965 74.8819 89.3884 75.0196 89.1808C75.5502 88.3802 76.6307 88.1624 77.4307 88.6916C78.2318 89.2224 78.4511 90.3023 77.9198 91.1032C77.0349 92.4383 76.1174 93.777 75.1927 95.0816C74.7105 95.7626 73.8273 95.9916 73.0897 95.6754ZM67.5484 88.2237C67.2538 88.0974 66.9911 87.8885 66.7975 87.6046L63.4389 82.6749C62.8982 81.8805 63.1033 80.7983 63.8972 80.2573C64.6918 79.7161 65.7738 79.9218 66.3148 80.7156L69.6734 85.6454C70.2141 86.4397 70.009 87.522 69.2151 88.0629C68.7051 88.4103 68.0761 88.45 67.5484 88.2237ZM72.4358 84.8434C71.7964 84.5693 71.3586 83.9241 71.3823 83.1868C71.4522 81.0396 71.4978 79.0997 71.5222 77.2571C71.535 76.2961 72.3238 75.5275 73.2848 75.5403C74.2443 75.5524 75.0141 76.3411 75.0018 77.3023C74.9773 79.1684 74.9311 81.1303 74.8601 83.3006C74.8293 84.2609 74.0249 85.014 73.0643 84.9826C72.8414 84.9751 72.6292 84.9264 72.4358 84.8434ZM78.9854 86.7077C78.91 86.6754 78.836 86.6372 78.7643 86.5935C77.944 86.0938 77.6835 85.0239 78.1829 84.2028C79.2 82.5321 80.1992 80.818 81.153 79.1073C81.6206 78.2686 82.6758 77.9659 83.5199 78.4347C84.3591 78.9026 84.6599 79.9622 84.1925 80.8017C83.2173 82.5514 82.195 84.3044 81.1553 86.0129C80.6993 86.7615 79.7681 87.0433 78.9854 86.7077ZM60.8312 78.3643C60.5366 78.238 60.2739 78.029 60.0803 77.7452L56.7217 72.8155C56.1808 72.0216 56.3861 70.9388 57.18 70.3979C57.9747 69.8562 59.0566 70.0623 59.5976 70.8562L62.9562 75.7859C63.4969 76.5803 63.2918 77.6625 62.4979 78.2035C61.9883 78.551 61.3594 78.5908 60.8312 78.3643ZM54.1148 68.5046C53.8201 68.3782 53.5574 68.1693 53.3638 67.8855L50.7543 64.0556C50.4176 63.5618 50.3581 62.9297 50.5972 62.3817C50.8356 61.8339 51.3387 61.4466 51.9294 61.3564L53.2435 61.1548C54.1921 61.009 55.0812 61.6592 55.2278 62.6099C55.3035 63.1003 55.1661 63.574 54.885 63.9379L56.2402 65.9264C56.7811 66.7203 56.5757 67.803 55.7819 68.344C55.2713 68.6911 54.6425 68.7309 54.1148 68.5046ZM72.5758 72.9146C71.9642 72.6524 71.5316 72.0494 71.5208 71.3407C71.4906 69.3038 71.4257 67.3201 71.3276 65.4443C71.2776 64.4846 72.0148 63.6662 72.9746 63.6163C73.9333 63.5659 74.7526 64.3035 74.8028 65.2628C74.9025 67.1815 74.9692 69.2089 75.001 71.2887C75.0152 72.2496 74.2476 73.0402 73.2869 73.054C73.0343 73.0584 72.7935 73.008 72.5758 72.9146ZM84.7917 76.289C84.757 76.2741 84.7222 76.2581 84.6881 76.2405C83.8314 75.805 83.49 74.7579 83.9252 73.9017C84.8134 72.1535 85.6779 70.3675 86.4952 68.593C86.8973 67.7208 87.9305 67.3395 88.8036 67.7408C89.6764 68.1427 90.0578 69.1759 89.6562 70.0494C88.82 71.864 87.9359 73.6903 87.0273 75.4779C86.6091 76.2997 85.6274 76.6474 84.7917 76.289ZM58.7193 63.5709C58.1856 63.3421 57.7785 62.851 57.6841 62.2345C57.5382 61.2847 58.1909 60.3967 59.1402 60.2519L65.0363 59.3486C65.984 59.2036 66.8729 59.8543 67.0197 60.8045C67.1656 61.7542 66.5129 62.6423 65.5634 62.7877L59.6672 63.6908C59.3342 63.7418 59.008 63.6947 58.7193 63.5709ZM70.5122 61.7642C69.9786 61.5354 69.5715 61.0443 69.4771 60.4278C69.3397 59.5322 69.9122 58.6914 70.7742 58.4762C70.5988 56.8615 70.3902 55.2788 70.1531 53.7586C70.0054 52.8092 70.655 51.9198 71.6041 51.7713C72.5518 51.6234 73.4433 52.2723 73.5914 53.2224C73.8289 54.7458 74.0387 56.3283 74.2164 57.9418L76.8295 57.5415C77.7772 57.3965 78.6663 58.0466 78.8129 58.9973C78.9588 59.9471 78.3061 60.8351 77.3566 60.9805L71.4604 61.8837C71.1264 61.9354 70.8009 61.888 70.5122 61.7642ZM89.7801 65.4551C88.9062 65.0803 88.4936 64.0708 88.859 63.19C89.609 61.3819 90.3336 59.5347 91.0129 57.6998C91.3464 56.7989 92.3471 56.3384 93.2486 56.6721C94.1535 57.0073 94.6095 58.0061 94.2758 58.9075C93.5813 60.7846 92.8399 62.6739 92.0735 64.5231C91.7051 65.4109 90.6873 65.8317 89.7998 65.4641C89.793 65.4606 89.7871 65.4581 89.7801 65.4551ZM82.3046 59.9578C81.7709 59.729 81.3637 59.2379 81.2693 58.6214C81.1235 57.6717 81.7761 56.7836 82.7256 56.6383L88.6218 55.7351C89.5702 55.5898 90.4588 56.2409 90.6052 57.1909C90.751 58.1407 90.0984 59.0287 89.1488 59.1741L83.2527 60.0773C82.9195 60.1287 82.5932 60.0816 82.3046 59.9578ZM70.0801 49.2307C69.5841 49.018 69.1938 48.5782 69.067 48.0112C68.6348 46.0832 68.1355 44.1856 67.5828 42.3703C67.3028 41.4511 67.8212 40.4791 68.7404 40.1992C69.6596 39.9192 70.6316 40.4376 70.9121 41.357C71.4894 43.2546 72.0113 45.2375 72.4625 47.25C72.6729 48.1875 72.083 49.1183 71.1457 49.3282C70.7739 49.4119 70.4045 49.3698 70.0801 49.2307ZM66.5878 37.837C66.1811 37.6626 65.8401 37.3338 65.6608 36.8905C64.9425 35.1175 64.1209 33.353 63.2162 31.6463C62.7666 30.7971 63.0895 29.7441 63.9389 29.294C64.7877 28.8441 65.8415 29.1679 66.2908 30.0165C67.2507 31.8285 68.124 33.7014 68.8859 35.5847C69.2468 36.4752 68.817 37.4899 67.9263 37.8502C67.4783 38.0321 66.999 38.0133 66.5878 37.837ZM61.0107 27.3085C60.7111 27.1801 60.445 26.9667 60.2508 26.6762C59.1763 25.0669 58.0145 23.5083 56.7954 22.042C56.1811 21.3029 56.2821 20.206 57.0211 19.5916C57.7605 18.978 58.8574 19.079 59.4713 19.8178C60.7674 21.3771 62.0037 23.0346 63.1449 24.7441C63.6782 25.5435 63.4635 26.6234 62.6644 27.1574C62.1555 27.4964 61.5329 27.5325 61.0107 27.3085ZM53.3918 18.1593C53.2038 18.0787 53.0271 17.9636 52.871 17.8127C51.4726 16.4661 50.0023 15.2091 48.4999 14.0776C47.732 13.4994 47.5786 12.4084 48.1566 11.641C48.7351 10.8738 49.8294 10.7224 50.5932 11.2977C52.2079 12.5138 53.7868 13.8626 55.2855 15.3068C55.9774 15.9733 55.9979 17.0743 55.3316 17.7668C54.815 18.3033 54.038 18.4364 53.3918 18.1593ZM26.8373 6.16567C26.2015 5.89303 25.7636 5.25314 25.7834 4.51946C25.809 3.55867 26.6088 2.80127 27.5691 2.82667C29.6431 2.88276 31.7342 3.12061 33.7855 3.53461C34.7281 3.72328 35.3368 4.64251 35.1468 5.58391C34.9567 6.52582 34.0394 7.13541 33.0975 6.94525C31.2416 6.57105 29.3494 6.35562 27.4755 6.30545C27.2493 6.29889 27.0337 6.24989 26.8373 6.16567ZM43.8764 11.0241C43.8199 10.9998 43.7641 10.9724 43.7094 10.9413C42.4935 10.259 41.2446 9.66595 39.9953 9.10677C39.5192 8.90261 39.0326 8.70632 38.5493 8.52313C37.6443 8.17971 37.1983 7.17816 37.539 6.27965C37.8796 5.38114 38.8839 4.92869 39.7824 5.26934C40.3175 5.47175 40.8625 5.69193 41.381 5.91488C42.7375 6.49654 44.0941 7.16691 45.4123 7.90651C46.2505 8.3769 46.5486 9.43717 46.0782 10.2753C45.6379 11.0583 44.6836 11.3696 43.8764 11.0241Z" fill="#4AB138"/>
</svg>
