<svg width="31" height="30" viewBox="0 0 31 30" fill="none" xmlns="http://www.w3.org/2000/svg">
<path d="M12.7957 0.000118936C13.5923 -0.00298582 14.3357 0.0505738 14.9189 0.652896C16.53 2.31627 16.016 7.22063 16.0782 9.50767C17.4071 7.3064 18.6977 5.00344 20.1814 2.9054C20.7009 2.17152 21.2497 1.367 22.2104 1.2366C23.0402 1.12367 24.2456 1.23078 24.8776 1.83078C25.2427 2.17773 25.3545 2.67178 25.3338 3.15767C25.2228 5.77809 20.7087 10.488 18.8048 12.3078C20.5383 11.7051 22.2917 11.1672 24.0654 10.6941C25.7672 10.2307 28.3622 9.39938 29.9792 10.4119C30.5463 10.767 30.859 11.3209 30.9633 11.9705C31.0794 12.6908 30.9235 13.311 30.4431 13.8741C28.9453 15.6302 23.0058 15.4335 20.8213 15.5709C22.9171 16.6905 28.728 19.5515 29.7353 21.5382C29.9889 22.0381 29.9542 22.7095 29.7017 23.2004C29.6661 23.2691 29.6266 23.3355 29.5832 23.3999C29.5402 23.4643 29.4937 23.526 29.4437 23.5854C29.394 23.6448 29.3409 23.7014 29.2846 23.755C29.2287 23.8086 29.1697 23.859 29.1083 23.906C29.0466 23.9533 28.9825 23.9972 28.916 24.0375C28.8496 24.0779 28.7812 24.1144 28.7108 24.1474C28.6405 24.1804 28.5685 24.2091 28.4947 24.2343C28.4208 24.2595 28.3462 24.2805 28.2703 24.2976C27.8865 24.3864 27.4343 24.3981 27.0575 24.2812C24.9871 23.6374 20.1947 19.975 18.1173 18.612C18.6954 21.617 19.3372 24.6076 19.891 27.6173C19.7808 28.024 19.6592 28.3392 19.4275 28.6954C19.0472 29.2811 18.5832 29.8977 17.8343 29.9905C17.2601 30.0615 16.6875 29.7227 16.2666 29.3641C13.7979 27.2618 13.9487 22.6388 13.6783 19.6781C12.5538 21.4715 11.7279 23.4507 10.583 25.2402C9.99402 26.1608 9.11653 27.3728 7.95723 27.5808C7.34592 27.6907 6.80419 27.4955 6.32539 27.1268C5.83447 26.7491 5.46237 26.1868 5.40374 25.5627C5.16414 23.0234 9.07432 19.1417 10.68 17.2692C8.20504 17.7306 3.27276 19.3237 1.1582 17.778C0.546889 17.3313 0.105214 16.6583 0.0157069 15.9027C-0.0566025 15.2895 0.122796 14.783 0.511703 14.3096C1.72181 12.8348 8.21402 13.5799 10.4298 13.3541C8.19683 11.8025 5.5167 10.3929 3.55222 8.54443C2.92411 7.95336 2.45703 7.32192 2.53286 6.41649C2.58641 5.7773 2.92215 5.16179 3.3947 4.73255C3.85475 4.31458 4.51647 4.03322 5.1485 4.09143C7.52064 4.31032 10.6397 8.67792 12.2204 10.469C11.6587 7.97935 10.2938 4.15468 11.0282 1.719C11.3124 0.777478 11.9729 0.428187 12.7957 0.000118936Z" fill="#EA1A27"/>
</svg>
