<svg width="19" height="20" viewBox="0 0 19 20" fill="none" xmlns="http://www.w3.org/2000/svg">
<path d="M4.47786 0C3.69658 0.00833365 3.03578 0.0559055 2.35312 0.471546C1.16905 1.19241 0.611733 2.61434 0.326653 3.90293C-0.724428 8.65346 0.87876 14.186 3.46705 18.1861C3.92123 18.8882 4.6803 19.9063 5.58866 19.9924C7.66201 20.1886 12.9313 16.5222 14.4661 15.0714C16.3901 13.088 18.5881 10.0622 18.5996 7.18222C18.6037 6.161 18.2919 5.05193 17.5266 4.33628C16.9419 3.79007 16.1599 3.55812 15.3699 3.62652C12.6351 3.86369 10.2548 6.88568 8.68426 8.87187C8.6419 8.18087 8.55891 7.49473 8.43564 6.81345C8.31202 6.13218 8.14883 5.46062 7.94604 4.79844C7.33769 2.83483 6.36751 0.981981 4.47786 0Z" fill="#EA1A27"/>
<path d="M14.8916 7.75488C12.2995 9.10632 9.63724 12.9269 8.41983 15.518C8.599 15.4694 8.67122 15.459 8.85144 15.3548C11.2606 13.9617 14.1593 10.4338 14.8916 7.75488Z" fill="#FDFBFE"/>
</svg>
