<svg width="46" height="50" viewBox="0 0 46 50" fill="none" xmlns="http://www.w3.org/2000/svg">
<path d="M7.82568 29.4492C8.06745 29.455 8.30515 29.4897 8.54517 29.5177C8.872 29.7801 8.88831 29.7746 8.97716 30.1806C8.52944 31.4816 5.46681 33.8707 4.34942 34.9698C3.91714 35.0204 3.70945 34.9549 3.31242 34.8104C3.1793 34.6426 3.14579 34.5145 3.1857 34.2899C3.4432 32.8387 6.66809 30.2934 7.82568 29.4492Z" fill="#FF6514"/>
<path d="M2.42961 23.1139C3.74042 22.9846 5.21697 22.8384 6.49399 23.2168C7.10686 23.3982 7.65275 23.6665 7.95977 24.2494C7.94171 24.4609 7.98569 24.5517 7.81354 24.705C7.31455 25.1495 6.61808 25.1174 5.99239 25.1096C4.28134 25.0175 1.6673 25.5253 0.171515 24.6301C-0.0341369 24.2908 -0.0262705 24.3062 0.0474261 23.9153C0.62127 23.2281 1.60147 23.2249 2.42961 23.1139Z" fill="#FF6514"/>
<path d="M35.53 28.5734C35.9792 28.5694 36.3547 28.6253 36.7887 28.7436C38.5443 29.2216 42.6649 30.4403 43.5525 31.9749C43.5548 32.4028 43.4896 32.4989 43.2816 32.8802C43.2533 32.8773 43.2254 32.8741 43.1974 32.872C41.1033 32.7037 38.4872 31.5435 36.5563 30.7072C36.0063 30.4689 35.3235 30.23 35.0861 29.6361C35.0587 29.1994 35.3014 28.9207 35.53 28.5734Z" fill="#FF6514"/>
<path d="M2.50787 14.6328C4.50059 14.786 6.56323 15.4109 8.42895 16.0995C9.22242 16.3925 10.2813 16.7336 10.6597 17.5457C10.6017 18.0237 10.5507 18.0797 10.246 18.4589C8.44934 18.3407 5.06891 17.3395 3.36077 16.6742C2.71178 16.4213 2.29232 16.2259 2.00977 15.5687C2.08958 15.0907 2.1825 14.9628 2.50787 14.6328Z" fill="#FF6514"/>
<path d="M13.0678 33.4932C13.2119 33.5465 13.4313 33.61 13.5624 33.7C13.9195 33.9458 13.9582 34.065 14.0858 34.4573C13.962 35.6362 10.4619 41.1209 9.53206 42.0726C9.25475 42.06 9.09163 41.9997 8.83413 41.9054C8.56789 41.5573 8.49827 41.4958 8.52187 41.0385C8.5842 39.8188 12.0281 34.487 13.0678 33.4932Z" fill="#FF6514"/>
<path d="M17.9556 38.0544C18.1703 38.0424 18.4525 38.0028 18.6614 38.0462C19.0829 38.1333 19.14 38.2696 19.3689 38.5999C19.4694 39.8502 18.4924 46.0981 18.0051 47.2909C17.6436 47.2737 17.3978 47.2364 17.0634 47.0952C16.6742 46.6987 16.5437 46.3594 16.4668 45.8077C16.2052 43.9291 16.8405 39.5938 17.9556 38.0544Z" fill="#FF6514"/>
<path d="M38.1118 20.9441C39.8564 20.8273 41.8098 20.7754 43.54 21.0143C44.1384 21.097 44.6481 21.1902 45.0201 21.6904C44.9569 22.0184 44.9146 22.15 44.6426 22.3831C43.8427 23.0685 42.2485 22.8928 41.2726 22.8969C39.3382 22.9164 37.2173 23.1049 35.302 22.8811C34.6405 22.804 34.3603 22.663 33.9516 22.1352C33.9446 21.9668 33.8881 21.7996 34.0035 21.6609C34.6804 20.8477 37.0911 20.977 38.1118 20.9441Z" fill="#FF6514"/>
<path d="M6.44454 6.4082C6.7469 6.41053 7.09296 6.40412 7.37872 6.51219C8.79905 7.04904 13.8972 11.9197 14.6374 13.2999C14.6823 13.7272 14.4472 13.9975 14.2261 14.3386C14.0551 14.3369 13.8136 14.3485 13.6453 14.292C12.5786 13.9334 6.76671 8.47725 6.3423 7.45423C6.15966 7.01438 6.27297 6.83407 6.44454 6.4082Z" fill="#FF6514"/>
<path d="M30.2327 34.335C30.4066 34.358 30.5723 34.3705 30.7378 34.4395C31.5219 34.7667 36.9382 42.7646 37.0908 43.7611C37.1633 44.2342 37.0381 44.3277 36.7861 44.709C36.6233 44.6942 36.3771 44.6877 36.2187 44.6237C35.1872 44.208 30.0523 36.7183 29.7578 35.5301C29.6506 35.0982 30.0086 34.6828 30.2327 34.335Z" fill="#FF6514"/>
<path d="M19.5036 0.0167753C19.7826 0.00541499 20.2973 -0.0341904 20.5601 0.0709658C20.7477 0.146119 20.9061 0.249518 20.974 0.443809C21.3043 1.38963 20.8371 10.9985 20.3772 11.9306C20.3198 11.9417 20.2624 11.9548 20.2044 11.9638C19.7247 12.0392 19.5254 12.0259 19.1517 11.7392C18.4436 10.1223 18.9551 1.89968 19.5036 0.0167753Z" fill="#FF6514"/>
<path d="M40.3926 10.1096C40.4829 10.1038 40.5729 10.0921 40.6632 10.0918C41.0005 10.0912 41.2562 10.1003 41.4517 10.4157C41.6474 10.7312 41.5868 10.9505 41.519 11.2817C40.7188 12.1719 33.5711 15.1457 31.8082 15.9782C31.7642 15.9913 31.7214 16.0106 31.676 16.0176C31.3392 16.07 31.1001 16.0918 30.8461 15.8291C30.5679 15.5416 30.5958 15.3886 30.6314 15.0289C32.0069 12.9182 37.9434 11.0001 40.3926 10.1096Z" fill="#FF6514"/>
<path d="M24.4945 37.292C24.7715 37.3034 25.1103 37.2952 25.3594 37.4298C25.6428 37.583 25.7844 37.8684 25.8773 38.1618C26.2228 39.25 27.768 48.2224 27.7727 49.2565C27.7739 49.5411 27.6568 49.7546 27.5277 49.9996L26.8199 49.9801C26.3171 49.708 26.1333 49.3774 25.9178 48.8638C24.9976 46.6689 23.6792 39.3835 24.4945 37.292Z" fill="#FF6514"/>
<path d="M35.2503 1.75195C35.4335 1.79681 35.6843 1.87576 35.8372 1.98208C36.1702 2.21453 36.2011 2.40708 36.2587 2.7709C35.8774 3.7141 27.9974 10.0846 26.6249 11.1662C26.4877 11.1219 26.2089 11.0555 26.0828 10.9661C25.7798 10.7517 25.7973 10.6093 25.7539 10.2708C26.4469 8.30078 33.2241 2.7974 35.2503 1.75195Z" fill="#FF6514"/>
<path d="M20.2767 16.9717C22.1145 16.9064 23.6563 17.0727 25.2994 17.9475C27.2231 18.9717 28.7212 20.688 29.3129 22.8062C29.9173 24.9702 29.5089 27.3262 28.3758 29.2464C27.0262 31.5333 25.0041 32.6338 22.5071 33.2828C20.7946 33.6096 18.7562 33.1316 17.2487 32.2831C15.3798 31.2312 14.1369 29.3984 13.5971 27.351C13.5613 27.2181 13.5289 27.0844 13.4998 26.9498C13.471 26.8153 13.4454 26.6801 13.4229 26.5444C13.4005 26.4086 13.3816 26.2723 13.3658 26.1357C13.3504 25.9991 13.3382 25.8619 13.3294 25.7247C13.3207 25.5872 13.3154 25.4497 13.3134 25.3122C13.3114 25.1744 13.3128 25.0369 13.3178 24.8994C13.3227 24.762 13.3309 24.6248 13.3425 24.4876C13.3545 24.3504 13.3696 24.2138 13.388 24.0771C13.4063 23.9408 13.4282 23.8051 13.4535 23.6699C13.4788 23.5345 13.5074 23.3999 13.5394 23.2662C13.5712 23.1325 13.6064 22.9994 13.6452 22.8671C13.6839 22.7352 13.7256 22.6041 13.7707 22.4739C13.8159 22.3439 13.8639 22.2152 13.9155 22.0876C13.967 21.9597 14.0215 21.8336 14.0792 21.7086C14.1369 21.5837 14.1978 21.4605 14.2615 21.3384C14.3253 21.2166 14.3923 21.0963 14.4622 20.9778C15.7821 18.7768 17.8468 17.5767 20.2767 16.9717Z" fill="#FF6514"/>
<path d="M20.3126 19.4587C21.522 19.3856 22.5584 19.3541 23.705 19.8438C23.7892 19.8805 23.8722 19.9192 23.9543 19.9603C24.0365 20.0014 24.1174 20.0445 24.1973 20.0896C24.2771 20.1348 24.3557 20.1823 24.4332 20.2315C24.5107 20.2807 24.5867 20.332 24.6616 20.3853C24.7361 20.4386 24.8095 20.4937 24.8815 20.5508C24.9534 20.6079 25.0236 20.6667 25.0924 20.7276C25.1611 20.7882 25.2284 20.8505 25.294 20.9149C25.3595 20.9792 25.4236 21.0451 25.4856 21.1127C25.5477 21.18 25.608 21.249 25.6665 21.3198C25.7251 21.3906 25.7819 21.4625 25.8366 21.5362C25.8914 21.6099 25.9441 21.6848 25.9951 21.7614C26.0461 21.8377 26.0947 21.9152 26.1416 21.9941C26.1885 22.0731 26.2334 22.1532 26.2762 22.2344C26.3187 22.3157 26.3592 22.3978 26.3977 22.4814C26.4361 22.5647 26.4722 22.6489 26.5063 22.7343C26.5404 22.8196 26.5724 22.9056 26.6019 22.9924C27.153 24.5636 27.0796 26.4113 26.3114 27.898C25.5092 29.4512 24.1946 30.3617 22.5681 30.8977C21.4029 31.0836 20.3604 31.0827 19.2468 30.6399C19.157 30.6038 19.0682 30.5654 18.9802 30.5249C18.8925 30.4844 18.8057 30.4416 18.7201 30.3967C18.6345 30.3515 18.55 30.3044 18.4667 30.2551C18.3834 30.2059 18.3015 30.1543 18.2208 30.1007C18.1401 30.0472 18.0612 29.9915 17.9834 29.9341C17.9057 29.8764 17.8293 29.8167 17.7548 29.7553C17.6799 29.6938 17.6068 29.6306 17.5354 29.5654C17.464 29.5001 17.3941 29.4331 17.326 29.3644C17.2581 29.2953 17.1917 29.2248 17.1273 29.1529C17.0629 29.0806 17.0003 29.0069 16.9397 28.9315C16.8791 28.8561 16.8206 28.7792 16.7638 28.7008C16.707 28.6224 16.6522 28.5426 16.5995 28.4613C16.5468 28.3801 16.4964 28.2976 16.448 28.2138C16.3994 28.1302 16.3531 28.0451 16.3091 27.9589C16.2651 27.8729 16.2234 27.7856 16.1835 27.6973C16.1442 27.609 16.1069 27.5196 16.0717 27.4296C15.4891 25.9254 15.5814 24.1403 16.2875 22.6941C17.1145 21.0011 18.571 20.0323 20.3126 19.4587Z" fill="#FDFBFE"/>
<path d="M21.0519 21.7831C21.6793 21.7511 22.27 21.7901 22.8582 22.0327C23.6621 22.3642 24.3053 22.9821 24.6292 23.7945C25.0035 24.733 24.9339 25.8029 24.4949 26.7071C23.9729 27.7814 23.0973 28.3808 21.9884 28.7406C21.3239 28.7688 20.7288 28.7476 20.1063 28.4872C20.0029 28.4446 19.9021 28.3969 19.804 28.3441C19.7055 28.2914 19.61 28.2337 19.5176 28.1711C19.4253 28.1085 19.3361 28.0415 19.2505 27.9698C19.1649 27.8982 19.083 27.8224 19.0052 27.7423C18.9275 27.6622 18.8538 27.5786 18.7845 27.4912C18.7151 27.4036 18.6505 27.3127 18.5904 27.2186C18.5304 27.1245 18.4754 27.0278 18.4253 26.9279C18.3749 26.828 18.33 26.726 18.2904 26.6217C17.9292 25.7001 18.0055 24.6302 18.4486 23.7499C19.0172 22.6209 19.8876 22.1393 21.0519 21.7831Z" fill="#FF6514"/>
<path d="M20.4291 23.622C21.0679 23.5981 21.6286 23.5914 22.1326 24.0441C22.3726 24.2594 22.5043 24.5282 22.5293 24.8481C22.5876 25.592 22.1634 26.0348 21.6942 26.544C21.6484 26.5504 21.603 26.5588 21.5573 26.5632C21.0012 26.6177 20.5066 26.5996 20.0688 26.1965C19.7224 25.8775 19.5943 25.5209 19.5957 25.049C19.5978 24.3977 19.9831 24.0272 20.4291 23.622Z" fill="#FDFBFE"/>
</svg>
