<svg width="25" height="28" viewBox="0 0 25 28" fill="none" xmlns="http://www.w3.org/2000/svg">
<path d="M20.1013 0.00012074C20.4056 0.00306093 20.7947 -0.0150774 21.0976 0.054017C21.7728 0.207397 22.4175 0.57151 22.8122 1.13407C24.4046 3.40438 25.5496 23.3663 24.7252 26.3319C24.5116 27.0998 24.2773 27.583 23.5721 28C19.941 27.9765 13.7951 24.1322 10.3983 22.4347C8.00746 21.1141 1.88598 19.1373 0.43564 17.2296C0.0333587 16.6999 -0.0873778 16.276 0.0612583 15.6351C0.868865 12.1514 16.3681 1.97642 20.1013 0.00012074Z" fill="#FF6514"/>
<path d="M19.1902 5L19.4894 5.16138C20.1021 9.345 20.0803 17.7078 19.8542 22C16.9996 20.6953 14.2206 19.1798 11.4292 17.7231C9.94781 16.9721 8.32904 16.2841 7 15.2459L7.00045 14.8733C9.70357 12.0398 15.9144 7.45303 19.1902 5Z" fill="#FDFBFE"/>
</svg>
