<svg width="50" height="60" viewBox="0 0 50 60" fill="none" xmlns="http://www.w3.org/2000/svg">
<path d="M20.9591 21.868C25.2832 26.8864 27.111 33.9346 25.9937 40.4538C27.5042 38.2901 29.1428 36.194 31.0696 34.343C33.2769 32.2245 36.6915 29.6844 40.9655 28.8646C37.6822 25.9444 35.2457 22.0945 34.0273 17.8662C33.2189 15.0538 32.9556 12.0944 33.233 9.18645C29.8701 14.973 25.8798 19.0804 20.9591 21.868Z" fill="#6E59CD"/>
<path d="M5.09676 39.8177C9.78957 38.1849 13.2548 35.0996 16.3377 29.8167C16.5381 29.4709 16.9778 29.3453 17.3316 29.5363C17.6833 29.7266 17.8228 30.1612 17.6449 30.5196C16.3737 33.0971 16.0862 36.1042 16.8383 38.9901C17.5962 41.895 19.3976 44.6387 21.9075 46.7101C22.1548 46.9135 22.2439 47.2531 22.1283 47.5499C22.0142 47.8495 21.7199 48.0417 21.3993 48.0251C18.1398 47.8709 15.4365 49.2819 13.7421 50.4905C11.5379 52.0663 9.77972 54.1494 8.07958 56.1621C7.87689 56.4 7.55414 56.4826 7.27258 56.3868C7.2071 56.3646 7.14459 56.3336 7.08797 56.2924C6.77291 56.0732 6.67563 55.6505 6.86431 55.3177C9.31582 50.9816 8.46174 45.1023 4.78903 41.0158C4.62247 40.8325 4.56135 40.5755 4.62115 40.3353C4.68388 40.0936 4.86149 39.9008 5.09676 39.8177ZM9.5186 52.2682C10.5364 51.1947 11.6319 50.172 12.879 49.2836C14.4336 48.1712 16.7576 46.9088 19.5905 46.5989C17.5538 44.5253 16.0885 42.0104 15.4005 39.3655C14.971 37.7217 14.8457 36.0426 15.0125 34.4069C12.5975 37.4257 9.84625 39.5217 6.58284 40.8468C9.18765 44.1925 10.2261 48.4275 9.5186 52.2682Z" fill="#FFD200"/>
<path d="M6.58302 40.847C9.18783 44.1926 10.2262 48.4277 9.51878 52.2684C10.5366 51.1949 11.6321 50.1722 12.8791 49.2838C14.4338 48.1714 16.7578 46.909 19.5906 46.5991C17.554 44.5255 16.0887 42.0106 15.4007 39.3657C14.9711 37.7219 14.8459 36.0428 15.0126 34.4071C12.5977 37.4259 9.84643 39.5219 6.58302 40.847Z" fill="#FFD200"/>
</svg>
