<svg width="43" height="50" viewBox="0 0 43 50" fill="none" xmlns="http://www.w3.org/2000/svg">
<path d="M17.3291 15.2958C17.8469 12.3241 18.5938 9.7114 19.9563 7.00951C20.7613 5.41278 23.421 0.495083 25.048 0.0405685C25.317 -0.0346192 25.5841 -0.00666187 25.8258 0.135877C26.4798 0.521558 26.769 1.4308 26.9957 2.11702C28.2278 5.84506 28.1722 9.86855 27.9893 13.7533C27.9444 14.7062 27.5797 16.426 27.8035 17.2395C28.3998 17.4775 30.7353 16.2542 31.4146 16.0212C33.6636 15.2501 35.9957 14.6452 38.3835 14.6251C39.254 14.6179 40.2869 14.6255 40.9269 15.3121C41.1414 15.5424 41.2227 15.7582 41.1948 16.081C40.993 18.4164 35.9224 22.9205 34.1013 24.4857C37.1499 26.1686 40.2222 28.5107 42.1216 31.4995C42.4848 32.0712 42.9279 32.8387 42.7465 33.5425C42.6429 33.9441 42.3729 34.2342 42.0114 34.4193C41.127 34.8724 39.9259 34.7987 38.959 34.797C35.4533 34.7908 32.0321 34.4073 28.6616 33.4065C28.4916 35.4728 28.3826 37.5607 28.0124 39.6026C27.6361 41.677 25.5717 48.7859 23.9193 49.8313C23.6786 49.9836 23.4376 50.0459 23.1592 49.9633C21.0441 49.3355 17.1897 37.8104 16.0384 35.2968C19.0227 36.4604 22.1694 36.8222 25.1721 35.5073C27.8018 34.3558 29.6458 32.2984 30.6771 29.6188C31.6947 26.9747 31.7171 24.2404 30.5514 21.6419C29.6015 19.5246 27.961 17.5337 25.7473 16.7225C22.7455 15.6224 19.572 16.0689 16.7385 17.4047C14.9493 18.545 13.4738 20.1174 12.7232 22.1449C12.575 22.5537 12.4845 22.9965 12.4099 23.4254C12.019 25.6743 12.425 28.0998 13.7655 29.9699C13.836 30.0669 13.9089 30.162 13.9841 30.2552C14.0595 30.3486 14.1369 30.4399 14.2167 30.5293C14.2963 30.6187 14.3782 30.7059 14.4624 30.7913C14.5466 30.8764 14.6327 30.9594 14.7211 31.0403C14.8093 31.1213 14.8993 31.1998 14.9915 31.2761C15.0837 31.3525 15.1775 31.4265 15.2735 31.498C15.3692 31.5696 15.4667 31.6387 15.566 31.7054C15.6653 31.7721 15.7661 31.8361 15.8686 31.8977C15.971 31.9593 16.075 32.0182 16.1802 32.0743C16.2856 32.1307 16.3922 32.1843 16.5004 32.2353C16.6083 32.2861 16.7175 32.3342 16.8279 32.3797C16.9384 32.4251 17.0499 32.4676 17.1624 32.5075C17.2747 32.5471 17.3881 32.5839 17.5026 32.618C17.617 32.6521 17.732 32.6833 17.8479 32.7114C17.9639 32.7396 18.0804 32.765 18.1976 32.7872C18.3147 32.8095 18.4323 32.829 18.5505 32.8453C20.6164 33.1515 22.705 32.8482 24.3946 31.5516C25.9081 30.3903 26.863 28.7455 27.107 26.843C27.3743 24.7564 26.8689 22.3008 25.5453 20.6397C24.6453 19.5104 23.2373 18.6897 21.8055 18.5499C20.2341 18.3965 18.6586 18.8214 17.4471 19.8681C16.3257 20.8371 15.6701 22.1239 15.5525 23.6088C15.4379 25.0605 15.8257 26.7818 16.7987 27.8812C17.4889 28.6612 18.4327 29.0855 19.4662 29.1145C20.388 29.1405 21.231 28.8868 21.8869 28.2088C22.5276 27.547 22.7724 26.6619 22.7325 25.7516C22.6876 24.7292 22.2462 23.5048 21.4571 22.8269C21.0395 22.4679 20.5375 22.3016 19.9903 22.3546C19.5575 22.3965 19.1825 22.5645 18.9184 22.9226C18.6404 23.2994 18.5255 23.8124 18.6213 24.2728C18.6937 24.6206 18.9299 25.0213 19.2602 25.1787C19.516 25.3005 19.5918 25.2964 19.8483 25.2291C20.1142 24.995 20.2051 24.7155 20.3353 24.394C20.414 24.1993 20.4337 24.218 20.5988 24.108C20.8003 24.128 20.965 24.1388 21.1359 24.2639C21.3872 24.4486 21.4939 24.7411 21.5271 25.0408C21.5972 25.6719 21.3606 26.3857 20.9551 26.8673C20.6462 27.2342 20.2212 27.4722 19.7392 27.4817C19.061 27.4953 18.3366 27.0573 17.8914 26.5655C17.26 25.8679 17.2206 24.858 17.2863 23.9634C17.3686 22.8466 17.7795 21.7798 18.6442 21.0448C19.4143 20.3902 20.4287 20.121 21.4227 20.2394C21.4907 20.2481 21.5585 20.2586 21.6262 20.2707C21.6938 20.2828 21.761 20.2968 21.8279 20.3122C21.8949 20.3277 21.9613 20.3448 22.0274 20.3637C22.0936 20.3825 22.1591 20.4029 22.2239 20.4251C22.289 20.4471 22.3535 20.4709 22.4175 20.4961C22.4814 20.5215 22.5446 20.5484 22.6071 20.5768C22.6697 20.6054 22.7317 20.6352 22.7928 20.6668C22.8539 20.6983 22.9141 20.7314 22.9735 20.7659C23.033 20.8004 23.0918 20.8366 23.1495 20.8741C23.2072 20.9116 23.2639 20.9504 23.3198 20.9908C23.3754 21.0311 23.4302 21.0728 23.484 21.1158C23.5379 21.1588 23.5906 21.2033 23.6421 21.2488C23.6937 21.2945 23.7441 21.3416 23.7935 21.3896C23.8428 21.4377 23.8909 21.4871 23.9377 21.5377C23.9846 21.5883 24.0301 21.6402 24.0744 21.6929C24.1187 21.7457 24.1618 21.7997 24.2036 21.8547C25.1931 23.1465 25.6114 25.0241 25.3848 26.631C25.1801 28.0839 24.3976 29.4587 23.2089 30.3162C21.9514 31.2233 20.3731 31.4849 18.8663 31.2276C17.2934 30.9592 15.7917 30.2633 14.8609 28.9044C13.814 27.3761 13.68 25.1577 13.9962 23.3653C14.361 21.2973 15.7134 19.4068 17.4066 18.2184C19.4878 16.7572 22.1486 16.4649 24.6019 16.9406C26.5718 17.3225 28.0124 18.3849 29.1303 20.0466C30.6559 22.3143 31.3054 24.8758 30.7611 27.5893C30.2425 30.1749 28.6461 32.722 26.4551 34.1785C23.9331 35.8553 21.2463 36.1298 18.3271 35.5597C17.6367 35.425 16.8951 35.045 16.2112 34.987C15.8516 34.9562 15.49 35.3167 15.2105 35.5347C13.0083 37.253 5.77297 37.4321 3.06876 37.1231C2.23728 37.028 0.759926 36.9086 0.23395 36.1679C-0.0465705 35.7727 -0.0364958 35.2498 0.0659698 34.7959C0.257463 33.9473 0.750479 33.0888 1.21157 32.3598C3.64996 28.5039 7.52097 26.1739 11.2994 23.8717C8.8841 21.1501 6.60319 17.1349 5.49854 13.6781C5.31356 13.0995 5.08994 12.3603 5.41371 11.7938C5.60185 11.4649 5.9126 11.2742 6.27165 11.184C9.04347 10.4878 14.9938 13.7696 17.3291 15.2958Z" fill="#F9B71A"/>
<path d="M38.3139 16.3457C38.6136 16.3495 38.7013 16.3183 38.9432 16.4922L38.913 16.776C37.1758 19.4187 34.5101 21.7643 31.9782 23.5572C31.8498 23.1391 31.7528 22.7121 31.6495 22.2869C31.0699 20.8633 30.3282 20.1183 29.8086 18.9957C29.863 18.8824 29.8594 18.8727 29.9582 18.7655C30.9346 17.7066 36.8906 16.4962 38.3139 16.3457Z" fill="#F9D324"/>
<path d="M12.7202 22.1151C12.5152 21.9901 12.3097 21.8621 12.1203 21.7145C10.9617 20.8122 7.31512 14.7169 7.21828 13.3052C7.20432 13.1017 7.19316 13.1889 7.35506 13.0027C7.47315 12.988 7.50901 12.9786 7.62066 12.9808C9.25167 13.013 15.6054 16.0341 16.8263 17.3417C14.9967 18.49 13.4879 20.0734 12.7202 22.1151Z" fill="#F9D324"/>
<path d="M26.0688 37.0218C26.1775 37.0118 26.275 37.037 26.3819 37.0554C26.3953 37.0842 26.413 37.1112 26.4216 37.1417C26.5261 37.5081 26.1994 38.3777 26.1062 38.7747C25.3978 41.7882 24.6236 44.8217 23.1857 47.5965C22.7309 46.8165 22.3374 46.0017 21.9304 45.1972C20.8259 42.9774 19.6556 40.5934 19.2305 38.1476C21.8095 38.2925 23.6997 38.0413 26.0688 37.0218Z" fill="#F9D324"/>
<path d="M10.3051 26.4424C10.5659 26.6832 10.5347 27.0795 10.5894 27.423C10.9854 29.9012 11.7952 32.1204 13.9414 33.6485C11.2095 34.8312 8.30144 35.0667 5.34107 35.0962C4.03393 35.0388 2.7413 34.9012 1.44141 34.7617C3.50184 31.2412 6.77552 28.5323 10.3051 26.4424Z" fill="#F9D324"/>
</svg>
