<svg width="55" height="59" viewBox="0 0 55 59" fill="none" xmlns="http://www.w3.org/2000/svg">
<path d="M21.8999 0.0558802C22.8155 -0.0706864 23.4591 -0.000643079 24.2707 0.457315C28.5699 2.88189 31.8578 13.4391 33.3558 18.1955C34.1393 17.9032 34.9301 17.6312 35.7277 17.3791C40.1167 15.983 48.1716 13.4826 52.4854 15.8521C54.1354 16.7583 54.5104 17.8853 55 19.5988C54.9169 19.9901 54.8276 20.3785 54.7154 20.763C53.2368 25.8358 45.2305 29.6686 40.8555 32.0651C43.3347 36.4819 47.5227 41.6446 48.703 46.5034C49.0401 47.8913 49.2378 49.6304 48.4101 50.8941C47.8015 51.8231 46.7178 52.2752 45.6487 52.424C41.3966 53.0172 36.4198 49.2222 33.2499 46.8527L29.3087 43.8305C27.0117 48.1454 23.257 54.7534 19.3352 57.6466C18.1588 58.5142 16.6608 59.2354 15.1599 58.9277C15.0423 58.904 14.9262 58.875 14.8116 58.8398C14.697 58.8045 14.5843 58.7639 14.474 58.7171C14.3633 58.6702 14.2554 58.618 14.1505 58.5606C14.0456 58.5031 13.9436 58.4403 13.845 58.3721C13.7464 58.304 13.6512 58.2316 13.5604 58.1538C13.4695 58.076 13.3826 57.9939 13.2995 57.9074C13.217 57.821 13.1388 57.7306 13.0654 57.6364C12.9921 57.5422 12.9241 57.4442 12.8604 57.3427C10.4065 53.465 13.3661 41.5243 14.3604 36.8481C10.7014 36.5655 5.58758 36.0815 2.54593 33.9443C1.2262 33.0173 0.227052 31.6217 0.0347025 30.0005C-0.164447 28.3223 0.513633 26.7445 1.55358 25.4523C4.57969 21.6934 10.0267 20.4558 14.6066 20.0061C14.8966 17.3129 15.138 14.5898 15.6879 11.9343C16.5972 7.54552 17.9455 2.65339 21.8999 0.0558802Z" fill="#0894A2"/>
<path d="M21.3012 6.63192C21.7039 5.71013 22.0034 4.76633 22.7987 4.10729C23.4203 3.96132 23.7015 3.91537 24.2547 4.29059C27.8699 6.7463 30.1742 21.0651 32.48 21.8745C36.55 20.3544 40.7748 19.0325 45.0975 18.4687C47.1752 18.1978 50.2416 17.77 52 19.1033C51.8587 20.7765 50.8642 21.7026 49.6243 22.7704C46.1793 25.7368 41.8807 27.2133 38.1883 29.7068C37.7384 30.0102 37.4234 30.2782 37.2363 30.7994C37.4504 35.3658 47.073 43.8356 45.8716 48.1756C45.4265 48.6599 45.3353 48.7408 44.6264 48.7662C40.0958 48.9294 31.2791 39.1305 29.2261 39.3908C29.0973 39.4071 28.6579 39.7598 28.6271 39.7871C25.1435 42.8416 21.7516 52.9899 17.3826 55C17.0098 54.9775 16.7841 55.0632 16.513 54.7674C15.2885 53.4311 16.0341 49.4664 16.2396 47.819C16.4672 45.9946 18.9172 35.1184 18.7754 34.501C17.9377 33.4763 16.733 33.5452 15.4911 33.4174C12.811 33.1412 6.16033 32.8814 4.36913 30.5013C3.97365 29.9753 3.93025 29.4321 4.07831 28.8094C4.29968 27.8795 4.99754 27.075 5.64139 26.3987C9.16544 23.5965 12.8067 23.5979 17.0788 23.4979C17.5273 23.3423 17.7858 23.1504 18.1446 22.8441C18.3915 22.3397 18.4692 22.0185 18.4841 21.4538C18.5044 20.7043 18.5753 19.9754 18.6592 19.2302C18.638 14.9706 19.603 10.5354 21.3012 6.63192Z" fill="#FFEC00"/>
</svg>
