<svg width="78" height="75" viewBox="0 0 78 75" fill="none" xmlns="http://www.w3.org/2000/svg">
<path d="M1.79052 30C3.813 30.1662 4.85988 31.1957 6.2744 32.5043C8.61754 34.6716 13.1666 39.2051 12.9953 42.5445C12.9354 43.712 12.1736 44.2961 11.3678 45C10.2845 44.817 9.47262 44.5325 8.60768 43.8485C5.60125 41.4692 0.351736 36.2105 0 32.2938C0.281238 31.1279 0.910421 30.7123 1.79052 30Z" fill="#6E59CD"/>
<path d="M61.0698 0C61.8409 0.0611865 62.7682 -0.0321248 63.4166 0.428304C64.8061 1.41647 65.269 3.14728 65.5622 4.77025C66.3392 9.06249 66.2696 16.9823 63.792 20.6275C63.258 20.7621 62.5072 21.0275 61.9643 20.9977C61.4123 20.9679 60.9143 20.8049 60.5344 20.3912C58.7448 18.4431 59.1067 13.8037 59.094 11.2606C59.0746 7.58866 58.3821 2.77557 61.0698 0Z" fill="#3F69B5"/>
<path d="M24.1273 4C25.2681 4.02478 26.0467 3.98761 27.0087 4.70693C30.8619 7.59039 33.9649 16.9562 34.7489 21.5873C35.1348 23.8652 35.2292 25.0414 33.8921 26.9577C32.9186 27.0421 32.3747 27.0267 31.4626 26.6612C29.1758 24.5141 23.641 10.8378 23.0633 7.46805C22.8094 5.98684 23.3502 5.16453 24.1273 4Z" fill="#6E59CD"/>
<path d="M56.7832 36C62.2945 36.1338 68.0512 36.8772 72.6744 40.1329C75.3527 42.0187 77.4982 44.9447 77.9217 48.2351C78.3708 51.7299 76.8339 55.0095 74.6829 57.6864C67.6308 66.4619 49.484 73.7053 38.5311 74.8685C38.1889 74.8931 37.8466 74.9154 37.5044 74.9354C32.1688 75.2467 26.0102 74.5248 21.9422 70.7425C19.4041 68.3823 18.0971 65.0405 18.005 61.6202C17.8795 56.9345 20.1482 52.5832 23.2801 49.2052C31.647 40.1806 44.8213 36.4267 56.7832 36Z" fill="#F197B6"/>
<path d="M41.6126 46.0185C43.2439 45.9514 44.427 46.0431 45.9479 46.6984L46.1127 47.3214L46.437 47.033C46.5011 47.1263 46.9 47.7038 46.9462 47.7948C47.105 48.1109 46.8746 48.8009 46.7404 49.0561C45.356 51.6858 41.0326 53.2756 38.5664 54.4675C37.8432 54.7897 36.9381 55.0249 36.1419 54.9979C35.2264 54.9663 34.8096 54.7288 34.1841 54.0789C33.9068 52.9949 33.9142 52.2733 34.4041 51.2687C35.9235 48.1479 38.509 46.9621 41.6126 46.0185Z" fill="#FDFBFE"/>
</svg>
