<svg width="73" height="74" viewBox="0 0 73 74" fill="none" xmlns="http://www.w3.org/2000/svg">
<path d="M25.9802 0C27.1642 0.187 28.1683 0.469977 29.2003 1.08298C34.5823 4.27798 36.0703 15.187 37.5233 20.854C42.0553 15.268 49.1003 4.41799 56.1283 2.51199C57.9003 2.03199 59.6953 2.24298 61.2313 3.29498C62.2823 4.01498 62.9663 5.077 63.0493 6.375C63.4203 12.217 49.7263 25.371 45.4663 30.077C52.6803 30.833 61.9223 31.29 68.1643 35.235C69.8613 36.307 71.9632 38.142 72.1052 40.315C72.1792 41.44 71.6243 42.381 70.8063 43.109C65.6303 47.714 49.0713 43.259 42.4153 42.156C44.3513 49.345 46.3303 57.833 46.4053 65.267C46.4423 68.956 46.0633 70.772 43.4813 73.412C43.1673 73.525 42.8603 73.655 42.5403 73.75C41.0883 74.182 39.6563 73.972 38.4083 73.124C33.5273 69.806 32.4202 52.507 31.5512 46.315C27.3432 51.889 18.3133 66.063 11.7513 68.078C10.3923 68.495 8.70525 68.58 7.49725 67.713C6.38225 66.913 5.88625 65.606 5.71125 64.297C4.65325 56.382 16.8433 45.021 21.4293 38.924C16.3643 38.387 5.25725 40.008 1.50025 35.982C0.389255 34.791 -0.0807476 33.444 0.0112524 31.837C0.101252 30.264 0.832255 28.898 2.09025 27.958C7.89325 23.625 20.7043 26.123 27.5103 26.852C25.0343 20.852 20.4793 10.641 22.1433 4.26797C22.7443 1.95997 24.0352 1.14 25.9802 0Z" fill="#DE1585"/>
</svg>
