<svg width="38" height="41" viewBox="0 0 38 41" fill="none" xmlns="http://www.w3.org/2000/svg">
<path d="M15.3329 1.12496C19.0999 0.803956 22.7049 0.934997 26.2219 2.467C30.7529 4.44 34.0549 8.25596 35.7549 12.859C35.8799 13.202 35.9959 13.548 36.1029 13.897C36.2109 14.246 36.3099 14.5979 36.3989 14.9509C36.4889 15.3049 36.5699 15.661 36.6419 16.019C36.7149 16.377 36.7779 16.737 36.8319 17.098C36.8859 17.459 36.9309 17.821 36.9669 18.184C37.0029 18.547 37.0299 18.911 37.0469 19.276C37.0649 19.641 37.0739 20.006 37.0729 20.371C37.0729 20.736 37.0629 21.101 37.0439 21.466C37.0249 21.831 36.9979 22.1949 36.9609 22.5579C36.9239 22.9209 36.8779 23.283 36.8229 23.644C36.7679 24.005 36.7039 24.3639 36.6309 24.7219C36.5579 25.0799 36.4759 25.436 36.3849 25.789C36.2939 26.143 36.1939 26.494 36.0859 26.843C35.9769 27.192 35.8599 27.537 35.7349 27.88C35.6089 28.223 35.4749 28.562 35.3319 28.898C35.1889 29.234 35.0379 29.566 34.8789 29.895C32.2909 35.193 28.2499 38.163 22.8459 40.092C18.4879 40.542 14.7379 40.4209 10.7419 38.3049C6.0609 35.8269 2.77391 31.382 1.38491 26.31C-0.131094 20.774 0.609913 14.373 3.55391 9.42299C6.33491 4.74799 10.2499 2.49996 15.3329 1.12496Z" fill="#952C8A"/>
<path d="M16.6261 8.06422C18.4801 7.88722 20.2981 7.82324 22.1001 8.39424C24.9701 9.30224 27.2671 11.3752 28.5981 14.0572C30.2891 17.4622 30.4501 21.6212 29.1821 25.1912C27.7781 29.1462 25.2321 31.2322 21.5441 32.9642C19.7771 33.0872 17.9172 33.1272 16.2012 32.6132C13.3062 31.7462 10.8371 29.6072 9.43615 26.9502C9.22115 26.5322 9.02713 26.1042 8.85613 25.6662C8.68513 25.2282 8.53716 24.7822 8.41216 24.3292C8.28616 23.8762 8.18413 23.4172 8.10613 22.9532C8.02813 22.4892 7.97416 22.0222 7.94316 21.5532C7.91216 21.0842 7.90612 20.6142 7.92412 20.1442C7.94212 19.6742 7.98416 19.2062 8.05016 18.7412C8.11616 18.2752 8.20612 17.8142 8.32012 17.3572C8.43312 16.9012 8.57011 16.4522 8.72911 16.0092C10.2291 11.8912 12.8061 9.93522 16.6261 8.06422Z" fill="#F9B71A"/>
<path d="M18.0967 15.3711C19.0407 15.4331 20.2317 15.5971 21.0687 16.0661C21.2027 16.1401 21.3317 16.2211 21.4567 16.3101C21.5817 16.3981 21.7017 16.4931 21.8157 16.5961C21.9297 16.6981 22.0377 16.806 22.1387 16.92C22.2407 17.035 22.3357 17.1541 22.4237 17.2791C22.5127 17.4041 22.5937 17.5341 22.6667 17.6681C22.7397 17.8031 22.8057 17.9411 22.8637 18.0831C22.9207 18.2241 22.9707 18.3691 23.0117 18.5161C23.0527 18.6631 23.0857 18.8131 23.1107 18.9641C23.5037 21.4271 21.7167 23.5771 20.2667 25.3051C19.6547 25.1021 19.5407 25.0911 18.9107 24.7371C17.3967 23.8871 16.0817 22.2161 15.8747 20.4781C15.5977 18.1581 16.6427 16.9711 18.0967 15.3711Z" fill="#952C8A"/>
</svg>
