<svg width="97" height="95" viewBox="0 0 97 95" fill="none" xmlns="http://www.w3.org/2000/svg">
<path d="M28.6659 0.0659347C31.8139 -0.160065 34.2939 0.102944 36.7149 2.32594C44.1249 9.12794 44.3949 25.5949 45.0819 35.0249C46.3829 28.7569 47.5219 22.3409 50.1389 16.4599C52.3499 11.4909 56.8469 3.24692 62.2759 1.42592C64.2049 0.77892 66.1909 1.03793 67.9839 1.96593C69.5139 2.75693 70.3939 3.85195 70.8369 5.54195C72.4149 11.5479 62.8339 22.4079 59.4909 27.4069C57.5789 30.2669 55.9189 33.2459 54.2849 36.2709C61.3369 31.2689 68.4709 26.2629 76.6679 23.2999C80.1909 22.0259 84.9939 20.8729 88.5089 22.7719C89.2939 23.1959 89.9839 23.9099 90.1739 24.7969C90.4689 26.1739 90.0189 27.427 89.3079 28.594C84.4169 36.623 66.8019 41.4389 58.1389 43.5599C68.3919 45.1219 86.5939 48.8459 94.1399 56.5029C95.6759 58.0629 96.1699 59.3489 96.1619 61.5069C95.6039 62.8619 94.6919 63.9159 93.2949 64.4539C86.9139 66.9139 67.5259 57.1929 60.5459 54.4619C63.6509 57.9449 66.6849 61.5829 69.2849 65.4629C72.7319 70.6059 75.5769 76.2599 74.3009 82.6009C73.8559 82.9509 73.4079 83.2999 72.9299 83.6059C72.7519 83.7209 72.5679 83.8259 72.3779 83.9209C72.1889 84.0159 71.9949 84.0999 71.7959 84.1739C71.5969 84.2479 71.3949 84.3109 71.1899 84.3639C70.9849 84.4159 70.7769 84.4569 70.5669 84.4869C70.3579 84.5169 70.1469 84.5349 69.9349 84.5419C69.7229 84.5489 69.5109 84.5449 69.2999 84.5299C69.0889 84.5139 68.8789 84.4869 68.6699 84.4489C68.4619 84.4109 68.2559 84.3619 68.0529 84.3009C59.1719 81.7309 53.4349 61.9809 49.2359 54.3349L48.8769 53.6899C49.0129 59.6729 49.2489 65.6889 48.5219 71.6449C47.7389 78.0579 45.6859 89.2769 40.1539 93.3149C38.7359 94.3499 37.6509 94.6059 35.9069 94.3129C34.3609 93.4059 33.5509 92.5149 32.8299 90.8529C28.2389 80.2689 35.3519 65.1909 39.4549 55.3959C31.5639 61.2069 23.9699 67.9349 15.0899 72.2199C12.5549 73.4429 9.60394 73.9459 6.93594 72.7199C5.79594 72.1959 4.64893 71.0929 4.25193 69.8829C3.83093 68.5989 4.17893 67.3209 4.74293 66.1499C8.54893 58.2439 22.3849 49.6779 30.3589 47.0269C23.1919 45.5139 4.80394 43.4809 0.949935 37.4069C-0.084065 35.7789 -0.239068 33.8139 0.315932 31.9839C0.860932 30.1869 2.06893 28.9019 3.77993 28.1509C12.8559 24.1669 28.3039 31.6359 36.9229 34.9119C32.3849 27.2059 24.5169 15.0909 25.3239 5.76393C25.5639 3.03093 26.5989 1.75493 28.6659 0.0659347Z" fill="#46DDE3"/>
</svg>
