<svg width="63" height="76" viewBox="0 0 63 76" fill="none" xmlns="http://www.w3.org/2000/svg">
<path d="M35.989 27.7019C30.5117 34.0585 28.1966 42.9862 29.6118 51.2438C27.6985 48.5031 25.6229 45.848 23.1823 43.5035C20.3864 40.8201 16.0612 37.6026 10.6474 36.5642C14.8063 32.8653 17.8925 27.9889 19.4359 22.633C20.4598 19.0707 20.7933 15.3221 20.4419 11.6388C24.7017 18.9684 29.756 24.1711 35.989 27.7019Z" fill="#6E59CD"/>
<path d="M56.0808 50.4354C50.1366 48.3673 45.7472 44.4592 41.8423 37.7676C41.5884 37.3296 41.0315 37.1705 40.5832 37.4125C40.1377 37.6535 39.961 38.204 40.1864 38.6579C41.7967 41.9227 42.1609 45.7317 41.2081 49.3871C40.2481 53.0667 37.9663 56.5419 34.7871 59.1657C34.4738 59.4234 34.361 59.8535 34.5074 60.2294C34.652 60.609 35.0247 60.8523 35.4309 60.8314C39.5595 60.6361 42.9837 62.4232 45.13 63.9541C47.922 65.9502 50.149 68.5887 52.3026 71.1382C52.5593 71.4395 52.9681 71.5441 53.3248 71.4228C53.4077 71.3946 53.4869 71.3553 53.5586 71.3032C53.9577 71.0255 54.0809 70.4901 53.8419 70.0686C50.7367 64.5763 51.8185 57.1291 56.4706 51.953C56.6816 51.7209 56.759 51.3953 56.6833 51.091C56.6038 50.7849 56.3788 50.5407 56.0808 50.4354ZM50.4798 66.206C49.1906 64.8462 47.8029 63.5508 46.2233 62.4255C44.2541 61.0164 41.3104 59.4174 37.7221 59.0248C40.3018 56.3983 42.1579 53.2129 43.0294 49.8626C43.5734 47.7805 43.7321 45.6537 43.5209 43.5818C46.5798 47.4056 50.0648 50.0604 54.1984 51.7389C50.899 55.9767 49.5837 61.341 50.4798 66.206Z" fill="#FFD200"/>
<path d="M54.1986 51.7386C50.8992 55.9764 49.5839 61.3407 50.48 66.2057C49.1908 64.8459 47.8031 63.5505 46.2235 62.4252C44.2543 61.0161 41.3106 59.4171 37.7223 59.0245C40.302 56.398 42.1581 53.2126 43.0296 49.8623C43.5737 47.7802 43.7323 45.6534 43.5211 43.5815C46.5801 47.4053 50.065 50.0602 54.1986 51.7386Z" fill="#FFD200"/>
</svg>
