<svg width="74" height="72" viewBox="0 0 74 72" fill="none" xmlns="http://www.w3.org/2000/svg">
<path d="M1 28.7669C1.19834 28.2468 1.44413 27.7199 1.71222 27.2293C3.00197 24.8686 5.36912 23.2553 8.01159 22.4996C12.4837 21.2208 18.014 22.5653 22 24.6286C21.9117 25.1874 21.7835 25.7615 21.7964 26.3276C17.8638 24.5089 12.9294 23.058 8.60157 24.5106C6.69823 25.1493 5.02558 26.4692 4.14411 28.217C3.96392 28.5744 3.80494 28.9441 3.65537 29.3141C3.03302 29.7396 2.04767 31.2151 1.88563 31.908C1.87841 31.9381 1.87732 31.9693 1.87338 32C1.58014 31.1482 1.63131 29.3316 1 28.7669Z" fill="#DE1585"/>
<path d="M0.622039 29C1.25084 29.5872 1.19987 31.4765 1.49195 32.3623C1.66445 33.6289 1.86265 34.7969 2.36426 35.979C3.42366 38.8475 5.76506 40.8337 8.49829 42.0834C10.7818 43.1273 14.8321 43.7482 17.3309 43.2835C18.1625 43.1286 20.6207 42.2395 21.2362 42.7029C21.3292 42.773 21.4257 42.9246 21.4923 43.0135C21.5847 43.3342 21.5394 43.5565 21.3743 43.839C20.9095 44.6351 19.4506 45.9056 18.7617 46.744C15.3968 50.8401 11.48 56.7552 12.7191 62.301C12.7546 62.4615 12.7941 62.6211 12.8376 62.7796C12.881 62.9381 12.9284 63.0954 12.9796 63.2517C13.031 63.4078 13.0861 63.5627 13.1452 63.716C13.2042 63.8695 13.2671 64.0215 13.3338 64.1718C13.4004 64.3221 13.4708 64.4709 13.5448 64.6177C13.6189 64.7645 13.6966 64.9093 13.7779 65.0525C13.8591 65.1954 13.9441 65.3363 14.0323 65.4751C14.1205 65.6139 14.2124 65.7505 14.3076 65.8847C14.4028 66.019 14.5012 66.1508 14.6029 66.2803C14.7046 66.4097 14.8094 66.5364 14.9177 66.6607C15.0257 66.7849 15.1368 66.9063 15.2509 67.025C15.365 67.1436 15.482 67.2594 15.602 67.3724C15.722 67.4853 15.8446 67.5951 15.9701 67.702C16.0956 67.8087 16.2236 67.9123 16.3541 68.0129C16.4845 68.1133 16.6176 68.2105 16.7531 68.3044C16.8886 68.3983 17.0262 68.4889 17.1663 68.5759C19.5334 70.0724 22.7874 70.6438 25.5147 70.0015C28.7942 69.2293 31.466 67.1377 33.2168 64.2946C34.5809 62.0794 35.2665 59.7259 35.676 57.1835C35.8097 56.3523 35.8463 55.4357 36.1136 54.6398C36.2462 54.2456 36.4575 53.772 36.8859 53.6391C37.0519 53.5874 37.1845 53.626 37.3372 53.7089C37.7556 53.9359 39.4005 57.8024 39.8158 58.5068C42.6518 63.3163 48.0859 66.3978 53.7307 65.5024C56.0577 65.1334 58.2624 64.0005 59.6596 62.0746C61.1916 59.9629 61.6209 57.1211 61.2001 54.5867C60.7854 52.0879 59.0647 49.1871 56.9956 47.6999C56.8908 47.6246 56.8884 47.6264 56.7924 47.5741C55.6679 46.322 54.2944 45.2403 52.8793 44.3326C52.3472 43.8429 51.6565 43.553 51.0835 43.113C50.7962 42.8927 50.5218 42.6049 50.4939 42.2287C50.4769 42.0029 50.6422 41.7111 50.8095 41.5619C51.2222 41.1936 51.8972 41.3665 52.3977 41.4196C52.55 41.8754 54.3602 43.1243 54.821 43.406C57.108 45.4062 59.4139 47.1473 61.0492 49.778C62.7705 52.5466 63.4553 56.1376 62.6875 59.3223C62.0349 62.0284 60.423 64.3295 58.0182 65.7648C55.0804 67.5181 51.5387 67.7876 48.2601 66.9406C42.9457 65.5679 40.0499 62.0443 37.3736 57.5396C36.885 60.8722 35.7152 64.0872 33.6304 66.7689C31.4527 69.5695 28.2941 71.4533 24.7481 71.8961C21.3396 72.322 18.0438 71.4329 15.3387 69.3253C15.1875 69.208 15.0394 69.0872 14.8944 68.9625C14.7493 68.8379 14.6075 68.7097 14.4688 68.5781C14.33 68.4464 14.1945 68.3113 14.0628 68.173C13.9308 68.0346 13.8023 67.8932 13.6775 67.7486C13.5527 67.604 13.4314 67.4561 13.314 67.3053C13.1966 67.1546 13.0829 67.0011 12.9729 66.8448C12.8631 66.6884 12.7573 66.5294 12.6553 66.3679C12.5534 66.2063 12.4556 66.0424 12.3619 65.8761C12.2683 65.7095 12.1788 65.5408 12.0934 65.3701C12.0082 65.1993 11.9272 65.0264 11.8505 64.8514C11.7741 64.6767 11.7018 64.5001 11.634 64.3217C11.5661 64.1432 11.5027 63.963 11.4439 63.7815C11.3851 63.6 11.3308 63.417 11.2812 63.2329C11.2315 63.0487 11.1864 62.8633 11.1459 62.6768C11.1056 62.4903 11.0699 62.303 11.0388 62.1145C11.0076 61.9263 10.9813 61.7374 10.9597 61.5479C10.2527 55.2804 14.2688 49.6633 18.0107 45.0293C15.0579 45.3867 12.0723 45.5886 9.19353 44.6932C8.98466 44.6299 8.7773 44.5616 8.5717 44.4881C8.36609 44.4146 8.16244 44.3358 7.96097 44.2521C7.75929 44.1684 7.55978 44.0797 7.36266 43.9861C7.16555 43.8926 6.97105 43.7941 6.77873 43.6909C6.58641 43.5875 6.39692 43.4795 6.21004 43.3667C6.02338 43.2542 5.83955 43.1369 5.65856 43.015C5.47756 42.8931 5.29983 42.7669 5.12515 42.6361C4.95069 42.5054 4.77949 42.3705 4.61157 42.2313C4.44386 42.0921 4.27963 41.9487 4.11889 41.8013C3.95837 41.654 3.80155 41.5027 3.64843 41.3474C3.49532 41.1923 3.34634 41.0334 3.20129 40.8707C3.05623 40.7081 2.91531 40.542 2.77852 40.3724C2.64196 40.2028 2.50954 40.03 2.38147 39.8537C2.2534 39.6776 2.1299 39.4983 2.01076 39.3159C1.89162 39.1335 1.77727 38.9483 1.6675 38.7603C1.55773 38.5723 1.45275 38.3817 1.35256 38.1885C-0.181225 35.2319 -0.390101 32.1554 0.622039 29Z" fill="#0894A2"/>
<path d="M22.8088 24.8047C22.4143 23.5234 21.8917 22.2757 21.5688 20.9745C21.4996 20.702 21.4366 20.4283 21.3798 20.153C21.323 19.8777 21.2727 19.6011 21.2285 19.3237C21.1843 19.046 21.1466 18.7675 21.1153 18.4883C21.0839 18.2091 21.0589 17.9293 21.0404 17.6488C21.0219 17.3684 21.0097 17.0877 21.0038 16.8068C20.9981 16.5259 20.9988 16.245 21.006 15.9641C21.0131 15.6832 21.0266 15.4027 21.0467 15.1222C21.0665 14.842 21.0928 14.5624 21.1257 14.2832C21.1586 14.004 21.1976 13.7259 21.2431 13.4485C21.2886 13.171 21.3404 12.8949 21.3985 12.62C21.4567 12.345 21.5211 12.0714 21.5917 11.7994C21.6624 11.5271 21.7393 11.2568 21.8222 10.9882C21.9052 10.7197 21.9945 10.453 22.0896 10.1883C22.1848 9.92388 22.286 9.66157 22.3931 9.40143C22.5005 9.14128 22.6135 8.88395 22.7326 8.629C22.8517 8.37404 22.9764 8.1219 23.1069 7.87256C24.9711 4.39338 27.9281 1.58478 31.7863 0.452942C34.7852 -0.426748 37.8665 0.00293278 40.5801 1.49871C43.1528 2.91664 44.9213 5.22117 45.7179 8.01637C46.8872 12.1194 46.249 16.4777 45.4786 20.5959C49.8784 16.6524 54.7597 14.5025 60.7641 14.7866C64.5624 14.9663 68.1208 16.3029 70.7156 19.1407C73.2256 21.8858 74.1734 25.4607 73.9744 29.1058C73.7788 32.6877 72.0392 35.8689 69.3748 38.2381C69.2605 38.3412 69.1448 38.4431 69.0279 38.5432C68.911 38.6436 68.7928 38.7424 68.6734 38.8397C68.5539 38.937 68.4333 39.0328 68.3116 39.1273C68.1899 39.2216 68.0668 39.3143 67.9425 39.4056C67.8184 39.4969 67.6932 39.5866 67.5667 39.6748C67.4402 39.7628 67.3126 39.8493 67.1839 39.9343C67.0553 40.0193 66.9257 40.1028 66.7949 40.1843C66.6642 40.2661 66.5325 40.3461 66.3997 40.4246C66.2669 40.5031 66.1332 40.5798 65.9984 40.6549C65.8636 40.7299 65.728 40.8034 65.5914 40.8752C65.4549 40.9468 65.3175 41.0169 65.1793 41.0852C65.0408 41.1533 64.9017 41.2199 64.7617 41.2848C64.6217 41.3494 64.4808 41.4126 64.3393 41.474C64.1975 41.5352 64.0551 41.5947 63.9121 41.6524C63.769 41.7101 63.6251 41.7661 63.4805 41.8204C63.3362 41.8745 63.1909 41.9268 63.0451 41.9774C62.8992 42.0278 62.7526 42.0767 62.6057 42.1236C62.4585 42.1705 62.3109 42.2155 62.1626 42.2588C62.0143 42.3018 61.8656 42.3431 61.7165 42.3827C61.5671 42.4222 61.4173 42.4599 61.2671 42.4955C61.1168 42.5312 60.9662 42.5652 60.815 42.5972C60.6642 42.6292 60.5126 42.6592 60.3606 42.6876C60.2089 42.7157 60.0567 42.7421 59.9043 42.7665C59.7516 42.7909 59.5988 42.8134 59.4457 42.834C59.2927 42.8545 59.1394 42.8733 58.9859 42.89C58.8324 42.9068 58.6787 42.9218 58.5247 42.9347C58.3708 42.9475 58.2166 42.9585 58.0625 42.9676C57.9081 42.9769 57.7539 42.9841 57.5996 42.9892C57.4452 42.9947 57.2906 42.9979 57.1362 42.9992C56.9819 43.0007 56.8273 43.0001 56.6729 42.9977C56.5185 42.9953 56.3639 42.9908 56.2096 42.9845C56.0552 42.9782 55.901 42.97 55.7469 42.9598C55.4479 42.9421 55.1264 42.89 54.8285 42.8991C54.3678 42.6182 52.5582 41.3728 52.406 40.9182L52.5007 40.8711C53.0233 39.7352 53.5326 38.6003 53.9184 37.4101C55.2679 37.5353 56.6971 37.523 58.0385 37.3253C60.63 36.9434 63.3192 35.5912 64.8927 33.4593C65.5266 32.5097 66.0776 31.5085 66.4066 30.4126C67.0058 28.4162 66.8434 26.3765 65.8264 24.543C64.6541 22.4296 62.5099 21.0446 60.2139 20.3865C56.9782 19.4588 52.9183 19.591 49.7747 20.8069C48.4139 21.3333 47.1556 22.0867 45.8764 22.7789C45.3641 23.0632 44.9219 23.7152 44.349 23.8774C44.0551 23.9606 43.9809 23.9291 43.7152 23.8184C43.3904 23.4434 43.3105 23.0816 43.2952 22.5901C43.2192 20.1476 44.5775 16.8409 44.5041 14.1242C44.503 14.0858 44.5008 14.0475 44.4991 14.009C43.661 11.4099 42.2708 8.87465 39.7325 7.59253C37.7154 6.57379 35.3563 6.57509 33.2371 7.28243C30.2624 8.27543 27.9549 10.604 26.5823 13.3646C25.2644 16.0151 24.8045 19.1844 24.8984 22.1158C24.9352 23.2665 25.0985 24.4202 25.1052 25.5689C25.2831 26.1147 25.6025 26.7987 25.3419 27.3581C25.2652 27.5227 25.1614 27.5631 24.985 27.6007C24.4771 27.7093 23.7058 27.2296 23.2756 27.0069L22.4123 26.5513L21.3543 26.0037C21.3415 25.4166 21.4691 24.8213 21.557 24.2418C21.9651 24.4325 22.3818 24.6632 22.8088 24.8047Z" fill="#11C0D1"/>
<path d="M22.1399 24C22.4203 24.2478 22.7066 24.5475 23 24.7312C22.719 25.3174 22.7499 26.2295 22.7276 27L22.0006 26.2888C21.9918 25.5261 22.0795 24.7528 22.1399 24Z" fill="#599BC9"/>
<path d="M25.2917 26C23.7841 22.9539 22.8794 19.7789 23.013 16.3592C23.1754 12.1976 24.8146 7.7987 27.9479 4.94372C30.1005 2.98249 32.9798 1.85109 35.9192 2.01582C38.3384 2.15135 40.7572 3.24387 42.3686 5.0553C44.6002 7.56433 45.1516 11.015 44.9669 14.2583C44.1167 11.6184 42.7063 9.04322 40.1312 7.74093C38.0848 6.70618 35.6915 6.70749 33.5416 7.42596C30.5237 8.43458 28.1827 10.7997 26.7903 13.6038C25.4532 16.296 24.9867 19.5151 25.0819 22.4927C25.1192 23.6614 25.2849 24.8332 25.2917 26Z" fill="#FDFBFE"/>
<path d="M46 23.0534C49.8464 19.3466 54.2005 16.9677 59.6957 17.0003C63.1096 17.0206 66.5135 17.9476 68.9615 20.3855C71.1061 22.5212 72.0378 25.4168 71.9988 28.3773C71.9574 31.5398 70.615 34.4438 68.2944 36.6285C64.8775 39.8454 60.6185 41.1173 55.9568 40.9916C54.8227 40.9609 53.6867 40.8568 52.5571 40.7556C53.0743 39.6442 53.5785 38.5338 53.9604 37.3692C55.2962 37.4917 56.7109 37.4797 58.0387 37.2863C60.6039 36.9126 63.2658 35.5896 64.8234 33.5036C65.4508 32.5745 65.9963 31.5948 66.3219 30.5225C66.9151 28.5692 66.7543 26.5735 65.7476 24.7795C64.5872 22.7117 62.4647 21.3565 60.192 20.7126C56.9891 19.8049 52.9705 19.9342 49.8587 21.1239C48.5117 21.6389 47.2662 22.3761 46 23.0534Z" fill="#FDFBFE"/>
<path d="M25.5021 25.8152C25.4954 24.6646 25.3327 23.509 25.296 22.3564C25.2025 19.4201 25.6607 16.2455 26.9739 13.5906C28.3414 10.8254 30.6406 8.49293 33.6044 7.49827C35.7159 6.78974 38.0664 6.78845 40.0761 7.80889C42.6052 9.09315 43.9904 11.6327 44.8254 14.2361C44.8271 14.2746 44.8293 14.313 44.8304 14.3515C44.9035 17.0727 43.5502 20.3849 43.6259 22.8315C43.6411 23.3238 43.7207 23.6862 44.0444 24.0618C44.3091 24.1727 44.383 24.2043 44.6759 24.1209C45.2467 23.9585 45.6873 23.3054 46.1977 23.0206C47.4723 22.3272 48.7259 21.5726 50.0818 21.0453C53.214 19.8273 57.259 19.695 60.483 20.6242C62.7706 21.2834 64.907 22.6707 66.075 24.7876C67.0883 26.6243 67.2502 28.6673 66.6532 30.667C66.3254 31.7648 65.7763 32.7677 65.1448 33.7188C63.577 35.8543 60.8976 37.2088 58.3155 37.5913C56.979 37.7893 55.555 37.8016 54.2104 37.6762C53.826 38.8684 53.3186 40.0052 52.7979 41.143L52.7035 41.1902C52.205 41.1372 51.5327 40.9645 51.1216 41.3323C50.955 41.4814 50.7903 41.7729 50.8073 41.9984C50.835 42.3742 51.1084 42.6617 51.3945 42.8817C51.9653 43.3212 52.6532 43.6108 53.1832 44.0999C54.5926 45.0066 55.9607 46.0871 57.0807 47.3378C57.1764 47.39 57.1788 47.3882 57.2831 47.4634C59.344 48.9489 61.0579 51.8465 61.4709 54.3424C61.8901 56.8739 61.4625 59.7126 59.9365 61.8219C58.5448 63.7456 56.349 64.8771 54.0312 65.2458C48.4088 66.1402 42.9964 63.0622 40.1716 58.258C39.7579 57.5545 38.1196 53.6924 37.7028 53.4656C37.5507 53.3829 37.4186 53.3443 37.2533 53.3958C36.8266 53.5286 36.6162 54.0017 36.4841 54.3955C36.2179 55.1904 36.1814 56.106 36.0482 56.9363C35.6404 59.4758 34.9574 61.8266 33.5988 64.0393C31.855 66.8792 29.1938 68.9684 25.9273 69.7397C23.2108 70.3813 19.9697 69.8106 17.612 68.3158C17.4726 68.2289 17.3355 68.1384 17.2005 68.0446C17.0656 67.9508 16.933 67.8537 16.8031 67.7534C16.6731 67.6529 16.5456 67.5494 16.4206 67.4428C16.2957 67.3361 16.1735 67.2265 16.054 67.1136C15.9345 67.0007 15.818 66.8851 15.7043 66.7666C15.5906 66.6481 15.48 66.5268 15.3724 66.4027C15.2646 66.2786 15.1602 66.1521 15.0589 66.0228C14.9576 65.8934 14.8595 65.7618 14.7647 65.6277C14.6699 65.4936 14.5784 65.3571 14.4905 65.2185C14.4027 65.0799 14.318 64.9391 14.2371 64.7963C14.1562 64.6534 14.0788 64.5087 14.005 64.362C13.9312 64.2154 13.8612 64.0668 13.7948 63.9167C13.7284 63.7666 13.6657 63.6147 13.6069 63.4614C13.5481 63.3082 13.4932 63.1536 13.442 62.9976C13.3911 62.8414 13.3438 62.6844 13.3006 62.5261C13.2572 62.3677 13.2179 62.2083 13.1826 62.048C11.9484 56.5085 15.8496 50.6001 19.2011 46.5086C19.8873 45.6712 21.3404 44.4021 21.8033 43.6069C21.9678 43.3247 22.0129 43.1027 21.9209 42.7823C21.8545 42.6935 21.7584 42.5421 21.6658 42.4721C21.0527 42.0092 18.6043 42.8973 17.7761 43.052C15.2871 43.5162 11.2529 42.896 8.97851 41.8533C6.25614 40.605 3.92404 38.6211 2.86884 35.7558C2.36923 34.5751 2.17182 33.4084 2 32.1432C2.0039 32.1114 2.00499 32.0789 2.01215 32.0477C2.1729 31.3279 3.15043 29.7952 3.76784 29.3531C3.91623 28.9688 4.07394 28.5848 4.2527 28.2135C5.12718 26.3979 6.78655 25.0268 8.6748 24.3633C12.9682 22.8544 17.8635 24.3616 21.7649 26.2508L22.819 26.7993L23.6792 27.2557C24.1079 27.4788 24.8763 27.9592 25.3824 27.8505C25.5581 27.8128 25.6616 27.7723 25.738 27.6074C25.9976 27.0471 25.6794 26.362 25.5021 25.8152Z" fill="#FFB8D0"/>
<path d="M36.1662 14C36.403 14.0925 36.6255 14.196 36.7882 14.434C36.9819 14.7172 37.0418 15.0915 36.9717 15.4448C36.8224 16.1998 36.4178 16.6189 35.8882 17C35.6858 16.9289 35.4812 16.8697 35.3096 16.7136C35.1214 16.5424 34.9976 16.2607 35 15.974C35.0065 15.1565 35.6812 14.4671 36.1662 14Z" fill="#FDFBFE"/>
<path d="M33.5286 29C33.7838 29.0043 34.0289 29.035 34.2816 29.0669C34.5476 29.2368 34.7379 29.3657 34.865 29.6546C35.1975 30.4091 34.8544 31.4214 34.497 32.1163C34.0021 33.0787 33.4627 33.629 32.3637 34C32.1803 33.9556 32.0145 33.8921 31.8449 33.8151C31.4297 33.6266 31.1545 33.4275 31 33.0244C31.5098 32.6476 32.1782 32.2361 32.5759 31.7678C33.2621 30.9602 32.8308 29.756 33.5286 29Z" fill="#FDFBFE"/>
<path d="M55.2676 25C55.4855 25.0028 55.7202 25.0006 55.9328 25.053C56.3138 25.1467 56.6738 25.4515 56.8488 25.7877C57.0368 26.1485 57.0409 26.5641 56.9084 26.9434C56.7093 27.5139 56.2917 27.7567 55.7557 28C55.5239 28.0004 55.267 27.9864 55.0438 27.9202C54.6717 27.8097 54.3115 27.5051 54.1402 27.1683C53.9559 26.8057 53.9625 26.3836 54.1062 26.0092C54.3165 25.4611 54.7518 25.2419 55.2676 25Z" fill="#FDFBFE"/>
<path d="M52.4804 52C52.68 52.0293 52.8869 52.056 53.0812 52.1131C53.4329 52.2163 53.7463 52.5281 53.8921 52.8714C54.0519 53.2475 54.0282 53.6559 53.8606 54.0249C53.6144 54.5665 53.1919 54.8028 52.6739 55C52.3413 54.9807 52.0644 54.962 51.7625 54.8024C51.4341 54.6287 51.1633 54.2702 51.0568 53.9065C50.9432 53.5184 51.0033 53.106 51.2083 52.7627C51.5105 52.2563 51.9454 52.1078 52.4804 52Z" fill="#FDFBFE"/>
<path d="M39.2971 36C39.5012 36.0623 39.6495 36.1416 39.8366 36.2487C39.9841 36.5393 40.0252 36.7263 39.986 37.0659C39.8955 37.851 39.3572 38.6206 38.8316 39.105C38.0275 39.8458 36.9834 40.1236 35.9645 39.95C34.719 39.7377 33.9041 38.9171 33.2026 37.799C33.1037 37.5242 33.0099 37.1843 33.0012 36.8849C32.9919 36.5539 33.0343 36.3529 33.2207 36.1044C34.1834 36.0808 34.2646 37.7835 34.8569 38.2926C35.5403 38.8804 36.6508 38.8201 37.4663 38.7817C38.5513 38.0633 38.8545 37.2826 39.2971 36Z" fill="#004B82"/>
<path d="M21.6612 56.0059C22.0531 55.9914 22.4733 55.9957 22.8408 56.1135C23.3366 56.2724 23.7344 56.5811 23.9081 56.9815C24.0748 57.3656 24.0084 57.7897 23.7604 58.1432C23.4196 58.629 22.9103 58.8298 22.2628 58.997C22.0018 59.0015 21.7351 59.0068 21.4782 58.9652C20.9526 58.8801 20.4713 58.6433 20.2086 58.2701C19.9491 57.9015 19.944 57.4959 20.1254 57.1055C20.397 56.5207 20.9687 56.2483 21.6612 56.0059Z" fill="#FDFBFE"/>
<path d="M29.4748 28.0207C29.7986 27.9867 30.1432 27.9841 30.4573 28.0946C30.5288 28.1196 30.5988 28.1489 30.6676 28.1827C30.7366 28.2165 30.8038 28.2547 30.8694 28.2971C30.935 28.3395 30.9986 28.3858 31.0602 28.4362C31.1218 28.4869 31.1812 28.5411 31.2382 28.5991C31.2951 28.657 31.3496 28.7186 31.4013 28.7835C31.453 28.8485 31.5019 28.9166 31.5479 28.9877C31.5939 29.059 31.6368 29.1329 31.6765 29.2093C31.7162 29.2858 31.7523 29.3649 31.7853 29.4461C31.8172 29.5256 31.8458 29.6068 31.871 29.6899C31.8961 29.7731 31.9176 29.8575 31.9354 29.9432C31.9532 30.0292 31.9675 30.1158 31.9781 30.2034C31.9885 30.2911 31.9952 30.3792 31.9982 30.4677C32.0012 30.5563 32.0005 30.6446 31.9961 30.7329C31.9915 30.8214 31.9832 30.9093 31.9712 30.9966C31.9592 31.0838 31.9435 31.1702 31.9241 31.2557C31.9047 31.341 31.8818 31.4248 31.8553 31.5073C31.6054 32.2638 31.1399 32.6709 30.5503 32.9942C30.1776 33.0046 29.8002 33.0188 29.4446 32.8615C28.8855 32.6138 28.4049 32.0936 28.1689 31.4226C28.1417 31.347 28.1177 31.2701 28.0971 31.1917C28.0763 31.1131 28.0588 31.0336 28.0447 30.953C28.0304 30.8725 28.0196 30.7913 28.0122 30.7092C28.0048 30.6271 28.0008 30.5451 28.0001 30.4626C27.9995 30.3801 28.0022 30.2978 28.0084 30.2157C28.0145 30.1336 28.0241 30.0522 28.0369 29.9712C28.0498 29.8902 28.066 29.8103 28.0856 29.7315C28.1052 29.6524 28.1279 29.5749 28.1539 29.4988C28.4167 28.7387 28.8758 28.3404 29.4748 28.0207Z" fill="#004B82"/>
<path d="M29.6561 29C30.0114 29.0033 30.3812 29.0513 30.6646 29.2701C30.8895 29.4437 31.0152 29.69 30.9985 29.9647C30.9706 30.4311 30.6592 30.7098 30.303 30.9939C29.9306 31.0129 29.6072 31.001 29.3133 30.754C29.0858 30.563 28.9855 30.2982 29.0017 30.0156C29.0292 29.5305 29.2921 29.2987 29.6561 29Z" fill="#FDFBFE"/>
<path d="M42.7751 27.021C43.3202 26.9828 43.86 27.0053 44.4058 27.0217C44.9351 27.3427 45.3367 27.6158 45.6384 28.142C45.6881 28.227 45.7327 28.314 45.7726 28.4033C45.8123 28.4925 45.847 28.5835 45.8766 28.676C45.9061 28.7687 45.9304 28.8625 45.9494 28.9573C45.9686 29.0523 45.9823 29.1479 45.9904 29.2444C45.9988 29.3406 46.0017 29.437 45.999 29.5335C45.9966 29.6301 45.9887 29.7263 45.9752 29.822C45.9617 29.9178 45.9432 30.0128 45.9192 30.1068C45.8951 30.2007 45.866 30.2933 45.8315 30.3844C45.5203 31.1946 44.9573 31.6276 44.135 31.9675C43.7336 32.0127 43.3314 32.0226 42.9379 31.919C42.849 31.8952 42.7618 31.8672 42.6762 31.8348C42.5908 31.8025 42.5071 31.766 42.4257 31.7255C42.3442 31.6849 42.2652 31.6405 42.1889 31.5924C42.1125 31.5441 42.039 31.4921 41.9686 31.4366C41.8982 31.3811 41.8311 31.3223 41.7673 31.2603C41.7036 31.1983 41.6437 31.1331 41.5875 31.065C41.5312 30.997 41.4789 30.9264 41.4305 30.8533C41.3822 30.7802 41.3383 30.7048 41.2988 30.6274C40.9377 29.9311 40.8971 29.0728 41.214 28.3562C41.5281 27.6457 42.0317 27.3085 42.7751 27.021Z" fill="#004B82"/>
<path d="M41.9523 28C42.0226 28.0015 42.093 28.0014 42.1633 28.0049C42.7378 28.0332 43.2472 28.1698 43.6129 28.4359C43.9197 28.6592 44.0526 28.9297 43.9811 29.2142C43.8864 29.5919 43.5256 29.7822 43.026 30C42.3748 29.9714 41.8212 29.8936 41.3778 29.5944C41.3445 29.5724 41.3132 29.5493 41.2836 29.5252C41.2544 29.5013 41.2271 29.4766 41.2019 29.451C41.1769 29.4254 41.1539 29.3992 41.1333 29.3723C41.1126 29.3455 41.0942 29.3181 41.0782 29.29C41.0624 29.262 41.0486 29.2338 41.0374 29.205C41.0262 29.1762 41.0176 29.1471 41.0116 29.1178C41.0053 29.0885 41.0015 29.0591 41.0004 29.0296C40.9992 29.0002 41.0007 28.9707 41.0044 28.9413C41.0541 28.5145 41.436 28.275 41.9523 28Z" fill="#FDFBFE"/>
<path d="M34.339 10.0277C35.184 9.95736 35.9525 9.99065 36.6411 10.4914C36.908 10.6854 36.9451 10.8362 37 11.1286C36.4384 12.5021 34.3756 11.7027 32.6358 12.8449C30.954 13.9491 30.3499 15.5927 30.0076 17.3553C29.8699 17.5973 29.7468 17.8124 29.45 17.9306C29.18 18.038 28.8178 18.0138 28.551 17.9055C28.2714 17.7922 28.118 17.5478 28.0544 17.2896C27.7635 16.1069 28.7019 14.2369 29.3895 13.2392C30.5671 11.5304 32.1537 10.4787 34.339 10.0277Z" fill="#FDFBFE"/>
<path d="M52.5873 35.2065C55.9545 36.109 59.2128 36.6211 62.1121 33.9094C62.7303 33.3311 63.2749 32.3394 64.0035 32C64.1833 32.0098 64.298 31.978 64.4524 32.1043C64.8475 32.4271 64.9257 32.9204 65 33.4442C63.4959 35.853 60.9254 37.3807 58.4484 37.8122C57.1662 38.0355 55.8001 38.0494 54.5101 37.908C53.8481 37.7282 52.9509 37.5715 52.3917 37.0902C52.1513 36.8835 51.9992 36.5921 52 36.2361C52.001 35.8254 52.3613 35.4789 52.5873 35.2065Z" fill="#047B88"/>
<path d="M60.1161 24C60.8065 24.2333 61.4111 24.8617 61.8453 25.4694C62.7246 26.699 63.1479 28.4357 62.9534 29.9619C62.7508 31.5508 61.8811 33.0216 60.679 33.9699C59.3462 35.0214 58.0311 35.143 56.452 34.884C55.7196 34.6801 55.064 34.4207 54.456 33.9183C54.1655 33.678 54.0536 33.5003 54 33.115C54.4748 32.0619 57.1409 32.1338 58.1587 31.6817C58.8499 31.3745 59.3931 30.8851 59.816 30.2274C61.4815 27.6364 59.4513 25.791 60.1161 24Z" fill="#FDFBFE"/>
<path d="M52.754 44C54.1643 44.9291 55.5331 46.0361 56.6538 47.3177C57.151 48.4212 58.074 49.4224 58.6553 50.5128C59.8472 52.748 60.4044 55.2196 59.6694 57.7141C59.1231 59.5687 57.8576 61.309 56.1523 62.1977C54.4577 63.0806 52.1065 63.2561 50.3094 62.618C48.6059 62.0132 47.2341 60.5588 46.454 58.9211C46.2017 58.3917 45.8377 57.6149 46.0793 57.0301C46.1464 56.8674 46.2426 56.868 46.3884 56.7999C47.1876 57.0261 48.3428 58.2031 49.1297 58.6818C50.3978 59.4535 52.2528 59.7509 53.6587 59.3237C54.7369 58.9959 55.6837 58.2574 56.194 57.2225C56.5962 56.4066 56.692 55.4538 56.6731 54.5511C56.5867 50.4507 53.9691 47.6772 52.754 44Z" fill="#FDFBFE"/>
<path d="M18.562 50C18.8709 50.013 18.9031 49.983 19.125 50.1842C19.2149 50.8693 18.7032 51.48 18.3901 52.0572C17.0516 54.5228 16.6794 57.6481 17.5232 60.3188C18.0066 61.8484 18.9105 63.2307 20.4221 63.9745C21.8116 64.6585 23.751 64.66 25.2218 64.1792C27.5554 63.4164 27.7999 61.6311 28.8701 59.8538C29.0259 59.595 29.1213 59.4034 29.4203 59.319C29.6055 59.4578 29.6619 59.5326 29.7464 59.7431C30.3307 61.2 29.802 62.7488 29.2011 64.1059C28.5971 65.1585 27.8461 66.0228 26.8272 66.7213C25.135 67.8818 23.18 68.2122 21.1532 67.8744C21.0149 67.8518 20.8775 67.8259 20.7405 67.7966C20.6036 67.7672 20.4676 67.7348 20.3324 67.6989C20.1973 67.663 20.063 67.6239 19.9296 67.5817C19.7965 67.5393 19.6645 67.4938 19.5336 67.4451C19.4027 67.3966 19.2732 67.3449 19.145 67.2898C19.0166 67.2348 18.8899 67.177 18.7646 67.1161C18.6393 67.055 18.5159 66.991 18.3937 66.924C18.2718 66.8571 18.1516 66.7872 18.0331 66.7144C17.9147 66.6415 17.7982 66.566 17.6837 66.4878C17.5691 66.4092 17.4566 66.3281 17.3461 66.2444C17.2356 66.1607 17.1276 66.0743 17.0216 65.9854C16.9156 65.8964 16.812 65.8049 16.7107 65.7109C16.6092 65.6167 16.5104 65.5204 16.414 65.4216C16.3176 65.3229 16.2239 65.222 16.1327 65.1187C16.0415 65.0154 15.953 64.9101 15.8671 64.8025C15.7813 64.6948 15.6983 64.5854 15.6181 64.4738C14.0862 62.3507 13.7218 59.6487 14.1915 57.1309C14.6727 54.5524 16.3241 51.5272 18.562 50Z" fill="#FDFBFE"/>
<path d="M3.28427 29.5031C3.4312 29.1259 3.58736 28.7489 3.76437 28.3844C4.63026 26.6021 6.27332 25.2561 8.14301 24.6048C12.3943 23.1236 17.2414 24.6031 21.1045 26.4577L22.1483 26.9961L23 27.4442C22.2185 28.0064 21.2096 28.2845 20.2765 28.4897C18.8435 28.7918 17.3952 28.9756 15.9315 29.0413C11.656 29.243 6.90722 29.023 6.07527 34.4141C5.81836 36.079 6.12575 37.4684 6.78263 39C4.75119 37.6087 4.83797 36.9987 3.58736 35.17C2.8351 33.2644 2.88817 31.4787 3.28427 29.5031Z" fill="#FDFBFE"/>
</svg>
