<svg width="69" height="76" viewBox="0 0 69 76" fill="none" xmlns="http://www.w3.org/2000/svg">
<path d="M11.8952 44.7637C12.2627 44.7725 12.624 44.8252 12.9888 44.8677C13.4856 45.2666 13.5104 45.2582 13.6454 45.8755C12.9649 47.8528 8.30965 51.4844 6.6112 53.1549C5.95414 53.232 5.63845 53.1324 5.03496 52.9128C4.83261 52.6577 4.78168 52.4629 4.84234 52.1215C5.23375 49.9157 10.1356 46.0468 11.8952 44.7637Z" fill="#DE1585"/>
<path d="M3.69303 35.1337C5.68547 34.9371 7.92984 34.7148 9.87092 35.2899C10.8025 35.5658 11.6323 35.9736 12.0989 36.8596C12.0715 37.181 12.1383 37.3191 11.8767 37.552C11.1182 38.2277 10.0595 38.179 9.10849 38.1671C6.50768 38.0271 2.53431 38.7989 0.260704 37.4383C-0.0518884 36.9224 -0.0399315 36.9459 0.0720882 36.3517C0.944336 35.3072 2.43425 35.3024 3.69303 35.1337Z" fill="#DE1585"/>
<path d="M54.0071 43.431C54.6899 43.4248 55.2606 43.5098 55.9203 43.6896C58.5889 44.4162 64.8522 46.2687 66.2013 48.6012C66.2048 49.2516 66.1057 49.3977 65.7895 49.9773C65.7466 49.9729 65.7041 49.968 65.6616 49.9649C62.4785 49.709 58.5021 47.9454 55.567 46.6742C54.731 46.3121 53.6932 45.949 53.3323 45.0462C53.2907 44.3825 53.6596 43.9588 54.0071 43.431Z" fill="#DE1585"/>
<path d="M3.81181 22.2422C6.84077 22.4751 9.97599 23.4248 12.8119 24.4715C14.018 24.9169 15.6275 25.4354 16.2026 26.6698C16.1145 27.3964 16.037 27.4814 15.5739 28.0579C12.8429 27.8782 7.70461 26.3564 5.10823 25.3451C4.12175 24.9608 3.48417 24.6637 3.05469 23.6648C3.17601 22.9382 3.31724 22.7438 3.81181 22.2422Z" fill="#DE1585"/>
<path d="M19.8646 50.9102C20.0837 50.9912 20.4171 51.0877 20.6164 51.2245C21.1592 51.5982 21.2181 51.7793 21.412 52.3757C21.2238 54.1676 15.9036 62.5044 14.4903 63.9509C14.0688 63.9319 13.8208 63.8402 13.4294 63.6968C13.0247 63.1677 12.9189 63.0742 12.9548 62.3791C13.0495 60.5252 18.2843 52.4209 19.8646 50.9102Z" fill="#DE1585"/>
<path d="M27.2934 57.8443C27.6198 57.8262 28.0488 57.7659 28.3663 57.8319C29.0069 57.9643 29.0937 58.1715 29.4417 58.6736C29.5945 60.5739 28.1094 70.0708 27.3687 71.884C26.8192 71.8578 26.4455 71.8012 25.9372 71.5864C25.3457 70.9838 25.1473 70.468 25.0305 69.6294C24.6328 66.774 25.5985 60.1843 27.2934 57.8443Z" fill="#DE1585"/>
<path d="M57.9301 31.8341C60.5818 31.6565 63.551 31.5777 66.181 31.9408C67.0905 32.0665 67.8653 32.2082 68.4307 32.9685C68.3347 33.467 68.2704 33.6671 67.8569 34.0214C66.6411 35.0632 64.2178 34.7962 62.7346 34.8024C59.7942 34.832 56.5704 35.1185 53.6592 34.7785C52.6537 34.6611 52.2277 34.4468 51.6065 33.6446C51.5959 33.3886 51.51 33.1345 51.6853 32.9237C52.7143 31.6875 56.3787 31.8841 57.9301 31.8341Z" fill="#DE1585"/>
<path d="M9.79622 9.73926C10.2558 9.7428 10.7818 9.73306 11.2162 9.89732C13.3751 10.7133 21.1244 18.1168 22.2494 20.2146C22.3176 20.8642 21.9603 21.2751 21.6243 21.7936C21.3643 21.7909 20.9973 21.8086 20.7414 21.7227C19.12 21.1777 10.2859 12.8842 9.6408 11.3292C9.36319 10.6607 9.53543 10.3866 9.79622 9.73926Z" fill="#DE1585"/>
<path d="M45.9536 52.1895C46.2179 52.2244 46.4699 52.2435 46.7214 52.3484C47.9133 52.8456 56.1461 65.0026 56.3781 66.5173C56.4883 67.2364 56.2979 67.3785 55.9149 67.9581C55.6674 67.9355 55.2933 67.9258 55.0524 67.8284C53.4846 67.1965 45.6795 55.8122 45.2319 54.0061C45.0689 53.3495 45.6131 52.7181 45.9536 52.1895Z" fill="#DE1585"/>
<path d="M29.6458 0.0254987C30.07 0.00823084 30.8523 -0.0519697 31.2517 0.107869C31.5368 0.222102 31.7777 0.37927 31.8809 0.674595C32.383 2.11225 31.6728 16.7178 30.9736 18.1346C30.8864 18.1514 30.7992 18.1714 30.7111 18.1851C29.9818 18.2998 29.679 18.2794 29.1109 17.8437C28.0346 15.3859 28.8121 2.88754 29.6458 0.0254987Z" fill="#DE1585"/>
<path d="M61.3969 15.3659C61.5342 15.357 61.671 15.3393 61.8082 15.3389C62.321 15.338 62.7097 15.3517 63.0068 15.8313C63.3043 16.3108 63.2122 16.6442 63.1091 17.1476C61.8928 18.5007 51.0282 23.0209 48.3486 24.2863C48.2817 24.3062 48.2166 24.3355 48.1476 24.3461C47.6357 24.4258 47.2722 24.459 46.8861 24.0596C46.4633 23.6226 46.5058 23.3901 46.5598 22.8433C48.6506 19.635 57.6741 16.7194 61.3969 15.3659Z" fill="#DE1585"/>
<path d="M37.2317 56.6846C37.6528 56.7018 38.1678 56.6894 38.5463 56.894C38.9771 57.1269 39.1923 57.5608 39.3336 58.0067C39.8587 59.6608 42.2075 73.2989 42.2146 74.8707C42.2164 75.3033 42.0384 75.6279 41.8423 76.0002L40.7663 75.9705C40.0021 75.557 39.7227 75.0544 39.3951 74.2739C37.9964 70.9376 35.9924 59.8636 37.2317 56.6846Z" fill="#DE1585"/>
<path d="M53.5811 2.66309C53.8596 2.73127 54.2408 2.85128 54.4733 3.01289C54.9793 3.36621 55.0263 3.65889 55.1139 4.2119C54.5344 5.64558 42.5567 15.3289 40.4703 16.9728C40.2618 16.9055 39.8381 16.8046 39.6464 16.6687C39.1859 16.3428 39.2125 16.1263 39.1465 15.6118C40.1998 12.6174 50.5012 4.25217 53.5811 2.66309Z" fill="#DE1585"/>
<path d="M30.821 25.7976C33.6144 25.6984 35.958 25.9512 38.4556 27.2809C41.3796 28.8376 43.6568 31.4464 44.556 34.6662C45.4748 37.9555 44.854 41.5366 43.1317 44.4553C41.0803 47.9314 38.0067 49.6042 34.2113 50.5907C31.6082 51.0875 28.5098 50.3609 26.2185 49.0711C23.3777 47.4723 21.4884 44.6864 20.668 41.5742C20.6135 41.3723 20.5643 41.1691 20.5201 40.9645C20.4762 40.76 20.4373 40.5545 20.4032 40.3482C20.3691 40.1419 20.3403 39.9347 20.3164 39.727C20.2929 39.5194 20.2743 39.3108 20.2611 39.1023C20.2478 38.8933 20.2398 38.6843 20.2367 38.4753C20.2336 38.2659 20.2358 38.0569 20.2433 37.8479C20.2509 37.6389 20.2633 37.4304 20.281 37.2218C20.2991 37.0133 20.3222 36.8056 20.35 36.598C20.3779 36.3908 20.4112 36.1844 20.4497 35.979C20.4882 35.7731 20.5316 35.5686 20.5803 35.3653C20.6286 35.1621 20.6821 34.9598 20.741 34.7587C20.7999 34.5582 20.8632 34.3589 20.9319 34.161C21.0005 33.9635 21.0735 33.7678 21.1519 33.5739C21.2303 33.3795 21.3131 33.1878 21.4007 32.9978C21.4884 32.8079 21.5809 32.6206 21.6779 32.4351C21.7749 32.25 21.8767 32.0672 21.983 31.8869C23.9891 28.5414 27.1275 26.7172 30.821 25.7976Z" fill="#DE1585"/>
<path d="M30.8759 29.578C32.7142 29.4669 34.2896 29.4191 36.0323 30.1634C36.1603 30.2192 36.2864 30.2781 36.4113 30.3405C36.5362 30.4029 36.6593 30.4685 36.7806 30.5371C36.9019 30.6057 37.0214 30.6779 37.1392 30.7527C37.257 30.8275 37.3725 30.9055 37.4863 30.9865C37.5997 31.0675 37.7113 31.1512 37.8206 31.238C37.93 31.3248 38.0367 31.4142 38.1412 31.5067C38.2457 31.5988 38.348 31.6936 38.4476 31.7914C38.5472 31.8893 38.6446 31.9894 38.7389 32.0921C38.8332 32.1944 38.9249 32.2993 39.0139 32.4069C39.1029 32.5145 39.1892 32.6238 39.2725 32.7359C39.3557 32.8479 39.4358 32.9617 39.5133 33.0781C39.5908 33.1941 39.6647 33.3119 39.736 33.4319C39.8073 33.5519 39.8755 33.6736 39.9406 33.7972C40.0052 33.9207 40.0668 34.0456 40.1252 34.1726C40.1837 34.2993 40.2386 34.4272 40.2904 34.557C40.3422 34.6867 40.3909 34.8173 40.4356 34.9493C41.2733 37.3375 41.1617 40.146 39.9942 42.4059C38.7748 44.7667 36.7766 46.1508 34.3042 46.9655C32.5331 47.2479 30.9485 47.2466 29.2558 46.5736C29.1194 46.5187 28.9844 46.4603 28.8506 46.3987C28.7174 46.3372 28.5854 46.2721 28.4552 46.2039C28.3251 46.1353 28.1967 46.0635 28.07 45.9887C27.9434 45.9139 27.819 45.8355 27.6964 45.7541C27.5737 45.6726 27.4537 45.588 27.3355 45.5008C27.2173 45.4131 27.1013 45.3224 26.9879 45.2289C26.8741 45.1355 26.763 45.0394 26.6545 44.9403C26.546 44.8411 26.4398 44.7392 26.3362 44.6347C26.233 44.5298 26.132 44.4227 26.0342 44.3133C25.9363 44.2035 25.8412 44.0915 25.7491 43.9768C25.657 43.8621 25.568 43.7452 25.4816 43.6261C25.3953 43.507 25.3121 43.3857 25.2319 43.2622C25.1518 43.1386 25.0752 43.0133 25.0017 42.8858C24.9277 42.7587 24.8573 42.6295 24.7905 42.4984C24.7236 42.3678 24.6603 42.2349 24.5996 42.1008C24.5399 41.9666 24.4832 41.8307 24.4296 41.6939C23.5441 39.4074 23.6844 36.6942 24.7577 34.4959C26.0147 31.9225 28.2286 30.4498 30.8759 29.578Z" fill="#FDFBFE"/>
<path d="M31.9994 33.1104C32.9532 33.0617 33.8511 33.121 34.745 33.4898C35.9671 33.9937 36.9447 34.9328 37.437 36.1677C38.006 37.5943 37.9002 39.2205 37.2329 40.5949C36.4395 42.2278 35.1085 43.139 33.4229 43.6858C32.413 43.7288 31.5084 43.6965 30.5622 43.3006C30.405 43.236 30.2518 43.1634 30.1026 43.0832C29.953 43.0031 29.8078 42.9154 29.6674 42.8202C29.527 42.725 29.3915 42.6232 29.2614 42.5143C29.1312 42.4054 29.0068 42.2902 28.8886 42.1685C28.7704 42.0467 28.6583 41.9197 28.553 41.7868C28.4476 41.6535 28.3493 41.5154 28.2581 41.3724C28.1669 41.2294 28.0832 41.0824 28.007 40.9305C27.9304 40.7786 27.8622 40.6237 27.802 40.4652C27.253 39.0643 27.369 37.438 28.0424 36.0999C28.9067 34.3838 30.2297 33.6519 31.9994 33.1104Z" fill="#DE1585"/>
<path d="M31.0519 35.9049C32.0229 35.8686 32.8752 35.8584 33.6412 36.5464C34.0061 36.8736 34.2062 37.2823 34.2443 37.7685C34.3328 38.8993 33.6881 39.5723 32.9748 40.3463C32.9053 40.356 32.8363 40.3688 32.7667 40.3755C31.9215 40.4583 31.1697 40.4308 30.5042 39.818C29.9778 39.3332 29.783 38.7913 29.7852 38.074C29.7883 37.084 30.374 36.5208 31.0519 35.9049Z" fill="#FDFBFE"/>
</svg>
