<svg width="440" height="400" viewBox="0 0 440 400" fill="none" xmlns="http://www.w3.org/2000/svg">
<path d="M14.9671 288.322C14.7886 289.169 14.3295 289.836 13.5643 290.324C12.7992 290.812 12.0085 290.966 11.1668 290.761C10.3252 290.555 9.66203 290.093 9.17743 289.323L0.531194 275.689C0.0465965 274.918 -0.106435 274.122 0.0721009 273.275C0.250637 272.428 0.735236 271.76 1.50039 271.272L37.8962 247.907C38.6614 247.419 39.452 247.265 40.2937 247.445C41.1354 247.624 41.7985 248.112 42.2831 248.883C42.7677 249.653 42.9207 250.449 42.7422 251.296C42.5636 252.143 42.079 252.811 41.3139 253.299L9.33046 273.84C8.84586 274.148 8.5143 274.61 8.41228 275.175C8.28475 275.74 8.38677 276.279 8.74384 276.819L14.508 285.908C14.9926 286.678 15.1456 287.474 14.9671 288.322Z" fill="#4AB238"/>
<path d="M79.2147 296.255C79.8523 296.897 80.1584 297.668 80.1584 298.541C80.1584 299.414 79.8268 300.158 79.1892 300.8L56.2346 323.447C54.8063 324.859 53.225 325.886 51.5161 326.579C49.7818 327.273 48.0219 327.606 46.2366 327.581C44.3747 327.555 42.5893 327.195 40.8805 326.502C39.1717 325.809 37.6158 324.756 36.2641 323.37C34.9123 321.983 33.8921 320.417 33.2545 318.697C32.5913 316.976 32.2598 315.205 32.2598 313.382C32.3108 311.559 32.6679 309.787 33.3565 308.092C34.0451 306.398 35.0908 304.857 36.4681 303.496L59.6013 280.67C60.2389 280.028 61.004 279.72 61.8712 279.72C62.7384 279.72 63.478 280.054 64.1157 280.695C64.7533 281.337 65.0594 282.108 65.0594 282.981C65.0594 283.854 64.7278 284.598 64.0647 285.24L40.8805 308.092C39.3247 309.633 38.585 311.43 38.6105 313.484C38.534 315.538 39.2482 317.361 40.753 318.902C42.3088 320.494 44.0941 321.264 46.1601 321.213C47.1548 321.187 48.124 320.982 49.0931 320.622C50.0623 320.237 50.9295 319.647 51.7457 318.851L74.7258 296.178C75.3634 295.536 76.1286 295.228 76.9958 295.228C77.8119 295.28 78.5771 295.613 79.2147 296.255Z" fill="#4AB238"/>
<path d="M114.922 323.37C115.687 323.857 116.146 324.525 116.324 325.372C116.503 326.22 116.375 327.016 115.891 327.735L92.5026 364.324C91.8395 365.351 90.8448 365.838 89.4675 365.761C88.6003 365.684 87.8862 365.299 87.3251 364.632C86.764 363.938 86.5344 363.168 86.6109 362.295L89.646 329.455C89.697 328.941 89.544 328.659 89.1614 328.582C88.7789 328.505 88.4983 328.582 88.3453 328.864L73.5268 352.05C73.0422 352.821 72.3791 353.283 71.5374 353.462C70.6957 353.642 69.8796 353.488 69.1399 353C68.3748 352.512 67.9157 351.845 67.7371 350.997C67.5586 350.15 67.7116 349.354 68.1962 348.584L91.6099 311.995C92.069 311.276 92.7322 310.814 93.5738 310.634C94.4155 310.454 95.2062 310.608 95.9713 311.096C96.5069 311.43 96.8895 311.918 97.1701 312.508C97.4251 313.099 97.5016 313.715 97.3741 314.332L94.5175 346.145C94.4665 346.889 94.6705 347.274 95.1296 347.351C95.5632 347.428 95.9203 347.249 96.2008 346.812L110.637 324.268C111.096 323.549 111.759 323.087 112.601 322.907C113.442 322.728 114.182 322.856 114.922 323.37Z" fill="#4AB238"/>
<path d="M143.717 372.129C144.558 372.437 145.17 373.002 145.528 373.772C145.885 374.543 145.91 375.39 145.604 376.237C144.941 378.086 143.972 379.652 142.722 380.987C141.472 382.323 139.993 383.375 138.335 384.146C136.728 384.89 134.994 385.301 133.158 385.404C131.321 385.507 129.485 385.198 127.674 384.531C125.838 383.863 124.282 382.888 122.955 381.629C121.629 380.371 120.584 378.908 119.767 377.264C119.028 375.595 118.62 373.824 118.492 372.001C118.39 370.178 118.671 368.329 119.334 366.506L126.756 346.067C127.419 344.219 128.388 342.627 129.638 341.292C130.888 339.931 132.341 338.878 133.974 338.133C135.632 337.389 137.391 336.978 139.202 336.85C141.013 336.747 142.849 337.029 144.66 337.697C146.497 338.365 148.078 339.34 149.404 340.598C150.756 341.857 151.802 343.32 152.541 344.963C153.332 346.607 153.791 348.353 153.893 350.227C153.995 352.076 153.715 353.924 153.026 355.748C152.72 356.595 152.159 357.211 151.394 357.571C150.603 357.93 149.787 357.956 148.945 357.648C148.104 357.339 147.491 356.775 147.134 356.004C146.777 355.208 146.752 354.387 147.058 353.539C147.415 352.564 147.568 351.562 147.491 350.535C147.415 349.508 147.211 348.558 146.803 347.634C146.395 346.761 145.834 345.965 145.068 345.246C144.303 344.527 143.462 343.988 142.467 343.628C141.498 343.269 140.503 343.115 139.483 343.192C138.463 343.269 137.544 343.5 136.652 343.911C134.739 344.809 133.413 346.273 132.673 348.276L125.225 368.765C124.486 370.82 124.562 372.771 125.48 374.62C126.271 376.52 127.699 377.829 129.74 378.6C131.806 379.37 133.77 379.293 135.606 378.368C136.473 377.958 137.264 377.393 137.952 376.648C138.641 375.904 139.177 375.056 139.534 374.081C139.84 373.233 140.401 372.617 141.166 372.257C141.931 371.898 142.875 371.821 143.717 372.129Z" fill="#4AB238"/>
<path d="M198.706 350.484C199.598 350.613 200.312 350.998 200.848 351.691C201.384 352.384 201.588 353.18 201.46 354.079L195.875 397.19C195.747 398.088 195.364 398.807 194.676 399.346C193.987 399.886 193.197 400.091 192.304 399.963C191.411 399.834 190.697 399.449 190.161 398.756C189.626 398.063 189.422 397.267 189.549 396.368L191.641 380.14C191.717 379.55 191.59 379.011 191.233 378.549C190.876 378.061 190.391 377.778 189.779 377.701L178.021 376.161C177.383 376.084 176.848 376.238 176.389 376.597C175.93 376.982 175.675 377.444 175.598 378.035L173.507 394.263C173.379 395.161 172.996 395.88 172.308 396.419C171.619 396.959 170.829 397.164 169.936 397.036C169.043 396.907 168.329 396.522 167.793 395.829C167.258 395.136 167.054 394.34 167.181 393.441L172.741 350.33C172.869 349.431 173.252 348.712 173.94 348.173C174.629 347.634 175.419 347.429 176.312 347.557C177.205 347.685 177.919 348.071 178.455 348.764C178.99 349.457 179.194 350.253 179.067 351.152L176.975 367.379C176.899 367.97 177.026 368.509 177.383 368.971C177.74 369.459 178.225 369.742 178.837 369.819L190.595 371.359C191.233 371.436 191.768 371.308 192.227 370.923C192.686 370.537 192.941 370.075 193.018 369.485L195.109 353.257C195.237 352.359 195.62 351.64 196.308 351.1C196.997 350.587 197.787 350.381 198.706 350.484Z" fill="#4AB238"/>
<path d="M283.204 369.998C284.097 370.897 284.837 371.873 285.449 372.977C286.061 374.055 286.52 375.211 286.826 376.392C287.464 378.857 287.438 381.296 286.749 383.684C286.418 384.891 285.933 386.046 285.296 387.099C284.658 388.152 283.918 389.127 283.077 390C281.342 391.721 279.225 392.927 276.777 393.569L264.586 396.779C263.718 397.01 262.902 396.907 262.163 396.471C261.423 396.034 260.938 395.367 260.709 394.494L255.225 373.439L249.767 352.436C249.538 351.511 249.665 350.664 250.175 349.868C250.685 349.072 251.399 348.61 252.292 348.456L260.683 346.248C263.132 345.606 265.529 345.606 267.901 346.248C270.35 346.864 272.467 348.071 274.226 349.868C276.037 351.794 277.236 353.925 277.848 356.261C278.46 358.598 278.435 361.012 277.772 363.553C277.746 363.81 277.67 364.016 277.593 364.195C277.491 364.375 277.44 364.581 277.389 364.786C277.313 365.043 277.313 365.325 277.389 365.633C277.491 366.07 277.772 366.481 278.18 366.84C280.093 367.431 281.751 368.509 283.204 369.998ZM260.071 366.635C260.224 367.2 260.556 367.662 261.04 367.97C261.55 368.278 262.112 368.355 262.724 368.201C263.948 367.867 265.172 367.533 266.396 367.2C267.621 366.866 268.717 366.224 269.687 365.3C270.681 364.272 271.37 363.143 271.727 361.859C272.084 360.498 272.084 359.163 271.727 357.828C271.395 356.518 270.732 355.337 269.763 354.336C268.819 353.411 267.672 352.744 266.294 352.359C264.994 351.999 263.642 351.999 262.29 352.359L258.821 353.283C258.209 353.437 257.75 353.796 257.47 354.31C257.189 354.823 257.113 355.388 257.266 355.953L260.071 366.635ZM280.679 382.066C281.036 380.705 281.036 379.345 280.679 378.035C280.348 376.7 279.685 375.544 278.715 374.517C277.772 373.542 276.624 372.874 275.323 372.515C274.022 372.155 272.671 372.155 271.319 372.515L264.305 374.363C263.693 374.517 263.234 374.877 262.953 375.39C262.673 375.904 262.596 376.469 262.749 377.034L265.529 387.766C265.682 388.331 266.014 388.768 266.498 389.076C266.983 389.358 267.544 389.435 268.156 389.281L275.196 387.51C275.859 387.33 276.471 387.073 277.058 386.739C277.644 386.406 278.18 385.995 278.664 385.533C279.659 384.531 280.322 383.401 280.679 382.066Z" fill="#4AB238"/>
<path d="M315.928 329.147C317.663 329.66 319.27 330.533 320.672 331.689C322.101 332.87 323.248 334.334 324.141 336.054L333.986 355.131C334.904 356.903 335.44 358.726 335.593 360.601C335.746 362.475 335.542 364.272 335.006 365.993C334.445 367.764 333.578 369.382 332.43 370.846C331.283 372.309 329.829 373.464 328.094 374.363C326.36 375.262 324.6 375.775 322.789 375.904C320.978 376.032 319.193 375.827 317.433 375.313C315.699 374.723 314.143 373.85 312.715 372.694C311.312 371.539 310.139 370.101 309.246 368.355L299.299 349.046C298.406 347.3 297.896 345.529 297.743 343.68C297.616 341.831 297.794 340.059 298.355 338.339C298.942 336.593 299.809 335.027 300.957 333.589C302.105 332.177 303.533 330.996 305.267 330.097C307.002 329.198 308.761 328.685 310.598 328.531C312.46 328.402 314.22 328.608 315.928 329.147ZM318.504 339.032C318.02 338.108 317.382 337.312 316.592 336.67C315.801 336.028 314.934 335.54 314.016 335.207C313.097 334.924 312.128 334.796 311.108 334.873C310.088 334.95 309.093 335.232 308.175 335.72C307.257 336.208 306.466 336.85 305.828 337.646C305.191 338.442 304.732 339.289 304.451 340.213C303.813 342.242 303.992 344.193 304.961 346.093L314.934 365.453C315.928 367.405 317.408 368.637 319.397 369.202C321.336 369.895 323.248 369.716 325.187 368.714C327.151 367.687 328.4 366.172 328.962 364.195C329.242 363.245 329.319 362.244 329.242 361.191C329.166 360.164 328.86 359.137 328.349 358.11L318.504 339.032Z" fill="#4AB238"/>
<path d="M366.555 283.982C367.346 283.571 368.137 283.469 368.978 283.7C369.82 283.931 370.458 284.444 370.866 285.24L392.52 324.448C392.953 325.244 393.03 326.04 392.8 326.887C392.571 327.735 392.061 328.377 391.27 328.788C390.683 329.096 390.097 329.224 389.51 329.198C388.923 329.173 388.413 328.967 387.98 328.633L364.056 313.048C363.75 312.842 363.418 312.894 363.087 313.202C362.755 313.51 362.704 313.844 362.908 314.203L376.757 339.289C377.191 340.085 377.268 340.881 377.038 341.728C376.808 342.576 376.298 343.218 375.508 343.629C374.921 343.937 374.335 344.065 373.748 344.039C373.161 344.014 372.651 343.808 372.218 343.475L334.802 319.185C334.062 318.697 333.577 318.029 333.399 317.182C333.22 316.334 333.373 315.513 333.832 314.768C334.317 314.024 334.98 313.536 335.822 313.356C336.663 313.176 337.48 313.33 338.219 313.792L362.73 329.686C363.036 329.892 363.316 329.866 363.571 329.635C363.826 329.404 363.852 329.121 363.673 328.788L349.569 303.214C349.263 302.7 349.11 302.135 349.11 301.545C349.11 300.954 349.288 300.389 349.62 299.902C350.105 299.157 350.768 298.669 351.609 298.489C352.451 298.31 353.267 298.464 354.007 298.926L378.466 314.871C378.721 314.999 379.002 314.974 379.308 314.768C379.614 314.563 379.691 314.306 379.512 313.972L365.306 288.296C364.872 287.5 364.796 286.704 365.025 285.857C365.28 285.035 365.79 284.419 366.555 283.982Z" fill="#4AB238"/>
<path d="M426.518 274.559C427.36 274.354 428.151 274.508 428.916 274.97C429.681 275.458 430.14 276.1 430.344 276.947C430.523 277.794 430.395 278.59 429.911 279.36L421.392 293.072C420.907 293.842 420.244 294.33 419.403 294.51C418.561 294.715 417.77 294.561 416.98 294.073L380.354 271.041C379.589 270.553 379.104 269.886 378.926 269.039C378.722 268.191 378.875 267.395 379.36 266.599C379.844 265.829 380.507 265.341 381.349 265.161C382.191 264.956 383.007 265.11 383.772 265.598L415.959 285.831C416.469 286.139 416.98 286.242 417.541 286.113C418.102 285.985 418.561 285.651 418.892 285.112L424.555 275.971C425.014 275.252 425.677 274.764 426.518 274.559Z" fill="#4AB238"/>
<path d="M165.422 145.021C165.422 122.683 165.371 100.344 165.473 78.0058C165.498 72.7164 165.677 67.3757 166.366 62.1377C167.488 53.5361 170.778 45.6278 174.986 38.0789C180.699 27.7826 188.734 19.6689 198.196 12.993C207.888 6.13738 218.804 2.20888 230.537 0.693964C233.674 0.28314 236.811 0.052053 239.973 0.000700094C247.038 -0.0763293 253.44 6.2144 253.517 13.3011C253.568 17.8972 253.287 22.4933 253.287 27.0637C253.287 30.6584 253.466 34.2274 253.491 37.8221C253.542 44.1642 253.542 50.532 253.542 56.8997C253.542 77.7747 253.542 98.624 253.517 119.499C253.517 126.483 253.287 133.493 253.287 140.477C253.262 154.547 253.287 168.644 253.338 182.714C253.389 193.781 253.542 204.873 253.491 215.94C253.466 220.716 253.185 225.491 252.751 230.216C252.598 231.833 251.706 233.4 251.119 234.966C250.941 235.454 250.609 235.89 250.405 236.378C248.033 242.566 244.233 247.83 239.565 252.4C235.587 256.303 230.664 258.794 225.64 261.079C218.064 264.52 210.183 264.93 202.149 263.57C186.897 260.976 176.415 252.015 169.426 238.484C166.442 232.681 165.677 226.39 165.677 219.971C165.677 194.988 165.677 169.979 165.677 144.996C165.575 145.021 165.498 145.021 165.422 145.021ZM194.702 102.501C194.625 102.501 194.574 102.501 194.498 102.501C194.498 109.793 194.472 117.111 194.498 124.429C194.523 128.255 194.6 132.08 194.702 135.906C194.753 137.96 196.13 138.808 198.043 138.166C198.579 137.986 199.191 137.986 199.777 137.986C206.919 137.986 214.06 138.012 221.202 137.986C224.109 137.986 224.696 137.395 224.721 134.468C224.747 131.053 224.747 127.638 224.798 124.223C224.874 116.572 224.925 108.92 225.027 101.269C225.104 95.6712 225.359 90.0994 225.333 84.5019C225.333 80.8045 224.874 77.1071 224.823 73.4097C224.67 60.8026 224.594 48.1954 224.492 35.5883C224.466 32.8152 223.701 32.353 221.355 33.6112C211.306 39.0032 202.94 46.1156 198.553 57.0538C196.844 61.2904 194.778 65.5013 194.727 70.1745C194.625 80.9329 194.702 91.717 194.702 102.501ZM194.702 202.306C194.702 202.306 194.6 202.306 194.549 202.306C194.549 208.134 194.498 213.963 194.574 219.791C194.6 221.434 194.574 223.206 195.212 224.644C197.966 231.012 206.434 237.251 214.315 233.682C219.085 231.525 222.987 228.624 224.186 223.283C224.798 220.613 225.002 217.788 225.002 215.041C225.002 200.149 224.874 185.256 224.798 170.338C224.798 168.284 224.288 167.848 222.273 167.848C213.678 167.848 205.057 167.873 196.462 167.848C195.161 167.848 194.676 168.361 194.702 169.619C194.753 171.905 194.727 174.19 194.727 176.501C194.702 185.128 194.702 193.73 194.702 202.306Z" fill="#4AB238"/>
<path d="M438.453 71.0728C440.238 73.4094 440.213 73.5634 437.892 75.3608C437.611 75.5662 437.254 75.7973 437.126 76.0797C436.54 77.5433 436.055 79.0839 435.469 80.5474C435.112 81.4718 434.703 82.3705 434.244 83.2691C433.632 84.4246 432.918 85.503 433.811 86.8638C433.964 87.0949 433.709 87.8395 433.428 88.122C431.617 89.9193 431.311 92.2559 430.954 94.5924C430.827 95.5425 430.725 96.6209 430.24 97.3912C429.092 99.1629 428.812 101.114 428.506 103.117C428.404 103.733 428.276 104.427 427.97 104.94C426.083 108.047 425.241 111.513 424.195 114.954C423.481 117.239 422.231 119.345 421.466 121.604C420.65 124.043 420.242 126.637 419.4 129.05C415.779 139.706 409.249 148.025 398.894 152.493C389.508 156.55 379.765 156.704 370.15 152.775C366.35 151.235 362.549 149.694 358.775 148.128C356.454 147.178 356.097 147.435 355.255 149.797C352.424 157.705 349.516 165.588 346.685 173.496C345.231 177.527 343.931 181.636 342.502 185.641C341.278 189.056 339.875 192.394 338.6 195.809C337.019 200.097 335.514 204.411 333.933 208.699C332.402 212.935 330.821 217.172 329.316 221.434C328.22 224.515 327.301 227.674 326.23 230.755C325.695 232.295 324.904 233.733 324.343 235.248C322.455 240.486 320.568 245.724 318.732 250.988C318.196 252.528 317.864 254.12 317.303 255.635C315.952 259.204 314.472 262.722 313.146 266.291C312.61 267.703 312.228 269.218 311.973 270.707C310.825 277.537 305.239 282.005 299.475 282.698C291.926 283.597 283.433 277.229 283.458 268.807C283.484 263.852 285.141 259.487 286.876 255.045C287.692 252.914 288.534 250.782 289.324 248.626C290.982 244.107 292.665 239.587 294.272 235.068C296.593 228.598 298.838 222.127 301.133 215.657C303.684 208.519 306.285 201.407 308.81 194.268C311.769 185.847 314.651 177.425 317.584 168.977C319.828 162.558 322.098 156.113 324.343 149.694C325.567 146.253 326.791 142.839 328.016 139.424C328.475 138.114 328.22 137.19 326.766 136.65C321.894 134.802 317.023 132.979 312.228 131.002C302.536 126.996 295.879 119.935 291.773 110.281C288.483 102.578 288.432 94.6952 290.319 86.7354C291.008 83.8854 292.257 81.215 293.252 78.4419C294.629 74.6161 295.93 70.7904 297.333 66.9902C299.985 59.7752 302.74 52.5857 305.392 45.3707C306.948 41.134 308.428 36.8461 309.932 32.5838C311.029 29.5026 312.049 26.3957 313.197 23.3146C315.008 18.359 318.553 15.2265 323.501 13.7373C328.322 12.2737 332.402 14.1994 335.999 17.2293C341.686 22.0051 342.426 26.8579 339.748 34.9974C336.942 43.4706 333.474 51.7127 330.438 60.1346C328.602 65.2186 326.995 70.3795 325.312 75.5148C323.144 82.088 320.823 88.6355 318.859 95.2857C317.89 98.5466 319.114 100.78 322.149 102.218C325.159 103.656 328.296 104.812 331.357 106.121C333.117 106.866 334.902 107.636 336.636 108.458C337.963 109.1 338.753 108.586 339.263 107.354C339.901 105.71 340.564 104.067 341.151 102.424C343.778 94.8749 346.379 87.3003 349.032 79.7514C350.843 74.6675 352.781 69.6092 354.592 64.4996C356.785 58.3373 358.749 52.1236 361.07 46.0126C362.218 43.0084 363.799 40.1583 365.457 37.4109C366.197 36.1785 367.472 35.1001 368.747 34.3298C376.195 29.9134 385.989 32.6608 389.916 40.3637C391.753 43.9328 391.727 47.8613 390.478 51.5587C388.131 58.5684 385.428 65.4497 382.954 72.408C380.811 78.4419 378.796 84.5273 376.654 90.5356C373.415 99.548 370.124 108.56 366.834 117.547C366.528 118.395 366.324 119.113 367.472 119.524C372.649 121.373 377.801 123.35 383.005 125.096C386.32 126.2 389.279 124.685 390.503 121.45C394.023 112.104 397.517 102.758 400.986 93.3856C404.429 84.0651 407.821 74.7445 411.239 65.4496C411.723 64.1145 412.08 62.7279 412.744 61.4955C413.509 60.0319 414.529 58.6711 415.447 57.2845C415.855 56.6683 416.391 56.1034 416.671 55.4358C417.615 53.279 419.757 51.8925 422.104 52.0465C422.41 52.0722 422.844 52.0979 423.048 51.8925C425.471 49.9667 427.945 50.4803 430.572 51.5073C433.148 52.5087 435.469 53.8182 436.999 56.1548C437.79 57.3872 438.402 58.7738 438.886 60.1603C439.32 61.4184 439.345 62.805 439.702 64.0631C440.417 66.6308 439.779 68.8133 438.453 71.0728Z" fill="#F37916"/>
<path d="M65.2631 29.7597C73.2207 29.5286 81.9179 31.3002 89.9265 35.5112C99.95 40.7749 108.341 47.99 113.748 58.2605C114.616 59.9038 115.126 61.7525 115.942 63.4215C116.375 64.3202 117.243 64.9878 117.625 65.8865C122.726 77.3382 122.063 89.3291 120.405 101.243C119.895 104.966 117.855 108.509 116.299 112.027C113.034 119.448 108.545 125.969 102.475 131.361C101.378 132.337 100.358 133.416 99.1849 134.289C97.9862 135.187 97.8076 136.291 98.2667 137.575C101.735 147.332 105.281 157.064 108.724 166.821C110.713 172.469 112.601 178.195 114.59 183.844C116.528 189.339 118.569 194.782 120.482 200.303C123.364 208.519 126.118 216.787 129.051 224.978C132.469 234.555 136.142 244.055 139.355 253.71C140.784 257.998 142.977 262.003 143.309 266.805C143.946 275.946 137.8 281.004 131.168 282.827C125.2 284.47 117.447 280.054 115.33 274.225C111.861 264.674 108.29 255.122 104.898 245.545C99.1084 229.266 93.4462 212.936 87.6566 196.657C84.3664 187.336 80.9487 178.067 77.6331 168.798C75.2101 162.045 72.8126 155.318 70.4661 148.539C69.854 146.793 69.0889 145.894 66.9719 145.894C59.3969 145.894 51.8474 145.458 44.6804 142.762C37.1309 139.912 30.5506 135.572 24.7609 129.924C19.5324 124.763 15.4516 118.934 12.493 112.207C8.84574 103.913 7.16241 95.3117 7.28993 86.1709C7.44296 75.5922 10.5291 65.9892 15.7066 57.0281C19.0223 51.3022 23.4602 46.4494 28.6122 42.2384C38.9673 33.7138 50.8272 29.657 65.2631 29.7597ZM62.6361 60.289C58.6828 59.8525 54.0663 61.5728 49.858 64.4486C43.5837 68.7879 39.1203 74.257 37.8961 82.2424C37.2329 86.5817 37.0034 90.7926 37.9726 94.9779C39.2989 100.704 42.5125 105.403 46.9504 109.177C52.8166 114.158 59.6265 116.495 67.278 115.57C73.9858 114.749 79.8265 111.77 84.3919 106.712C87.6821 103.066 90.1306 98.9321 91.1763 93.9508C92.6046 87.0952 92.069 80.5477 88.6003 74.4624C83.1677 64.9621 74.853 60.2376 62.6361 60.289Z" fill="#EA1A27"/>
</svg>
